G75*
%MOIN*%
%OFA0B0*%
%FSLAX25Y25*%
%IPPOS*%
%LPD*%
%AMOC8*
5,1,8,0,0,1.08239X$1,22.5*
%
%ADD10R,0.00060X0.00020*%
%ADD11R,0.00060X0.00020*%
%ADD12R,0.00080X0.00020*%
%ADD13R,0.00100X0.00020*%
%ADD14R,0.00100X0.00020*%
%ADD15R,0.00120X0.00020*%
%ADD16R,0.00140X0.00020*%
%ADD17R,0.00140X0.00020*%
%ADD18R,0.00180X0.00020*%
%ADD19R,0.00180X0.00020*%
%ADD20R,0.00200X0.00020*%
%ADD21R,0.00220X0.00020*%
%ADD22R,0.00220X0.00020*%
%ADD23R,0.00240X0.00020*%
%ADD24R,0.00260X0.00020*%
%ADD25R,0.00260X0.00020*%
%ADD26R,0.00300X0.00020*%
%ADD27R,0.00300X0.00020*%
%ADD28R,0.00320X0.00020*%
%ADD29R,0.00340X0.00020*%
%ADD30R,0.00340X0.00020*%
%ADD31R,0.00360X0.00020*%
%ADD32R,0.00380X0.00020*%
%ADD33R,0.00380X0.00020*%
%ADD34R,0.00420X0.00020*%
%ADD35R,0.00420X0.00020*%
%ADD36R,0.00440X0.00020*%
%ADD37R,0.00460X0.00020*%
%ADD38R,0.00460X0.00020*%
%ADD39R,0.00480X0.00020*%
%ADD40R,0.00500X0.00020*%
%ADD41R,0.00500X0.00020*%
%ADD42R,0.00540X0.00020*%
%ADD43R,0.00540X0.00020*%
%ADD44R,0.00560X0.00020*%
%ADD45R,0.00580X0.00020*%
%ADD46R,0.00620X0.00020*%
%ADD47R,0.00600X0.00020*%
%ADD48R,0.00580X0.00020*%
%ADD49R,0.00980X0.00020*%
%ADD50R,0.01000X0.00020*%
%ADD51R,0.01220X0.00020*%
%ADD52R,0.01260X0.00020*%
%ADD53R,0.01420X0.00020*%
%ADD54R,0.00880X0.00020*%
%ADD55R,0.01460X0.00020*%
%ADD56R,0.01620X0.00020*%
%ADD57R,0.01080X0.00020*%
%ADD58R,0.01640X0.00020*%
%ADD59R,0.00620X0.00020*%
%ADD60R,0.01760X0.00020*%
%ADD61R,0.01780X0.00020*%
%ADD62R,0.01800X0.00020*%
%ADD63R,0.00620X0.00020*%
%ADD64R,0.01900X0.00020*%
%ADD65R,0.01400X0.00020*%
%ADD66R,0.01940X0.00020*%
%ADD67R,0.00700X0.00020*%
%ADD68R,0.02040X0.00020*%
%ADD69R,0.00660X0.00020*%
%ADD70R,0.01540X0.00020*%
%ADD71R,0.02020X0.00020*%
%ADD72R,0.02080X0.00020*%
%ADD73R,0.00700X0.00020*%
%ADD74R,0.02160X0.00020*%
%ADD75R,0.00640X0.00020*%
%ADD76R,0.00660X0.00020*%
%ADD77R,0.01660X0.00020*%
%ADD78R,0.02200X0.00020*%
%ADD79R,0.02260X0.00020*%
%ADD80R,0.00640X0.00020*%
%ADD81R,0.02320X0.00020*%
%ADD82R,0.02380X0.00020*%
%ADD83R,0.01860X0.00020*%
%ADD84R,0.02420X0.00020*%
%ADD85R,0.02480X0.00020*%
%ADD86R,0.01960X0.00020*%
%ADD87R,0.02520X0.00020*%
%ADD88R,0.02580X0.00020*%
%ADD89R,0.02040X0.00020*%
%ADD90R,0.02620X0.00020*%
%ADD91R,0.00680X0.00020*%
%ADD92R,0.02660X0.00020*%
%ADD93R,0.02120X0.00020*%
%ADD94R,0.02700X0.00020*%
%ADD95R,0.02740X0.00020*%
%ADD96R,0.02160X0.00020*%
%ADD97R,0.02760X0.00020*%
%ADD98R,0.02800X0.00020*%
%ADD99R,0.02840X0.00020*%
%ADD100R,0.02200X0.00020*%
%ADD101R,0.02880X0.00020*%
%ADD102R,0.02920X0.00020*%
%ADD103R,0.02220X0.00020*%
%ADD104R,0.02980X0.00020*%
%ADD105R,0.03000X0.00020*%
%ADD106R,0.03060X0.00020*%
%ADD107R,0.00720X0.00020*%
%ADD108R,0.03060X0.00020*%
%ADD109R,0.02280X0.00020*%
%ADD110R,0.03080X0.00020*%
%ADD111R,0.03120X0.00020*%
%ADD112R,0.00740X0.00020*%
%ADD113R,0.03140X0.00020*%
%ADD114R,0.03160X0.00020*%
%ADD115R,0.03180X0.00020*%
%ADD116R,0.03220X0.00020*%
%ADD117R,0.02340X0.00020*%
%ADD118R,0.03260X0.00020*%
%ADD119R,0.00740X0.00020*%
%ADD120R,0.03280X0.00020*%
%ADD121R,0.02360X0.00020*%
%ADD122R,0.03340X0.00020*%
%ADD123R,0.03340X0.00020*%
%ADD124R,0.02400X0.00020*%
%ADD125R,0.03360X0.00020*%
%ADD126R,0.03400X0.00020*%
%ADD127R,0.00780X0.00020*%
%ADD128R,0.03400X0.00020*%
%ADD129R,0.02420X0.00020*%
%ADD130R,0.03440X0.00020*%
%ADD131R,0.03460X0.00020*%
%ADD132R,0.00780X0.00020*%
%ADD133R,0.03480X0.00020*%
%ADD134R,0.02440X0.00020*%
%ADD135R,0.03540X0.00020*%
%ADD136R,0.00040X0.00020*%
%ADD137R,0.03520X0.00020*%
%ADD138R,0.02460X0.00020*%
%ADD139R,0.03560X0.00020*%
%ADD140R,0.03580X0.00020*%
%ADD141R,0.03600X0.00020*%
%ADD142R,0.03660X0.00020*%
%ADD143R,0.00080X0.00020*%
%ADD144R,0.00800X0.00020*%
%ADD145R,0.03640X0.00020*%
%ADD146R,0.02500X0.00020*%
%ADD147R,0.03680X0.00020*%
%ADD148R,0.03720X0.00020*%
%ADD149R,0.00820X0.00020*%
%ADD150R,0.03680X0.00020*%
%ADD151R,0.03720X0.00020*%
%ADD152R,0.03780X0.00020*%
%ADD153R,0.00120X0.00020*%
%ADD154R,0.00820X0.00020*%
%ADD155R,0.03760X0.00020*%
%ADD156R,0.02540X0.00020*%
%ADD157R,0.03800X0.00020*%
%ADD158R,0.03820X0.00020*%
%ADD159R,0.00140X0.00020*%
%ADD160R,0.02560X0.00020*%
%ADD161R,0.01740X0.00020*%
%ADD162R,0.01740X0.00020*%
%ADD163R,0.01820X0.00020*%
%ADD164R,0.01700X0.00020*%
%ADD165R,0.01640X0.00020*%
%ADD166R,0.02580X0.00020*%
%ADD167R,0.01620X0.00020*%
%ADD168R,0.01560X0.00020*%
%ADD169R,0.01580X0.00020*%
%ADD170R,0.01620X0.00020*%
%ADD171R,0.00840X0.00020*%
%ADD172R,0.01560X0.00020*%
%ADD173R,0.01500X0.00020*%
%ADD174R,0.01480X0.00020*%
%ADD175R,0.01540X0.00020*%
%ADD176R,0.00200X0.00020*%
%ADD177R,0.00860X0.00020*%
%ADD178R,0.01440X0.00020*%
%ADD179R,0.00860X0.00020*%
%ADD180R,0.01420X0.00020*%
%ADD181R,0.01320X0.00020*%
%ADD182R,0.01400X0.00020*%
%ADD183R,0.01340X0.00020*%
%ADD184R,0.01360X0.00020*%
%ADD185R,0.01380X0.00020*%
%ADD186R,0.00220X0.00020*%
%ADD187R,0.01200X0.00020*%
%ADD188R,0.00540X0.00020*%
%ADD189R,0.01320X0.00020*%
%ADD190R,0.00240X0.00020*%
%ADD191R,0.01300X0.00020*%
%ADD192R,0.01220X0.00020*%
%ADD193R,0.01140X0.00020*%
%ADD194R,0.01320X0.00020*%
%ADD195R,0.01280X0.00020*%
%ADD196R,0.00900X0.00020*%
%ADD197R,0.00280X0.00020*%
%ADD198R,0.01160X0.00020*%
%ADD199R,0.01280X0.00020*%
%ADD200R,0.01240X0.00020*%
%ADD201R,0.01240X0.00020*%
%ADD202R,0.00280X0.00020*%
%ADD203R,0.00900X0.00020*%
%ADD204R,0.01240X0.00020*%
%ADD205R,0.01120X0.00020*%
%ADD206R,0.01040X0.00020*%
%ADD207R,0.01200X0.00020*%
%ADD208R,0.01220X0.00020*%
%ADD209R,0.01020X0.00020*%
%ADD210R,0.01220X0.00020*%
%ADD211R,0.01180X0.00020*%
%ADD212R,0.00320X0.00020*%
%ADD213R,0.01040X0.00020*%
%ADD214R,0.00980X0.00020*%
%ADD215R,0.00340X0.00020*%
%ADD216R,0.00920X0.00020*%
%ADD217R,0.01020X0.00020*%
%ADD218R,0.00960X0.00020*%
%ADD219R,0.00160X0.00020*%
%ADD220R,0.01180X0.00020*%
%ADD221R,0.01140X0.00020*%
%ADD222R,0.00340X0.00020*%
%ADD223R,0.00940X0.00020*%
%ADD224R,0.01100X0.00020*%
%ADD225R,0.00920X0.00020*%
%ADD226R,0.01120X0.00020*%
%ADD227R,0.00940X0.00020*%
%ADD228R,0.01080X0.00020*%
%ADD229R,0.00920X0.00020*%
%ADD230R,0.01100X0.00020*%
%ADD231R,0.00400X0.00020*%
%ADD232R,0.01060X0.00020*%
%ADD233R,0.00940X0.00020*%
%ADD234R,0.00880X0.00020*%
%ADD235R,0.00020X0.00020*%
%ADD236R,0.01120X0.00020*%
%ADD237R,0.00440X0.00020*%
%ADD238R,0.00420X0.00020*%
%ADD239R,0.01040X0.00020*%
%ADD240R,0.00440X0.00020*%
%ADD241R,0.01020X0.00020*%
%ADD242R,0.00840X0.00020*%
%ADD243R,0.00480X0.00020*%
%ADD244R,0.01060X0.00020*%
%ADD245R,0.00820X0.00020*%
%ADD246R,0.01040X0.00020*%
%ADD247R,0.01000X0.00020*%
%ADD248R,0.01020X0.00020*%
%ADD249R,0.00520X0.00020*%
%ADD250R,0.00940X0.00020*%
%ADD251R,0.00820X0.00020*%
%ADD252R,0.00800X0.00020*%
%ADD253R,0.00960X0.00020*%
%ADD254R,0.00540X0.00020*%
%ADD255R,0.00760X0.00020*%
%ADD256R,0.00760X0.00020*%
%ADD257R,0.00740X0.00020*%
%ADD258R,0.00600X0.00020*%
%ADD259R,0.00920X0.00020*%
%ADD260R,0.00740X0.00020*%
%ADD261R,0.00680X0.00020*%
%ADD262R,0.00840X0.00020*%
%ADD263R,0.01340X0.00020*%
%ADD264R,0.01300X0.00020*%
%ADD265R,0.00720X0.00020*%
%ADD266R,0.00720X0.00020*%
%ADD267R,0.01140X0.00020*%
%ADD268R,0.00720X0.00020*%
%ADD269R,0.00840X0.00020*%
%ADD270R,0.01140X0.00020*%
%ADD271R,0.00520X0.00020*%
%ADD272R,0.00140X0.00020*%
%ADD273R,0.00040X0.00020*%
%ADD274R,0.01260X0.00020*%
%ADD275R,0.00020X0.00020*%
%ADD276R,0.01160X0.00020*%
%ADD277R,0.01340X0.00020*%
%ADD278R,0.01340X0.00020*%
%ADD279R,0.01380X0.00020*%
%ADD280R,0.01320X0.00020*%
%ADD281R,0.01360X0.00020*%
%ADD282R,0.01420X0.00020*%
%ADD283R,0.01440X0.00020*%
%ADD284R,0.01460X0.00020*%
%ADD285R,0.01500X0.00020*%
%ADD286R,0.01520X0.00020*%
%ADD287R,0.01540X0.00020*%
%ADD288R,0.01580X0.00020*%
%ADD289R,0.01600X0.00020*%
%ADD290R,0.01660X0.00020*%
%ADD291R,0.01680X0.00020*%
%ADD292R,0.01700X0.00020*%
%ADD293R,0.00160X0.00020*%
%ADD294R,0.01720X0.00020*%
%ADD295R,0.01780X0.00020*%
%ADD296R,0.01760X0.00020*%
%ADD297R,0.01820X0.00020*%
%ADD298R,0.01860X0.00020*%
%ADD299R,0.01880X0.00020*%
%ADD300R,0.00620X0.00020*%
%ADD301R,0.01920X0.00020*%
%ADD302R,0.01940X0.00020*%
%ADD303R,0.01920X0.00020*%
%ADD304R,0.01980X0.00020*%
%ADD305R,0.01960X0.00020*%
%ADD306R,0.01980X0.00020*%
%ADD307R,0.02000X0.00020*%
%ADD308R,0.02020X0.00020*%
%ADD309R,0.02040X0.00020*%
%ADD310R,0.02060X0.00020*%
%ADD311R,0.02060X0.00020*%
%ADD312R,0.02080X0.00020*%
%ADD313R,0.02100X0.00020*%
%ADD314R,0.02120X0.00020*%
%ADD315R,0.02140X0.00020*%
%ADD316R,0.02180X0.00020*%
%ADD317R,0.02180X0.00020*%
%ADD318R,0.02220X0.00020*%
%ADD319R,0.02220X0.00020*%
%ADD320R,0.02240X0.00020*%
%ADD321R,0.02260X0.00020*%
%ADD322R,0.02280X0.00020*%
%ADD323R,0.02300X0.00020*%
%ADD324R,0.02320X0.00020*%
%ADD325R,0.02340X0.00020*%
%ADD326R,0.02440X0.00020*%
%ADD327R,0.06060X0.00020*%
%ADD328R,0.06060X0.00020*%
%ADD329R,0.02480X0.00020*%
%ADD330R,0.04980X0.00020*%
%ADD331R,0.04980X0.00020*%
%ADD332R,0.04940X0.00020*%
%ADD333R,0.06080X0.00020*%
%ADD334R,0.04920X0.00020*%
%ADD335R,0.06100X0.00020*%
%ADD336R,0.04900X0.00020*%
%ADD337R,0.04860X0.00020*%
%ADD338R,0.06100X0.00020*%
%ADD339R,0.04840X0.00020*%
%ADD340R,0.04820X0.00020*%
%ADD341R,0.04780X0.00020*%
%ADD342R,0.04760X0.00020*%
%ADD343R,0.04740X0.00020*%
%ADD344R,0.04700X0.00020*%
%ADD345R,0.04700X0.00020*%
%ADD346R,0.04660X0.00020*%
%ADD347R,0.04620X0.00020*%
%ADD348R,0.04620X0.00020*%
%ADD349R,0.04580X0.00020*%
%ADD350R,0.06080X0.00020*%
%ADD351R,0.04540X0.00020*%
%ADD352R,0.02900X0.00020*%
%ADD353R,0.01240X0.00020*%
%ADD354R,0.04540X0.00020*%
%ADD355R,0.01440X0.00020*%
%ADD356R,0.04500X0.00020*%
%ADD357R,0.04480X0.00020*%
%ADD358R,0.03480X0.00020*%
%ADD359R,0.04460X0.00020*%
%ADD360R,0.03600X0.00020*%
%ADD361R,0.04420X0.00020*%
%ADD362R,0.03700X0.00020*%
%ADD363R,0.04400X0.00020*%
%ADD364R,0.03780X0.00020*%
%ADD365R,0.04380X0.00020*%
%ADD366R,0.03860X0.00020*%
%ADD367R,0.02640X0.00020*%
%ADD368R,0.04340X0.00020*%
%ADD369R,0.03940X0.00020*%
%ADD370R,0.04320X0.00020*%
%ADD371R,0.04020X0.00020*%
%ADD372R,0.04940X0.00020*%
%ADD373R,0.04300X0.00020*%
%ADD374R,0.04080X0.00020*%
%ADD375R,0.04920X0.00020*%
%ADD376R,0.04260X0.00020*%
%ADD377R,0.04140X0.00020*%
%ADD378R,0.04200X0.00020*%
%ADD379R,0.04860X0.00020*%
%ADD380R,0.04220X0.00020*%
%ADD381R,0.04260X0.00020*%
%ADD382R,0.04820X0.00020*%
%ADD383R,0.04180X0.00020*%
%ADD384R,0.04320X0.00020*%
%ADD385R,0.04800X0.00020*%
%ADD386R,0.04180X0.00020*%
%ADD387R,0.04360X0.00020*%
%ADD388R,0.04760X0.00020*%
%ADD389R,0.04140X0.00020*%
%ADD390R,0.04420X0.00020*%
%ADD391R,0.04720X0.00020*%
%ADD392R,0.04100X0.00020*%
%ADD393R,0.04100X0.00020*%
%ADD394R,0.04520X0.00020*%
%ADD395R,0.04660X0.00020*%
%ADD396R,0.04060X0.00020*%
%ADD397R,0.04560X0.00020*%
%ADD398R,0.04620X0.00020*%
%ADD399R,0.04040X0.00020*%
%ADD400R,0.04600X0.00020*%
%ADD401R,0.04580X0.00020*%
%ADD402R,0.04020X0.00020*%
%ADD403R,0.04640X0.00020*%
%ADD404R,0.04520X0.00020*%
%ADD405R,0.03980X0.00020*%
%ADD406R,0.04680X0.00020*%
%ADD407R,0.04480X0.00020*%
%ADD408R,0.03960X0.00020*%
%ADD409R,0.04720X0.00020*%
%ADD410R,0.03940X0.00020*%
%ADD411R,0.03900X0.00020*%
%ADD412R,0.04800X0.00020*%
%ADD413R,0.03520X0.00020*%
%ADD414R,0.03880X0.00020*%
%ADD415R,0.04820X0.00020*%
%ADD416R,0.03380X0.00020*%
%ADD417R,0.03240X0.00020*%
%ADD418R,0.03820X0.00020*%
%ADD419R,0.04900X0.00020*%
%ADD420R,0.03100X0.00020*%
%ADD421R,0.04920X0.00020*%
%ADD422R,0.02920X0.00020*%
%ADD423R,0.00640X0.00020*%
%ADD424R,0.04960X0.00020*%
%ADD425R,0.02760X0.00020*%
%ADD426R,0.03740X0.00020*%
%ADD427R,0.05000X0.00020*%
%ADD428R,0.05020X0.00020*%
%ADD429R,0.03660X0.00020*%
%ADD430R,0.01820X0.00020*%
%ADD431R,0.03620X0.00020*%
%ADD432R,0.01640X0.00020*%
%ADD433R,0.03580X0.00020*%
%ADD434R,0.01600X0.00020*%
%ADD435R,0.03540X0.00020*%
%ADD436R,0.03500X0.00020*%
%ADD437R,0.03460X0.00020*%
%ADD438R,0.02020X0.00020*%
%ADD439R,0.02140X0.00020*%
%ADD440R,0.03420X0.00020*%
%ADD441R,0.02240X0.00020*%
%ADD442R,0.03380X0.00020*%
%ADD443R,0.02360X0.00020*%
%ADD444R,0.03340X0.00020*%
%ADD445R,0.02560X0.00020*%
%ADD446R,0.03300X0.00020*%
%ADD447R,0.02660X0.00020*%
%ADD448R,0.03300X0.00020*%
%ADD449R,0.02680X0.00020*%
%ADD450R,0.02780X0.00020*%
%ADD451R,0.03260X0.00020*%
%ADD452R,0.03220X0.00020*%
%ADD453R,0.02980X0.00020*%
%ADD454R,0.03180X0.00020*%
%ADD455R,0.03200X0.00020*%
%ADD456R,0.03140X0.00020*%
%ADD457R,0.03100X0.00020*%
%ADD458R,0.03080X0.00020*%
%ADD459R,0.03620X0.00020*%
%ADD460R,0.03020X0.00020*%
%ADD461R,0.02960X0.00020*%
%ADD462R,0.02740X0.00020*%
%ADD463R,0.03320X0.00020*%
%ADD464R,0.02540X0.00020*%
%ADD465R,0.02420X0.00020*%
%ADD466R,0.02320X0.00020*%
%ADD467R,0.01900X0.00020*%
%ADD468R,0.03540X0.00020*%
%ADD469R,0.01480X0.00020*%
%ADD470R,0.00040X0.00020*%
%ADD471R,0.00400X0.00020*%
%ADD472R,0.03840X0.00020*%
%ADD473R,0.03900X0.00020*%
%ADD474R,0.00560X0.00020*%
%ADD475R,0.03980X0.00020*%
%ADD476R,0.04060X0.00020*%
%ADD477R,0.04120X0.00020*%
%ADD478R,0.04280X0.00020*%
%ADD479R,0.04340X0.00020*%
%ADD480R,0.04420X0.00020*%
%ADD481R,0.04500X0.00020*%
%ADD482R,0.04560X0.00020*%
%ADD483R,0.04720X0.00020*%
%ADD484R,0.01120X0.00020*%
%ADD485R,0.01720X0.00020*%
%ADD486R,0.04940X0.00020*%
%ADD487R,0.01420X0.00020*%
%ADD488R,0.01520X0.00020*%
%ADD489R,0.02500X0.00020*%
%ADD490R,0.03020X0.00020*%
%ADD491R,0.03720X0.00020*%
%ADD492R,0.03500X0.00020*%
%ADD493R,0.03440X0.00020*%
%ADD494R,0.01680X0.00020*%
%ADD495R,0.02000X0.00020*%
%ADD496R,0.02420X0.00020*%
%ADD497R,0.02300X0.00020*%
%ADD498R,0.03540X0.00020*%
%ADD499R,0.03340X0.00020*%
%ADD500R,0.03280X0.00020*%
%ADD501R,0.02400X0.00020*%
%ADD502R,0.04320X0.00020*%
%ADD503R,0.03420X0.00020*%
%ADD504R,0.03220X0.00020*%
%ADD505R,0.04120X0.00020*%
%ADD506R,0.03200X0.00020*%
%ADD507R,0.03920X0.00020*%
%ADD508R,0.02820X0.00020*%
%ADD509R,0.02900X0.00020*%
%ADD510R,0.02740X0.00020*%
%ADD511R,0.03760X0.00020*%
%ADD512R,0.02820X0.00020*%
%ADD513R,0.02240X0.00020*%
%ADD514R,0.02640X0.00020*%
%ADD515R,0.03420X0.00020*%
%ADD516R,0.02340X0.00020*%
%ADD517R,0.02140X0.00020*%
%ADD518R,0.02920X0.00020*%
%ADD519R,0.02800X0.00020*%
%ADD520R,0.01740X0.00020*%
%ADD521R,0.00520X0.00020*%
%ADD522R,0.01840X0.00020*%
%ADD523R,0.01840X0.00020*%
%ADD524R,0.01800X0.00020*%
%ADD525R,0.00360X0.00020*%
%ADD526R,0.01520X0.00020*%
%ADD527R,0.02020X0.00020*%
%ADD528R,0.05160X0.00020*%
%ADD529R,0.05120X0.00020*%
%ADD530R,0.05100X0.00020*%
%ADD531R,0.05060X0.00020*%
%ADD532R,0.05040X0.00020*%
%ADD533R,0.04960X0.00020*%
%ADD534R,0.04940X0.00020*%
%ADD535R,0.00120X0.00020*%
%ADD536R,0.04540X0.00020*%
%ADD537R,0.04420X0.00020*%
%ADD538R,0.04120X0.00020*%
%ADD539R,0.04040X0.00020*%
%ADD540R,0.03960X0.00020*%
%ADD541R,0.03880X0.00020*%
%ADD542R,0.00020X0.00020*%
%ADD543R,0.05800X0.03300*%
%ADD544R,0.03200X0.02600*%
%ADD545R,0.02400X0.02000*%
%ADD546R,0.02600X0.03200*%
%ADD547R,0.08871X0.05131*%
%ADD548R,0.04900X0.03600*%
%ADD549R,0.03600X0.04900*%
%ADD550R,0.02572X0.02965*%
%ADD551R,0.03800X0.05800*%
%ADD552R,0.10000X0.10500*%
%ADD553C,0.01990*%
%ADD554R,0.09068X0.03556*%
%ADD555R,0.04146X0.05721*%
%ADD556R,0.01981X0.06902*%
%ADD557C,0.05131*%
%ADD558C,0.06902*%
%ADD559R,0.05524X0.11627*%
%ADD560R,0.18910X0.04737*%
%ADD561R,0.14186X0.07099*%
%ADD562R,0.04146X0.03556*%
%ADD563R,0.12611X0.04737*%
%ADD564R,0.03950X0.05524*%
%ADD565R,0.09855X0.07296*%
%ADD566R,0.03556X0.03950*%
%ADD567R,0.03950X0.09461*%
%ADD568R,0.03674X0.06706*%
%ADD569R,0.03950X0.04540*%
%ADD570R,0.03950X0.05721*%
%ADD571R,0.02965X0.02572*%
%ADD572R,0.02000X0.02400*%
%ADD573R,0.07887X0.13398*%
%ADD574R,0.03162X0.03162*%
%ADD575R,0.04737X0.03950*%
%ADD576C,0.07099*%
%ADD577C,0.10249*%
%ADD578C,0.06146*%
%ADD579C,0.13595*%
%ADD580R,0.02769X0.02375*%
%ADD581R,0.02769X0.01981*%
%ADD582C,0.07887*%
%ADD583C,0.04737*%
%ADD584R,0.07800X0.07800*%
%ADD585R,0.01981X0.06706*%
%ADD586R,0.06706X0.01981*%
%ADD587C,0.01457*%
%ADD588R,0.10236X0.10236*%
%ADD589R,0.05524X0.02965*%
%ADD590R,0.02572X0.02178*%
%ADD591R,0.02572X0.01784*%
%ADD592C,0.00039*%
%ADD593R,0.06312X0.02375*%
%ADD594C,0.05162*%
%ADD595C,0.04769*%
%ADD596C,0.08300*%
%ADD597C,0.11300*%
%ADD598R,0.06706X0.03950*%
%ADD599R,0.08280X0.06312*%
%ADD600R,0.06312X0.07887*%
%ADD601R,0.05524X0.05131*%
%ADD602C,0.08200*%
%ADD603C,0.08674*%
%ADD604R,0.04737X0.14580*%
%ADD605C,0.05524*%
%ADD606C,0.08800*%
%ADD607R,0.03150X0.01181*%
%ADD608R,0.06811X0.07402*%
%ADD609R,0.03162X0.02965*%
%ADD610R,0.05950X0.05950*%
%ADD611C,0.05950*%
%ADD612R,0.18517X0.04816*%
%ADD613C,0.25209*%
%ADD614R,0.05524X0.03556*%
%ADD615R,0.02769X0.02769*%
%ADD616C,0.24422*%
D10*
X0167828Y0323205D03*
X0167828Y0323245D03*
X0167828Y0331505D03*
X0167828Y0335045D03*
X0167828Y0335085D03*
X0183508Y0330205D03*
D11*
X0172048Y0333365D03*
X0167828Y0335025D03*
X0167828Y0335065D03*
X0163608Y0333365D03*
X0167828Y0323225D03*
X0196908Y0325265D03*
X0204508Y0326065D03*
D12*
X0172038Y0324925D03*
X0167838Y0323265D03*
X0163618Y0324925D03*
X0164998Y0329825D03*
X0163658Y0333325D03*
X0170658Y0329825D03*
D13*
X0167828Y0334945D03*
X0167828Y0334985D03*
X0167828Y0335005D03*
X0167828Y0323345D03*
X0167828Y0323305D03*
X0167828Y0323285D03*
X0204508Y0326045D03*
D14*
X0183528Y0330225D03*
X0172008Y0333325D03*
X0167828Y0334965D03*
X0167828Y0331525D03*
X0167828Y0326765D03*
X0167828Y0323325D03*
X0171988Y0324965D03*
X0163668Y0324965D03*
D15*
X0164978Y0328465D03*
X0170678Y0328465D03*
X0167838Y0323365D03*
X0167838Y0334925D03*
D16*
X0167828Y0334905D03*
X0167828Y0334885D03*
X0167828Y0334845D03*
X0167828Y0323445D03*
X0167828Y0323405D03*
X0167828Y0323385D03*
D17*
X0167828Y0323425D03*
X0171928Y0325025D03*
X0163728Y0325025D03*
X0167828Y0334865D03*
D18*
X0167828Y0334765D03*
X0171888Y0333225D03*
X0163768Y0333225D03*
X0171888Y0325065D03*
X0167828Y0323525D03*
X0167828Y0323465D03*
D19*
X0167828Y0323485D03*
X0167828Y0323505D03*
X0171908Y0325045D03*
X0167828Y0331545D03*
X0167828Y0334745D03*
X0167828Y0334785D03*
X0167828Y0334805D03*
X0163748Y0333245D03*
X0163748Y0325045D03*
X0204508Y0326005D03*
X0212388Y0325945D03*
D20*
X0204438Y0329645D03*
X0171878Y0333205D03*
X0170698Y0329805D03*
X0164958Y0329805D03*
X0163798Y0325085D03*
X0167838Y0323545D03*
D21*
X0167828Y0323565D03*
X0167828Y0323625D03*
X0167828Y0326725D03*
X0167828Y0334665D03*
X0167828Y0334725D03*
X0212388Y0325925D03*
D22*
X0196828Y0325205D03*
X0171868Y0325085D03*
X0167828Y0323605D03*
X0167828Y0323585D03*
X0163788Y0333205D03*
X0167828Y0334685D03*
X0167828Y0334705D03*
D23*
X0167838Y0334645D03*
X0163818Y0325105D03*
X0167838Y0323645D03*
D24*
X0167828Y0323665D03*
X0167828Y0323725D03*
X0167828Y0334565D03*
X0167828Y0334625D03*
D25*
X0167828Y0334605D03*
X0167828Y0334585D03*
X0171808Y0333145D03*
X0163848Y0333145D03*
X0163868Y0325145D03*
X0167828Y0323705D03*
X0167828Y0323685D03*
X0183568Y0330285D03*
X0196808Y0325185D03*
X0212388Y0325905D03*
D26*
X0212388Y0325885D03*
X0185628Y0331345D03*
X0183588Y0330305D03*
X0171768Y0333105D03*
X0170748Y0329785D03*
X0167828Y0331585D03*
X0167828Y0334485D03*
X0167828Y0334505D03*
X0164908Y0329785D03*
X0163928Y0325205D03*
X0163908Y0325185D03*
X0167828Y0323805D03*
X0167828Y0323785D03*
X0167828Y0323745D03*
X0171748Y0325185D03*
D27*
X0167828Y0323765D03*
X0167828Y0334465D03*
X0167828Y0334525D03*
D28*
X0171718Y0333065D03*
X0163938Y0333065D03*
X0167838Y0323825D03*
X0196778Y0325165D03*
D29*
X0167828Y0323905D03*
X0167828Y0323885D03*
X0167828Y0323845D03*
X0167828Y0326685D03*
X0167828Y0334385D03*
X0167828Y0334405D03*
X0167828Y0334445D03*
D30*
X0167828Y0334425D03*
X0167828Y0323865D03*
D31*
X0167838Y0323925D03*
X0171678Y0333025D03*
X0167838Y0334365D03*
X0183618Y0330325D03*
X0204438Y0329725D03*
X0204518Y0325925D03*
D32*
X0212388Y0325845D03*
X0196748Y0325145D03*
X0171648Y0325285D03*
X0167828Y0324005D03*
X0167828Y0323985D03*
X0167828Y0323945D03*
X0171648Y0333005D03*
X0167828Y0334285D03*
X0167828Y0334305D03*
X0167828Y0334345D03*
X0164008Y0333005D03*
D33*
X0163988Y0333025D03*
X0167828Y0334325D03*
X0171668Y0325265D03*
X0167828Y0323965D03*
X0163988Y0325265D03*
D34*
X0167828Y0324065D03*
X0167828Y0324025D03*
X0167828Y0326665D03*
X0167828Y0331625D03*
X0167828Y0334225D03*
X0212388Y0325825D03*
D35*
X0192968Y0331205D03*
X0183628Y0330345D03*
X0167828Y0334185D03*
X0167828Y0334205D03*
X0167828Y0334245D03*
X0167828Y0324085D03*
X0167828Y0324045D03*
D36*
X0167838Y0324105D03*
X0204518Y0325885D03*
D37*
X0196708Y0325125D03*
X0183648Y0330365D03*
X0171568Y0332925D03*
X0167828Y0334125D03*
X0167828Y0334165D03*
X0164088Y0332925D03*
X0164108Y0325365D03*
X0167828Y0324165D03*
X0167828Y0324125D03*
D38*
X0167828Y0324145D03*
X0167828Y0324185D03*
X0167828Y0326645D03*
X0167828Y0334105D03*
X0167828Y0334145D03*
D39*
X0167838Y0334085D03*
X0171518Y0332885D03*
X0171538Y0332905D03*
X0164138Y0332885D03*
X0164118Y0332905D03*
X0164118Y0325385D03*
X0167838Y0324205D03*
X0171538Y0325385D03*
X0204438Y0329785D03*
X0212398Y0325805D03*
D40*
X0167828Y0324265D03*
X0167828Y0324225D03*
X0164168Y0325425D03*
X0167828Y0334025D03*
X0167828Y0334065D03*
D41*
X0167828Y0334045D03*
X0167828Y0334005D03*
X0167828Y0331645D03*
X0171508Y0325405D03*
X0167828Y0324285D03*
X0167828Y0324245D03*
X0164148Y0325405D03*
D42*
X0164828Y0328545D03*
X0167828Y0324345D03*
X0167828Y0324305D03*
X0170828Y0328545D03*
X0167828Y0333905D03*
X0167828Y0333945D03*
D43*
X0167828Y0333925D03*
X0167828Y0333965D03*
X0167828Y0331665D03*
X0167828Y0326625D03*
X0167828Y0324365D03*
X0167828Y0324325D03*
D44*
X0167838Y0324385D03*
X0164238Y0325485D03*
X0171438Y0332805D03*
X0195858Y0324445D03*
D45*
X0192888Y0331185D03*
X0183688Y0330405D03*
X0171408Y0332785D03*
X0167828Y0333845D03*
X0167828Y0333885D03*
X0164248Y0332785D03*
X0164228Y0332805D03*
X0167828Y0326605D03*
X0167828Y0324445D03*
X0167828Y0324405D03*
X0171408Y0325505D03*
X0171428Y0325485D03*
D46*
X0185248Y0324405D03*
X0188108Y0326985D03*
X0188108Y0327005D03*
X0188108Y0327045D03*
X0188108Y0327085D03*
X0188108Y0327105D03*
X0188108Y0327145D03*
X0188108Y0327185D03*
X0188108Y0327205D03*
X0188108Y0327245D03*
X0188108Y0327285D03*
X0188108Y0327305D03*
X0188108Y0327345D03*
X0188108Y0327385D03*
X0188108Y0327405D03*
X0188108Y0327445D03*
X0188108Y0327485D03*
X0188108Y0327505D03*
X0188108Y0327545D03*
X0188108Y0327585D03*
X0188108Y0327605D03*
X0188108Y0327645D03*
X0188108Y0327685D03*
X0188108Y0327705D03*
X0188108Y0327745D03*
X0188108Y0327785D03*
X0188108Y0327805D03*
X0210148Y0324405D03*
D47*
X0202298Y0324405D03*
X0204438Y0329845D03*
X0167838Y0333805D03*
X0164258Y0325505D03*
X0167838Y0324485D03*
D48*
X0167828Y0324465D03*
X0167828Y0324425D03*
X0167828Y0333825D03*
X0167828Y0333865D03*
X0204528Y0325825D03*
X0212388Y0325765D03*
D49*
X0212148Y0325425D03*
X0211648Y0330325D03*
X0204408Y0330025D03*
X0200428Y0330225D03*
X0200288Y0325525D03*
X0202308Y0324425D03*
X0185248Y0324425D03*
X0181388Y0329165D03*
X0183828Y0330525D03*
X0181468Y0332525D03*
X0167828Y0332925D03*
X0164668Y0328625D03*
X0167828Y0325365D03*
D50*
X0170898Y0325965D03*
X0164758Y0325965D03*
X0164758Y0332325D03*
X0167838Y0332865D03*
X0170898Y0332325D03*
X0181438Y0332565D03*
X0181338Y0329125D03*
X0183558Y0327765D03*
X0183518Y0325365D03*
X0187918Y0325965D03*
X0189738Y0328825D03*
X0190918Y0330125D03*
X0200478Y0330265D03*
X0204358Y0330065D03*
X0208378Y0330325D03*
X0212058Y0325365D03*
X0210158Y0324425D03*
X0204138Y0325365D03*
X0200358Y0325465D03*
D51*
X0202308Y0324445D03*
X0189848Y0329205D03*
X0187808Y0327945D03*
X0185248Y0324445D03*
X0181008Y0328885D03*
X0181108Y0332805D03*
X0170648Y0332085D03*
D52*
X0171108Y0329605D03*
X0170588Y0326245D03*
X0167828Y0326385D03*
X0167828Y0326045D03*
X0167828Y0326005D03*
X0167828Y0325985D03*
X0165068Y0326245D03*
X0167828Y0332245D03*
X0167828Y0332285D03*
X0167828Y0332305D03*
X0183828Y0325145D03*
X0186648Y0325105D03*
X0187788Y0325685D03*
X0189868Y0329285D03*
X0191348Y0330405D03*
X0194948Y0325085D03*
X0195868Y0324505D03*
X0200868Y0330505D03*
X0211288Y0330545D03*
X0211688Y0325145D03*
X0210168Y0324445D03*
D53*
X0202308Y0324465D03*
X0185248Y0324465D03*
D54*
X0183318Y0325565D03*
X0181578Y0329365D03*
X0181698Y0332265D03*
X0181658Y0332325D03*
X0187618Y0330225D03*
X0189678Y0328565D03*
X0190678Y0329925D03*
X0194598Y0325325D03*
X0195858Y0324465D03*
X0200058Y0325765D03*
X0200198Y0330025D03*
X0204498Y0325665D03*
X0204458Y0325625D03*
X0208058Y0325625D03*
X0212378Y0325625D03*
X0211858Y0330125D03*
X0208138Y0330125D03*
X0171058Y0332465D03*
X0164598Y0332465D03*
X0171058Y0325825D03*
D55*
X0170348Y0326465D03*
X0171188Y0329565D03*
X0165308Y0326465D03*
X0184028Y0325065D03*
X0186968Y0330665D03*
X0201028Y0325065D03*
X0210168Y0324465D03*
D56*
X0202308Y0324485D03*
X0185248Y0324485D03*
X0170148Y0326645D03*
X0165508Y0326645D03*
D57*
X0164618Y0328645D03*
X0164838Y0332245D03*
X0167838Y0332685D03*
X0170818Y0332245D03*
X0171038Y0328645D03*
X0170818Y0326045D03*
X0167838Y0325605D03*
X0185658Y0328685D03*
X0187318Y0330485D03*
X0189778Y0329005D03*
X0189778Y0328985D03*
X0191078Y0330245D03*
X0192638Y0331085D03*
X0194818Y0325145D03*
X0195858Y0324485D03*
X0186838Y0325185D03*
X0204138Y0330245D03*
X0208458Y0325285D03*
X0211938Y0325285D03*
X0211478Y0330445D03*
D58*
X0210178Y0324485D03*
D59*
X0212388Y0325745D03*
X0204528Y0325805D03*
X0171368Y0325545D03*
X0167828Y0324545D03*
X0167828Y0324505D03*
X0167828Y0331685D03*
X0167828Y0333745D03*
X0167828Y0333785D03*
X0171368Y0332745D03*
X0164288Y0332745D03*
D60*
X0165678Y0331485D03*
X0169978Y0331485D03*
X0169978Y0326805D03*
X0165678Y0326805D03*
X0185258Y0324505D03*
X0195858Y0324585D03*
D61*
X0202308Y0324505D03*
X0210028Y0331105D03*
X0171308Y0329505D03*
X0165728Y0326845D03*
D62*
X0164358Y0329505D03*
X0165718Y0331445D03*
X0169938Y0331445D03*
X0169938Y0326845D03*
X0201278Y0325005D03*
X0210178Y0324505D03*
D63*
X0170868Y0329725D03*
X0167828Y0333725D03*
X0167828Y0333765D03*
X0164788Y0329725D03*
X0167828Y0324565D03*
X0167828Y0324525D03*
D64*
X0169808Y0326965D03*
X0165848Y0326965D03*
X0165848Y0331325D03*
X0169808Y0331325D03*
X0185248Y0324525D03*
X0192228Y0330765D03*
X0202308Y0324525D03*
D65*
X0203598Y0325065D03*
X0208878Y0325065D03*
X0202318Y0331165D03*
X0201018Y0330565D03*
X0195038Y0325065D03*
X0195858Y0324525D03*
X0186538Y0325065D03*
X0184018Y0328025D03*
X0170398Y0331865D03*
X0165258Y0331865D03*
D66*
X0210168Y0324525D03*
D67*
X0212388Y0325705D03*
X0212648Y0328205D03*
X0212648Y0328245D03*
X0212628Y0328385D03*
X0212628Y0328405D03*
X0212608Y0328505D03*
X0212608Y0328545D03*
X0212588Y0328605D03*
X0212588Y0328645D03*
X0212568Y0328705D03*
X0212568Y0328745D03*
X0212548Y0328785D03*
X0212548Y0328805D03*
X0212548Y0328845D03*
X0212528Y0328885D03*
X0212528Y0328905D03*
X0212508Y0328945D03*
X0212468Y0329085D03*
X0207508Y0329145D03*
X0207488Y0329105D03*
X0207488Y0329085D03*
X0207468Y0329045D03*
X0207448Y0329005D03*
X0207448Y0328985D03*
X0207428Y0328945D03*
X0207428Y0328905D03*
X0207408Y0328845D03*
X0207388Y0328805D03*
X0207388Y0328785D03*
X0207368Y0328705D03*
X0207328Y0327105D03*
X0207348Y0327005D03*
X0207348Y0326985D03*
X0207368Y0326945D03*
X0207368Y0326905D03*
X0207388Y0326845D03*
X0207408Y0326805D03*
X0207408Y0326785D03*
X0207428Y0326705D03*
X0207448Y0326645D03*
X0207468Y0326605D03*
X0207488Y0326545D03*
X0204428Y0329885D03*
X0199468Y0328805D03*
X0199448Y0328745D03*
X0199428Y0328685D03*
X0199408Y0328605D03*
X0199408Y0328585D03*
X0199388Y0328545D03*
X0199388Y0328505D03*
X0199388Y0328485D03*
X0199368Y0328445D03*
X0199368Y0328405D03*
X0199368Y0328385D03*
X0199348Y0328345D03*
X0199348Y0328305D03*
X0199348Y0328285D03*
X0199348Y0328245D03*
X0199328Y0328185D03*
X0199328Y0328145D03*
X0199328Y0328105D03*
X0199328Y0328085D03*
X0199328Y0328045D03*
X0199308Y0327845D03*
X0199308Y0327805D03*
X0199308Y0327785D03*
X0199308Y0327745D03*
X0199328Y0327605D03*
X0199328Y0327585D03*
X0199328Y0327545D03*
X0199328Y0327505D03*
X0199328Y0327485D03*
X0199328Y0327445D03*
X0199348Y0327385D03*
X0199348Y0327345D03*
X0199348Y0327305D03*
X0199368Y0327245D03*
X0199368Y0327205D03*
X0194328Y0325945D03*
X0194348Y0325845D03*
X0194368Y0325785D03*
X0194388Y0325705D03*
X0189588Y0327845D03*
X0189588Y0327885D03*
X0189588Y0327905D03*
X0190268Y0329445D03*
X0188008Y0329485D03*
X0187988Y0329545D03*
X0187968Y0329585D03*
X0187968Y0329605D03*
X0187948Y0329645D03*
X0188068Y0326585D03*
X0188068Y0326545D03*
X0187408Y0325605D03*
X0187388Y0325585D03*
X0183008Y0326345D03*
X0183008Y0326385D03*
X0183008Y0326405D03*
X0183008Y0326445D03*
X0183008Y0326485D03*
X0183008Y0326505D03*
X0183008Y0326545D03*
X0183008Y0326585D03*
X0183008Y0326605D03*
X0183008Y0326645D03*
X0183008Y0326685D03*
X0183008Y0326705D03*
X0183008Y0326745D03*
X0183008Y0326785D03*
X0183028Y0326845D03*
X0183028Y0326885D03*
X0182048Y0330305D03*
X0182068Y0330405D03*
X0182068Y0330445D03*
X0182088Y0330505D03*
X0182088Y0330545D03*
X0182088Y0330585D03*
X0182088Y0330605D03*
X0182108Y0330685D03*
X0182108Y0330705D03*
X0182108Y0330745D03*
X0182108Y0330785D03*
X0182108Y0330805D03*
X0182108Y0330845D03*
X0182108Y0330885D03*
X0182108Y0330905D03*
X0182108Y0330945D03*
X0182108Y0330985D03*
X0182108Y0331005D03*
X0182108Y0331045D03*
X0182108Y0331085D03*
X0182088Y0331185D03*
X0182088Y0331205D03*
X0182088Y0331245D03*
X0183728Y0330445D03*
X0176588Y0330445D03*
X0176588Y0330405D03*
X0176588Y0330385D03*
X0176588Y0330345D03*
X0176588Y0330305D03*
X0176588Y0330285D03*
X0176588Y0330245D03*
X0176588Y0330205D03*
X0176588Y0330185D03*
X0176588Y0330145D03*
X0176588Y0330105D03*
X0176588Y0330085D03*
X0176588Y0330045D03*
X0176588Y0330005D03*
X0176588Y0329985D03*
X0176588Y0329945D03*
X0176588Y0329905D03*
X0176588Y0329885D03*
X0176588Y0329845D03*
X0176588Y0329805D03*
X0176588Y0329785D03*
X0176588Y0329745D03*
X0176588Y0329705D03*
X0176588Y0329685D03*
X0176588Y0329645D03*
X0176588Y0329605D03*
X0176588Y0329585D03*
X0176588Y0329545D03*
X0176588Y0329505D03*
X0176588Y0329485D03*
X0176588Y0329445D03*
X0176588Y0329405D03*
X0176588Y0329385D03*
X0176588Y0329345D03*
X0176588Y0329305D03*
X0176588Y0329285D03*
X0176588Y0329245D03*
X0176588Y0329205D03*
X0176588Y0329185D03*
X0176588Y0329145D03*
X0176588Y0329105D03*
X0176588Y0329085D03*
X0176588Y0329045D03*
X0176588Y0329005D03*
X0176588Y0328985D03*
X0176588Y0328945D03*
X0176588Y0328905D03*
X0176588Y0328885D03*
X0176588Y0328845D03*
X0176588Y0328805D03*
X0176588Y0328785D03*
X0176588Y0328745D03*
X0176588Y0328705D03*
X0176588Y0328685D03*
X0176588Y0328645D03*
X0176588Y0327945D03*
X0176588Y0327905D03*
X0176588Y0327885D03*
X0176588Y0327845D03*
X0176588Y0327805D03*
X0176588Y0327785D03*
X0176588Y0327745D03*
X0176588Y0327705D03*
X0176588Y0327685D03*
X0176588Y0327645D03*
X0176588Y0327605D03*
X0176588Y0327585D03*
X0176588Y0327545D03*
X0176588Y0327505D03*
X0176588Y0327485D03*
X0176588Y0327445D03*
X0176588Y0327405D03*
X0176588Y0327385D03*
X0176588Y0327345D03*
X0176588Y0327305D03*
X0176588Y0327285D03*
X0176588Y0327245D03*
X0176588Y0327205D03*
X0176588Y0327185D03*
X0176588Y0327145D03*
X0176588Y0327105D03*
X0176588Y0327085D03*
X0176588Y0327045D03*
X0176588Y0327005D03*
X0176588Y0326985D03*
X0176588Y0326945D03*
X0176588Y0326905D03*
X0176588Y0326885D03*
X0176588Y0326845D03*
X0176588Y0326805D03*
X0176588Y0326785D03*
X0176588Y0326745D03*
X0176588Y0326705D03*
X0176588Y0326685D03*
X0176588Y0326645D03*
X0176588Y0326605D03*
X0176588Y0326585D03*
X0176588Y0326545D03*
X0176588Y0326505D03*
X0176588Y0326485D03*
X0176588Y0326445D03*
X0176588Y0326405D03*
X0176588Y0326385D03*
X0176588Y0326345D03*
X0176588Y0326305D03*
X0176588Y0326285D03*
X0176588Y0326245D03*
X0176588Y0326205D03*
X0176588Y0326185D03*
X0176588Y0326145D03*
X0176588Y0326105D03*
X0176588Y0326085D03*
X0176588Y0326045D03*
X0176588Y0326005D03*
X0176588Y0325985D03*
X0176588Y0325945D03*
X0176588Y0325905D03*
X0176588Y0325885D03*
X0176588Y0325845D03*
X0176588Y0325805D03*
X0176588Y0325785D03*
X0176588Y0325745D03*
X0176588Y0325705D03*
X0176588Y0325685D03*
X0176588Y0325645D03*
X0176588Y0325605D03*
X0176588Y0325585D03*
X0176588Y0325545D03*
X0176588Y0325505D03*
X0176588Y0325485D03*
X0176588Y0325445D03*
X0176588Y0325405D03*
X0176588Y0325385D03*
X0176588Y0325345D03*
X0176588Y0325305D03*
X0176588Y0325285D03*
X0176588Y0325245D03*
X0176588Y0325205D03*
X0176588Y0325185D03*
X0176588Y0325145D03*
X0176588Y0325105D03*
X0176588Y0325085D03*
X0176588Y0325045D03*
X0176588Y0325005D03*
X0176588Y0324985D03*
X0176588Y0324945D03*
X0176588Y0324905D03*
X0176588Y0324885D03*
X0176588Y0324845D03*
X0176588Y0324805D03*
X0176588Y0324785D03*
X0176588Y0324745D03*
X0176588Y0324705D03*
X0176588Y0324685D03*
X0176588Y0324645D03*
X0176588Y0324605D03*
X0176588Y0324585D03*
X0176588Y0324545D03*
X0171248Y0325645D03*
X0167828Y0324745D03*
X0167828Y0324705D03*
X0167828Y0324685D03*
X0164408Y0325645D03*
X0164408Y0332645D03*
X0167828Y0333545D03*
X0167828Y0333585D03*
X0167828Y0333605D03*
X0176588Y0333045D03*
X0176588Y0333005D03*
X0176588Y0332985D03*
X0176588Y0332945D03*
X0176588Y0332905D03*
X0176588Y0332885D03*
X0176588Y0332845D03*
X0176588Y0332805D03*
X0176588Y0332785D03*
X0176588Y0332745D03*
X0176588Y0332705D03*
X0176588Y0332685D03*
X0176588Y0332645D03*
X0176588Y0332605D03*
X0176588Y0332585D03*
X0176588Y0332545D03*
X0176588Y0332505D03*
X0176588Y0332485D03*
X0176588Y0332445D03*
X0176588Y0332405D03*
X0176588Y0332385D03*
X0176588Y0332345D03*
X0176588Y0332305D03*
X0176588Y0332285D03*
X0176588Y0332245D03*
X0176588Y0332205D03*
X0176588Y0332185D03*
X0176588Y0332145D03*
X0176588Y0332105D03*
X0176588Y0332085D03*
X0176588Y0332045D03*
X0176588Y0332005D03*
X0176588Y0331985D03*
X0176588Y0331945D03*
X0176588Y0331905D03*
X0176588Y0331885D03*
X0176588Y0331845D03*
X0176588Y0331805D03*
X0176588Y0331785D03*
X0176588Y0331745D03*
X0176588Y0331705D03*
X0176588Y0331685D03*
X0176588Y0331645D03*
X0176588Y0331605D03*
X0176588Y0331585D03*
X0176588Y0331545D03*
X0176588Y0331505D03*
X0176588Y0331485D03*
X0176588Y0331445D03*
X0176588Y0331405D03*
X0176588Y0331385D03*
X0176588Y0331345D03*
X0176588Y0331305D03*
X0176588Y0331285D03*
X0176588Y0331245D03*
X0176588Y0331205D03*
X0176588Y0331185D03*
X0176588Y0331145D03*
X0176588Y0331105D03*
X0176588Y0331085D03*
X0176588Y0331045D03*
X0176588Y0331005D03*
X0176588Y0330985D03*
X0176588Y0330945D03*
X0176588Y0330905D03*
X0176588Y0330885D03*
X0176588Y0330845D03*
X0176588Y0330805D03*
X0176588Y0330785D03*
X0176588Y0330745D03*
X0176588Y0330705D03*
X0176588Y0330685D03*
X0176588Y0330645D03*
X0176588Y0330605D03*
X0176588Y0330585D03*
X0176588Y0330545D03*
X0176588Y0330505D03*
X0176588Y0330485D03*
D68*
X0185258Y0324545D03*
X0192158Y0330685D03*
D69*
X0189568Y0330685D03*
X0189568Y0330705D03*
X0189568Y0330745D03*
X0189568Y0330785D03*
X0189568Y0330805D03*
X0189568Y0330845D03*
X0189568Y0330885D03*
X0189568Y0330905D03*
X0189568Y0330945D03*
X0189568Y0330985D03*
X0189568Y0331005D03*
X0189568Y0331045D03*
X0189568Y0331085D03*
X0189568Y0331105D03*
X0189568Y0331145D03*
X0189568Y0331185D03*
X0189568Y0331205D03*
X0189568Y0330645D03*
X0189568Y0330605D03*
X0189568Y0330585D03*
X0189568Y0330545D03*
X0189568Y0330505D03*
X0189568Y0330485D03*
X0189568Y0330445D03*
X0189568Y0330405D03*
X0189568Y0330385D03*
X0189568Y0330345D03*
X0189568Y0330305D03*
X0189568Y0330285D03*
X0189568Y0330245D03*
X0189568Y0330205D03*
X0189568Y0330185D03*
X0189568Y0330145D03*
X0189568Y0330105D03*
X0189568Y0330085D03*
X0189568Y0330045D03*
X0189568Y0330005D03*
X0189568Y0329985D03*
X0189568Y0329945D03*
X0189568Y0329905D03*
X0189568Y0329885D03*
X0189568Y0329845D03*
X0189568Y0329805D03*
X0189568Y0329785D03*
X0189568Y0329745D03*
X0189568Y0329705D03*
X0189568Y0329685D03*
X0189568Y0329645D03*
X0189568Y0329605D03*
X0189568Y0329585D03*
X0189568Y0329545D03*
X0189568Y0329505D03*
X0189568Y0329485D03*
X0189568Y0329445D03*
X0188088Y0329105D03*
X0188088Y0329085D03*
X0188088Y0329045D03*
X0188088Y0329005D03*
X0188088Y0328985D03*
X0188088Y0328945D03*
X0188068Y0329145D03*
X0188068Y0329185D03*
X0188068Y0329205D03*
X0188048Y0329285D03*
X0188048Y0329305D03*
X0189568Y0327605D03*
X0189568Y0327585D03*
X0189568Y0327545D03*
X0189568Y0327505D03*
X0189568Y0327485D03*
X0189568Y0327445D03*
X0189568Y0327405D03*
X0189568Y0327385D03*
X0189568Y0327345D03*
X0189568Y0327305D03*
X0189568Y0327285D03*
X0189568Y0327245D03*
X0189568Y0327205D03*
X0189568Y0327185D03*
X0189568Y0327145D03*
X0189568Y0327105D03*
X0189568Y0327085D03*
X0189568Y0327045D03*
X0189568Y0327005D03*
X0189568Y0326985D03*
X0189568Y0326945D03*
X0189568Y0326905D03*
X0189568Y0326885D03*
X0189568Y0326845D03*
X0189568Y0326805D03*
X0189568Y0326785D03*
X0189568Y0326745D03*
X0189568Y0326705D03*
X0189568Y0326685D03*
X0189568Y0326645D03*
X0189568Y0326605D03*
X0189568Y0326585D03*
X0189568Y0326545D03*
X0189568Y0326505D03*
X0189568Y0326485D03*
X0189568Y0326445D03*
X0189568Y0326405D03*
X0189568Y0326385D03*
X0189568Y0326345D03*
X0189568Y0326305D03*
X0189568Y0326285D03*
X0189568Y0326245D03*
X0189568Y0326205D03*
X0189568Y0326185D03*
X0189568Y0326145D03*
X0189568Y0326105D03*
X0189568Y0326085D03*
X0189568Y0326045D03*
X0189568Y0326005D03*
X0189568Y0325985D03*
X0189568Y0325945D03*
X0189568Y0325905D03*
X0189568Y0325885D03*
X0189568Y0325845D03*
X0189568Y0325805D03*
X0189568Y0325785D03*
X0189568Y0325745D03*
X0189568Y0325705D03*
X0189568Y0325685D03*
X0189568Y0325645D03*
X0189568Y0325605D03*
X0189568Y0325585D03*
X0189568Y0325545D03*
X0189568Y0325505D03*
X0189568Y0325485D03*
X0189568Y0325445D03*
X0189568Y0325405D03*
X0189568Y0325385D03*
X0189568Y0325345D03*
X0189568Y0325305D03*
X0189568Y0325285D03*
X0189568Y0325245D03*
X0189568Y0325205D03*
X0189568Y0325185D03*
X0189568Y0325145D03*
X0189568Y0325105D03*
X0189568Y0325085D03*
X0189568Y0325045D03*
X0189568Y0325005D03*
X0189568Y0324985D03*
X0189568Y0324945D03*
X0189568Y0324905D03*
X0189568Y0324885D03*
X0189568Y0324845D03*
X0189568Y0324805D03*
X0189568Y0324785D03*
X0189568Y0324745D03*
X0189568Y0324705D03*
X0189568Y0324685D03*
X0189568Y0324645D03*
X0189568Y0324605D03*
X0189568Y0324585D03*
X0189568Y0324545D03*
X0188088Y0326685D03*
X0188088Y0326705D03*
X0188088Y0326745D03*
X0194308Y0326185D03*
X0194308Y0326145D03*
X0194308Y0326105D03*
X0194308Y0326085D03*
X0197988Y0326085D03*
X0197988Y0326105D03*
X0197988Y0326145D03*
X0197988Y0326185D03*
X0197988Y0326205D03*
X0197988Y0326245D03*
X0197988Y0326285D03*
X0197988Y0326305D03*
X0197988Y0326345D03*
X0197988Y0326385D03*
X0197988Y0326405D03*
X0197988Y0326445D03*
X0197988Y0326485D03*
X0197988Y0326505D03*
X0197988Y0326545D03*
X0197988Y0326585D03*
X0197988Y0326605D03*
X0197988Y0326645D03*
X0197988Y0326685D03*
X0197988Y0326705D03*
X0197988Y0326745D03*
X0197988Y0326785D03*
X0197988Y0326805D03*
X0197988Y0326845D03*
X0197988Y0326885D03*
X0197988Y0326905D03*
X0197988Y0326945D03*
X0197988Y0326985D03*
X0197988Y0327005D03*
X0197988Y0327045D03*
X0197988Y0327085D03*
X0197988Y0327105D03*
X0197988Y0327145D03*
X0197988Y0327185D03*
X0197988Y0327205D03*
X0197988Y0327245D03*
X0197988Y0327285D03*
X0197988Y0327305D03*
X0197988Y0327345D03*
X0197988Y0327385D03*
X0197988Y0327405D03*
X0197988Y0327445D03*
X0197988Y0327485D03*
X0197988Y0327505D03*
X0197988Y0327545D03*
X0197988Y0327585D03*
X0197988Y0327605D03*
X0197988Y0327645D03*
X0197988Y0327685D03*
X0197988Y0327705D03*
X0197988Y0327745D03*
X0197988Y0327785D03*
X0197988Y0327805D03*
X0197988Y0327845D03*
X0197988Y0327885D03*
X0197988Y0327905D03*
X0197988Y0327945D03*
X0197988Y0327985D03*
X0197988Y0328005D03*
X0197988Y0328045D03*
X0197988Y0328085D03*
X0197988Y0328105D03*
X0197988Y0328145D03*
X0197988Y0328185D03*
X0197988Y0328205D03*
X0197988Y0328245D03*
X0197988Y0328285D03*
X0197988Y0328305D03*
X0197988Y0328345D03*
X0197988Y0328385D03*
X0197988Y0328405D03*
X0197988Y0328445D03*
X0197988Y0328485D03*
X0197988Y0328505D03*
X0197988Y0328545D03*
X0197988Y0328585D03*
X0197988Y0328605D03*
X0197988Y0328645D03*
X0197988Y0328685D03*
X0197988Y0328705D03*
X0197988Y0328745D03*
X0197988Y0328785D03*
X0197988Y0328805D03*
X0197988Y0328845D03*
X0197988Y0328885D03*
X0197988Y0328905D03*
X0197988Y0328945D03*
X0197988Y0328985D03*
X0197988Y0329005D03*
X0197988Y0329045D03*
X0197988Y0329085D03*
X0197988Y0329105D03*
X0197988Y0329145D03*
X0197988Y0329185D03*
X0197988Y0329205D03*
X0197988Y0329245D03*
X0197988Y0329285D03*
X0197988Y0329305D03*
X0197988Y0329345D03*
X0197988Y0329385D03*
X0197988Y0329405D03*
X0197988Y0329445D03*
X0197988Y0329485D03*
X0197988Y0329505D03*
X0197988Y0329545D03*
X0197988Y0329585D03*
X0197988Y0329605D03*
X0197988Y0329645D03*
X0197988Y0329685D03*
X0197988Y0329705D03*
X0197988Y0329745D03*
X0197988Y0329785D03*
X0197988Y0329805D03*
X0197988Y0329845D03*
X0197988Y0329885D03*
X0197988Y0329905D03*
X0197988Y0329945D03*
X0197988Y0329985D03*
X0197988Y0330005D03*
X0197988Y0330045D03*
X0197988Y0330085D03*
X0197988Y0330105D03*
X0197988Y0330145D03*
X0197988Y0330185D03*
X0197988Y0330205D03*
X0197988Y0330245D03*
X0197988Y0330285D03*
X0197988Y0330305D03*
X0197988Y0330345D03*
X0197988Y0330385D03*
X0197988Y0330405D03*
X0197988Y0330445D03*
X0197988Y0330485D03*
X0197988Y0330505D03*
X0197988Y0330545D03*
X0197988Y0330585D03*
X0197988Y0330605D03*
X0197988Y0330645D03*
X0197988Y0330685D03*
X0197988Y0330705D03*
X0197988Y0330745D03*
X0197988Y0330785D03*
X0197988Y0330805D03*
X0197988Y0330845D03*
X0197988Y0330885D03*
X0197988Y0330905D03*
X0197988Y0330945D03*
X0197988Y0330985D03*
X0197988Y0331005D03*
X0197988Y0331045D03*
X0197988Y0331085D03*
X0197988Y0331105D03*
X0197988Y0331145D03*
X0197988Y0331185D03*
X0197988Y0331205D03*
X0197988Y0332305D03*
X0197988Y0332345D03*
X0197988Y0332385D03*
X0197988Y0332405D03*
X0197988Y0332445D03*
X0197988Y0332485D03*
X0197988Y0332505D03*
X0197988Y0332545D03*
X0197988Y0332585D03*
X0197988Y0332605D03*
X0197988Y0332645D03*
X0197988Y0332685D03*
X0197988Y0332705D03*
X0197988Y0332745D03*
X0197988Y0332785D03*
X0197988Y0332805D03*
X0197988Y0332845D03*
X0197988Y0332885D03*
X0197988Y0332905D03*
X0197988Y0332945D03*
X0197988Y0332985D03*
X0197988Y0333005D03*
X0197988Y0333045D03*
X0197988Y0333085D03*
X0197988Y0333105D03*
X0197988Y0333145D03*
X0197988Y0333185D03*
X0197988Y0333205D03*
X0197988Y0333245D03*
X0197988Y0333285D03*
X0197988Y0333305D03*
X0197988Y0333345D03*
X0197988Y0326045D03*
X0197988Y0326005D03*
X0197988Y0325985D03*
X0197988Y0325945D03*
X0197988Y0325905D03*
X0197988Y0325885D03*
X0197988Y0325845D03*
X0197988Y0325805D03*
X0197988Y0325785D03*
X0197988Y0325745D03*
X0197988Y0325705D03*
X0197988Y0325685D03*
X0197988Y0325645D03*
X0197988Y0325605D03*
X0197988Y0325585D03*
X0197988Y0325545D03*
X0197988Y0325505D03*
X0197988Y0325485D03*
X0197988Y0325445D03*
X0197988Y0325405D03*
X0197988Y0325385D03*
X0197988Y0325345D03*
X0197988Y0325305D03*
X0197988Y0325285D03*
X0197988Y0325245D03*
X0197988Y0325205D03*
X0197988Y0325185D03*
X0197988Y0325145D03*
X0197988Y0325105D03*
X0197988Y0325085D03*
X0197988Y0325045D03*
X0197988Y0325005D03*
X0197988Y0324985D03*
X0197988Y0324945D03*
X0197988Y0324905D03*
X0197988Y0324885D03*
X0197988Y0324845D03*
X0197988Y0324805D03*
X0197988Y0324785D03*
X0197988Y0324745D03*
X0197988Y0324705D03*
X0197988Y0324685D03*
X0197988Y0324645D03*
X0197988Y0324605D03*
X0197988Y0324585D03*
X0197988Y0324545D03*
X0204528Y0325785D03*
X0205948Y0325785D03*
X0205948Y0325805D03*
X0205948Y0325845D03*
X0205948Y0325885D03*
X0205948Y0325905D03*
X0205948Y0325945D03*
X0205948Y0325985D03*
X0205948Y0326005D03*
X0205948Y0326045D03*
X0205948Y0326085D03*
X0205948Y0326105D03*
X0205948Y0326145D03*
X0205948Y0326185D03*
X0205948Y0326205D03*
X0205948Y0326245D03*
X0205948Y0326285D03*
X0205948Y0326305D03*
X0205948Y0326345D03*
X0205948Y0326385D03*
X0205948Y0326405D03*
X0205948Y0326445D03*
X0205948Y0326485D03*
X0205948Y0326505D03*
X0205948Y0326545D03*
X0205948Y0326585D03*
X0205948Y0326605D03*
X0205948Y0326645D03*
X0205948Y0326685D03*
X0205948Y0326705D03*
X0205948Y0326745D03*
X0205948Y0326785D03*
X0205948Y0326805D03*
X0205948Y0326845D03*
X0205948Y0326885D03*
X0205948Y0326905D03*
X0205948Y0326945D03*
X0205948Y0326985D03*
X0205948Y0327005D03*
X0205948Y0327045D03*
X0205948Y0327085D03*
X0205948Y0327105D03*
X0205948Y0327145D03*
X0205948Y0327185D03*
X0205948Y0327205D03*
X0205948Y0327245D03*
X0205948Y0327285D03*
X0205948Y0327305D03*
X0205948Y0327345D03*
X0205948Y0327385D03*
X0205948Y0327405D03*
X0205948Y0327445D03*
X0205948Y0327485D03*
X0205948Y0327505D03*
X0205948Y0327545D03*
X0205948Y0327585D03*
X0205948Y0327605D03*
X0205948Y0327645D03*
X0205948Y0327685D03*
X0205948Y0327705D03*
X0205948Y0327745D03*
X0205948Y0327785D03*
X0205948Y0327805D03*
X0205948Y0327845D03*
X0205948Y0327885D03*
X0205948Y0327905D03*
X0205948Y0327945D03*
X0205948Y0327985D03*
X0205948Y0328005D03*
X0205948Y0328045D03*
X0205948Y0328085D03*
X0205948Y0328105D03*
X0205948Y0328145D03*
X0205948Y0328185D03*
X0205948Y0328205D03*
X0205948Y0328245D03*
X0205948Y0328285D03*
X0205948Y0328305D03*
X0205948Y0328345D03*
X0205948Y0328385D03*
X0205948Y0328405D03*
X0205948Y0328445D03*
X0205948Y0328485D03*
X0205948Y0328505D03*
X0205948Y0328545D03*
X0205948Y0328585D03*
X0205948Y0328605D03*
X0205948Y0328645D03*
X0205948Y0328685D03*
X0205948Y0328705D03*
X0205948Y0328745D03*
X0205948Y0328785D03*
X0205948Y0328805D03*
X0205948Y0328845D03*
X0205948Y0328885D03*
X0205948Y0328905D03*
X0205948Y0328945D03*
X0205948Y0328985D03*
X0205948Y0329005D03*
X0205948Y0329045D03*
X0205948Y0329085D03*
X0205948Y0329105D03*
X0205948Y0329145D03*
X0205948Y0329185D03*
X0205948Y0329205D03*
X0205948Y0329245D03*
X0205948Y0329285D03*
X0205948Y0329305D03*
X0205948Y0329345D03*
X0205948Y0329385D03*
X0205948Y0329405D03*
X0205948Y0329445D03*
X0205948Y0329485D03*
X0205948Y0329505D03*
X0205948Y0329545D03*
X0205948Y0329585D03*
X0205948Y0329605D03*
X0205948Y0329645D03*
X0205948Y0329685D03*
X0205948Y0329705D03*
X0205948Y0329745D03*
X0205948Y0329785D03*
X0205948Y0329805D03*
X0205948Y0329845D03*
X0205948Y0329885D03*
X0205948Y0329905D03*
X0205948Y0329945D03*
X0205948Y0329985D03*
X0205948Y0330005D03*
X0205948Y0330045D03*
X0205948Y0330085D03*
X0205948Y0330105D03*
X0205948Y0330145D03*
X0205948Y0330185D03*
X0205948Y0330205D03*
X0205948Y0330245D03*
X0205948Y0330285D03*
X0205948Y0330305D03*
X0205948Y0330345D03*
X0205948Y0330385D03*
X0205948Y0330405D03*
X0205948Y0330445D03*
X0205948Y0330485D03*
X0205948Y0330505D03*
X0205948Y0330545D03*
X0205948Y0330585D03*
X0205948Y0330605D03*
X0205948Y0330645D03*
X0205948Y0330685D03*
X0205948Y0330705D03*
X0205948Y0330745D03*
X0205948Y0330785D03*
X0205948Y0330805D03*
X0205948Y0330845D03*
X0205948Y0330885D03*
X0205948Y0330905D03*
X0205948Y0330945D03*
X0205948Y0330985D03*
X0205948Y0331005D03*
X0205948Y0331045D03*
X0205948Y0331085D03*
X0205948Y0331105D03*
X0205948Y0331145D03*
X0205948Y0331185D03*
X0205948Y0331205D03*
X0205948Y0331245D03*
X0205948Y0331285D03*
X0205948Y0331305D03*
X0205948Y0331345D03*
X0205948Y0331385D03*
X0205948Y0331405D03*
X0205948Y0331445D03*
X0205948Y0331485D03*
X0205948Y0331505D03*
X0205948Y0331545D03*
X0205948Y0331585D03*
X0205948Y0331605D03*
X0205948Y0331645D03*
X0205948Y0331685D03*
X0205948Y0331705D03*
X0205948Y0331745D03*
X0205948Y0331785D03*
X0205948Y0331805D03*
X0205948Y0331845D03*
X0205948Y0331885D03*
X0205948Y0331905D03*
X0205948Y0331945D03*
X0205948Y0331985D03*
X0205948Y0332005D03*
X0205948Y0332045D03*
X0205948Y0332085D03*
X0205948Y0332105D03*
X0205948Y0332145D03*
X0205948Y0332185D03*
X0205948Y0332205D03*
X0205948Y0332245D03*
X0205948Y0332285D03*
X0205948Y0332305D03*
X0205948Y0332345D03*
X0205948Y0332385D03*
X0205948Y0332405D03*
X0205948Y0332445D03*
X0205948Y0332485D03*
X0205948Y0332505D03*
X0205948Y0332545D03*
X0205948Y0332585D03*
X0205948Y0332605D03*
X0205948Y0332645D03*
X0205948Y0332685D03*
X0205948Y0332705D03*
X0205948Y0332745D03*
X0205948Y0332785D03*
X0205948Y0332805D03*
X0205948Y0332845D03*
X0205948Y0332885D03*
X0205948Y0332905D03*
X0205948Y0332945D03*
X0205948Y0332985D03*
X0205948Y0333005D03*
X0205948Y0333045D03*
X0205948Y0333085D03*
X0205948Y0333105D03*
X0205948Y0333145D03*
X0205948Y0333185D03*
X0205948Y0333205D03*
X0205948Y0333245D03*
X0205948Y0333285D03*
X0205948Y0333305D03*
X0205948Y0333345D03*
X0205948Y0333385D03*
X0205948Y0333405D03*
X0205948Y0333445D03*
X0205948Y0333485D03*
X0205948Y0333505D03*
X0205948Y0333545D03*
X0205948Y0333585D03*
X0205948Y0333605D03*
X0205948Y0333645D03*
X0205948Y0333685D03*
X0205948Y0333705D03*
X0205948Y0333745D03*
X0205948Y0333785D03*
X0205948Y0333805D03*
X0205948Y0333845D03*
X0205948Y0333885D03*
X0205948Y0333905D03*
X0205948Y0333945D03*
X0205948Y0333985D03*
X0205948Y0334005D03*
X0205948Y0334045D03*
X0205948Y0334085D03*
X0205948Y0334105D03*
X0207288Y0328285D03*
X0205948Y0325745D03*
X0205948Y0325705D03*
X0205948Y0325685D03*
X0205948Y0325645D03*
X0205948Y0325605D03*
X0205948Y0325585D03*
X0205948Y0325545D03*
X0205948Y0325505D03*
X0205948Y0325485D03*
X0205948Y0325445D03*
X0205948Y0325405D03*
X0205948Y0325385D03*
X0205948Y0325345D03*
X0205948Y0325305D03*
X0205948Y0325285D03*
X0205948Y0325245D03*
X0205948Y0325205D03*
X0205948Y0325185D03*
X0205948Y0325145D03*
X0205948Y0325105D03*
X0205948Y0325085D03*
X0205948Y0325045D03*
X0205948Y0325005D03*
X0205948Y0324985D03*
X0205948Y0324945D03*
X0205948Y0324905D03*
X0205948Y0324885D03*
X0205948Y0324845D03*
X0205948Y0324805D03*
X0205948Y0324785D03*
X0205948Y0324745D03*
X0205948Y0324705D03*
X0205948Y0324685D03*
X0205948Y0324645D03*
X0205948Y0324605D03*
X0205948Y0324585D03*
X0205948Y0324545D03*
X0171308Y0325585D03*
X0167828Y0324645D03*
X0167828Y0324605D03*
X0167828Y0324585D03*
X0167828Y0326585D03*
X0164348Y0325585D03*
X0167828Y0331705D03*
X0167828Y0333645D03*
X0167828Y0333685D03*
X0171328Y0332705D03*
D70*
X0185608Y0331285D03*
X0195868Y0324545D03*
X0201088Y0325045D03*
X0203508Y0330585D03*
D71*
X0202308Y0324545D03*
X0169648Y0327105D03*
X0166008Y0327105D03*
X0166008Y0331185D03*
X0169648Y0331185D03*
D72*
X0210178Y0324545D03*
D73*
X0207448Y0326665D03*
X0207428Y0326725D03*
X0207408Y0326765D03*
X0207388Y0326825D03*
X0207388Y0326865D03*
X0207368Y0326925D03*
X0207348Y0327025D03*
X0207328Y0327125D03*
X0207308Y0327225D03*
X0207348Y0328625D03*
X0207368Y0328725D03*
X0207408Y0328865D03*
X0207428Y0328925D03*
X0207448Y0328965D03*
X0207468Y0329025D03*
X0204528Y0325765D03*
X0199388Y0327125D03*
X0199368Y0327225D03*
X0199348Y0327325D03*
X0199348Y0327365D03*
X0199328Y0327465D03*
X0199328Y0327525D03*
X0199328Y0327565D03*
X0199328Y0327625D03*
X0199308Y0327765D03*
X0199308Y0327825D03*
X0199328Y0328025D03*
X0199328Y0328065D03*
X0199328Y0328125D03*
X0199328Y0328165D03*
X0199348Y0328265D03*
X0199348Y0328325D03*
X0199368Y0328365D03*
X0199368Y0328425D03*
X0199388Y0328465D03*
X0199388Y0328525D03*
X0199408Y0328565D03*
X0199408Y0328625D03*
X0199428Y0328665D03*
X0199488Y0328865D03*
X0199508Y0328925D03*
X0194348Y0325865D03*
X0194348Y0325825D03*
X0194368Y0325765D03*
X0189588Y0327825D03*
X0189588Y0327865D03*
X0189588Y0327925D03*
X0188068Y0327825D03*
X0188068Y0326565D03*
X0188068Y0326525D03*
X0187368Y0325565D03*
X0188008Y0329465D03*
X0187988Y0329525D03*
X0187988Y0329565D03*
X0187948Y0329665D03*
X0190268Y0329425D03*
X0190288Y0329465D03*
X0183048Y0326965D03*
X0183028Y0326865D03*
X0183008Y0326765D03*
X0183008Y0326725D03*
X0183008Y0326665D03*
X0183008Y0326625D03*
X0183008Y0326565D03*
X0183008Y0326525D03*
X0183008Y0326465D03*
X0183008Y0326425D03*
X0183008Y0326365D03*
X0183008Y0326325D03*
X0182048Y0330325D03*
X0182068Y0330425D03*
X0182088Y0330525D03*
X0182088Y0330565D03*
X0182088Y0330625D03*
X0182108Y0330665D03*
X0182108Y0330725D03*
X0182108Y0330765D03*
X0182108Y0330825D03*
X0182108Y0330865D03*
X0182108Y0330925D03*
X0182108Y0330965D03*
X0182108Y0331025D03*
X0182108Y0331065D03*
X0182088Y0331165D03*
X0182088Y0331225D03*
X0182068Y0331365D03*
X0176588Y0331365D03*
X0176588Y0331325D03*
X0176588Y0331265D03*
X0176588Y0331225D03*
X0176588Y0331165D03*
X0176588Y0331125D03*
X0176588Y0331065D03*
X0176588Y0331025D03*
X0176588Y0330965D03*
X0176588Y0330925D03*
X0176588Y0330865D03*
X0176588Y0330825D03*
X0176588Y0330765D03*
X0176588Y0330725D03*
X0176588Y0330665D03*
X0176588Y0330625D03*
X0176588Y0330565D03*
X0176588Y0330525D03*
X0176588Y0330465D03*
X0176588Y0330425D03*
X0176588Y0330365D03*
X0176588Y0330325D03*
X0176588Y0330265D03*
X0176588Y0330225D03*
X0176588Y0330165D03*
X0176588Y0330125D03*
X0176588Y0330065D03*
X0176588Y0330025D03*
X0176588Y0329965D03*
X0176588Y0329925D03*
X0176588Y0329865D03*
X0176588Y0329825D03*
X0176588Y0329765D03*
X0176588Y0329725D03*
X0176588Y0329665D03*
X0176588Y0329625D03*
X0176588Y0329565D03*
X0176588Y0329525D03*
X0176588Y0329465D03*
X0176588Y0329425D03*
X0176588Y0329365D03*
X0176588Y0329325D03*
X0176588Y0329265D03*
X0176588Y0329225D03*
X0176588Y0329165D03*
X0176588Y0329125D03*
X0176588Y0329065D03*
X0176588Y0329025D03*
X0176588Y0328965D03*
X0176588Y0328925D03*
X0176588Y0328865D03*
X0176588Y0328825D03*
X0176588Y0328765D03*
X0176588Y0328725D03*
X0176588Y0328665D03*
X0176588Y0328625D03*
X0176588Y0327925D03*
X0176588Y0327865D03*
X0176588Y0327825D03*
X0176588Y0327765D03*
X0176588Y0327725D03*
X0176588Y0327665D03*
X0176588Y0327625D03*
X0176588Y0327565D03*
X0176588Y0327525D03*
X0176588Y0327465D03*
X0176588Y0327425D03*
X0176588Y0327365D03*
X0176588Y0327325D03*
X0176588Y0327265D03*
X0176588Y0327225D03*
X0176588Y0327165D03*
X0176588Y0327125D03*
X0176588Y0327065D03*
X0176588Y0327025D03*
X0176588Y0326965D03*
X0176588Y0326925D03*
X0176588Y0326865D03*
X0176588Y0326825D03*
X0176588Y0326765D03*
X0176588Y0326725D03*
X0176588Y0326665D03*
X0176588Y0326625D03*
X0176588Y0326565D03*
X0176588Y0326525D03*
X0176588Y0326465D03*
X0176588Y0326425D03*
X0176588Y0326365D03*
X0176588Y0326325D03*
X0176588Y0326265D03*
X0176588Y0326225D03*
X0176588Y0326165D03*
X0176588Y0326125D03*
X0176588Y0326065D03*
X0176588Y0326025D03*
X0176588Y0325965D03*
X0176588Y0325925D03*
X0176588Y0325865D03*
X0176588Y0325825D03*
X0176588Y0325765D03*
X0176588Y0325725D03*
X0176588Y0325665D03*
X0176588Y0325625D03*
X0176588Y0325565D03*
X0176588Y0325525D03*
X0176588Y0325465D03*
X0176588Y0325425D03*
X0176588Y0325365D03*
X0176588Y0325325D03*
X0176588Y0325265D03*
X0176588Y0325225D03*
X0176588Y0325165D03*
X0176588Y0325125D03*
X0176588Y0325065D03*
X0176588Y0325025D03*
X0176588Y0324965D03*
X0176588Y0324925D03*
X0176588Y0324865D03*
X0176588Y0324825D03*
X0176588Y0324765D03*
X0176588Y0324725D03*
X0176588Y0324665D03*
X0176588Y0324625D03*
X0176588Y0324565D03*
X0171268Y0325625D03*
X0167828Y0324725D03*
X0167828Y0326565D03*
X0164388Y0325625D03*
X0167828Y0333565D03*
X0176588Y0333065D03*
X0176588Y0333025D03*
X0176588Y0332965D03*
X0176588Y0332925D03*
X0176588Y0332865D03*
X0176588Y0332825D03*
X0176588Y0332765D03*
X0176588Y0332725D03*
X0176588Y0332665D03*
X0176588Y0332625D03*
X0176588Y0332565D03*
X0176588Y0332525D03*
X0176588Y0332465D03*
X0176588Y0332425D03*
X0176588Y0332365D03*
X0176588Y0332325D03*
X0176588Y0332265D03*
X0176588Y0332225D03*
X0176588Y0332165D03*
X0176588Y0332125D03*
X0176588Y0332065D03*
X0176588Y0332025D03*
X0176588Y0331965D03*
X0176588Y0331925D03*
X0176588Y0331865D03*
X0176588Y0331825D03*
X0176588Y0331765D03*
X0176588Y0331725D03*
X0176588Y0331665D03*
X0176588Y0331625D03*
X0176588Y0331565D03*
X0176588Y0331525D03*
X0176588Y0331465D03*
X0176588Y0331425D03*
X0212488Y0329025D03*
X0212508Y0328965D03*
X0212528Y0328865D03*
X0212548Y0328825D03*
X0212568Y0328765D03*
X0212568Y0328725D03*
X0212588Y0328665D03*
X0212588Y0328625D03*
X0212608Y0328565D03*
X0212608Y0328525D03*
X0212628Y0328425D03*
X0212648Y0328265D03*
X0212648Y0328225D03*
D74*
X0202298Y0324565D03*
X0185258Y0324565D03*
X0169478Y0327265D03*
X0169478Y0331025D03*
X0166178Y0331025D03*
D75*
X0164318Y0332725D03*
X0171338Y0332725D03*
X0171338Y0325565D03*
X0164318Y0325565D03*
X0188098Y0325565D03*
X0188098Y0325525D03*
X0188098Y0325465D03*
X0188098Y0325425D03*
X0188098Y0325365D03*
X0188098Y0325325D03*
X0188098Y0325265D03*
X0188098Y0325225D03*
X0188098Y0325165D03*
X0188098Y0325125D03*
X0188098Y0325065D03*
X0188098Y0325025D03*
X0188098Y0324965D03*
X0188098Y0324925D03*
X0188098Y0324865D03*
X0188098Y0324825D03*
X0188098Y0324765D03*
X0188098Y0324725D03*
X0188098Y0324665D03*
X0188098Y0324625D03*
X0188098Y0324565D03*
X0188098Y0326825D03*
X0188098Y0326865D03*
X0188098Y0326925D03*
X0188098Y0328425D03*
X0188098Y0328465D03*
X0188098Y0328525D03*
X0188098Y0328565D03*
X0188098Y0328625D03*
X0188098Y0328665D03*
X0188098Y0328725D03*
X0188098Y0328765D03*
X0188098Y0328825D03*
X0188098Y0328865D03*
X0188098Y0328925D03*
D76*
X0188088Y0328965D03*
X0188088Y0329025D03*
X0188088Y0329065D03*
X0188068Y0329125D03*
X0188068Y0329165D03*
X0189568Y0329425D03*
X0189568Y0329465D03*
X0189568Y0329525D03*
X0189568Y0329565D03*
X0189568Y0329625D03*
X0189568Y0329665D03*
X0189568Y0329725D03*
X0189568Y0329765D03*
X0189568Y0329825D03*
X0189568Y0329865D03*
X0189568Y0329925D03*
X0189568Y0329965D03*
X0189568Y0330025D03*
X0189568Y0330065D03*
X0189568Y0330125D03*
X0189568Y0330165D03*
X0189568Y0330225D03*
X0189568Y0330265D03*
X0189568Y0330325D03*
X0189568Y0330365D03*
X0189568Y0330425D03*
X0189568Y0330465D03*
X0189568Y0330525D03*
X0189568Y0330565D03*
X0189568Y0330625D03*
X0189568Y0330665D03*
X0189568Y0330725D03*
X0189568Y0330765D03*
X0189568Y0330825D03*
X0189568Y0330865D03*
X0189568Y0330925D03*
X0189568Y0330965D03*
X0189568Y0331025D03*
X0189568Y0331065D03*
X0189568Y0331125D03*
X0189568Y0331165D03*
X0189568Y0331225D03*
X0189568Y0327565D03*
X0189568Y0327525D03*
X0189568Y0327465D03*
X0189568Y0327425D03*
X0189568Y0327365D03*
X0189568Y0327325D03*
X0189568Y0327265D03*
X0189568Y0327225D03*
X0189568Y0327165D03*
X0189568Y0327125D03*
X0189568Y0327065D03*
X0189568Y0327025D03*
X0189568Y0326965D03*
X0189568Y0326925D03*
X0189568Y0326865D03*
X0189568Y0326825D03*
X0189568Y0326765D03*
X0189568Y0326725D03*
X0189568Y0326665D03*
X0189568Y0326625D03*
X0189568Y0326565D03*
X0189568Y0326525D03*
X0189568Y0326465D03*
X0189568Y0326425D03*
X0189568Y0326365D03*
X0189568Y0326325D03*
X0189568Y0326265D03*
X0189568Y0326225D03*
X0189568Y0326165D03*
X0189568Y0326125D03*
X0189568Y0326065D03*
X0189568Y0326025D03*
X0189568Y0325965D03*
X0189568Y0325925D03*
X0189568Y0325865D03*
X0189568Y0325825D03*
X0189568Y0325765D03*
X0189568Y0325725D03*
X0189568Y0325665D03*
X0189568Y0325625D03*
X0189568Y0325565D03*
X0189568Y0325525D03*
X0189568Y0325465D03*
X0189568Y0325425D03*
X0189568Y0325365D03*
X0189568Y0325325D03*
X0189568Y0325265D03*
X0189568Y0325225D03*
X0189568Y0325165D03*
X0189568Y0325125D03*
X0189568Y0325065D03*
X0189568Y0325025D03*
X0189568Y0324965D03*
X0189568Y0324925D03*
X0189568Y0324865D03*
X0189568Y0324825D03*
X0189568Y0324765D03*
X0189568Y0324725D03*
X0189568Y0324665D03*
X0189568Y0324625D03*
X0189568Y0324565D03*
X0188088Y0326725D03*
X0188088Y0326765D03*
X0183708Y0330425D03*
X0194308Y0326165D03*
X0194308Y0326125D03*
X0194308Y0326065D03*
X0197988Y0326065D03*
X0197988Y0326025D03*
X0197988Y0325965D03*
X0197988Y0325925D03*
X0197988Y0325865D03*
X0197988Y0325825D03*
X0197988Y0325765D03*
X0197988Y0325725D03*
X0197988Y0325665D03*
X0197988Y0325625D03*
X0197988Y0325565D03*
X0197988Y0325525D03*
X0197988Y0325465D03*
X0197988Y0325425D03*
X0197988Y0325365D03*
X0197988Y0325325D03*
X0197988Y0325265D03*
X0197988Y0325225D03*
X0197988Y0325165D03*
X0197988Y0325125D03*
X0197988Y0325065D03*
X0197988Y0325025D03*
X0197988Y0324965D03*
X0197988Y0324925D03*
X0197988Y0324865D03*
X0197988Y0324825D03*
X0197988Y0324765D03*
X0197988Y0324725D03*
X0197988Y0324665D03*
X0197988Y0324625D03*
X0197988Y0324565D03*
X0197988Y0326125D03*
X0197988Y0326165D03*
X0197988Y0326225D03*
X0197988Y0326265D03*
X0197988Y0326325D03*
X0197988Y0326365D03*
X0197988Y0326425D03*
X0197988Y0326465D03*
X0197988Y0326525D03*
X0197988Y0326565D03*
X0197988Y0326625D03*
X0197988Y0326665D03*
X0197988Y0326725D03*
X0197988Y0326765D03*
X0197988Y0326825D03*
X0197988Y0326865D03*
X0197988Y0326925D03*
X0197988Y0326965D03*
X0197988Y0327025D03*
X0197988Y0327065D03*
X0197988Y0327125D03*
X0197988Y0327165D03*
X0197988Y0327225D03*
X0197988Y0327265D03*
X0197988Y0327325D03*
X0197988Y0327365D03*
X0197988Y0327425D03*
X0197988Y0327465D03*
X0197988Y0327525D03*
X0197988Y0327565D03*
X0197988Y0327625D03*
X0197988Y0327665D03*
X0197988Y0327725D03*
X0197988Y0327765D03*
X0197988Y0327825D03*
X0197988Y0327865D03*
X0197988Y0327925D03*
X0197988Y0327965D03*
X0197988Y0328025D03*
X0197988Y0328065D03*
X0197988Y0328125D03*
X0197988Y0328165D03*
X0197988Y0328225D03*
X0197988Y0328265D03*
X0197988Y0328325D03*
X0197988Y0328365D03*
X0197988Y0328425D03*
X0197988Y0328465D03*
X0197988Y0328525D03*
X0197988Y0328565D03*
X0197988Y0328625D03*
X0197988Y0328665D03*
X0197988Y0328725D03*
X0197988Y0328765D03*
X0197988Y0328825D03*
X0197988Y0328865D03*
X0197988Y0328925D03*
X0197988Y0328965D03*
X0197988Y0329025D03*
X0197988Y0329065D03*
X0197988Y0329125D03*
X0197988Y0329165D03*
X0197988Y0329225D03*
X0197988Y0329265D03*
X0197988Y0329325D03*
X0197988Y0329365D03*
X0197988Y0329425D03*
X0197988Y0329465D03*
X0197988Y0329525D03*
X0197988Y0329565D03*
X0197988Y0329625D03*
X0197988Y0329665D03*
X0197988Y0329725D03*
X0197988Y0329765D03*
X0197988Y0329825D03*
X0197988Y0329865D03*
X0197988Y0329925D03*
X0197988Y0329965D03*
X0197988Y0330025D03*
X0197988Y0330065D03*
X0197988Y0330125D03*
X0197988Y0330165D03*
X0197988Y0330225D03*
X0197988Y0330265D03*
X0197988Y0330325D03*
X0197988Y0330365D03*
X0197988Y0330425D03*
X0197988Y0330465D03*
X0197988Y0330525D03*
X0197988Y0330565D03*
X0197988Y0330625D03*
X0197988Y0330665D03*
X0197988Y0330725D03*
X0197988Y0330765D03*
X0197988Y0330825D03*
X0197988Y0330865D03*
X0197988Y0330925D03*
X0197988Y0330965D03*
X0197988Y0331025D03*
X0197988Y0331065D03*
X0197988Y0331125D03*
X0197988Y0331165D03*
X0197988Y0331225D03*
X0197988Y0332325D03*
X0197988Y0332365D03*
X0197988Y0332425D03*
X0197988Y0332465D03*
X0197988Y0332525D03*
X0197988Y0332565D03*
X0197988Y0332625D03*
X0197988Y0332665D03*
X0197988Y0332725D03*
X0197988Y0332765D03*
X0197988Y0332825D03*
X0197988Y0332865D03*
X0197988Y0332925D03*
X0197988Y0332965D03*
X0197988Y0333025D03*
X0197988Y0333065D03*
X0197988Y0333125D03*
X0197988Y0333165D03*
X0197988Y0333225D03*
X0197988Y0333265D03*
X0197988Y0333325D03*
X0197988Y0333365D03*
X0204428Y0329865D03*
X0205948Y0329865D03*
X0205948Y0329825D03*
X0205948Y0329765D03*
X0205948Y0329725D03*
X0205948Y0329665D03*
X0205948Y0329625D03*
X0205948Y0329565D03*
X0205948Y0329525D03*
X0205948Y0329465D03*
X0205948Y0329425D03*
X0205948Y0329365D03*
X0205948Y0329325D03*
X0205948Y0329265D03*
X0205948Y0329225D03*
X0205948Y0329165D03*
X0205948Y0329125D03*
X0205948Y0329065D03*
X0205948Y0329025D03*
X0205948Y0328965D03*
X0205948Y0328925D03*
X0205948Y0328865D03*
X0205948Y0328825D03*
X0205948Y0328765D03*
X0205948Y0328725D03*
X0205948Y0328665D03*
X0205948Y0328625D03*
X0205948Y0328565D03*
X0205948Y0328525D03*
X0205948Y0328465D03*
X0205948Y0328425D03*
X0205948Y0328365D03*
X0205948Y0328325D03*
X0205948Y0328265D03*
X0205948Y0328225D03*
X0205948Y0328165D03*
X0205948Y0328125D03*
X0205948Y0328065D03*
X0205948Y0328025D03*
X0205948Y0327965D03*
X0205948Y0327925D03*
X0205948Y0327865D03*
X0205948Y0327825D03*
X0205948Y0327765D03*
X0205948Y0327725D03*
X0205948Y0327665D03*
X0205948Y0327625D03*
X0205948Y0327565D03*
X0205948Y0327525D03*
X0205948Y0327465D03*
X0205948Y0327425D03*
X0205948Y0327365D03*
X0205948Y0327325D03*
X0205948Y0327265D03*
X0205948Y0327225D03*
X0205948Y0327165D03*
X0205948Y0327125D03*
X0205948Y0327065D03*
X0205948Y0327025D03*
X0205948Y0326965D03*
X0205948Y0326925D03*
X0205948Y0326865D03*
X0205948Y0326825D03*
X0205948Y0326765D03*
X0205948Y0326725D03*
X0205948Y0326665D03*
X0205948Y0326625D03*
X0205948Y0326565D03*
X0205948Y0326525D03*
X0205948Y0326465D03*
X0205948Y0326425D03*
X0205948Y0326365D03*
X0205948Y0326325D03*
X0205948Y0326265D03*
X0205948Y0326225D03*
X0205948Y0326165D03*
X0205948Y0326125D03*
X0205948Y0326065D03*
X0205948Y0326025D03*
X0205948Y0325965D03*
X0205948Y0325925D03*
X0205948Y0325865D03*
X0205948Y0325825D03*
X0205948Y0325765D03*
X0205948Y0325725D03*
X0205948Y0325665D03*
X0205948Y0325625D03*
X0205948Y0325565D03*
X0205948Y0325525D03*
X0205948Y0325465D03*
X0205948Y0325425D03*
X0205948Y0325365D03*
X0205948Y0325325D03*
X0205948Y0325265D03*
X0205948Y0325225D03*
X0205948Y0325165D03*
X0205948Y0325125D03*
X0205948Y0325065D03*
X0205948Y0325025D03*
X0205948Y0324965D03*
X0205948Y0324925D03*
X0205948Y0324865D03*
X0205948Y0324825D03*
X0205948Y0324765D03*
X0205948Y0324725D03*
X0205948Y0324665D03*
X0205948Y0324625D03*
X0205948Y0324565D03*
X0207288Y0328265D03*
X0205948Y0329925D03*
X0205948Y0329965D03*
X0205948Y0330025D03*
X0205948Y0330065D03*
X0205948Y0330125D03*
X0205948Y0330165D03*
X0205948Y0330225D03*
X0205948Y0330265D03*
X0205948Y0330325D03*
X0205948Y0330365D03*
X0205948Y0330425D03*
X0205948Y0330465D03*
X0205948Y0330525D03*
X0205948Y0330565D03*
X0205948Y0330625D03*
X0205948Y0330665D03*
X0205948Y0330725D03*
X0205948Y0330765D03*
X0205948Y0330825D03*
X0205948Y0330865D03*
X0205948Y0330925D03*
X0205948Y0330965D03*
X0205948Y0331025D03*
X0205948Y0331065D03*
X0205948Y0331125D03*
X0205948Y0331165D03*
X0205948Y0331225D03*
X0205948Y0331265D03*
X0205948Y0331325D03*
X0205948Y0331365D03*
X0205948Y0331425D03*
X0205948Y0331465D03*
X0205948Y0331525D03*
X0205948Y0331565D03*
X0205948Y0331625D03*
X0205948Y0331665D03*
X0205948Y0331725D03*
X0205948Y0331765D03*
X0205948Y0331825D03*
X0205948Y0331865D03*
X0205948Y0331925D03*
X0205948Y0331965D03*
X0205948Y0332025D03*
X0205948Y0332065D03*
X0205948Y0332125D03*
X0205948Y0332165D03*
X0205948Y0332225D03*
X0205948Y0332265D03*
X0205948Y0332325D03*
X0205948Y0332365D03*
X0205948Y0332425D03*
X0205948Y0332465D03*
X0205948Y0332525D03*
X0205948Y0332565D03*
X0205948Y0332625D03*
X0205948Y0332665D03*
X0205948Y0332725D03*
X0205948Y0332765D03*
X0205948Y0332825D03*
X0205948Y0332865D03*
X0205948Y0332925D03*
X0205948Y0332965D03*
X0205948Y0333025D03*
X0205948Y0333065D03*
X0205948Y0333125D03*
X0205948Y0333165D03*
X0205948Y0333225D03*
X0205948Y0333265D03*
X0205948Y0333325D03*
X0205948Y0333365D03*
X0205948Y0333425D03*
X0205948Y0333465D03*
X0205948Y0333525D03*
X0205948Y0333565D03*
X0205948Y0333625D03*
X0205948Y0333665D03*
X0205948Y0333725D03*
X0205948Y0333765D03*
X0205948Y0333825D03*
X0205948Y0333865D03*
X0205948Y0333925D03*
X0205948Y0333965D03*
X0205948Y0334025D03*
X0205948Y0334065D03*
X0212388Y0325725D03*
X0167828Y0324625D03*
X0164788Y0328565D03*
X0167828Y0333625D03*
X0167828Y0333665D03*
D77*
X0195868Y0324565D03*
X0210028Y0331125D03*
D78*
X0210178Y0324565D03*
X0164198Y0329425D03*
D79*
X0169348Y0330905D03*
X0169388Y0327345D03*
X0185248Y0324585D03*
X0187288Y0328085D03*
X0195808Y0324745D03*
X0202308Y0324585D03*
D80*
X0196618Y0325085D03*
X0188098Y0325085D03*
X0188098Y0325105D03*
X0188098Y0325145D03*
X0188098Y0325185D03*
X0188098Y0325205D03*
X0188098Y0325245D03*
X0188098Y0325285D03*
X0188098Y0325305D03*
X0188098Y0325345D03*
X0188098Y0325385D03*
X0188098Y0325405D03*
X0188098Y0325445D03*
X0188098Y0325485D03*
X0188098Y0325505D03*
X0188098Y0325545D03*
X0188098Y0325585D03*
X0188098Y0325605D03*
X0188098Y0325045D03*
X0188098Y0325005D03*
X0188098Y0324985D03*
X0188098Y0324945D03*
X0188098Y0324905D03*
X0188098Y0324885D03*
X0188098Y0324845D03*
X0188098Y0324805D03*
X0188098Y0324785D03*
X0188098Y0324745D03*
X0188098Y0324705D03*
X0188098Y0324685D03*
X0188098Y0324645D03*
X0188098Y0324605D03*
X0188098Y0324585D03*
X0188098Y0326785D03*
X0188098Y0326805D03*
X0188098Y0326845D03*
X0188098Y0326885D03*
X0188098Y0326905D03*
X0188098Y0326945D03*
X0188098Y0328445D03*
X0188098Y0328485D03*
X0188098Y0328505D03*
X0188098Y0328545D03*
X0188098Y0328585D03*
X0188098Y0328605D03*
X0188098Y0328645D03*
X0188098Y0328685D03*
X0188098Y0328705D03*
X0188098Y0328745D03*
X0188098Y0328785D03*
X0188098Y0328805D03*
X0188098Y0328845D03*
X0188098Y0328885D03*
X0188098Y0328905D03*
X0167838Y0333705D03*
X0164338Y0332705D03*
X0164298Y0325545D03*
D81*
X0169278Y0327445D03*
X0169278Y0330845D03*
X0166378Y0330845D03*
X0195778Y0324785D03*
X0210178Y0324585D03*
D82*
X0202308Y0324605D03*
X0185248Y0324605D03*
X0169228Y0327485D03*
X0169208Y0327505D03*
X0166448Y0327505D03*
X0166428Y0327485D03*
X0166448Y0330785D03*
D83*
X0165788Y0326905D03*
X0169868Y0326905D03*
X0185708Y0328645D03*
X0187488Y0328045D03*
X0192248Y0330785D03*
X0195868Y0324605D03*
D84*
X0185568Y0331185D03*
X0169168Y0330745D03*
X0166488Y0330745D03*
X0166488Y0327545D03*
X0169168Y0327545D03*
X0210028Y0330985D03*
X0210188Y0324605D03*
D85*
X0202298Y0324625D03*
X0195698Y0324925D03*
X0185258Y0324625D03*
X0166578Y0330665D03*
D86*
X0165918Y0331265D03*
X0169738Y0331265D03*
X0169738Y0327025D03*
X0165918Y0327025D03*
X0192198Y0330725D03*
X0195878Y0324625D03*
D87*
X0195678Y0324965D03*
X0210178Y0324625D03*
X0164078Y0329365D03*
D88*
X0185248Y0324645D03*
X0195648Y0325045D03*
X0202308Y0324645D03*
X0210028Y0330945D03*
D89*
X0195878Y0324645D03*
D90*
X0210188Y0324645D03*
D91*
X0207358Y0326965D03*
X0207338Y0327065D03*
X0207318Y0327165D03*
X0207298Y0327265D03*
X0207298Y0327325D03*
X0207298Y0327365D03*
X0207278Y0327425D03*
X0207278Y0327465D03*
X0207278Y0327525D03*
X0207278Y0328165D03*
X0207278Y0328225D03*
X0207298Y0328325D03*
X0207298Y0328365D03*
X0207318Y0328425D03*
X0207318Y0328465D03*
X0207318Y0328525D03*
X0207338Y0328565D03*
X0207358Y0328665D03*
X0207378Y0328765D03*
X0207398Y0328825D03*
X0212618Y0328465D03*
X0212638Y0328365D03*
X0212638Y0328325D03*
X0212658Y0328165D03*
X0199338Y0328225D03*
X0199318Y0327965D03*
X0199318Y0327925D03*
X0199318Y0327865D03*
X0199318Y0327725D03*
X0199318Y0327665D03*
X0194298Y0327665D03*
X0194298Y0327625D03*
X0194298Y0327565D03*
X0194298Y0327525D03*
X0194298Y0327465D03*
X0194298Y0327425D03*
X0194298Y0327365D03*
X0194298Y0327325D03*
X0194298Y0327265D03*
X0194298Y0327225D03*
X0194298Y0327165D03*
X0194298Y0327125D03*
X0194298Y0327065D03*
X0194298Y0327025D03*
X0194298Y0326965D03*
X0194298Y0326925D03*
X0194298Y0326865D03*
X0194298Y0326825D03*
X0194298Y0326765D03*
X0194298Y0326725D03*
X0194298Y0326665D03*
X0194298Y0326625D03*
X0194298Y0326565D03*
X0194298Y0326525D03*
X0194298Y0326465D03*
X0194298Y0326425D03*
X0194298Y0326365D03*
X0194298Y0326325D03*
X0194298Y0326265D03*
X0194298Y0326225D03*
X0194318Y0326025D03*
X0194318Y0325965D03*
X0194338Y0325925D03*
X0194298Y0327725D03*
X0194298Y0327765D03*
X0194298Y0327825D03*
X0194298Y0327865D03*
X0194298Y0327925D03*
X0194298Y0327965D03*
X0194298Y0328025D03*
X0194298Y0328065D03*
X0194298Y0328125D03*
X0194298Y0328165D03*
X0194298Y0328225D03*
X0194298Y0328265D03*
X0194298Y0328325D03*
X0194298Y0328365D03*
X0194298Y0328425D03*
X0194298Y0328465D03*
X0194298Y0328525D03*
X0194298Y0328565D03*
X0194298Y0328625D03*
X0194298Y0328665D03*
X0194298Y0328725D03*
X0194298Y0328765D03*
X0194298Y0328825D03*
X0194298Y0328865D03*
X0194298Y0328925D03*
X0194298Y0328965D03*
X0194298Y0329025D03*
X0194298Y0329065D03*
X0194298Y0329125D03*
X0194298Y0329165D03*
X0194298Y0329225D03*
X0194298Y0329265D03*
X0194298Y0329325D03*
X0194298Y0329365D03*
X0194298Y0329425D03*
X0194298Y0329465D03*
X0194298Y0329525D03*
X0194298Y0329565D03*
X0194298Y0329625D03*
X0194298Y0329665D03*
X0194298Y0329725D03*
X0194298Y0329765D03*
X0194298Y0329825D03*
X0194298Y0329865D03*
X0194298Y0329925D03*
X0194298Y0329965D03*
X0194298Y0330025D03*
X0194298Y0330065D03*
X0194298Y0330125D03*
X0194298Y0330165D03*
X0194298Y0330225D03*
X0194298Y0330265D03*
X0194298Y0330325D03*
X0194298Y0330365D03*
X0194298Y0330425D03*
X0194298Y0330465D03*
X0194298Y0330525D03*
X0194298Y0330565D03*
X0194298Y0330625D03*
X0194298Y0331265D03*
X0194298Y0331325D03*
X0194298Y0331365D03*
X0194298Y0331425D03*
X0194298Y0331465D03*
X0194298Y0331525D03*
X0194298Y0331565D03*
X0194298Y0331625D03*
X0194298Y0331665D03*
X0194298Y0331725D03*
X0194298Y0331765D03*
X0194298Y0331825D03*
X0194298Y0331865D03*
X0194298Y0331925D03*
X0194298Y0331965D03*
X0194298Y0332025D03*
X0194298Y0332065D03*
X0194298Y0332125D03*
X0194298Y0332165D03*
X0194298Y0332225D03*
X0194298Y0332265D03*
X0194298Y0332325D03*
X0194298Y0332365D03*
X0194298Y0332425D03*
X0194298Y0332465D03*
X0194298Y0332525D03*
X0194298Y0332565D03*
X0194298Y0332625D03*
X0194298Y0332665D03*
X0194298Y0332725D03*
X0194298Y0332765D03*
X0194298Y0332825D03*
X0194298Y0332865D03*
X0194298Y0332925D03*
X0194298Y0332965D03*
X0194298Y0333025D03*
X0194298Y0333065D03*
X0194298Y0333125D03*
X0194298Y0333165D03*
X0194298Y0333225D03*
X0194298Y0333265D03*
X0194298Y0333325D03*
X0194298Y0333365D03*
X0189578Y0327765D03*
X0189578Y0327725D03*
X0189578Y0327665D03*
X0189578Y0327625D03*
X0188078Y0326665D03*
X0188078Y0326625D03*
X0188058Y0329225D03*
X0188058Y0329265D03*
X0188038Y0329325D03*
X0188038Y0329365D03*
X0188018Y0329425D03*
X0171278Y0332665D03*
X0164378Y0332665D03*
X0167838Y0324665D03*
D92*
X0185248Y0324665D03*
X0202308Y0324665D03*
X0210028Y0330925D03*
D93*
X0202318Y0331065D03*
X0195878Y0324665D03*
X0185738Y0328625D03*
X0185578Y0331225D03*
X0169518Y0327225D03*
X0166138Y0331065D03*
D94*
X0210188Y0324665D03*
D95*
X0202308Y0330945D03*
X0185248Y0324685D03*
D96*
X0195858Y0324685D03*
X0169498Y0327245D03*
X0166158Y0327245D03*
X0166158Y0331045D03*
X0169498Y0331045D03*
D97*
X0202298Y0324685D03*
D98*
X0210178Y0324685D03*
D99*
X0202298Y0324705D03*
X0185258Y0324705D03*
X0171698Y0329305D03*
X0163958Y0329305D03*
D100*
X0166218Y0330985D03*
X0169438Y0330985D03*
X0169458Y0331005D03*
X0195838Y0324705D03*
D101*
X0210178Y0324705D03*
X0171718Y0328985D03*
X0163938Y0328985D03*
D102*
X0185258Y0324725D03*
X0202298Y0324725D03*
D103*
X0195828Y0324725D03*
X0210028Y0331025D03*
X0171468Y0329425D03*
D104*
X0210188Y0324725D03*
D105*
X0202298Y0324745D03*
X0185258Y0324745D03*
X0171758Y0329005D03*
D106*
X0210188Y0324745D03*
D107*
X0207538Y0326425D03*
X0207518Y0326465D03*
X0207478Y0326565D03*
X0207478Y0329065D03*
X0207518Y0329165D03*
X0207538Y0329225D03*
X0207638Y0329425D03*
X0212378Y0329325D03*
X0212418Y0329225D03*
X0212438Y0329165D03*
X0212478Y0329065D03*
X0212518Y0328925D03*
X0199538Y0329025D03*
X0199518Y0328965D03*
X0199478Y0328825D03*
X0199438Y0328725D03*
X0199338Y0327425D03*
X0199378Y0327165D03*
X0199418Y0327025D03*
X0199418Y0326965D03*
X0199438Y0326925D03*
X0194418Y0325625D03*
X0194378Y0325725D03*
X0192818Y0331165D03*
X0187918Y0329725D03*
X0183078Y0327065D03*
X0183038Y0326925D03*
X0183018Y0326825D03*
X0183018Y0326265D03*
X0183018Y0326225D03*
X0183038Y0326165D03*
X0181978Y0330065D03*
X0182018Y0330225D03*
X0182038Y0330265D03*
X0182078Y0330465D03*
X0182078Y0331265D03*
X0182078Y0331325D03*
X0182038Y0331525D03*
X0171238Y0332625D03*
X0167838Y0333525D03*
X0164418Y0332625D03*
X0167838Y0324765D03*
D108*
X0167828Y0329125D03*
X0167828Y0329165D03*
X0171788Y0329265D03*
X0177768Y0333725D03*
X0185248Y0324765D03*
X0202308Y0330865D03*
X0163868Y0329265D03*
D109*
X0195798Y0324765D03*
D110*
X0202298Y0324765D03*
X0171798Y0329025D03*
X0163858Y0329025D03*
D111*
X0210178Y0324765D03*
D112*
X0207628Y0326245D03*
X0207528Y0326445D03*
X0207628Y0329405D03*
X0207728Y0329585D03*
X0204428Y0329905D03*
X0204528Y0325745D03*
X0199528Y0326645D03*
X0199628Y0329205D03*
X0199728Y0329405D03*
X0194428Y0325605D03*
X0194428Y0325585D03*
X0183128Y0327185D03*
X0183128Y0327205D03*
X0183028Y0326205D03*
X0182028Y0331545D03*
X0167828Y0333445D03*
X0167828Y0333485D03*
X0167828Y0333505D03*
X0167828Y0324845D03*
X0167828Y0324805D03*
X0167828Y0324785D03*
X0212328Y0329445D03*
D113*
X0202308Y0330845D03*
X0185248Y0324785D03*
D114*
X0171818Y0329245D03*
X0167838Y0329045D03*
X0163838Y0329245D03*
X0202298Y0324785D03*
X0210018Y0330785D03*
D115*
X0210188Y0324785D03*
X0177828Y0327985D03*
X0167828Y0329245D03*
D116*
X0185248Y0324805D03*
X0202308Y0324805D03*
D117*
X0195768Y0324805D03*
X0185748Y0328605D03*
X0166388Y0327445D03*
X0164148Y0328885D03*
D118*
X0210188Y0324805D03*
D119*
X0212328Y0329425D03*
X0199628Y0329225D03*
X0199528Y0326665D03*
X0190328Y0329525D03*
X0187328Y0325525D03*
X0182028Y0331565D03*
X0171228Y0325665D03*
X0167828Y0324825D03*
X0164428Y0325665D03*
X0167828Y0331725D03*
X0167828Y0333465D03*
D120*
X0163798Y0329225D03*
X0185258Y0324825D03*
X0202298Y0324825D03*
D121*
X0202318Y0331025D03*
X0195758Y0324825D03*
X0169258Y0327465D03*
X0169258Y0330825D03*
X0166398Y0330825D03*
D122*
X0210188Y0324825D03*
D123*
X0202308Y0330785D03*
X0185248Y0324845D03*
X0177908Y0328005D03*
D124*
X0169218Y0330785D03*
X0195738Y0324845D03*
D125*
X0202298Y0324845D03*
X0177918Y0333705D03*
D126*
X0171918Y0329085D03*
X0163738Y0329085D03*
X0210018Y0330705D03*
X0210198Y0324845D03*
D127*
X0207788Y0325965D03*
X0207748Y0326025D03*
X0207728Y0326065D03*
X0204528Y0325725D03*
X0204428Y0329925D03*
X0207808Y0329725D03*
X0207848Y0329765D03*
X0207888Y0329825D03*
X0212108Y0329825D03*
X0212148Y0329765D03*
X0212168Y0329725D03*
X0212208Y0329665D03*
X0199868Y0329625D03*
X0199828Y0329565D03*
X0199708Y0326265D03*
X0199728Y0326225D03*
X0199768Y0326165D03*
X0196548Y0325065D03*
X0189628Y0328225D03*
X0189628Y0328265D03*
X0190408Y0329625D03*
X0190428Y0329665D03*
X0187828Y0329925D03*
X0187808Y0329965D03*
X0187768Y0330025D03*
X0188028Y0326325D03*
X0183128Y0325865D03*
X0183188Y0327325D03*
X0183208Y0327365D03*
X0181828Y0329725D03*
X0181848Y0329765D03*
X0181888Y0331925D03*
X0171168Y0332565D03*
X0167828Y0333365D03*
X0164488Y0332565D03*
X0167828Y0324925D03*
X0167828Y0324865D03*
X0171168Y0325725D03*
D128*
X0167838Y0329425D03*
X0185258Y0324865D03*
D129*
X0195728Y0324865D03*
X0169188Y0327525D03*
X0166468Y0327525D03*
D130*
X0167838Y0328825D03*
X0202298Y0324865D03*
D131*
X0210188Y0324865D03*
X0167828Y0329465D03*
D132*
X0167828Y0331745D03*
X0167828Y0333345D03*
X0167828Y0333385D03*
X0167828Y0333405D03*
X0171148Y0332545D03*
X0164468Y0332585D03*
X0167828Y0326545D03*
X0167828Y0324905D03*
X0167828Y0324885D03*
X0171188Y0325705D03*
X0181868Y0329805D03*
X0181888Y0329845D03*
X0181908Y0331905D03*
X0181888Y0331945D03*
X0181868Y0331985D03*
X0183208Y0327345D03*
X0183168Y0327285D03*
X0183128Y0325885D03*
X0183148Y0325845D03*
X0183168Y0325805D03*
X0187228Y0325445D03*
X0188028Y0326345D03*
X0188028Y0327845D03*
X0189628Y0328245D03*
X0189628Y0328285D03*
X0190448Y0329685D03*
X0187788Y0329985D03*
X0194488Y0325485D03*
X0194508Y0325445D03*
X0199648Y0326385D03*
X0199668Y0326345D03*
X0199688Y0326305D03*
X0199688Y0326285D03*
X0199788Y0329505D03*
X0199808Y0329545D03*
X0199848Y0329585D03*
X0199848Y0329605D03*
X0207788Y0329685D03*
X0207808Y0329705D03*
X0207828Y0329745D03*
X0207868Y0329805D03*
X0207768Y0326005D03*
X0212188Y0329705D03*
X0212168Y0329745D03*
X0212128Y0329785D03*
D133*
X0202318Y0330745D03*
X0202298Y0324885D03*
X0185258Y0324885D03*
X0171938Y0329185D03*
X0163718Y0329185D03*
D134*
X0171558Y0328905D03*
X0195718Y0324885D03*
D135*
X0210188Y0324885D03*
D136*
X0172058Y0324905D03*
X0163598Y0324905D03*
X0163598Y0333385D03*
X0167838Y0335105D03*
X0172058Y0333385D03*
D137*
X0171958Y0329105D03*
X0177998Y0333685D03*
X0185258Y0324905D03*
X0163698Y0329105D03*
D138*
X0164108Y0328905D03*
X0166528Y0327585D03*
X0169128Y0327585D03*
X0169108Y0330685D03*
X0169128Y0330705D03*
X0166528Y0330705D03*
X0195708Y0324905D03*
X0202308Y0331005D03*
D139*
X0202298Y0324905D03*
X0210018Y0330645D03*
D140*
X0210188Y0324905D03*
D141*
X0202298Y0324925D03*
X0185258Y0324925D03*
X0163678Y0329165D03*
D142*
X0167828Y0329625D03*
X0167828Y0328665D03*
X0178068Y0333665D03*
X0210188Y0324925D03*
D143*
X0212378Y0325985D03*
X0204438Y0329585D03*
X0172018Y0333345D03*
X0163638Y0333345D03*
X0163638Y0324945D03*
X0172018Y0324945D03*
D144*
X0171138Y0325745D03*
X0167838Y0324945D03*
X0164518Y0325745D03*
X0164518Y0332545D03*
X0181818Y0332085D03*
X0181838Y0332045D03*
X0181858Y0332005D03*
X0181838Y0329745D03*
X0181818Y0329705D03*
X0181798Y0329685D03*
X0181778Y0329645D03*
X0181758Y0329605D03*
X0183258Y0327445D03*
X0183238Y0327405D03*
X0183218Y0327385D03*
X0183178Y0325785D03*
X0183198Y0325745D03*
X0188018Y0326285D03*
X0188018Y0326305D03*
X0189638Y0328305D03*
X0189638Y0328345D03*
X0190478Y0329705D03*
X0187778Y0330005D03*
X0187758Y0330045D03*
X0194538Y0325405D03*
X0199718Y0326245D03*
X0199738Y0326205D03*
X0199758Y0326185D03*
X0199778Y0326145D03*
X0199798Y0326105D03*
X0199818Y0326085D03*
X0199878Y0329645D03*
X0199918Y0329685D03*
X0199918Y0329705D03*
X0199958Y0329745D03*
X0207858Y0329785D03*
X0207898Y0329845D03*
X0207938Y0329885D03*
X0207778Y0325985D03*
X0207798Y0325945D03*
X0207838Y0325905D03*
X0207878Y0325845D03*
X0212118Y0329805D03*
X0212098Y0329845D03*
X0212058Y0329885D03*
D145*
X0185858Y0328445D03*
X0185258Y0324945D03*
D146*
X0195688Y0324945D03*
D147*
X0202298Y0324945D03*
X0167838Y0329645D03*
D148*
X0210198Y0324945D03*
D149*
X0207888Y0325825D03*
X0207968Y0329925D03*
X0212028Y0329925D03*
X0199968Y0329765D03*
X0199828Y0326065D03*
X0194568Y0325365D03*
X0190488Y0329725D03*
X0190528Y0329765D03*
X0183268Y0327465D03*
X0183188Y0325765D03*
X0181728Y0329565D03*
X0181768Y0329625D03*
X0181828Y0332065D03*
X0181788Y0332125D03*
X0181768Y0332165D03*
X0171128Y0332525D03*
X0167828Y0333265D03*
X0167828Y0333325D03*
X0164528Y0332525D03*
X0167828Y0325025D03*
X0167828Y0324965D03*
X0171128Y0325765D03*
D150*
X0185258Y0324965D03*
D151*
X0202298Y0324965D03*
D152*
X0210188Y0324965D03*
X0185868Y0328425D03*
X0167828Y0328565D03*
X0167828Y0329725D03*
D153*
X0171978Y0333305D03*
X0163678Y0333305D03*
X0163678Y0324985D03*
X0171978Y0324985D03*
X0196878Y0325245D03*
X0204438Y0329605D03*
D154*
X0204428Y0329945D03*
X0207988Y0329945D03*
X0211988Y0329985D03*
X0207928Y0325785D03*
X0199888Y0325985D03*
X0199868Y0326005D03*
X0199988Y0329785D03*
X0192768Y0331145D03*
X0187728Y0330085D03*
X0187188Y0325405D03*
X0183228Y0325705D03*
X0183288Y0327485D03*
X0167828Y0325005D03*
X0167828Y0324985D03*
X0167828Y0333285D03*
X0167828Y0333305D03*
D155*
X0167838Y0329705D03*
X0185258Y0324985D03*
D156*
X0195668Y0324985D03*
D157*
X0202298Y0324985D03*
X0185258Y0325005D03*
D158*
X0185468Y0330905D03*
X0167828Y0329745D03*
X0167828Y0328545D03*
X0210188Y0324985D03*
D159*
X0171948Y0325005D03*
X0163708Y0325005D03*
D160*
X0185758Y0328585D03*
X0195658Y0325005D03*
X0202318Y0330985D03*
D161*
X0203348Y0325005D03*
X0192308Y0330845D03*
X0184148Y0330685D03*
X0170008Y0331505D03*
X0165648Y0331505D03*
X0165668Y0326785D03*
X0170008Y0326785D03*
D162*
X0209128Y0325005D03*
D163*
X0211228Y0325005D03*
X0192268Y0330805D03*
X0169888Y0326885D03*
X0165768Y0326885D03*
X0165768Y0331405D03*
D164*
X0164388Y0328765D03*
X0170068Y0326725D03*
X0170028Y0331525D03*
X0184188Y0325025D03*
X0187568Y0328025D03*
D165*
X0186358Y0325025D03*
X0191758Y0330565D03*
X0170138Y0331625D03*
D166*
X0195648Y0325025D03*
D167*
X0201168Y0325025D03*
X0170128Y0326665D03*
X0165528Y0326665D03*
X0165528Y0331625D03*
D168*
X0165418Y0326565D03*
X0203458Y0325025D03*
X0211038Y0330625D03*
D169*
X0209008Y0325025D03*
X0184148Y0328065D03*
D170*
X0211348Y0325025D03*
D171*
X0207958Y0325745D03*
X0204518Y0325705D03*
X0199958Y0325885D03*
X0199938Y0325905D03*
X0199918Y0325945D03*
X0200038Y0329845D03*
X0208018Y0329985D03*
X0208038Y0330005D03*
X0211938Y0330045D03*
X0212018Y0329945D03*
X0190598Y0329845D03*
X0190558Y0329805D03*
X0190538Y0329785D03*
X0189658Y0328445D03*
X0187998Y0326205D03*
X0187158Y0325385D03*
X0183258Y0325645D03*
X0183238Y0325685D03*
X0183298Y0327505D03*
X0183338Y0327545D03*
X0181718Y0329545D03*
X0181758Y0332185D03*
X0181738Y0332205D03*
X0171098Y0332505D03*
X0170938Y0329685D03*
X0171098Y0325785D03*
X0167838Y0325045D03*
X0164558Y0325785D03*
X0164718Y0329685D03*
X0164558Y0332505D03*
X0167838Y0333245D03*
D172*
X0165458Y0331685D03*
X0165438Y0331705D03*
X0164438Y0329545D03*
X0165438Y0326585D03*
X0170198Y0326605D03*
X0170218Y0326585D03*
X0180618Y0328705D03*
X0184098Y0325045D03*
X0187638Y0328005D03*
X0186898Y0330685D03*
X0191698Y0330545D03*
D173*
X0192428Y0330945D03*
X0186468Y0325045D03*
X0170308Y0326505D03*
X0210028Y0331145D03*
D174*
X0208938Y0325045D03*
X0203538Y0325045D03*
X0201078Y0330585D03*
X0184038Y0330645D03*
X0184078Y0328045D03*
X0180838Y0332945D03*
X0170318Y0331785D03*
X0165338Y0331785D03*
X0165358Y0326505D03*
D175*
X0170228Y0331705D03*
X0211428Y0325045D03*
D176*
X0183558Y0330265D03*
X0163778Y0325065D03*
D177*
X0164608Y0325825D03*
X0167828Y0325125D03*
X0167828Y0325065D03*
X0167828Y0331765D03*
X0167828Y0333165D03*
X0167828Y0333225D03*
X0181728Y0332225D03*
X0181628Y0329425D03*
X0183348Y0327565D03*
X0187128Y0325365D03*
X0187988Y0326165D03*
X0187988Y0327865D03*
X0189668Y0328525D03*
X0190608Y0329865D03*
X0187668Y0330165D03*
X0200108Y0329925D03*
X0200148Y0329965D03*
X0199968Y0325865D03*
X0200008Y0325825D03*
X0204428Y0329965D03*
X0208048Y0330025D03*
X0208088Y0330065D03*
X0211928Y0330065D03*
X0208028Y0325665D03*
D178*
X0211498Y0325065D03*
X0192458Y0330965D03*
X0170358Y0331825D03*
X0165298Y0331825D03*
D179*
X0167828Y0333185D03*
X0167828Y0333205D03*
X0170948Y0328605D03*
X0171068Y0325805D03*
X0167828Y0325105D03*
X0167828Y0325085D03*
X0164588Y0325805D03*
X0164708Y0328605D03*
X0181648Y0329445D03*
X0181688Y0329505D03*
X0183368Y0327585D03*
X0183288Y0325605D03*
X0183308Y0325585D03*
X0187988Y0326185D03*
X0189668Y0328485D03*
X0189668Y0328505D03*
X0187648Y0330185D03*
X0187628Y0330205D03*
X0181708Y0332245D03*
X0181688Y0332285D03*
X0181668Y0332305D03*
X0200088Y0329905D03*
X0200128Y0329945D03*
X0199988Y0325845D03*
X0200028Y0325805D03*
X0204508Y0325685D03*
X0207988Y0325705D03*
X0208008Y0325685D03*
X0208068Y0330045D03*
X0208108Y0330085D03*
X0208128Y0330105D03*
X0211908Y0330085D03*
X0212388Y0325645D03*
D180*
X0203628Y0330545D03*
X0183968Y0325085D03*
X0165288Y0326445D03*
D181*
X0186598Y0325085D03*
X0189898Y0329345D03*
X0203698Y0325105D03*
D182*
X0200978Y0325085D03*
X0192478Y0330985D03*
X0187018Y0330645D03*
X0171158Y0328705D03*
X0170418Y0326405D03*
X0165238Y0326405D03*
X0164498Y0328705D03*
X0165238Y0331885D03*
X0170418Y0331885D03*
D183*
X0170488Y0331945D03*
X0165168Y0331945D03*
X0170488Y0326345D03*
X0180848Y0328805D03*
X0183968Y0328005D03*
X0180968Y0332885D03*
X0189908Y0329385D03*
X0192508Y0331005D03*
X0200968Y0330545D03*
X0203648Y0325085D03*
X0211608Y0325105D03*
D184*
X0208818Y0325085D03*
X0208838Y0330585D03*
X0200918Y0325105D03*
X0189918Y0329405D03*
X0183918Y0325105D03*
X0171138Y0329585D03*
X0167838Y0326245D03*
X0165178Y0326345D03*
X0164518Y0329585D03*
D185*
X0165208Y0331905D03*
X0167828Y0331945D03*
X0167828Y0331985D03*
X0167828Y0332005D03*
X0170448Y0331905D03*
X0170448Y0326385D03*
X0167828Y0326345D03*
X0167828Y0326305D03*
X0167828Y0326285D03*
X0165228Y0326385D03*
X0180808Y0328785D03*
X0180928Y0332905D03*
X0191528Y0330485D03*
X0211188Y0330585D03*
X0211548Y0325085D03*
D186*
X0204508Y0325985D03*
X0171848Y0325105D03*
X0170708Y0328485D03*
X0164948Y0328485D03*
X0163808Y0333185D03*
X0171848Y0333185D03*
D187*
X0170658Y0332105D03*
X0167838Y0332405D03*
X0165018Y0332085D03*
X0164998Y0332105D03*
X0164998Y0326185D03*
X0167838Y0325885D03*
X0170658Y0326185D03*
X0181038Y0328905D03*
X0183918Y0330585D03*
X0181138Y0332785D03*
X0183758Y0325185D03*
X0187818Y0325745D03*
X0189838Y0329185D03*
X0194898Y0325105D03*
X0200718Y0325205D03*
X0203898Y0330405D03*
D188*
X0196668Y0325105D03*
X0183668Y0330385D03*
X0171468Y0325445D03*
X0164188Y0325445D03*
X0212388Y0325785D03*
D189*
X0208778Y0325105D03*
X0203718Y0330505D03*
X0191438Y0330445D03*
D190*
X0204438Y0329665D03*
X0171818Y0333165D03*
X0167838Y0331565D03*
X0163838Y0333165D03*
X0163838Y0325125D03*
X0171818Y0325125D03*
D191*
X0167828Y0326125D03*
X0167828Y0332165D03*
X0181008Y0332865D03*
X0180888Y0328825D03*
X0183868Y0325125D03*
X0189888Y0329325D03*
X0208788Y0330565D03*
X0211248Y0330565D03*
X0211648Y0325125D03*
D192*
X0189848Y0329225D03*
X0187808Y0325725D03*
X0186708Y0325125D03*
D193*
X0183688Y0325225D03*
X0187848Y0327925D03*
X0187268Y0330525D03*
X0192608Y0331065D03*
X0194848Y0325125D03*
X0208548Y0325225D03*
X0211848Y0325225D03*
D194*
X0200878Y0325125D03*
X0200918Y0330525D03*
X0170518Y0331965D03*
X0167838Y0332125D03*
X0167838Y0326165D03*
D195*
X0167838Y0326065D03*
X0167838Y0332225D03*
X0170578Y0332025D03*
X0187778Y0325665D03*
X0191398Y0330425D03*
X0192538Y0331025D03*
X0203798Y0330465D03*
X0203738Y0325125D03*
X0208738Y0325125D03*
D196*
X0208108Y0325585D03*
X0204428Y0325605D03*
X0204408Y0325585D03*
X0200128Y0325685D03*
X0200108Y0325705D03*
X0200268Y0330085D03*
X0204408Y0329985D03*
X0208168Y0330145D03*
X0208208Y0330185D03*
X0211788Y0330205D03*
X0211808Y0330185D03*
X0211848Y0330145D03*
X0212328Y0325585D03*
X0189688Y0328605D03*
X0187968Y0326105D03*
X0183388Y0325485D03*
X0183368Y0325505D03*
X0183428Y0327645D03*
X0181568Y0329345D03*
X0181528Y0329305D03*
X0183808Y0330505D03*
X0181608Y0332385D03*
X0181588Y0332405D03*
X0171028Y0325845D03*
X0167828Y0325205D03*
X0167828Y0325185D03*
X0167828Y0325145D03*
X0167828Y0326505D03*
X0164628Y0325845D03*
X0167828Y0333085D03*
X0167828Y0333105D03*
D197*
X0167838Y0334545D03*
X0163898Y0333105D03*
X0167838Y0326705D03*
X0171798Y0325145D03*
X0204438Y0329685D03*
D198*
X0200758Y0330445D03*
X0200658Y0325245D03*
X0203858Y0325185D03*
X0203898Y0325205D03*
X0208578Y0325205D03*
X0208618Y0325185D03*
X0208658Y0330505D03*
X0187838Y0325785D03*
X0186758Y0325145D03*
X0183758Y0327905D03*
X0181098Y0328945D03*
X0170698Y0326145D03*
X0167838Y0325785D03*
X0164958Y0326145D03*
X0164958Y0332145D03*
X0167838Y0332505D03*
D199*
X0170558Y0332005D03*
X0171118Y0328685D03*
X0165098Y0332005D03*
X0181038Y0332845D03*
X0183958Y0330605D03*
X0187118Y0330605D03*
X0189878Y0329305D03*
X0180938Y0328845D03*
X0200838Y0325145D03*
D200*
X0203778Y0325145D03*
D201*
X0208698Y0325145D03*
X0208738Y0330545D03*
X0203838Y0330445D03*
X0191318Y0330385D03*
X0189858Y0329245D03*
X0187158Y0330585D03*
X0187798Y0325705D03*
X0170598Y0332045D03*
X0165058Y0332045D03*
X0164558Y0329605D03*
D202*
X0163878Y0333125D03*
X0171778Y0333125D03*
X0171778Y0325165D03*
X0163878Y0325165D03*
X0204518Y0325965D03*
D203*
X0204388Y0325565D03*
X0208128Y0325565D03*
X0212308Y0325565D03*
X0211828Y0330165D03*
X0208188Y0330165D03*
X0200248Y0330065D03*
X0200088Y0325725D03*
X0200148Y0325665D03*
X0189688Y0328625D03*
X0187588Y0330265D03*
X0187968Y0326125D03*
X0187068Y0325325D03*
X0183348Y0325525D03*
X0183408Y0327625D03*
X0181548Y0329325D03*
X0181628Y0332365D03*
X0171008Y0325865D03*
X0167828Y0325165D03*
X0164648Y0325865D03*
X0164648Y0332425D03*
X0167828Y0333065D03*
X0167828Y0333125D03*
D204*
X0170618Y0332065D03*
X0165038Y0332065D03*
X0165038Y0326225D03*
X0170618Y0326225D03*
X0183798Y0325165D03*
X0200798Y0325165D03*
D205*
X0189798Y0329065D03*
X0187858Y0325825D03*
X0186798Y0325165D03*
D206*
X0194778Y0325165D03*
X0204078Y0325325D03*
D207*
X0203818Y0325165D03*
X0208658Y0325165D03*
X0208698Y0330525D03*
X0200798Y0330465D03*
X0191278Y0330365D03*
X0187198Y0330565D03*
D208*
X0203868Y0330425D03*
X0211328Y0330525D03*
X0211728Y0325165D03*
X0167828Y0325925D03*
X0167828Y0325965D03*
X0167828Y0332325D03*
X0167828Y0332365D03*
D209*
X0181408Y0332585D03*
X0181308Y0329105D03*
X0183608Y0327805D03*
X0187908Y0325945D03*
X0189748Y0328885D03*
X0194748Y0325185D03*
X0200508Y0330285D03*
X0204108Y0325345D03*
D210*
X0200768Y0325185D03*
X0200828Y0330485D03*
X0192568Y0331045D03*
X0183828Y0327945D03*
X0170628Y0326205D03*
X0167828Y0326405D03*
X0167828Y0325945D03*
X0167828Y0325905D03*
X0165028Y0326205D03*
X0167828Y0331885D03*
X0167828Y0332345D03*
X0167828Y0332385D03*
D211*
X0167828Y0332445D03*
X0167828Y0332485D03*
X0167828Y0325845D03*
X0167828Y0325805D03*
X0183728Y0325205D03*
X0187228Y0330545D03*
X0189828Y0329145D03*
X0191248Y0330345D03*
X0202308Y0331185D03*
X0203948Y0330385D03*
X0211368Y0330505D03*
X0211808Y0325205D03*
X0211768Y0325185D03*
D212*
X0204518Y0325945D03*
X0204438Y0329705D03*
X0171738Y0333085D03*
X0163918Y0333085D03*
X0171738Y0325205D03*
D213*
X0183578Y0325305D03*
X0186878Y0325205D03*
X0187378Y0330445D03*
D214*
X0187448Y0330385D03*
X0189728Y0328805D03*
X0189728Y0328785D03*
X0190888Y0330105D03*
X0187928Y0326005D03*
X0187928Y0325985D03*
X0186948Y0325245D03*
X0183488Y0325385D03*
X0183468Y0325405D03*
X0183528Y0327745D03*
X0181408Y0329185D03*
X0170928Y0332345D03*
X0167828Y0331805D03*
X0167828Y0332885D03*
X0167828Y0332905D03*
X0167828Y0332945D03*
X0164728Y0332345D03*
X0167828Y0325405D03*
X0167828Y0325385D03*
X0167828Y0325345D03*
X0170928Y0325945D03*
X0194728Y0325205D03*
X0200308Y0325505D03*
X0200328Y0325485D03*
X0204168Y0325385D03*
X0204188Y0325405D03*
X0204388Y0330045D03*
X0200448Y0330245D03*
X0208348Y0330305D03*
X0211668Y0330305D03*
X0212168Y0325445D03*
D215*
X0212388Y0325865D03*
X0171708Y0325225D03*
X0163948Y0325225D03*
D216*
X0167838Y0325225D03*
X0171018Y0332425D03*
X0183438Y0327665D03*
X0190718Y0329965D03*
X0192718Y0331125D03*
X0204338Y0325525D03*
D217*
X0200408Y0325425D03*
X0208348Y0325365D03*
X0189748Y0328865D03*
X0187408Y0330425D03*
X0186908Y0325225D03*
D218*
X0186978Y0325265D03*
X0187938Y0326025D03*
X0189718Y0328765D03*
X0190838Y0330065D03*
X0187478Y0330365D03*
X0194698Y0325225D03*
X0204218Y0325425D03*
X0208278Y0325425D03*
X0212198Y0325465D03*
X0211718Y0330265D03*
X0208298Y0330265D03*
X0170998Y0328625D03*
X0170938Y0325925D03*
X0167838Y0325325D03*
X0164718Y0325925D03*
X0164718Y0332365D03*
X0167838Y0332965D03*
X0170958Y0332365D03*
D219*
X0171938Y0333265D03*
X0167838Y0334825D03*
X0163718Y0333265D03*
X0196858Y0325225D03*
X0204438Y0329625D03*
D220*
X0200688Y0325225D03*
X0191208Y0330325D03*
X0189828Y0329165D03*
X0187828Y0325765D03*
X0183788Y0327925D03*
X0181068Y0328925D03*
X0181168Y0332765D03*
X0170688Y0332125D03*
X0167828Y0331865D03*
X0167828Y0332425D03*
X0167828Y0332465D03*
X0164968Y0332125D03*
X0164588Y0328665D03*
X0164988Y0326165D03*
X0167828Y0325865D03*
X0167828Y0325825D03*
X0170688Y0326165D03*
X0171068Y0328665D03*
D221*
X0170728Y0326125D03*
X0167828Y0326425D03*
X0167828Y0325765D03*
X0167828Y0325725D03*
X0167828Y0332525D03*
X0167828Y0332565D03*
X0170728Y0332165D03*
X0164928Y0332165D03*
X0181128Y0328965D03*
X0200628Y0325265D03*
X0203928Y0325225D03*
X0204028Y0330325D03*
D222*
X0171688Y0325245D03*
X0170748Y0328505D03*
X0164908Y0328505D03*
X0163968Y0325245D03*
X0163968Y0333045D03*
D223*
X0167828Y0333045D03*
X0167828Y0333005D03*
X0167828Y0332985D03*
X0167828Y0325305D03*
X0167828Y0325285D03*
X0167828Y0325245D03*
X0183428Y0325445D03*
X0200228Y0325585D03*
X0200328Y0330145D03*
X0212228Y0325485D03*
D224*
X0208548Y0330445D03*
X0204088Y0330285D03*
X0200648Y0330385D03*
X0200568Y0325305D03*
X0203968Y0325245D03*
X0187868Y0325845D03*
X0183668Y0325245D03*
X0183728Y0327885D03*
X0181188Y0329005D03*
X0181288Y0332685D03*
X0187288Y0330505D03*
X0170768Y0332205D03*
X0167828Y0331845D03*
X0167828Y0332605D03*
X0167828Y0332645D03*
X0164888Y0332205D03*
X0164888Y0326085D03*
X0167828Y0326445D03*
X0167828Y0325685D03*
X0167828Y0325645D03*
X0170768Y0326085D03*
D225*
X0167838Y0331785D03*
X0187538Y0330305D03*
X0190738Y0329985D03*
X0187038Y0325305D03*
X0194678Y0325245D03*
X0200278Y0330105D03*
X0204318Y0325505D03*
X0208138Y0325545D03*
X0208238Y0330205D03*
X0208278Y0330245D03*
D226*
X0208518Y0325245D03*
X0211878Y0325245D03*
X0200678Y0330405D03*
X0191138Y0330285D03*
X0167838Y0332585D03*
X0164918Y0326105D03*
D227*
X0167828Y0325265D03*
X0167828Y0333025D03*
X0181528Y0332465D03*
X0187528Y0330325D03*
X0208228Y0325465D03*
D228*
X0203998Y0325265D03*
X0200538Y0325325D03*
X0200618Y0330365D03*
X0204118Y0330265D03*
X0208518Y0330425D03*
X0187878Y0325865D03*
X0183638Y0325265D03*
X0183698Y0327865D03*
X0181218Y0329025D03*
X0181318Y0332665D03*
X0170798Y0332225D03*
X0164858Y0332225D03*
D229*
X0189698Y0328665D03*
X0194658Y0325265D03*
X0208158Y0325525D03*
X0208258Y0330225D03*
X0211758Y0330225D03*
D230*
X0211908Y0325265D03*
X0208488Y0325265D03*
X0191108Y0330265D03*
X0189788Y0329025D03*
X0183888Y0330565D03*
X0170788Y0326065D03*
X0167828Y0325665D03*
X0167828Y0325625D03*
X0164868Y0326065D03*
X0167828Y0332625D03*
X0167828Y0332665D03*
D231*
X0164038Y0332985D03*
X0171638Y0332985D03*
X0171618Y0325305D03*
X0164038Y0325305D03*
X0164018Y0325285D03*
X0204518Y0325905D03*
X0204438Y0329745D03*
D232*
X0204188Y0330205D03*
X0200588Y0330345D03*
X0200508Y0325345D03*
X0204028Y0325285D03*
X0204048Y0325305D03*
X0208428Y0325305D03*
X0211968Y0325305D03*
X0208488Y0330405D03*
X0189768Y0328945D03*
X0187888Y0325885D03*
X0183608Y0325285D03*
X0183668Y0327845D03*
X0181248Y0329045D03*
X0181348Y0332645D03*
X0167828Y0332705D03*
X0167828Y0332745D03*
X0167828Y0325585D03*
X0167828Y0325545D03*
X0164848Y0326045D03*
D233*
X0164688Y0325905D03*
X0164668Y0325885D03*
X0170968Y0325905D03*
X0170988Y0325885D03*
X0170968Y0332385D03*
X0164688Y0332385D03*
X0164668Y0332405D03*
X0181548Y0332445D03*
X0181508Y0329285D03*
X0181468Y0329245D03*
X0183488Y0327705D03*
X0187008Y0325285D03*
X0187948Y0326045D03*
X0187948Y0327885D03*
X0189708Y0328705D03*
X0190768Y0330005D03*
X0190808Y0330045D03*
X0200208Y0325605D03*
X0200268Y0325545D03*
X0204288Y0325485D03*
X0208188Y0325505D03*
X0208208Y0325485D03*
X0212248Y0325505D03*
X0211748Y0330245D03*
X0204408Y0330005D03*
X0202308Y0331205D03*
D234*
X0200218Y0330045D03*
X0200178Y0330005D03*
X0200158Y0329985D03*
X0200038Y0325785D03*
X0200078Y0325745D03*
X0204478Y0325645D03*
X0208038Y0325645D03*
X0208078Y0325605D03*
X0212358Y0325605D03*
X0211878Y0330105D03*
X0210018Y0331205D03*
X0194638Y0325285D03*
X0194618Y0325305D03*
X0189678Y0328545D03*
X0189678Y0328585D03*
X0190638Y0329885D03*
X0190658Y0329905D03*
X0190698Y0329945D03*
X0187598Y0330245D03*
X0187978Y0326145D03*
X0187098Y0325345D03*
X0183338Y0325545D03*
X0183378Y0327605D03*
X0181598Y0329385D03*
X0181618Y0329405D03*
X0181638Y0332345D03*
X0171038Y0332445D03*
X0167838Y0333145D03*
X0164618Y0332445D03*
D235*
X0167828Y0335145D03*
X0167828Y0326785D03*
X0196928Y0325285D03*
D236*
X0200598Y0325285D03*
X0204058Y0330305D03*
X0189798Y0329045D03*
X0181158Y0328985D03*
X0181258Y0332705D03*
X0170758Y0332185D03*
D237*
X0170798Y0328525D03*
X0164858Y0328525D03*
X0164058Y0325325D03*
X0204438Y0329765D03*
D238*
X0171608Y0332965D03*
X0164048Y0332965D03*
X0171608Y0325325D03*
D239*
X0170838Y0332265D03*
X0167838Y0331825D03*
X0164818Y0332265D03*
X0181358Y0332625D03*
X0183638Y0327825D03*
X0183558Y0325325D03*
X0187898Y0325925D03*
X0189758Y0328925D03*
X0200558Y0330325D03*
X0204238Y0330165D03*
X0208398Y0325325D03*
X0211998Y0325325D03*
D240*
X0171578Y0325345D03*
X0164078Y0325345D03*
X0164078Y0332945D03*
X0171578Y0332945D03*
D241*
X0170888Y0332305D03*
X0167828Y0332785D03*
X0167828Y0332805D03*
X0167828Y0332845D03*
X0167828Y0325485D03*
X0167828Y0325445D03*
X0170868Y0325985D03*
X0164788Y0325985D03*
X0181388Y0332605D03*
X0183528Y0325345D03*
X0200428Y0325405D03*
X0200528Y0330305D03*
X0204268Y0330145D03*
X0208368Y0325345D03*
X0212028Y0325345D03*
X0211568Y0330385D03*
D242*
X0211978Y0330005D03*
X0200078Y0329885D03*
X0194578Y0325345D03*
X0187678Y0330145D03*
X0183778Y0330485D03*
X0181678Y0329485D03*
X0181778Y0332145D03*
X0171078Y0332485D03*
X0164578Y0332485D03*
D243*
X0171558Y0325365D03*
X0204518Y0325865D03*
D244*
X0200488Y0325365D03*
X0204168Y0330225D03*
X0211508Y0330425D03*
X0191048Y0330225D03*
X0189768Y0328965D03*
X0187348Y0330465D03*
X0181268Y0329065D03*
X0170828Y0326025D03*
X0167828Y0325565D03*
X0167828Y0325525D03*
X0164828Y0326025D03*
X0167828Y0332725D03*
X0167828Y0332765D03*
D245*
X0181808Y0332105D03*
X0181748Y0329585D03*
X0187708Y0330105D03*
X0189648Y0328405D03*
X0189648Y0328385D03*
X0190508Y0329745D03*
X0188008Y0326245D03*
X0194548Y0325385D03*
X0199848Y0326045D03*
X0200008Y0329805D03*
X0207948Y0329905D03*
X0207848Y0325885D03*
X0207908Y0325805D03*
X0212048Y0329905D03*
D246*
X0211538Y0330405D03*
X0208458Y0330385D03*
X0204218Y0330185D03*
X0200458Y0325385D03*
X0191018Y0330205D03*
X0190998Y0330185D03*
X0189758Y0328905D03*
X0187898Y0327905D03*
X0187898Y0325905D03*
X0183858Y0330545D03*
X0181298Y0329085D03*
X0171018Y0329645D03*
X0170858Y0332285D03*
X0164798Y0332285D03*
X0164638Y0329645D03*
X0164798Y0326005D03*
X0167838Y0325505D03*
X0170858Y0326005D03*
D247*
X0164738Y0325945D03*
X0164778Y0332305D03*
X0181458Y0332545D03*
X0181358Y0329145D03*
X0183578Y0327785D03*
X0187438Y0330405D03*
X0189738Y0328845D03*
X0190938Y0330145D03*
X0192678Y0331105D03*
X0200378Y0325445D03*
X0204338Y0330085D03*
X0204318Y0330105D03*
X0208398Y0330345D03*
X0211618Y0330345D03*
X0212118Y0325405D03*
X0212098Y0325385D03*
X0208318Y0325385D03*
X0208298Y0325405D03*
D248*
X0208428Y0330365D03*
X0211588Y0330365D03*
X0204288Y0330125D03*
X0190968Y0330165D03*
X0167828Y0332825D03*
X0167828Y0326465D03*
X0167828Y0325465D03*
X0167828Y0325425D03*
D249*
X0171498Y0325425D03*
X0171498Y0332865D03*
X0164158Y0332865D03*
D250*
X0164668Y0329665D03*
X0170988Y0329665D03*
X0181448Y0329225D03*
X0181488Y0329265D03*
X0183508Y0327725D03*
X0183408Y0325465D03*
X0183448Y0325425D03*
X0187948Y0326065D03*
X0189708Y0328725D03*
X0190788Y0330025D03*
X0185608Y0331325D03*
X0181568Y0332425D03*
X0200308Y0330125D03*
X0200348Y0330165D03*
X0200188Y0325625D03*
X0200248Y0325565D03*
X0204268Y0325465D03*
X0212268Y0325525D03*
D251*
X0212008Y0329965D03*
X0199848Y0326025D03*
X0189648Y0328365D03*
X0188008Y0326265D03*
X0187208Y0325425D03*
X0183248Y0325665D03*
X0183208Y0325725D03*
X0183248Y0327425D03*
X0164548Y0325765D03*
D252*
X0164498Y0325725D03*
X0181798Y0329665D03*
X0181878Y0331965D03*
X0181838Y0332025D03*
X0187738Y0330065D03*
X0189638Y0328325D03*
X0194498Y0325465D03*
X0194518Y0325425D03*
X0199798Y0326125D03*
X0199898Y0329665D03*
X0199938Y0329725D03*
X0207918Y0329865D03*
X0207818Y0325925D03*
X0207858Y0325865D03*
X0212398Y0325665D03*
X0212078Y0329865D03*
X0183158Y0325825D03*
D253*
X0181438Y0329205D03*
X0181518Y0332485D03*
X0181498Y0332505D03*
X0187498Y0330345D03*
X0189718Y0328745D03*
X0190858Y0330085D03*
X0200378Y0330185D03*
X0200398Y0330205D03*
X0204238Y0325445D03*
X0208258Y0325445D03*
X0208318Y0330285D03*
X0211698Y0330285D03*
X0167838Y0326485D03*
D254*
X0171448Y0325465D03*
X0164208Y0325465D03*
X0164208Y0332825D03*
X0171448Y0332825D03*
D255*
X0167838Y0333425D03*
X0181918Y0331865D03*
X0181938Y0331825D03*
X0181958Y0331765D03*
X0181978Y0331725D03*
X0181938Y0329965D03*
X0181918Y0329925D03*
X0181898Y0329865D03*
X0181878Y0329825D03*
X0183758Y0330465D03*
X0183158Y0327265D03*
X0183138Y0327225D03*
X0183078Y0326025D03*
X0183098Y0325965D03*
X0183118Y0325925D03*
X0187258Y0325465D03*
X0188038Y0326365D03*
X0189618Y0328165D03*
X0190358Y0329565D03*
X0187878Y0329825D03*
X0187858Y0329865D03*
X0194458Y0325525D03*
X0199538Y0326625D03*
X0199558Y0326565D03*
X0199578Y0326525D03*
X0199598Y0326465D03*
X0199618Y0326425D03*
X0199658Y0326365D03*
X0199678Y0326325D03*
X0199738Y0329425D03*
X0199758Y0329465D03*
X0199798Y0329525D03*
X0207718Y0329565D03*
X0207758Y0329625D03*
X0207778Y0329665D03*
X0207638Y0326225D03*
X0207698Y0326125D03*
X0212258Y0329565D03*
X0212238Y0329625D03*
D256*
X0212238Y0329605D03*
X0212258Y0329585D03*
X0212278Y0329545D03*
X0212298Y0329505D03*
X0212218Y0329645D03*
X0212198Y0329685D03*
X0207758Y0329645D03*
X0207738Y0329605D03*
X0207698Y0329545D03*
X0207678Y0329505D03*
X0207658Y0326185D03*
X0207678Y0326145D03*
X0207698Y0326105D03*
X0207718Y0326085D03*
X0207738Y0326045D03*
X0199638Y0326405D03*
X0199618Y0326445D03*
X0199598Y0326485D03*
X0199558Y0326585D03*
X0199698Y0329345D03*
X0199718Y0329385D03*
X0199758Y0329445D03*
X0199778Y0329485D03*
X0194458Y0325545D03*
X0194478Y0325505D03*
X0189618Y0328145D03*
X0189618Y0328185D03*
X0189618Y0328205D03*
X0190378Y0329585D03*
X0190398Y0329605D03*
X0190418Y0329645D03*
X0187838Y0329905D03*
X0187818Y0329945D03*
X0188038Y0326405D03*
X0188038Y0326385D03*
X0187278Y0325485D03*
X0183118Y0325905D03*
X0183098Y0325945D03*
X0183078Y0326005D03*
X0183178Y0327305D03*
X0181858Y0329785D03*
X0181898Y0329885D03*
X0181918Y0329905D03*
X0181938Y0329945D03*
X0181958Y0331785D03*
X0181938Y0331805D03*
X0181938Y0331845D03*
X0181918Y0331885D03*
X0171198Y0332585D03*
X0170918Y0328585D03*
X0164738Y0328585D03*
X0164478Y0325705D03*
D257*
X0164448Y0325685D03*
X0171208Y0325685D03*
X0171208Y0332605D03*
X0164448Y0332605D03*
X0181968Y0331745D03*
X0181988Y0331705D03*
X0181988Y0331685D03*
X0182008Y0331645D03*
X0182008Y0331605D03*
X0181988Y0330105D03*
X0181988Y0330085D03*
X0181968Y0330045D03*
X0181948Y0330005D03*
X0181948Y0329985D03*
X0183148Y0327245D03*
X0183108Y0327145D03*
X0183088Y0327105D03*
X0183088Y0327085D03*
X0183048Y0326105D03*
X0183068Y0326045D03*
X0183088Y0325985D03*
X0187308Y0325505D03*
X0187348Y0325545D03*
X0188048Y0326445D03*
X0189608Y0328045D03*
X0189608Y0328085D03*
X0189608Y0328105D03*
X0190348Y0329545D03*
X0187888Y0329805D03*
X0187868Y0329845D03*
X0187848Y0329885D03*
X0194408Y0325645D03*
X0199448Y0326885D03*
X0199468Y0326805D03*
X0199488Y0326745D03*
X0199508Y0326705D03*
X0199508Y0326685D03*
X0199548Y0326605D03*
X0199568Y0326545D03*
X0199588Y0326505D03*
X0199568Y0329085D03*
X0199608Y0329185D03*
X0199648Y0329245D03*
X0199668Y0329285D03*
X0199668Y0329305D03*
X0207568Y0329285D03*
X0207648Y0329445D03*
X0207668Y0329485D03*
X0207548Y0326405D03*
X0207568Y0326345D03*
X0207588Y0326305D03*
X0207608Y0326285D03*
X0207648Y0326205D03*
X0212388Y0325685D03*
X0212388Y0329305D03*
X0212368Y0329345D03*
X0212348Y0329385D03*
X0212348Y0329405D03*
X0212308Y0329485D03*
D258*
X0171398Y0332765D03*
X0164278Y0332765D03*
X0164278Y0325525D03*
X0171378Y0325525D03*
D259*
X0170998Y0332405D03*
X0183458Y0327685D03*
X0187958Y0326085D03*
X0189698Y0328645D03*
X0189698Y0328685D03*
X0187558Y0330285D03*
X0200158Y0325645D03*
X0204358Y0325545D03*
X0212298Y0325545D03*
D260*
X0212368Y0329365D03*
X0212308Y0329465D03*
X0212288Y0329525D03*
X0207688Y0329525D03*
X0207608Y0329365D03*
X0207588Y0329325D03*
X0207568Y0326365D03*
X0207588Y0326325D03*
X0207608Y0326265D03*
X0207668Y0326165D03*
X0199508Y0326725D03*
X0199488Y0326765D03*
X0199468Y0326825D03*
X0199588Y0329125D03*
X0199608Y0329165D03*
X0199648Y0329265D03*
X0199688Y0329325D03*
X0199708Y0329365D03*
X0194448Y0325565D03*
X0189608Y0328065D03*
X0189608Y0328125D03*
X0188048Y0326425D03*
X0187908Y0329765D03*
X0183108Y0327165D03*
X0183048Y0326125D03*
X0183068Y0326065D03*
X0181968Y0330025D03*
X0182008Y0330165D03*
X0182048Y0331465D03*
X0182008Y0331625D03*
X0181988Y0331665D03*
D261*
X0182098Y0330645D03*
X0187998Y0329505D03*
X0188018Y0329445D03*
X0188018Y0329405D03*
X0188038Y0329385D03*
X0188038Y0329345D03*
X0188058Y0329245D03*
X0189578Y0327805D03*
X0189578Y0327785D03*
X0189578Y0327745D03*
X0189578Y0327705D03*
X0189578Y0327685D03*
X0189578Y0327645D03*
X0188078Y0326645D03*
X0188078Y0326605D03*
X0194298Y0326605D03*
X0194298Y0326585D03*
X0194298Y0326545D03*
X0194298Y0326505D03*
X0194298Y0326485D03*
X0194298Y0326445D03*
X0194298Y0326405D03*
X0194298Y0326385D03*
X0194298Y0326345D03*
X0194298Y0326305D03*
X0194298Y0326285D03*
X0194298Y0326245D03*
X0194298Y0326205D03*
X0194318Y0326045D03*
X0194318Y0326005D03*
X0194318Y0325985D03*
X0194338Y0325905D03*
X0194338Y0325885D03*
X0194358Y0325805D03*
X0194298Y0326645D03*
X0194298Y0326685D03*
X0194298Y0326705D03*
X0194298Y0326745D03*
X0194298Y0326785D03*
X0194298Y0326805D03*
X0194298Y0326845D03*
X0194298Y0326885D03*
X0194298Y0326905D03*
X0194298Y0326945D03*
X0194298Y0326985D03*
X0194298Y0327005D03*
X0194298Y0327045D03*
X0194298Y0327085D03*
X0194298Y0327105D03*
X0194298Y0327145D03*
X0194298Y0327185D03*
X0194298Y0327205D03*
X0194298Y0327245D03*
X0194298Y0327285D03*
X0194298Y0327305D03*
X0194298Y0327345D03*
X0194298Y0327385D03*
X0194298Y0327405D03*
X0194298Y0327445D03*
X0194298Y0327485D03*
X0194298Y0327505D03*
X0194298Y0327545D03*
X0194298Y0327585D03*
X0194298Y0327605D03*
X0194298Y0327645D03*
X0194298Y0327685D03*
X0194298Y0327705D03*
X0194298Y0327745D03*
X0194298Y0327785D03*
X0194298Y0327805D03*
X0194298Y0327845D03*
X0194298Y0327885D03*
X0194298Y0327905D03*
X0194298Y0327945D03*
X0194298Y0327985D03*
X0194298Y0328005D03*
X0194298Y0328045D03*
X0194298Y0328085D03*
X0194298Y0328105D03*
X0194298Y0328145D03*
X0194298Y0328185D03*
X0194298Y0328205D03*
X0194298Y0328245D03*
X0194298Y0328285D03*
X0194298Y0328305D03*
X0194298Y0328345D03*
X0194298Y0328385D03*
X0194298Y0328405D03*
X0194298Y0328445D03*
X0194298Y0328485D03*
X0194298Y0328505D03*
X0194298Y0328545D03*
X0194298Y0328585D03*
X0194298Y0328605D03*
X0194298Y0328645D03*
X0194298Y0328685D03*
X0194298Y0328705D03*
X0194298Y0328745D03*
X0194298Y0328785D03*
X0194298Y0328805D03*
X0194298Y0328845D03*
X0194298Y0328885D03*
X0194298Y0328905D03*
X0194298Y0328945D03*
X0194298Y0328985D03*
X0194298Y0329005D03*
X0194298Y0329045D03*
X0194298Y0329085D03*
X0194298Y0329105D03*
X0194298Y0329145D03*
X0194298Y0329185D03*
X0194298Y0329205D03*
X0194298Y0329245D03*
X0194298Y0329285D03*
X0194298Y0329305D03*
X0194298Y0329345D03*
X0194298Y0329385D03*
X0194298Y0329405D03*
X0194298Y0329445D03*
X0194298Y0329485D03*
X0194298Y0329505D03*
X0194298Y0329545D03*
X0194298Y0329585D03*
X0194298Y0329605D03*
X0194298Y0329645D03*
X0194298Y0329685D03*
X0194298Y0329705D03*
X0194298Y0329745D03*
X0194298Y0329785D03*
X0194298Y0329805D03*
X0194298Y0329845D03*
X0194298Y0329885D03*
X0194298Y0329905D03*
X0194298Y0329945D03*
X0194298Y0329985D03*
X0194298Y0330005D03*
X0194298Y0330045D03*
X0194298Y0330085D03*
X0194298Y0330105D03*
X0194298Y0330145D03*
X0194298Y0330185D03*
X0194298Y0330205D03*
X0194298Y0330245D03*
X0194298Y0330285D03*
X0194298Y0330305D03*
X0194298Y0330345D03*
X0194298Y0330385D03*
X0194298Y0330405D03*
X0194298Y0330445D03*
X0194298Y0330485D03*
X0194298Y0330505D03*
X0194298Y0330545D03*
X0194298Y0330585D03*
X0194298Y0330605D03*
X0194298Y0331245D03*
X0194298Y0331285D03*
X0194298Y0331305D03*
X0194298Y0331345D03*
X0194298Y0331385D03*
X0194298Y0331405D03*
X0194298Y0331445D03*
X0194298Y0331485D03*
X0194298Y0331505D03*
X0194298Y0331545D03*
X0194298Y0331585D03*
X0194298Y0331605D03*
X0194298Y0331645D03*
X0194298Y0331685D03*
X0194298Y0331705D03*
X0194298Y0331745D03*
X0194298Y0331785D03*
X0194298Y0331805D03*
X0194298Y0331845D03*
X0194298Y0331885D03*
X0194298Y0331905D03*
X0194298Y0331945D03*
X0194298Y0331985D03*
X0194298Y0332005D03*
X0194298Y0332045D03*
X0194298Y0332085D03*
X0194298Y0332105D03*
X0194298Y0332145D03*
X0194298Y0332185D03*
X0194298Y0332205D03*
X0194298Y0332245D03*
X0194298Y0332285D03*
X0194298Y0332305D03*
X0194298Y0332345D03*
X0194298Y0332385D03*
X0194298Y0332405D03*
X0194298Y0332445D03*
X0194298Y0332485D03*
X0194298Y0332505D03*
X0194298Y0332545D03*
X0194298Y0332585D03*
X0194298Y0332605D03*
X0194298Y0332645D03*
X0194298Y0332685D03*
X0194298Y0332705D03*
X0194298Y0332745D03*
X0194298Y0332785D03*
X0194298Y0332805D03*
X0194298Y0332845D03*
X0194298Y0332885D03*
X0194298Y0332905D03*
X0194298Y0332945D03*
X0194298Y0332985D03*
X0194298Y0333005D03*
X0194298Y0333045D03*
X0194298Y0333085D03*
X0194298Y0333105D03*
X0194298Y0333145D03*
X0194298Y0333185D03*
X0194298Y0333205D03*
X0194298Y0333245D03*
X0194298Y0333285D03*
X0194298Y0333305D03*
X0194298Y0333345D03*
X0199338Y0328205D03*
X0199318Y0328005D03*
X0199318Y0327985D03*
X0199318Y0327945D03*
X0199318Y0327905D03*
X0199318Y0327885D03*
X0199318Y0327705D03*
X0199318Y0327685D03*
X0199318Y0327645D03*
X0207278Y0327545D03*
X0207278Y0327505D03*
X0207278Y0327485D03*
X0207278Y0327445D03*
X0207278Y0327405D03*
X0207278Y0327385D03*
X0207298Y0327345D03*
X0207298Y0327305D03*
X0207298Y0327285D03*
X0207298Y0327245D03*
X0207318Y0327205D03*
X0207318Y0327185D03*
X0207318Y0327145D03*
X0207338Y0327085D03*
X0207338Y0327045D03*
X0207378Y0326885D03*
X0207278Y0328145D03*
X0207278Y0328185D03*
X0207278Y0328205D03*
X0207278Y0328245D03*
X0207298Y0328305D03*
X0207298Y0328345D03*
X0207298Y0328385D03*
X0207298Y0328405D03*
X0207318Y0328445D03*
X0207318Y0328485D03*
X0207318Y0328505D03*
X0207338Y0328545D03*
X0207338Y0328585D03*
X0207338Y0328605D03*
X0207358Y0328645D03*
X0207358Y0328685D03*
X0207378Y0328745D03*
X0207418Y0328885D03*
X0212578Y0328685D03*
X0212598Y0328585D03*
X0212618Y0328485D03*
X0212618Y0328445D03*
X0212638Y0328345D03*
X0212638Y0328305D03*
X0212638Y0328285D03*
X0212658Y0328185D03*
X0212658Y0328145D03*
X0171298Y0325605D03*
X0164358Y0325605D03*
X0164358Y0332685D03*
X0171298Y0332685D03*
D262*
X0183278Y0325625D03*
X0190578Y0329825D03*
X0207978Y0325725D03*
D263*
X0187748Y0325625D03*
X0187748Y0327965D03*
X0187068Y0330625D03*
X0170468Y0331925D03*
D264*
X0170528Y0331985D03*
X0167828Y0331905D03*
X0167828Y0332145D03*
X0167828Y0332185D03*
X0167828Y0332205D03*
X0165128Y0331985D03*
X0164548Y0328685D03*
X0165128Y0326305D03*
X0165108Y0326285D03*
X0167828Y0326145D03*
X0167828Y0326105D03*
X0167828Y0326085D03*
X0170528Y0326305D03*
X0170548Y0326285D03*
X0183928Y0327985D03*
X0185608Y0331305D03*
X0187768Y0325645D03*
X0203768Y0330485D03*
D265*
X0207498Y0329125D03*
X0207558Y0329265D03*
X0207658Y0329465D03*
X0207458Y0326625D03*
X0207498Y0326525D03*
X0212458Y0329125D03*
X0212398Y0329265D03*
X0199558Y0329065D03*
X0199458Y0328765D03*
X0199358Y0327265D03*
X0199398Y0327065D03*
X0199458Y0326865D03*
X0194398Y0325665D03*
X0189598Y0327965D03*
X0189598Y0328025D03*
X0188058Y0326465D03*
X0187958Y0329625D03*
X0183098Y0327125D03*
X0183058Y0327025D03*
X0181998Y0330125D03*
X0182058Y0330365D03*
X0182098Y0331125D03*
X0182058Y0331425D03*
D266*
X0182058Y0331405D03*
X0182058Y0331385D03*
X0182058Y0331445D03*
X0182098Y0331145D03*
X0182098Y0331105D03*
X0182058Y0330385D03*
X0182058Y0330345D03*
X0181998Y0330145D03*
X0183058Y0327005D03*
X0183058Y0326985D03*
X0183058Y0326085D03*
X0188058Y0326485D03*
X0188058Y0326505D03*
X0189598Y0327945D03*
X0189598Y0327985D03*
X0189598Y0328005D03*
X0190298Y0329485D03*
X0187898Y0329785D03*
X0194398Y0325685D03*
X0199398Y0327045D03*
X0199398Y0327085D03*
X0199398Y0327105D03*
X0199358Y0327285D03*
X0199458Y0326845D03*
X0199458Y0328785D03*
X0199498Y0328885D03*
X0199498Y0328905D03*
X0199558Y0329045D03*
X0199598Y0329145D03*
X0207558Y0329245D03*
X0207598Y0329345D03*
X0207498Y0326505D03*
X0207558Y0326385D03*
X0212498Y0328985D03*
X0212498Y0329005D03*
X0212458Y0329105D03*
X0212458Y0329145D03*
X0212398Y0329285D03*
X0171258Y0332645D03*
X0170898Y0329705D03*
X0164758Y0329705D03*
D267*
X0167828Y0332545D03*
X0167828Y0325745D03*
X0167828Y0325705D03*
X0208628Y0330485D03*
X0210028Y0331185D03*
D268*
X0207618Y0329385D03*
X0207578Y0329305D03*
X0207538Y0329205D03*
X0207518Y0329185D03*
X0207418Y0326745D03*
X0207438Y0326685D03*
X0207478Y0326585D03*
X0207518Y0326485D03*
X0212478Y0329045D03*
X0212438Y0329185D03*
X0212418Y0329205D03*
X0212418Y0329245D03*
X0199578Y0329105D03*
X0199538Y0329005D03*
X0199538Y0328985D03*
X0199518Y0328945D03*
X0199478Y0328845D03*
X0199438Y0328705D03*
X0199418Y0328645D03*
X0199338Y0327405D03*
X0199378Y0327185D03*
X0199378Y0327145D03*
X0199418Y0327005D03*
X0199418Y0326985D03*
X0199438Y0326945D03*
X0199438Y0326905D03*
X0199478Y0326785D03*
X0194378Y0325745D03*
X0190318Y0329505D03*
X0187938Y0329685D03*
X0187938Y0329705D03*
X0187918Y0329745D03*
X0183078Y0327045D03*
X0183038Y0326945D03*
X0183038Y0326905D03*
X0183018Y0326805D03*
X0183018Y0326305D03*
X0183018Y0326285D03*
X0183018Y0326245D03*
X0183038Y0326185D03*
X0183038Y0326145D03*
X0182018Y0330185D03*
X0182018Y0330205D03*
X0182038Y0330245D03*
X0182038Y0330285D03*
X0182078Y0330485D03*
X0182078Y0331285D03*
X0182078Y0331305D03*
X0182078Y0331345D03*
X0182038Y0331485D03*
X0182038Y0331505D03*
X0182018Y0331585D03*
D269*
X0181698Y0329525D03*
X0181658Y0329465D03*
X0183318Y0327525D03*
X0187998Y0326225D03*
X0189658Y0328425D03*
X0189658Y0328465D03*
X0187698Y0330125D03*
X0200018Y0329825D03*
X0200058Y0329865D03*
X0199898Y0325965D03*
X0199938Y0325925D03*
X0207938Y0325765D03*
X0207998Y0329965D03*
X0211958Y0330025D03*
X0167838Y0326525D03*
D270*
X0170748Y0326105D03*
X0170708Y0332145D03*
X0164908Y0332185D03*
X0181208Y0332745D03*
X0189808Y0329105D03*
X0189808Y0329085D03*
X0191168Y0330305D03*
X0187848Y0325805D03*
X0204008Y0330345D03*
X0211408Y0330485D03*
D271*
X0204438Y0329805D03*
X0204518Y0325845D03*
X0171478Y0332845D03*
X0170818Y0329745D03*
X0167838Y0333985D03*
X0164178Y0332845D03*
X0164838Y0329745D03*
D272*
X0193108Y0331225D03*
X0204508Y0326025D03*
X0212388Y0325965D03*
D273*
X0212378Y0326005D03*
D274*
X0189868Y0329265D03*
X0180968Y0328865D03*
X0170568Y0326265D03*
X0167828Y0326025D03*
X0165088Y0326265D03*
X0165088Y0332025D03*
X0167928Y0332065D03*
D275*
X0204508Y0326085D03*
D276*
X0203978Y0330365D03*
X0200718Y0330425D03*
X0189818Y0329125D03*
X0171058Y0329625D03*
X0164598Y0329625D03*
X0164938Y0326125D03*
D277*
X0167828Y0326185D03*
X0167828Y0326205D03*
X0167828Y0332045D03*
X0167828Y0332085D03*
X0167828Y0332105D03*
D278*
X0167828Y0332065D03*
X0167828Y0331925D03*
X0167828Y0326365D03*
X0167828Y0326225D03*
X0210028Y0331165D03*
D279*
X0203668Y0330525D03*
X0183988Y0330625D03*
X0167828Y0331965D03*
X0167828Y0332025D03*
X0167828Y0326325D03*
X0167828Y0326265D03*
D280*
X0170498Y0326325D03*
X0165158Y0326325D03*
X0165158Y0331965D03*
X0189898Y0329365D03*
D281*
X0191478Y0330465D03*
X0170458Y0326365D03*
X0165198Y0326365D03*
X0165198Y0331925D03*
D282*
X0165268Y0326425D03*
X0170388Y0326425D03*
X0180768Y0328765D03*
X0180888Y0332925D03*
D283*
X0170378Y0331845D03*
X0165278Y0331845D03*
X0170378Y0326445D03*
X0191578Y0330505D03*
D284*
X0180728Y0328745D03*
X0170328Y0326485D03*
X0165328Y0326485D03*
X0165328Y0331805D03*
X0170328Y0331805D03*
D285*
X0170288Y0331765D03*
X0171188Y0328725D03*
X0170288Y0326525D03*
X0165368Y0326525D03*
X0164468Y0328725D03*
X0165368Y0331765D03*
X0180668Y0328725D03*
X0191628Y0330525D03*
D286*
X0170258Y0326545D03*
X0165398Y0326545D03*
X0165398Y0331745D03*
D287*
X0165408Y0331725D03*
X0170248Y0331725D03*
X0170248Y0326565D03*
X0185688Y0328665D03*
X0192408Y0330925D03*
D288*
X0201168Y0330605D03*
X0202308Y0331145D03*
X0180728Y0332985D03*
X0171228Y0329545D03*
X0170208Y0331685D03*
X0165468Y0326605D03*
D289*
X0165478Y0326625D03*
X0170178Y0326625D03*
X0170178Y0331665D03*
X0165478Y0331665D03*
X0184078Y0330665D03*
D290*
X0180668Y0333005D03*
X0170088Y0331585D03*
X0165568Y0331585D03*
X0165568Y0326705D03*
X0165548Y0326685D03*
X0170088Y0326705D03*
X0170108Y0326685D03*
D291*
X0171258Y0329525D03*
X0170078Y0331565D03*
X0165578Y0331565D03*
X0164398Y0329525D03*
X0165598Y0326725D03*
X0192338Y0330865D03*
D292*
X0184248Y0328085D03*
X0170048Y0326745D03*
X0165608Y0326745D03*
X0165608Y0331545D03*
X0170048Y0331545D03*
D293*
X0171918Y0333245D03*
X0167838Y0326745D03*
X0183538Y0330245D03*
D294*
X0180478Y0328665D03*
X0171278Y0328765D03*
X0170018Y0326765D03*
X0165638Y0326765D03*
X0165638Y0331525D03*
D295*
X0165708Y0326825D03*
X0192288Y0330825D03*
X0201288Y0330625D03*
D296*
X0185598Y0331265D03*
X0180598Y0333025D03*
X0169958Y0331465D03*
X0165698Y0331465D03*
X0169958Y0326825D03*
D297*
X0169908Y0326865D03*
X0165748Y0326865D03*
D298*
X0165808Y0326925D03*
X0169848Y0326925D03*
X0169848Y0331365D03*
X0165808Y0331365D03*
X0203288Y0330625D03*
D299*
X0202318Y0331105D03*
X0169838Y0331345D03*
X0165838Y0331345D03*
X0164318Y0329485D03*
X0165838Y0326945D03*
X0169818Y0326945D03*
D300*
X0188108Y0326965D03*
X0188108Y0327025D03*
X0188108Y0327065D03*
X0188108Y0327125D03*
X0188108Y0327165D03*
X0188108Y0327225D03*
X0188108Y0327265D03*
X0188108Y0327325D03*
X0188108Y0327365D03*
X0188108Y0327425D03*
X0188108Y0327465D03*
X0188108Y0327525D03*
X0188108Y0327565D03*
X0188108Y0327625D03*
X0188108Y0327665D03*
X0188108Y0327725D03*
X0188108Y0327765D03*
D301*
X0169778Y0326985D03*
X0165878Y0326985D03*
X0165878Y0331305D03*
D302*
X0165888Y0331285D03*
X0169768Y0331285D03*
X0165908Y0327005D03*
X0185588Y0331245D03*
X0192208Y0330745D03*
D303*
X0191958Y0330605D03*
X0171358Y0328805D03*
X0169758Y0327005D03*
X0164298Y0328805D03*
D304*
X0165948Y0327045D03*
D305*
X0169718Y0327045D03*
X0169718Y0331245D03*
X0165938Y0331245D03*
X0184398Y0328105D03*
D306*
X0180308Y0328625D03*
X0165968Y0327065D03*
D307*
X0164278Y0329465D03*
X0165958Y0331225D03*
X0169698Y0331225D03*
X0171378Y0329465D03*
X0169698Y0327065D03*
X0186618Y0330725D03*
D308*
X0169668Y0327085D03*
X0165988Y0327085D03*
D309*
X0166038Y0327125D03*
X0166018Y0331165D03*
X0169638Y0331165D03*
X0171398Y0328825D03*
X0187398Y0328065D03*
D310*
X0169628Y0327125D03*
D311*
X0169608Y0327145D03*
X0166048Y0327145D03*
X0166048Y0331145D03*
X0169608Y0331145D03*
D312*
X0169598Y0331125D03*
X0166078Y0331125D03*
X0166078Y0327165D03*
X0169578Y0327165D03*
X0192138Y0330665D03*
D313*
X0192128Y0330645D03*
X0171428Y0329445D03*
X0169568Y0331105D03*
X0169548Y0331085D03*
X0166088Y0331105D03*
X0164228Y0329445D03*
X0166088Y0327185D03*
X0169568Y0327185D03*
D314*
X0169538Y0327205D03*
X0166118Y0327205D03*
X0166118Y0331085D03*
D315*
X0166148Y0327225D03*
X0192108Y0330625D03*
D316*
X0166188Y0327265D03*
D317*
X0166208Y0327285D03*
X0169448Y0327285D03*
X0166208Y0331005D03*
D318*
X0166228Y0327305D03*
X0169428Y0327305D03*
D319*
X0169408Y0327325D03*
X0166248Y0327325D03*
X0166248Y0330965D03*
X0169408Y0330965D03*
D320*
X0166278Y0327345D03*
D321*
X0166288Y0327365D03*
X0169368Y0327365D03*
X0169368Y0330925D03*
X0166288Y0330925D03*
D322*
X0166318Y0330905D03*
X0166338Y0327405D03*
X0166318Y0327385D03*
X0169338Y0327385D03*
X0185578Y0331205D03*
D323*
X0169328Y0330885D03*
X0166328Y0330885D03*
X0169328Y0327405D03*
D324*
X0169298Y0327425D03*
X0166358Y0327425D03*
X0166358Y0330865D03*
D325*
X0166408Y0327465D03*
D326*
X0166518Y0327565D03*
X0169138Y0327565D03*
X0169158Y0330725D03*
D327*
X0209968Y0328125D03*
X0209968Y0328065D03*
X0209968Y0328025D03*
X0209968Y0327625D03*
X0209968Y0327565D03*
D328*
X0209968Y0327585D03*
X0209968Y0327605D03*
X0209968Y0327645D03*
X0209968Y0327985D03*
X0209968Y0328005D03*
X0209968Y0328045D03*
X0209968Y0328085D03*
X0209968Y0328105D03*
D329*
X0169098Y0327605D03*
X0166558Y0327605D03*
X0166558Y0330685D03*
D330*
X0167828Y0327625D03*
X0185928Y0328125D03*
D331*
X0167828Y0327645D03*
X0167828Y0330645D03*
D332*
X0167828Y0330625D03*
X0167828Y0327665D03*
D333*
X0209958Y0327665D03*
X0209958Y0327965D03*
D334*
X0167838Y0327685D03*
D335*
X0209968Y0327705D03*
X0209968Y0327685D03*
X0209968Y0327745D03*
X0209968Y0327785D03*
X0209968Y0327805D03*
X0209968Y0327845D03*
X0209968Y0327885D03*
X0209968Y0327905D03*
D336*
X0185968Y0328185D03*
X0178688Y0333245D03*
X0167828Y0330585D03*
X0167828Y0327705D03*
D337*
X0167828Y0327725D03*
X0167828Y0330565D03*
X0178668Y0333265D03*
D338*
X0209968Y0327925D03*
X0209968Y0327865D03*
X0209968Y0327825D03*
X0209968Y0327765D03*
X0209968Y0327725D03*
D339*
X0167838Y0327745D03*
D340*
X0167828Y0327765D03*
X0167828Y0330525D03*
D341*
X0167828Y0330505D03*
X0167828Y0330485D03*
X0167828Y0327785D03*
D342*
X0167838Y0327805D03*
X0178618Y0328445D03*
D343*
X0167828Y0327825D03*
X0167828Y0330465D03*
D344*
X0167828Y0327845D03*
X0186068Y0328305D03*
D345*
X0167828Y0327865D03*
X0167828Y0330425D03*
D346*
X0167828Y0330405D03*
X0167828Y0327885D03*
D347*
X0167828Y0327905D03*
D348*
X0167828Y0327925D03*
X0167828Y0330365D03*
D349*
X0167828Y0330345D03*
X0167828Y0327945D03*
X0178528Y0333405D03*
D350*
X0209958Y0327945D03*
D351*
X0167828Y0327965D03*
D352*
X0177688Y0327965D03*
X0210028Y0330865D03*
D353*
X0183878Y0327965D03*
X0181078Y0332825D03*
D354*
X0167828Y0330305D03*
X0167828Y0327985D03*
D355*
X0187698Y0327985D03*
X0211118Y0330605D03*
D356*
X0167828Y0330285D03*
X0167828Y0328005D03*
D357*
X0167838Y0328025D03*
D358*
X0177978Y0328025D03*
D359*
X0178468Y0328305D03*
X0167828Y0328045D03*
X0167828Y0330245D03*
D360*
X0167838Y0328705D03*
X0178038Y0328045D03*
X0202318Y0330705D03*
D361*
X0167828Y0330225D03*
X0167828Y0328065D03*
D362*
X0167828Y0328625D03*
X0167828Y0329665D03*
X0178088Y0328065D03*
D363*
X0167838Y0328085D03*
D364*
X0178128Y0328085D03*
X0178128Y0333645D03*
X0202308Y0330645D03*
D365*
X0178428Y0333485D03*
X0167828Y0330185D03*
X0167828Y0328105D03*
D366*
X0167828Y0328505D03*
X0167828Y0329785D03*
X0178168Y0328105D03*
D367*
X0171618Y0329345D03*
X0164038Y0329345D03*
X0187098Y0328105D03*
D368*
X0167828Y0328125D03*
X0167828Y0330165D03*
D369*
X0178208Y0328125D03*
D370*
X0167838Y0328145D03*
D371*
X0178248Y0328145D03*
D372*
X0185948Y0328145D03*
D373*
X0167828Y0328165D03*
X0167828Y0330125D03*
D374*
X0178278Y0328165D03*
D375*
X0185958Y0328165D03*
D376*
X0167828Y0328185D03*
X0167828Y0328205D03*
X0167828Y0330085D03*
D377*
X0178308Y0328185D03*
D378*
X0178338Y0328205D03*
X0185418Y0330805D03*
X0167838Y0330045D03*
D379*
X0167828Y0330545D03*
X0178668Y0328505D03*
X0185988Y0328205D03*
D380*
X0167828Y0328225D03*
X0167828Y0330065D03*
D381*
X0178368Y0328225D03*
X0178368Y0333525D03*
D382*
X0186008Y0328225D03*
D383*
X0178328Y0333545D03*
X0167828Y0328245D03*
D384*
X0178398Y0328245D03*
X0178398Y0333505D03*
D385*
X0178638Y0333305D03*
X0186018Y0328245D03*
D386*
X0167828Y0328265D03*
X0167828Y0330025D03*
D387*
X0178418Y0328265D03*
D388*
X0178618Y0333325D03*
X0186038Y0328265D03*
D389*
X0167828Y0328285D03*
X0167828Y0330005D03*
D390*
X0178448Y0328285D03*
D391*
X0178598Y0333345D03*
X0186058Y0328285D03*
D392*
X0167828Y0328305D03*
D393*
X0167828Y0328325D03*
X0167828Y0329965D03*
D394*
X0178498Y0328325D03*
D395*
X0178568Y0333365D03*
X0186088Y0328325D03*
D396*
X0185448Y0330845D03*
X0167828Y0329945D03*
X0167828Y0328345D03*
D397*
X0178518Y0328345D03*
D398*
X0178548Y0333385D03*
X0186108Y0328345D03*
D399*
X0167838Y0328365D03*
D400*
X0178538Y0328365D03*
D401*
X0186128Y0328365D03*
D402*
X0167828Y0328385D03*
X0167828Y0329905D03*
D403*
X0167838Y0330385D03*
X0178558Y0328385D03*
D404*
X0186158Y0328385D03*
D405*
X0167828Y0328405D03*
X0167828Y0329885D03*
D406*
X0178578Y0328405D03*
D407*
X0178478Y0333445D03*
X0186178Y0328405D03*
D408*
X0167838Y0328425D03*
D409*
X0178598Y0328425D03*
D410*
X0167828Y0328445D03*
X0167828Y0329845D03*
D411*
X0167828Y0329825D03*
X0167828Y0328465D03*
D412*
X0178638Y0328465D03*
D413*
X0185838Y0328465D03*
X0167838Y0328765D03*
D414*
X0167838Y0328485D03*
D415*
X0178648Y0328485D03*
X0178648Y0333285D03*
D416*
X0171908Y0329205D03*
X0167828Y0329405D03*
X0167828Y0328885D03*
X0163748Y0329205D03*
X0185828Y0328485D03*
D417*
X0185818Y0328505D03*
X0167838Y0329305D03*
D418*
X0167828Y0328525D03*
D419*
X0178688Y0328525D03*
D420*
X0185808Y0328525D03*
D421*
X0178698Y0328545D03*
D422*
X0185798Y0328545D03*
D423*
X0170878Y0328565D03*
D424*
X0178718Y0328565D03*
D425*
X0171678Y0328965D03*
X0185778Y0328565D03*
D426*
X0167828Y0328585D03*
X0167828Y0328605D03*
X0167828Y0329685D03*
D427*
X0178738Y0328585D03*
X0178738Y0333185D03*
D428*
X0178748Y0328605D03*
D429*
X0172008Y0329145D03*
X0167828Y0328645D03*
X0163648Y0329145D03*
X0185488Y0330945D03*
X0202308Y0330685D03*
D430*
X0180408Y0328645D03*
X0171308Y0328785D03*
X0164348Y0328785D03*
D431*
X0167828Y0328685D03*
X0167828Y0329585D03*
X0167828Y0329605D03*
D432*
X0170118Y0331605D03*
X0165538Y0331605D03*
X0180558Y0328685D03*
X0192358Y0330885D03*
X0203438Y0330605D03*
D433*
X0185488Y0330965D03*
X0171988Y0329165D03*
X0167828Y0329565D03*
X0167828Y0328725D03*
D434*
X0171238Y0328745D03*
X0170158Y0331645D03*
X0165498Y0331645D03*
X0164418Y0328745D03*
X0192378Y0330905D03*
D435*
X0167828Y0329545D03*
X0167828Y0328745D03*
D436*
X0167828Y0328785D03*
X0167828Y0329505D03*
X0185508Y0330985D03*
D437*
X0167828Y0329485D03*
X0167828Y0328805D03*
D438*
X0164268Y0328825D03*
X0210028Y0331065D03*
D439*
X0210028Y0331045D03*
X0171428Y0328845D03*
X0164228Y0328845D03*
D440*
X0167828Y0328845D03*
X0167828Y0329445D03*
D441*
X0171478Y0328865D03*
X0164178Y0328865D03*
D442*
X0167828Y0328865D03*
D443*
X0169238Y0330805D03*
X0166418Y0330805D03*
X0171518Y0328885D03*
D444*
X0167828Y0328905D03*
X0167828Y0329385D03*
D445*
X0171598Y0328925D03*
X0164058Y0328925D03*
X0185558Y0331165D03*
D446*
X0171868Y0329065D03*
X0167828Y0328925D03*
X0163788Y0329065D03*
D447*
X0164028Y0328945D03*
D448*
X0167828Y0328945D03*
X0167828Y0329345D03*
D449*
X0171638Y0328945D03*
X0185558Y0331145D03*
D450*
X0163988Y0328965D03*
D451*
X0167828Y0328965D03*
X0167828Y0329325D03*
X0171868Y0329225D03*
D452*
X0167828Y0329285D03*
X0167828Y0329005D03*
X0167828Y0328985D03*
X0185528Y0331045D03*
D453*
X0202308Y0330885D03*
X0163908Y0329005D03*
D454*
X0167828Y0329025D03*
X0167828Y0329265D03*
D455*
X0171838Y0329045D03*
X0163818Y0329045D03*
D456*
X0167828Y0329065D03*
X0167828Y0329225D03*
X0185528Y0331065D03*
D457*
X0167828Y0329205D03*
X0167828Y0329185D03*
X0167828Y0329085D03*
X0210028Y0330805D03*
D458*
X0167838Y0329105D03*
D459*
X0171988Y0329125D03*
X0163668Y0329125D03*
D460*
X0167828Y0329145D03*
X0185528Y0331085D03*
X0195468Y0331085D03*
X0195468Y0331105D03*
X0195468Y0331145D03*
X0195468Y0331185D03*
X0195468Y0331205D03*
X0195468Y0331045D03*
X0195468Y0331005D03*
X0195468Y0330985D03*
X0195468Y0330945D03*
X0195468Y0330905D03*
X0195468Y0330885D03*
X0195468Y0330845D03*
X0195468Y0330805D03*
X0195468Y0330785D03*
X0195468Y0330745D03*
X0195468Y0330705D03*
X0195468Y0330685D03*
X0195468Y0330645D03*
D461*
X0210018Y0330845D03*
X0171738Y0329285D03*
X0163918Y0329285D03*
D462*
X0163988Y0329325D03*
X0171668Y0329325D03*
D463*
X0167838Y0329365D03*
X0185518Y0331025D03*
D464*
X0171588Y0329365D03*
D465*
X0171548Y0329385D03*
X0164108Y0329385D03*
D466*
X0164158Y0329405D03*
X0171498Y0329405D03*
D467*
X0171348Y0329485D03*
X0169788Y0331305D03*
X0184228Y0330705D03*
X0210028Y0331085D03*
D468*
X0167828Y0329525D03*
D469*
X0164478Y0329565D03*
X0203578Y0330565D03*
D470*
X0204438Y0329565D03*
D471*
X0170778Y0329765D03*
X0167838Y0334265D03*
X0164878Y0329765D03*
D472*
X0167838Y0329765D03*
D473*
X0167828Y0329805D03*
D474*
X0202298Y0331225D03*
X0204438Y0329825D03*
D475*
X0185448Y0330865D03*
X0167828Y0329865D03*
D476*
X0167828Y0329925D03*
D477*
X0167838Y0329985D03*
D478*
X0167838Y0330105D03*
X0185418Y0330785D03*
D479*
X0185428Y0330745D03*
X0167828Y0330145D03*
D480*
X0167828Y0330205D03*
D481*
X0167828Y0330265D03*
D482*
X0167838Y0330325D03*
D483*
X0167838Y0330445D03*
D484*
X0181238Y0332725D03*
X0208578Y0330465D03*
X0211438Y0330465D03*
D485*
X0191838Y0330585D03*
D486*
X0167828Y0330605D03*
D487*
X0208908Y0330605D03*
D488*
X0208978Y0330625D03*
X0180778Y0332965D03*
D489*
X0169088Y0330665D03*
X0210028Y0330965D03*
D490*
X0210028Y0330825D03*
X0195468Y0330825D03*
X0195468Y0330865D03*
X0195468Y0330925D03*
X0195468Y0330965D03*
X0195468Y0331025D03*
X0195468Y0331065D03*
X0195468Y0331125D03*
X0195468Y0331165D03*
X0195468Y0331225D03*
X0195468Y0330765D03*
X0195468Y0330725D03*
X0195468Y0330665D03*
D491*
X0202318Y0330665D03*
D492*
X0210028Y0330665D03*
D493*
X0210018Y0330685D03*
D494*
X0186818Y0330705D03*
D495*
X0192178Y0330705D03*
X0202318Y0331085D03*
X0169678Y0331205D03*
X0165978Y0331205D03*
D496*
X0166508Y0330725D03*
D497*
X0169308Y0330865D03*
X0184408Y0330725D03*
D498*
X0202308Y0330725D03*
D499*
X0210028Y0330725D03*
D500*
X0210018Y0330745D03*
X0202318Y0330805D03*
D501*
X0169198Y0330765D03*
X0166458Y0330765D03*
D502*
X0185418Y0330765D03*
D503*
X0202308Y0330765D03*
D504*
X0210028Y0330765D03*
D505*
X0185438Y0330825D03*
D506*
X0202318Y0330825D03*
D507*
X0185458Y0330885D03*
D508*
X0210028Y0330885D03*
D509*
X0202308Y0330905D03*
D510*
X0210028Y0330905D03*
D511*
X0185478Y0330925D03*
D512*
X0202308Y0330925D03*
D513*
X0202318Y0331045D03*
X0169398Y0330945D03*
X0166258Y0330945D03*
D514*
X0202318Y0330965D03*
D515*
X0185508Y0331005D03*
D516*
X0210028Y0331005D03*
D517*
X0169528Y0331065D03*
D518*
X0185538Y0331105D03*
D519*
X0185558Y0331125D03*
D520*
X0202308Y0331125D03*
D521*
X0210018Y0331225D03*
D522*
X0169878Y0331385D03*
X0165778Y0331385D03*
D523*
X0169898Y0331405D03*
X0180518Y0333045D03*
D524*
X0169918Y0331425D03*
X0165738Y0331425D03*
D525*
X0167838Y0331605D03*
X0171698Y0333045D03*
D526*
X0170278Y0331745D03*
D527*
X0180408Y0333065D03*
D528*
X0178818Y0333085D03*
D529*
X0178798Y0333105D03*
D530*
X0178788Y0333125D03*
D531*
X0178768Y0333145D03*
D532*
X0178758Y0333165D03*
D533*
X0178718Y0333205D03*
D534*
X0178708Y0333225D03*
D535*
X0171958Y0333285D03*
X0163698Y0333285D03*
D536*
X0178508Y0333425D03*
D537*
X0178448Y0333465D03*
D538*
X0178298Y0333565D03*
D539*
X0178258Y0333585D03*
D540*
X0178218Y0333605D03*
D541*
X0178178Y0333625D03*
D542*
X0167828Y0335125D03*
D543*
X0025213Y0210256D03*
X0025213Y0204331D03*
X0011433Y0204331D03*
X0011433Y0210256D03*
X0011433Y0178367D03*
X0011433Y0172441D03*
X0025213Y0172441D03*
X0025213Y0178367D03*
D544*
X0268611Y0102082D03*
X0268611Y0098282D03*
X0272411Y0098282D03*
X0272411Y0102082D03*
X0276311Y0102082D03*
X0276311Y0098282D03*
X0281011Y0100682D03*
X0281011Y0104482D03*
X0285611Y0104482D03*
X0285611Y0100682D03*
X0310311Y0100082D03*
X0310311Y0103882D03*
X0317397Y0120923D03*
X0321111Y0120982D03*
X0321111Y0124782D03*
X0321177Y0127641D03*
X0321177Y0131441D03*
X0317397Y0124723D03*
X0347211Y0128082D03*
X0350811Y0128082D03*
X0354511Y0128082D03*
X0358311Y0128082D03*
X0361911Y0128082D03*
X0361911Y0131882D03*
X0358311Y0131882D03*
X0354511Y0131882D03*
X0350811Y0131882D03*
X0347211Y0131882D03*
X0384311Y0107482D03*
X0384311Y0103682D03*
X0374111Y0179782D03*
X0374111Y0183582D03*
X0376011Y0195882D03*
X0376011Y0199682D03*
X0381411Y0199682D03*
X0381411Y0195882D03*
X0392498Y0196082D03*
X0396270Y0196007D03*
X0399894Y0195984D03*
X0399894Y0199784D03*
X0396270Y0199807D03*
X0392498Y0199882D03*
X0403993Y0199682D03*
X0403993Y0195882D03*
X0396011Y0183882D03*
X0396011Y0180082D03*
X0359211Y0229682D03*
X0359211Y0233482D03*
X0359211Y0238082D03*
X0359211Y0241882D03*
X0374211Y0253082D03*
X0374211Y0256882D03*
X0378411Y0256882D03*
X0378411Y0253082D03*
X0383211Y0253082D03*
X0383211Y0256882D03*
X0383811Y0264482D03*
X0383811Y0268282D03*
X0379611Y0268282D03*
X0379611Y0264482D03*
X0388911Y0264582D03*
X0388911Y0268382D03*
X0392811Y0268382D03*
X0392811Y0264582D03*
X0399211Y0256782D03*
X0399211Y0252982D03*
X0403211Y0252982D03*
X0403211Y0256782D03*
X0388011Y0277682D03*
X0388011Y0281482D03*
X0383811Y0281482D03*
X0383811Y0277682D03*
X0379611Y0277682D03*
X0379611Y0281482D03*
D545*
X0352011Y0098382D03*
X0352011Y0095982D03*
D546*
X0352811Y0083282D03*
X0356611Y0083282D03*
X0365194Y0128787D03*
X0368994Y0128787D03*
X0359511Y0189224D03*
X0355711Y0189224D03*
X0355711Y0193348D03*
X0359511Y0193348D03*
X0359511Y0197436D03*
X0355711Y0197436D03*
X0355799Y0201388D03*
X0359599Y0201388D03*
X0359511Y0205382D03*
X0355711Y0205382D03*
X0355711Y0209582D03*
X0359511Y0209582D03*
X0359511Y0215582D03*
X0355711Y0215582D03*
X0355711Y0219782D03*
X0359511Y0219782D03*
X0384911Y0199682D03*
X0388711Y0199682D03*
X0415811Y0206082D03*
X0419611Y0206082D03*
X0419511Y0210182D03*
X0415711Y0210182D03*
X0415711Y0214382D03*
X0419511Y0214382D03*
X0395111Y0253382D03*
X0391311Y0253382D03*
X0399611Y0264682D03*
X0403411Y0264682D03*
X0406911Y0264682D03*
X0410711Y0264682D03*
X0388111Y0273182D03*
X0384311Y0273182D03*
X0379711Y0273182D03*
X0375911Y0273182D03*
X0455911Y0288782D03*
X0459711Y0288782D03*
X0023666Y0198625D03*
X0019866Y0198625D03*
D547*
X0438523Y0293962D03*
X0438523Y0311954D03*
D548*
X0354511Y0235732D03*
X0354511Y0229832D03*
X0284211Y0115632D03*
X0284211Y0109732D03*
X0263811Y0102232D03*
X0263811Y0096332D03*
X0314711Y0098532D03*
X0320111Y0098632D03*
X0320111Y0104532D03*
X0314711Y0104432D03*
X0357411Y0097532D03*
X0362694Y0097532D03*
X0368211Y0097532D03*
X0368211Y0091632D03*
X0362694Y0091632D03*
X0357411Y0091632D03*
X0374076Y0101687D03*
X0379876Y0101687D03*
X0379876Y0107587D03*
X0374076Y0107587D03*
D549*
X0336961Y0121182D03*
X0331061Y0121182D03*
X0353361Y0225182D03*
X0359261Y0225182D03*
X0416161Y0252982D03*
X0422061Y0252982D03*
D550*
X0455861Y0293282D03*
X0459561Y0293282D03*
X0468161Y0169482D03*
X0471861Y0169482D03*
X0465261Y0160182D03*
X0465261Y0156782D03*
X0465261Y0153382D03*
X0461561Y0153382D03*
X0461561Y0156782D03*
X0461561Y0160182D03*
X0461461Y0146582D03*
X0461461Y0143082D03*
X0465161Y0143082D03*
X0465161Y0146582D03*
X0464861Y0130582D03*
X0461161Y0130582D03*
X0257621Y0243698D03*
X0253920Y0243698D03*
X0254020Y0247877D03*
X0257721Y0247877D03*
X0059214Y0230634D03*
X0055513Y0230634D03*
X0055513Y0226773D03*
X0059214Y0226773D03*
X0059114Y0220747D03*
X0059158Y0217468D03*
X0055457Y0217468D03*
X0055413Y0220747D03*
X0032658Y0223284D03*
X0028957Y0223284D03*
X0023717Y0193625D03*
X0020016Y0193625D03*
X0044716Y0182239D03*
X0048417Y0182239D03*
D551*
X0408160Y0108223D03*
X0408419Y0119588D03*
X0408395Y0130812D03*
D552*
X0399145Y0130812D03*
X0399169Y0119588D03*
X0398910Y0108223D03*
D553*
X0368091Y0084155D02*
X0368091Y0081409D01*
X0368091Y0084155D02*
X0370837Y0084155D01*
X0370837Y0081409D01*
X0368091Y0081409D01*
X0368091Y0083299D02*
X0370837Y0083299D01*
X0361185Y0084155D02*
X0361185Y0081409D01*
X0361185Y0084155D02*
X0363931Y0084155D01*
X0363931Y0081409D01*
X0361185Y0081409D01*
X0361185Y0083299D02*
X0363931Y0083299D01*
D554*
X0460063Y0185495D03*
X0460063Y0190495D03*
X0460063Y0195495D03*
X0460063Y0200495D03*
X0460063Y0205495D03*
X0475811Y0205495D03*
X0475811Y0200495D03*
X0475811Y0195495D03*
X0475811Y0190495D03*
X0475811Y0185495D03*
D555*
X0465361Y0134982D03*
X0459061Y0134982D03*
X0459561Y0298182D03*
X0453261Y0298182D03*
D556*
X0222929Y0115621D03*
X0220961Y0115621D03*
X0218992Y0115621D03*
X0217024Y0115621D03*
X0215055Y0115621D03*
X0213087Y0115621D03*
X0211118Y0115621D03*
X0209150Y0115621D03*
X0207181Y0115621D03*
X0205213Y0115621D03*
X0203244Y0115621D03*
X0193402Y0115621D03*
X0191433Y0115621D03*
X0189465Y0115621D03*
X0187496Y0115621D03*
X0185528Y0115621D03*
X0183559Y0115621D03*
X0181591Y0115621D03*
X0179622Y0115621D03*
X0177654Y0115621D03*
X0175685Y0115621D03*
X0173717Y0115621D03*
X0171748Y0115621D03*
X0169780Y0115621D03*
X0167811Y0115621D03*
X0165843Y0115621D03*
X0163874Y0115621D03*
X0161906Y0115621D03*
X0159937Y0115621D03*
X0157969Y0115621D03*
X0156000Y0115621D03*
X0154031Y0115621D03*
X0152063Y0115621D03*
X0151079Y0085896D03*
X0153047Y0085896D03*
X0155016Y0085896D03*
X0156984Y0085896D03*
X0158953Y0085896D03*
X0160921Y0085896D03*
X0162890Y0085896D03*
X0164858Y0085896D03*
X0166827Y0085896D03*
X0168795Y0085896D03*
X0170764Y0085896D03*
X0172732Y0085896D03*
X0174701Y0085896D03*
X0176669Y0085896D03*
X0178638Y0085896D03*
X0180606Y0085896D03*
X0182575Y0085896D03*
X0184543Y0085896D03*
X0186512Y0085896D03*
X0188480Y0085896D03*
X0190449Y0085896D03*
X0192417Y0085896D03*
X0202260Y0085896D03*
X0204228Y0085896D03*
X0206197Y0085896D03*
X0208165Y0085896D03*
X0210134Y0085896D03*
X0212102Y0085896D03*
X0214071Y0085896D03*
X0216039Y0085896D03*
X0218008Y0085896D03*
X0219976Y0085896D03*
X0221945Y0085896D03*
X0223913Y0085896D03*
D557*
X0226866Y0106664D03*
D558*
X0148126Y0106664D03*
D559*
X0146748Y0088947D03*
X0228244Y0088947D03*
D560*
X0461872Y0096434D03*
X0461872Y0104308D03*
D561*
X0482344Y0113757D03*
X0482344Y0086985D03*
D562*
X0177043Y0073122D03*
X0177043Y0068004D03*
D563*
X0261008Y0107932D03*
X0261008Y0115806D03*
D564*
X0415468Y0246982D03*
X0422554Y0246982D03*
D565*
X0331480Y0114401D03*
X0331480Y0101409D03*
D566*
X0477658Y0169582D03*
X0483564Y0169582D03*
X0020880Y0223472D03*
X0014975Y0223472D03*
D567*
X0393056Y0021114D03*
X0403686Y0021114D03*
D568*
X0398371Y0026154D03*
D569*
X0427180Y0098662D03*
X0427271Y0105145D03*
X0434751Y0105145D03*
X0434661Y0098662D03*
D570*
X0430920Y0090198D03*
X0431011Y0113610D03*
D571*
X0421411Y0112232D03*
X0421411Y0108532D03*
X0388611Y0192132D03*
X0388611Y0195832D03*
X0388311Y0021620D03*
X0388311Y0017919D03*
X0408557Y0017919D03*
X0408557Y0021620D03*
X0049619Y0198353D03*
X0049619Y0202054D03*
X0044107Y0202054D03*
X0044107Y0198353D03*
D572*
X0372294Y0128777D03*
X0374694Y0128777D03*
X0378494Y0128816D03*
X0380894Y0128816D03*
D573*
X0418973Y0134977D03*
X0441020Y0134977D03*
D574*
X0421311Y0103847D03*
X0421311Y0099517D03*
X0306011Y0099117D03*
X0306011Y0103447D03*
D575*
X0049616Y0188443D03*
X0049616Y0192774D03*
X0043710Y0192774D03*
X0043710Y0188443D03*
D576*
X0364898Y0345443D03*
X0374898Y0345443D03*
X0404702Y0345443D03*
X0414702Y0345443D03*
D577*
X0420312Y0317373D03*
X0359288Y0317373D03*
D578*
X0367300Y0304420D03*
X0377300Y0304420D03*
X0387300Y0304420D03*
X0397300Y0304420D03*
X0407300Y0304420D03*
X0402300Y0294420D03*
X0392300Y0294420D03*
X0382300Y0294420D03*
X0372300Y0294420D03*
X0412300Y0294420D03*
D579*
X0412300Y0329380D03*
X0367300Y0329380D03*
D580*
X0415443Y0234932D03*
X0419380Y0234932D03*
X0419380Y0228632D03*
X0419380Y0224932D03*
X0415443Y0224932D03*
X0415443Y0228632D03*
X0415443Y0218632D03*
X0419380Y0218632D03*
D581*
X0419380Y0220798D03*
X0419380Y0222766D03*
X0415443Y0222766D03*
X0415443Y0220798D03*
X0415443Y0230798D03*
X0415443Y0232766D03*
X0419380Y0232766D03*
X0419380Y0230798D03*
D582*
X0463926Y0231637D03*
X0473769Y0231637D03*
X0483611Y0231637D03*
X0483611Y0244236D03*
X0473769Y0244236D03*
X0463926Y0244236D03*
X0463411Y0263288D03*
X0473254Y0263288D03*
X0483096Y0263288D03*
X0483096Y0275886D03*
X0473254Y0275886D03*
X0463411Y0275886D03*
X0282824Y0247176D03*
X0282824Y0147176D03*
X0091945Y0207176D03*
X0091945Y0247176D03*
D583*
X0465711Y0164182D03*
D584*
X0448011Y0184182D03*
X0448211Y0205182D03*
X0485911Y0200982D03*
X0485911Y0210782D03*
X0485911Y0191982D03*
X0485911Y0182382D03*
D585*
X0397022Y0210582D03*
X0395054Y0210582D03*
X0393085Y0210582D03*
X0391117Y0210582D03*
X0389148Y0210582D03*
X0387180Y0210582D03*
X0385211Y0210582D03*
X0383243Y0210582D03*
X0381274Y0210582D03*
X0379306Y0210582D03*
X0377337Y0210582D03*
X0375369Y0210582D03*
X0375369Y0245621D03*
X0377337Y0245621D03*
X0379306Y0245621D03*
X0381274Y0245621D03*
X0383243Y0245621D03*
X0385211Y0245621D03*
X0387180Y0245621D03*
X0389148Y0245621D03*
X0391117Y0245621D03*
X0393085Y0245621D03*
X0395054Y0245621D03*
X0397022Y0245621D03*
D586*
X0403715Y0238928D03*
X0403715Y0236960D03*
X0403715Y0234991D03*
X0403715Y0233023D03*
X0403715Y0231054D03*
X0403715Y0229086D03*
X0403715Y0227117D03*
X0403715Y0225149D03*
X0403715Y0223180D03*
X0403715Y0221212D03*
X0403715Y0219243D03*
X0403715Y0217275D03*
X0368676Y0217275D03*
X0368676Y0219243D03*
X0368676Y0221212D03*
X0368676Y0223180D03*
X0368676Y0225149D03*
X0368676Y0227117D03*
X0368676Y0229086D03*
X0368676Y0231054D03*
X0368676Y0233023D03*
X0368676Y0234991D03*
X0368676Y0236960D03*
X0368676Y0238928D03*
D587*
X0360331Y0121571D02*
X0360331Y0119406D01*
X0358362Y0119406D02*
X0358362Y0121571D01*
X0356394Y0121571D02*
X0356394Y0119406D01*
X0354425Y0119406D02*
X0354425Y0121571D01*
X0352457Y0121571D02*
X0352457Y0119406D01*
X0350488Y0119406D02*
X0350488Y0121571D01*
X0348717Y0117634D02*
X0346551Y0117634D01*
X0346551Y0115666D02*
X0348717Y0115666D01*
X0348717Y0113697D02*
X0346551Y0113697D01*
X0346551Y0111728D02*
X0348717Y0111728D01*
X0348717Y0109760D02*
X0346551Y0109760D01*
X0346551Y0107791D02*
X0348717Y0107791D01*
X0350488Y0106020D02*
X0350488Y0103854D01*
X0352457Y0103854D02*
X0352457Y0106020D01*
X0354425Y0106020D02*
X0354425Y0103854D01*
X0356394Y0103854D02*
X0356394Y0106020D01*
X0358362Y0106020D02*
X0358362Y0103854D01*
X0360331Y0103854D02*
X0360331Y0106020D01*
X0362102Y0107791D02*
X0364268Y0107791D01*
X0364268Y0109760D02*
X0362102Y0109760D01*
X0362102Y0111728D02*
X0364268Y0111728D01*
X0364268Y0113697D02*
X0362102Y0113697D01*
X0362102Y0115666D02*
X0364268Y0115666D01*
X0364268Y0117634D02*
X0362102Y0117634D01*
D588*
X0355409Y0112713D03*
D589*
X0300729Y0105122D03*
X0300729Y0097642D03*
X0290493Y0097642D03*
X0290493Y0101382D03*
X0290493Y0105122D03*
D590*
X0271372Y0113947D03*
D591*
X0271372Y0111782D03*
X0271372Y0109814D03*
X0279050Y0109814D03*
X0279050Y0111782D03*
X0279050Y0113751D03*
D592*
X0277180Y0113736D02*
X0273243Y0113736D01*
X0273243Y0113699D02*
X0277180Y0113699D01*
X0277180Y0113661D02*
X0273243Y0113661D01*
X0273243Y0113623D02*
X0277180Y0113623D01*
X0277180Y0113585D02*
X0273243Y0113585D01*
X0273243Y0113547D02*
X0277180Y0113547D01*
X0277180Y0113509D02*
X0273243Y0113509D01*
X0273243Y0113471D02*
X0277180Y0113471D01*
X0277180Y0113433D02*
X0273243Y0113433D01*
X0273243Y0113396D02*
X0277180Y0113396D01*
X0277180Y0113358D02*
X0273243Y0113358D01*
X0273243Y0113320D02*
X0277180Y0113320D01*
X0277180Y0113282D02*
X0273243Y0113282D01*
X0273243Y0113244D02*
X0277180Y0113244D01*
X0277180Y0113206D02*
X0273243Y0113206D01*
X0273243Y0113168D02*
X0277180Y0113168D01*
X0277180Y0113130D02*
X0273243Y0113130D01*
X0273243Y0113092D02*
X0277180Y0113092D01*
X0277180Y0113055D02*
X0273243Y0113055D01*
X0273243Y0113017D02*
X0277180Y0113017D01*
X0277180Y0112979D02*
X0273243Y0112979D01*
X0273243Y0112941D02*
X0277180Y0112941D01*
X0277180Y0112903D02*
X0273243Y0112903D01*
X0273243Y0112865D02*
X0277180Y0112865D01*
X0277180Y0112827D02*
X0273243Y0112827D01*
X0273243Y0112789D02*
X0277180Y0112789D01*
X0277180Y0112752D02*
X0273243Y0112752D01*
X0273243Y0112714D02*
X0277180Y0112714D01*
X0277180Y0112676D02*
X0273243Y0112676D01*
X0273243Y0112638D02*
X0277180Y0112638D01*
X0277180Y0112600D02*
X0273243Y0112600D01*
X0273243Y0112562D02*
X0277180Y0112562D01*
X0277180Y0112524D02*
X0273243Y0112524D01*
X0273243Y0112486D02*
X0277180Y0112486D01*
X0277180Y0112448D02*
X0273243Y0112448D01*
X0273243Y0112411D02*
X0277180Y0112411D01*
X0277180Y0112373D02*
X0273243Y0112373D01*
X0273243Y0112335D02*
X0277180Y0112335D01*
X0277180Y0112297D02*
X0273243Y0112297D01*
X0273243Y0112259D02*
X0277180Y0112259D01*
X0277180Y0112221D02*
X0273243Y0112221D01*
X0273243Y0112183D02*
X0277180Y0112183D01*
X0277180Y0112145D02*
X0273243Y0112145D01*
X0273243Y0112108D02*
X0277180Y0112108D01*
X0277180Y0112070D02*
X0273243Y0112070D01*
X0273243Y0112032D02*
X0277180Y0112032D01*
X0277180Y0111994D02*
X0273243Y0111994D01*
X0273243Y0111956D02*
X0277180Y0111956D01*
X0277180Y0111918D02*
X0273243Y0111918D01*
X0273243Y0111880D02*
X0277180Y0111880D01*
X0277180Y0111842D02*
X0273243Y0111842D01*
X0273243Y0111805D02*
X0277180Y0111805D01*
X0277180Y0111767D02*
X0273243Y0111767D01*
X0273243Y0111729D02*
X0277180Y0111729D01*
X0277180Y0111691D02*
X0273243Y0111691D01*
X0273243Y0111653D02*
X0277180Y0111653D01*
X0277180Y0111615D02*
X0273243Y0111615D01*
X0273243Y0111577D02*
X0277180Y0111577D01*
X0277180Y0111539D02*
X0273243Y0111539D01*
X0273243Y0111501D02*
X0277180Y0111501D01*
X0277180Y0111464D02*
X0273243Y0111464D01*
X0273243Y0111426D02*
X0277180Y0111426D01*
X0277180Y0111388D02*
X0273243Y0111388D01*
X0273243Y0111350D02*
X0277180Y0111350D01*
X0277180Y0111312D02*
X0273243Y0111312D01*
X0273243Y0111274D02*
X0277180Y0111274D01*
X0277180Y0111236D02*
X0273243Y0111236D01*
X0273243Y0111198D02*
X0277180Y0111198D01*
X0277180Y0111161D02*
X0273243Y0111161D01*
X0273243Y0111123D02*
X0277180Y0111123D01*
X0277180Y0111085D02*
X0273243Y0111085D01*
X0273243Y0111047D02*
X0277180Y0111047D01*
X0277180Y0111009D02*
X0273243Y0111009D01*
X0273243Y0110971D02*
X0277180Y0110971D01*
X0277180Y0110933D02*
X0273243Y0110933D01*
X0273243Y0110895D02*
X0277180Y0110895D01*
X0277180Y0110857D02*
X0273243Y0110857D01*
X0273243Y0110820D02*
X0277180Y0110820D01*
X0277180Y0110782D02*
X0273243Y0110782D01*
X0273243Y0110744D02*
X0277180Y0110744D01*
X0277180Y0110706D02*
X0273243Y0110706D01*
X0273243Y0110668D02*
X0277180Y0110668D01*
X0277180Y0110630D02*
X0273243Y0110630D01*
X0273243Y0110592D02*
X0277180Y0110592D01*
X0277180Y0110554D02*
X0273243Y0110554D01*
X0273243Y0110517D02*
X0277180Y0110517D01*
X0277180Y0110479D02*
X0273243Y0110479D01*
X0273243Y0110441D02*
X0277180Y0110441D01*
X0277180Y0110403D02*
X0273243Y0110403D01*
X0273243Y0110365D02*
X0277180Y0110365D01*
X0277180Y0110327D02*
X0273243Y0110327D01*
X0273243Y0110289D02*
X0277180Y0110289D01*
X0277180Y0110251D02*
X0273243Y0110251D01*
X0273243Y0110213D02*
X0277180Y0110213D01*
X0277180Y0110176D02*
X0273243Y0110176D01*
X0273243Y0110138D02*
X0277180Y0110138D01*
X0277180Y0110100D02*
X0273243Y0110100D01*
X0273243Y0110062D02*
X0277180Y0110062D01*
X0277180Y0110024D02*
X0273243Y0110024D01*
X0273243Y0109986D02*
X0277180Y0109986D01*
X0277180Y0109948D02*
X0273243Y0109948D01*
X0273243Y0109910D02*
X0277180Y0109910D01*
X0277180Y0109873D02*
X0273243Y0109873D01*
X0273243Y0109835D02*
X0277180Y0109835D01*
X0277180Y0109797D02*
X0273243Y0109797D01*
X0273243Y0109759D02*
X0277180Y0109759D01*
X0277180Y0109721D02*
X0273243Y0109721D01*
X0273243Y0109683D02*
X0277180Y0109683D01*
X0277180Y0109645D02*
X0273243Y0109645D01*
X0273243Y0109607D02*
X0277180Y0109607D01*
X0277180Y0109570D02*
X0273243Y0109570D01*
X0273243Y0109532D02*
X0277180Y0109532D01*
X0277180Y0109494D02*
X0273243Y0109494D01*
X0273243Y0109456D02*
X0277180Y0109456D01*
X0277180Y0109418D02*
X0273243Y0109418D01*
X0273243Y0109380D02*
X0277180Y0109380D01*
X0277180Y0109342D02*
X0273243Y0109342D01*
X0273243Y0109304D02*
X0277180Y0109304D01*
X0277180Y0109266D02*
X0273243Y0109266D01*
X0273243Y0109229D02*
X0277180Y0109229D01*
X0277180Y0109191D02*
X0273243Y0109191D01*
X0273243Y0109153D02*
X0277180Y0109153D01*
X0277180Y0109115D02*
X0273243Y0109115D01*
X0273243Y0109077D02*
X0277180Y0109077D01*
X0277180Y0109039D02*
X0273243Y0109039D01*
X0273243Y0109001D02*
X0277180Y0109001D01*
X0277180Y0108963D02*
X0273243Y0108963D01*
X0273243Y0108926D02*
X0277180Y0108926D01*
X0277180Y0108888D02*
X0273243Y0108888D01*
X0273243Y0108850D02*
X0277180Y0108850D01*
X0277180Y0108812D02*
X0273243Y0108812D01*
X0273243Y0108774D02*
X0277180Y0108774D01*
X0277180Y0108736D02*
X0273243Y0108736D01*
X0273243Y0108698D02*
X0277180Y0108698D01*
X0277180Y0108660D02*
X0273243Y0108660D01*
X0273243Y0108632D02*
X0273243Y0114932D01*
X0273439Y0114932D01*
X0273439Y0115325D01*
X0276983Y0115325D01*
X0276983Y0114932D01*
X0277180Y0114932D01*
X0277180Y0108632D01*
X0276983Y0108632D01*
X0276983Y0108239D01*
X0273439Y0108239D01*
X0273439Y0108632D01*
X0273243Y0108632D01*
X0273439Y0108622D02*
X0276983Y0108622D01*
X0276983Y0108585D02*
X0273439Y0108585D01*
X0273439Y0108547D02*
X0276983Y0108547D01*
X0276983Y0108509D02*
X0273439Y0108509D01*
X0273439Y0108471D02*
X0276983Y0108471D01*
X0276983Y0108433D02*
X0273439Y0108433D01*
X0273439Y0108395D02*
X0276983Y0108395D01*
X0276983Y0108357D02*
X0273439Y0108357D01*
X0273439Y0108319D02*
X0276983Y0108319D01*
X0276983Y0108282D02*
X0273439Y0108282D01*
X0273439Y0108244D02*
X0276983Y0108244D01*
X0277180Y0113774D02*
X0273243Y0113774D01*
X0273243Y0113812D02*
X0277180Y0113812D01*
X0277180Y0113850D02*
X0273243Y0113850D01*
X0273243Y0113888D02*
X0277180Y0113888D01*
X0277180Y0113926D02*
X0273243Y0113926D01*
X0273243Y0113964D02*
X0277180Y0113964D01*
X0277180Y0114002D02*
X0273243Y0114002D01*
X0273243Y0114040D02*
X0277180Y0114040D01*
X0277180Y0114077D02*
X0273243Y0114077D01*
X0273243Y0114115D02*
X0277180Y0114115D01*
X0277180Y0114153D02*
X0273243Y0114153D01*
X0273243Y0114191D02*
X0277180Y0114191D01*
X0277180Y0114229D02*
X0273243Y0114229D01*
X0273243Y0114267D02*
X0277180Y0114267D01*
X0277180Y0114305D02*
X0273243Y0114305D01*
X0273243Y0114343D02*
X0277180Y0114343D01*
X0277180Y0114380D02*
X0273243Y0114380D01*
X0273243Y0114418D02*
X0277180Y0114418D01*
X0277180Y0114456D02*
X0273243Y0114456D01*
X0273243Y0114494D02*
X0277180Y0114494D01*
X0277180Y0114532D02*
X0273243Y0114532D01*
X0273243Y0114570D02*
X0277180Y0114570D01*
X0277180Y0114608D02*
X0273243Y0114608D01*
X0273243Y0114646D02*
X0277180Y0114646D01*
X0277180Y0114683D02*
X0273243Y0114683D01*
X0273243Y0114721D02*
X0277180Y0114721D01*
X0277180Y0114759D02*
X0273243Y0114759D01*
X0273243Y0114797D02*
X0277180Y0114797D01*
X0277180Y0114835D02*
X0273243Y0114835D01*
X0273243Y0114873D02*
X0277180Y0114873D01*
X0277180Y0114911D02*
X0273243Y0114911D01*
X0273439Y0114949D02*
X0276983Y0114949D01*
X0276983Y0114987D02*
X0273439Y0114987D01*
X0273439Y0115024D02*
X0276983Y0115024D01*
X0276983Y0115062D02*
X0273439Y0115062D01*
X0273439Y0115100D02*
X0276983Y0115100D01*
X0276983Y0115138D02*
X0273439Y0115138D01*
X0273439Y0115176D02*
X0276983Y0115176D01*
X0276983Y0115214D02*
X0273439Y0115214D01*
X0273439Y0115252D02*
X0276983Y0115252D01*
X0276983Y0115290D02*
X0273439Y0115290D01*
D593*
X0474131Y0138596D03*
X0474131Y0141155D03*
X0474131Y0143714D03*
X0474131Y0146273D03*
X0474131Y0148832D03*
X0474131Y0300014D03*
X0474131Y0302573D03*
X0474131Y0305132D03*
X0474131Y0307691D03*
X0474131Y0310250D03*
D594*
X0471950Y0314679D02*
X0476312Y0314679D01*
X0476312Y0295584D02*
X0471950Y0295584D01*
X0471950Y0153262D02*
X0476312Y0153262D01*
X0476312Y0134167D02*
X0471950Y0134167D01*
D595*
X0482580Y0129443D02*
X0486548Y0129443D01*
X0486548Y0157986D02*
X0482580Y0157986D01*
X0482580Y0290860D02*
X0486548Y0290860D01*
X0486548Y0319403D02*
X0482580Y0319403D01*
D596*
X0248200Y0336821D03*
X0127400Y0336821D03*
D597*
X0117361Y0346860D03*
X0137439Y0346860D03*
X0137439Y0326782D03*
X0117361Y0326782D03*
X0238161Y0326782D03*
X0258239Y0326782D03*
X0258239Y0346860D03*
X0238161Y0346860D03*
D598*
X0021579Y0284823D03*
X0021579Y0280492D03*
X0020791Y0276162D03*
X0021579Y0271831D03*
X0020791Y0267500D03*
X0021579Y0263169D03*
X0023154Y0258839D03*
X0021579Y0254508D03*
D599*
X0006421Y0236162D03*
X0010358Y0287933D03*
D600*
X0062130Y0281634D03*
X0062130Y0259193D03*
D601*
X0380285Y0187127D03*
X0380285Y0180237D03*
X0389537Y0180237D03*
X0389537Y0187127D03*
D602*
X0386867Y0158685D03*
X0396867Y0158685D03*
X0376867Y0158685D03*
X0340911Y0089082D03*
X0330911Y0089082D03*
X0267611Y0125582D03*
X0257611Y0125582D03*
X0254111Y0098282D03*
X0244111Y0098282D03*
X0355367Y0278185D03*
X0365367Y0278185D03*
X0415489Y0278185D03*
X0425489Y0278185D03*
D603*
X0447763Y0071561D02*
X0455637Y0071561D01*
X0463511Y0056600D02*
X0463511Y0048726D01*
X0439495Y0048726D02*
X0439495Y0056600D01*
D604*
X0359268Y0046321D03*
X0349268Y0046321D03*
X0339268Y0046321D03*
X0329268Y0046321D03*
X0319268Y0046321D03*
X0309268Y0046321D03*
X0299268Y0046321D03*
X0289268Y0046321D03*
X0279268Y0046321D03*
X0269268Y0046321D03*
X0259268Y0046321D03*
X0249268Y0046321D03*
X0239268Y0046321D03*
X0229268Y0046321D03*
X0219268Y0046321D03*
X0209268Y0046321D03*
X0199268Y0046321D03*
X0189268Y0046321D03*
X0179268Y0046321D03*
X0169268Y0046321D03*
X0159268Y0046321D03*
X0149268Y0046321D03*
X0139268Y0046321D03*
X0129268Y0046321D03*
X0119268Y0046321D03*
X0109268Y0046321D03*
X0099268Y0046321D03*
X0089268Y0046321D03*
X0079268Y0046321D03*
X0069268Y0046321D03*
X0069268Y0021810D03*
X0079268Y0021810D03*
X0089268Y0021810D03*
X0099268Y0021810D03*
X0109268Y0021810D03*
X0119268Y0021810D03*
X0129268Y0021810D03*
X0139268Y0021810D03*
X0149268Y0021810D03*
X0159268Y0021810D03*
X0169268Y0021810D03*
X0179268Y0021810D03*
X0189268Y0021810D03*
X0199268Y0021810D03*
X0209268Y0021810D03*
X0219268Y0021810D03*
X0229268Y0021810D03*
X0239268Y0021810D03*
X0249268Y0021810D03*
X0259268Y0021810D03*
X0269268Y0021810D03*
X0279268Y0021810D03*
X0289268Y0021810D03*
X0299268Y0021810D03*
X0309268Y0021810D03*
X0319268Y0021810D03*
X0329268Y0021810D03*
X0339268Y0021810D03*
X0349268Y0021810D03*
X0359268Y0021810D03*
D605*
X0354268Y0033672D03*
X0074268Y0033672D03*
D606*
X0148051Y0130128D03*
X0148051Y0139971D03*
X0148051Y0149814D03*
X0148051Y0159656D03*
D607*
X0300188Y0128901D03*
X0300188Y0126932D03*
X0300188Y0124964D03*
X0300188Y0122995D03*
X0311212Y0122995D03*
X0311212Y0122995D03*
X0311212Y0124964D03*
X0311212Y0126932D03*
X0311212Y0128901D03*
D608*
X0305700Y0125948D03*
D609*
X0317425Y0127828D03*
X0317425Y0130978D03*
D610*
X0036433Y0120286D03*
X0036433Y0057294D03*
D611*
X0036433Y0065168D03*
X0036433Y0073042D03*
X0036433Y0080916D03*
X0036433Y0128160D03*
X0036433Y0136034D03*
X0036433Y0143908D03*
D612*
X0079150Y0202176D03*
X0079150Y0212176D03*
X0079150Y0222176D03*
X0079150Y0232176D03*
X0079150Y0242176D03*
X0079150Y0252176D03*
X0104740Y0252176D03*
X0104740Y0242176D03*
X0104740Y0232176D03*
X0104740Y0222176D03*
X0104740Y0212176D03*
X0104740Y0202176D03*
X0270028Y0202176D03*
X0270028Y0212176D03*
X0270028Y0222176D03*
X0270028Y0232176D03*
X0270028Y0242176D03*
X0270028Y0252176D03*
X0295619Y0252176D03*
X0295619Y0242176D03*
X0295619Y0232176D03*
X0295619Y0222176D03*
X0295619Y0212176D03*
X0295619Y0202176D03*
X0295619Y0192176D03*
X0295619Y0182176D03*
X0295619Y0172176D03*
X0295619Y0162176D03*
X0295619Y0152176D03*
X0295619Y0142176D03*
X0270028Y0142176D03*
X0270028Y0152176D03*
X0270028Y0162176D03*
X0270028Y0172176D03*
X0270028Y0182176D03*
X0270028Y0192176D03*
D613*
X0187421Y0265955D03*
D614*
X0436506Y0195882D03*
X0448317Y0195882D03*
D615*
X0461311Y0149982D03*
X0465311Y0149982D03*
X0465411Y0139382D03*
X0461411Y0139382D03*
X0466511Y0296982D03*
X0466511Y0300982D03*
X0466511Y0307482D03*
X0466511Y0311482D03*
X0031280Y0178200D03*
X0031280Y0174200D03*
X0027199Y0194325D03*
X0027199Y0198325D03*
D616*
X0018717Y0017924D03*
X0018717Y0338790D03*
X0473441Y0338790D03*
X0473441Y0017924D03*
M02*
