G75*
%MOIN*%
%OFA0B0*%
%FSLAX25Y25*%
%IPPOS*%
%LPD*%
%AMOC8*
5,1,8,0,0,1.08239X$1,22.5*
%
%ADD10R,0.05000X0.02500*%
%ADD11R,0.02400X0.01800*%
%ADD12R,0.01600X0.01400*%
%ADD13R,0.01800X0.02400*%
%ADD14R,0.08071X0.04331*%
%ADD15R,0.04100X0.02800*%
%ADD16R,0.02800X0.04100*%
%ADD17R,0.01772X0.02165*%
%ADD18R,0.03000X0.05000*%
%ADD19R,0.09200X0.09700*%
%ADD20C,0.01181*%
%ADD21R,0.08268X0.02756*%
%ADD22R,0.03346X0.04921*%
%ADD23R,0.01181X0.06102*%
%ADD24R,0.04724X0.10827*%
%ADD25R,0.18110X0.03937*%
%ADD26R,0.13386X0.06299*%
%ADD27R,0.03346X0.02756*%
%ADD28R,0.11811X0.03937*%
%ADD29R,0.03150X0.04724*%
%ADD30R,0.09055X0.06496*%
%ADD31R,0.02756X0.03150*%
%ADD32R,0.03150X0.08661*%
%ADD33R,0.02874X0.05906*%
%ADD34R,0.03150X0.03740*%
%ADD35R,0.03150X0.04921*%
%ADD36R,0.02165X0.01772*%
%ADD37R,0.01400X0.01600*%
%ADD38R,0.07087X0.12598*%
%ADD39R,0.02362X0.02362*%
%ADD40R,0.03937X0.03150*%
%ADD41R,0.01969X0.01575*%
%ADD42R,0.01969X0.01181*%
%ADD43C,0.03937*%
%ADD44R,0.01181X0.05906*%
%ADD45R,0.05906X0.01181*%
%ADD46C,0.00906*%
%ADD47R,0.04331X0.04331*%
%ADD48R,0.04724X0.02165*%
%ADD49R,0.01772X0.01378*%
%ADD50R,0.01772X0.00984*%
%ADD51C,0.00039*%
%ADD52R,0.05512X0.01575*%
%ADD53C,0.00100*%
%ADD54R,0.05906X0.03150*%
%ADD55R,0.07480X0.05512*%
%ADD56R,0.05512X0.07087*%
%ADD57R,0.04724X0.04331*%
%ADD58R,0.03937X0.13780*%
%ADD59C,0.08000*%
%ADD60R,0.03150X0.01181*%
%ADD61R,0.02600X0.02600*%
%ADD62R,0.02362X0.02165*%
%ADD63R,0.17717X0.04016*%
%ADD64R,0.04724X0.02756*%
%ADD65R,0.01969X0.01969*%
%ADD66C,0.04500*%
D10*
X0011433Y0172714D03*
X0011433Y0178639D03*
X0025213Y0178639D03*
X0025213Y0172714D03*
X0025213Y0204604D03*
X0025213Y0210529D03*
X0011433Y0210529D03*
X0011433Y0204604D03*
D11*
X0268611Y0102354D03*
X0268611Y0098554D03*
X0272411Y0098554D03*
X0272411Y0102354D03*
X0276311Y0102354D03*
X0276311Y0098554D03*
X0281011Y0100954D03*
X0281011Y0104754D03*
X0285611Y0104754D03*
X0285611Y0100954D03*
X0310311Y0100354D03*
X0310311Y0104154D03*
X0317397Y0121195D03*
X0321111Y0121254D03*
X0321111Y0125054D03*
X0321177Y0127913D03*
X0321177Y0131713D03*
X0317397Y0124995D03*
X0347211Y0128354D03*
X0350811Y0128354D03*
X0354511Y0128354D03*
X0358311Y0128354D03*
X0361911Y0128354D03*
X0361911Y0132154D03*
X0358311Y0132154D03*
X0354511Y0132154D03*
X0350811Y0132154D03*
X0347211Y0132154D03*
X0384311Y0107754D03*
X0384311Y0103954D03*
X0374111Y0180054D03*
X0374111Y0183854D03*
X0376011Y0196154D03*
X0376011Y0199954D03*
X0381411Y0199954D03*
X0381411Y0196154D03*
X0392498Y0196354D03*
X0396270Y0196280D03*
X0399894Y0196256D03*
X0399894Y0200056D03*
X0396270Y0200080D03*
X0392498Y0200154D03*
X0403993Y0199954D03*
X0403993Y0196154D03*
X0396011Y0184154D03*
X0396011Y0180354D03*
X0359211Y0229954D03*
X0359211Y0233754D03*
X0359211Y0238354D03*
X0359211Y0242154D03*
X0374211Y0253354D03*
X0374211Y0257154D03*
X0378411Y0257154D03*
X0378411Y0253354D03*
X0383211Y0253354D03*
X0383211Y0257154D03*
X0383811Y0264754D03*
X0383811Y0268554D03*
X0379611Y0268554D03*
X0379611Y0264754D03*
X0388911Y0264854D03*
X0388911Y0268654D03*
X0392811Y0268654D03*
X0392811Y0264854D03*
X0399211Y0257054D03*
X0399211Y0253254D03*
X0403211Y0253254D03*
X0403211Y0257054D03*
X0388011Y0277954D03*
X0388011Y0281754D03*
X0383811Y0281754D03*
X0383811Y0277954D03*
X0379611Y0277954D03*
X0379611Y0281754D03*
D12*
X0352011Y0098554D03*
X0352011Y0096354D03*
D13*
X0352811Y0083554D03*
X0356611Y0083554D03*
X0365194Y0129059D03*
X0368994Y0129059D03*
X0359511Y0189496D03*
X0355711Y0189496D03*
X0355711Y0193621D03*
X0359511Y0193621D03*
X0359511Y0197708D03*
X0355711Y0197708D03*
X0355799Y0201661D03*
X0359599Y0201661D03*
X0359511Y0205654D03*
X0355711Y0205654D03*
X0355711Y0209854D03*
X0359511Y0209854D03*
X0359511Y0215854D03*
X0355711Y0215854D03*
X0355711Y0220054D03*
X0359511Y0220054D03*
X0384911Y0199954D03*
X0388711Y0199954D03*
X0415811Y0206354D03*
X0419611Y0206354D03*
X0419511Y0210454D03*
X0415711Y0210454D03*
X0415711Y0214654D03*
X0419511Y0214654D03*
X0395111Y0253654D03*
X0391311Y0253654D03*
X0399611Y0264954D03*
X0403411Y0264954D03*
X0406911Y0264954D03*
X0410711Y0264954D03*
X0388111Y0273454D03*
X0384311Y0273454D03*
X0379711Y0273454D03*
X0375911Y0273454D03*
X0455911Y0289054D03*
X0459711Y0289054D03*
X0023666Y0198897D03*
X0019866Y0198897D03*
D14*
X0438523Y0294234D03*
X0438523Y0312226D03*
D15*
X0354511Y0236004D03*
X0354511Y0230104D03*
X0284211Y0115904D03*
X0284211Y0110004D03*
X0263811Y0102504D03*
X0263811Y0096604D03*
X0314711Y0098804D03*
X0320111Y0098904D03*
X0320111Y0104804D03*
X0314711Y0104704D03*
X0357411Y0097804D03*
X0362694Y0097804D03*
X0368211Y0097804D03*
X0368211Y0091904D03*
X0362694Y0091904D03*
X0357411Y0091904D03*
X0374076Y0101960D03*
X0379876Y0101960D03*
X0379876Y0107860D03*
X0374076Y0107860D03*
D16*
X0336961Y0121454D03*
X0331061Y0121454D03*
X0353361Y0225454D03*
X0359261Y0225454D03*
X0416161Y0253254D03*
X0422061Y0253254D03*
D17*
X0455861Y0293554D03*
X0459561Y0293554D03*
X0468161Y0169754D03*
X0471861Y0169754D03*
X0465261Y0160454D03*
X0465261Y0157054D03*
X0465261Y0153654D03*
X0461561Y0153654D03*
X0461561Y0157054D03*
X0461561Y0160454D03*
X0461461Y0146854D03*
X0461461Y0143354D03*
X0465161Y0143354D03*
X0465161Y0146854D03*
X0464861Y0130854D03*
X0461161Y0130854D03*
X0257621Y0243970D03*
X0253920Y0243970D03*
X0254020Y0248149D03*
X0257721Y0248149D03*
X0059214Y0230906D03*
X0055513Y0230906D03*
X0055513Y0227046D03*
X0059214Y0227046D03*
X0059114Y0221019D03*
X0059158Y0217740D03*
X0055457Y0217740D03*
X0055413Y0221019D03*
X0032658Y0223557D03*
X0028957Y0223557D03*
X0023717Y0193897D03*
X0020016Y0193897D03*
X0044716Y0182511D03*
X0048417Y0182511D03*
D18*
X0408160Y0108495D03*
X0408419Y0119861D03*
X0408395Y0131084D03*
D19*
X0399145Y0131084D03*
X0399169Y0119861D03*
X0398910Y0108495D03*
D20*
X0368086Y0084432D02*
X0368086Y0081676D01*
X0368086Y0084432D02*
X0370842Y0084432D01*
X0370842Y0081676D01*
X0368086Y0081676D01*
X0368086Y0082798D02*
X0370842Y0082798D01*
X0370842Y0083920D02*
X0368086Y0083920D01*
X0361180Y0084432D02*
X0361180Y0081676D01*
X0361180Y0084432D02*
X0363936Y0084432D01*
X0363936Y0081676D01*
X0361180Y0081676D01*
X0361180Y0082798D02*
X0363936Y0082798D01*
X0363936Y0083920D02*
X0361180Y0083920D01*
D21*
X0460063Y0185768D03*
X0460063Y0190768D03*
X0460063Y0195768D03*
X0460063Y0200768D03*
X0460063Y0205768D03*
X0475811Y0205768D03*
X0475811Y0200768D03*
X0475811Y0195768D03*
X0475811Y0190768D03*
X0475811Y0185768D03*
D22*
X0465361Y0135254D03*
X0459061Y0135254D03*
X0459561Y0298454D03*
X0453261Y0298454D03*
D23*
X0222929Y0115893D03*
X0220961Y0115893D03*
X0218992Y0115893D03*
X0217024Y0115893D03*
X0215055Y0115893D03*
X0213087Y0115893D03*
X0211118Y0115893D03*
X0209150Y0115893D03*
X0207181Y0115893D03*
X0205213Y0115893D03*
X0203244Y0115893D03*
X0193402Y0115893D03*
X0191433Y0115893D03*
X0189465Y0115893D03*
X0187496Y0115893D03*
X0185528Y0115893D03*
X0183559Y0115893D03*
X0181591Y0115893D03*
X0179622Y0115893D03*
X0177654Y0115893D03*
X0175685Y0115893D03*
X0173717Y0115893D03*
X0171748Y0115893D03*
X0169780Y0115893D03*
X0167811Y0115893D03*
X0165843Y0115893D03*
X0163874Y0115893D03*
X0161906Y0115893D03*
X0159937Y0115893D03*
X0157969Y0115893D03*
X0156000Y0115893D03*
X0154031Y0115893D03*
X0152063Y0115893D03*
X0151079Y0086169D03*
X0153047Y0086169D03*
X0155016Y0086169D03*
X0156984Y0086169D03*
X0158953Y0086169D03*
X0160921Y0086169D03*
X0162890Y0086169D03*
X0164858Y0086169D03*
X0166827Y0086169D03*
X0168795Y0086169D03*
X0170764Y0086169D03*
X0172732Y0086169D03*
X0174701Y0086169D03*
X0176669Y0086169D03*
X0178638Y0086169D03*
X0180606Y0086169D03*
X0182575Y0086169D03*
X0184543Y0086169D03*
X0186512Y0086169D03*
X0188480Y0086169D03*
X0190449Y0086169D03*
X0192417Y0086169D03*
X0202260Y0086169D03*
X0204228Y0086169D03*
X0206197Y0086169D03*
X0208165Y0086169D03*
X0210134Y0086169D03*
X0212102Y0086169D03*
X0214071Y0086169D03*
X0216039Y0086169D03*
X0218008Y0086169D03*
X0219976Y0086169D03*
X0221945Y0086169D03*
X0223913Y0086169D03*
D24*
X0228244Y0089220D03*
X0146748Y0089220D03*
D25*
X0461872Y0096706D03*
X0461872Y0104580D03*
D26*
X0482344Y0114029D03*
X0482344Y0087258D03*
D27*
X0177043Y0073395D03*
X0177043Y0068276D03*
D28*
X0261008Y0108205D03*
X0261008Y0116079D03*
D29*
X0415468Y0247254D03*
X0422554Y0247254D03*
D30*
X0331480Y0114673D03*
X0331480Y0101681D03*
D31*
X0477658Y0169854D03*
X0483564Y0169854D03*
X0020880Y0223744D03*
X0014975Y0223744D03*
D32*
X0393056Y0021387D03*
X0403686Y0021387D03*
D33*
X0398371Y0026426D03*
D34*
X0427180Y0098935D03*
X0427271Y0105417D03*
X0434751Y0105417D03*
X0434661Y0098935D03*
D35*
X0430920Y0090470D03*
X0431011Y0113882D03*
D36*
X0421411Y0112505D03*
X0421411Y0108804D03*
X0388611Y0192404D03*
X0388611Y0196105D03*
X0388311Y0021892D03*
X0388311Y0018191D03*
X0408557Y0018191D03*
X0408557Y0021892D03*
X0049619Y0198625D03*
X0049619Y0202326D03*
X0044107Y0202326D03*
X0044107Y0198625D03*
D37*
X0372394Y0129049D03*
X0374594Y0129049D03*
X0378594Y0129088D03*
X0380794Y0129088D03*
D38*
X0418973Y0135250D03*
X0441020Y0135250D03*
D39*
X0421311Y0104120D03*
X0421311Y0099789D03*
X0306011Y0099389D03*
X0306011Y0103720D03*
D40*
X0049616Y0188716D03*
X0049616Y0193047D03*
X0043710Y0193047D03*
X0043710Y0188716D03*
D41*
X0415443Y0218905D03*
X0419380Y0218905D03*
X0419380Y0225204D03*
X0419380Y0228905D03*
X0415443Y0228905D03*
X0415443Y0225204D03*
X0415443Y0235204D03*
X0419380Y0235204D03*
D42*
X0419380Y0233039D03*
X0419380Y0231070D03*
X0415443Y0231070D03*
X0415443Y0233039D03*
X0415443Y0223039D03*
X0415443Y0221070D03*
X0419380Y0221070D03*
X0419380Y0223039D03*
D43*
X0465711Y0164454D03*
D44*
X0397022Y0210854D03*
X0395054Y0210854D03*
X0393085Y0210854D03*
X0391117Y0210854D03*
X0389148Y0210854D03*
X0387180Y0210854D03*
X0385211Y0210854D03*
X0383243Y0210854D03*
X0381274Y0210854D03*
X0379306Y0210854D03*
X0377337Y0210854D03*
X0375369Y0210854D03*
X0375369Y0245894D03*
X0377337Y0245894D03*
X0379306Y0245894D03*
X0381274Y0245894D03*
X0383243Y0245894D03*
X0385211Y0245894D03*
X0387180Y0245894D03*
X0389148Y0245894D03*
X0391117Y0245894D03*
X0393085Y0245894D03*
X0395054Y0245894D03*
X0397022Y0245894D03*
D45*
X0403715Y0239201D03*
X0403715Y0237232D03*
X0403715Y0235264D03*
X0403715Y0233295D03*
X0403715Y0231327D03*
X0403715Y0229358D03*
X0403715Y0227390D03*
X0403715Y0225421D03*
X0403715Y0223453D03*
X0403715Y0221484D03*
X0403715Y0219516D03*
X0403715Y0217547D03*
X0368676Y0217547D03*
X0368676Y0219516D03*
X0368676Y0221484D03*
X0368676Y0223453D03*
X0368676Y0225421D03*
X0368676Y0227390D03*
X0368676Y0229358D03*
X0368676Y0231327D03*
X0368676Y0233295D03*
X0368676Y0235264D03*
X0368676Y0237232D03*
X0368676Y0239201D03*
D46*
X0360331Y0121843D02*
X0360331Y0119678D01*
X0358362Y0119678D02*
X0358362Y0121843D01*
X0356394Y0121843D02*
X0356394Y0119678D01*
X0354425Y0119678D02*
X0354425Y0121843D01*
X0352457Y0121843D02*
X0352457Y0119678D01*
X0350488Y0119678D02*
X0350488Y0121843D01*
X0348717Y0117906D02*
X0346551Y0117906D01*
X0346551Y0115938D02*
X0348717Y0115938D01*
X0348717Y0113969D02*
X0346551Y0113969D01*
X0346551Y0112001D02*
X0348717Y0112001D01*
X0348717Y0110032D02*
X0346551Y0110032D01*
X0346551Y0108064D02*
X0348717Y0108064D01*
X0350488Y0106292D02*
X0350488Y0104127D01*
X0352457Y0104127D02*
X0352457Y0106292D01*
X0354425Y0106292D02*
X0354425Y0104127D01*
X0356394Y0104127D02*
X0356394Y0106292D01*
X0358362Y0106292D02*
X0358362Y0104127D01*
X0360331Y0104127D02*
X0360331Y0106292D01*
X0362102Y0108064D02*
X0364268Y0108064D01*
X0364268Y0110032D02*
X0362102Y0110032D01*
X0362102Y0112001D02*
X0364268Y0112001D01*
X0364268Y0113969D02*
X0362102Y0113969D01*
X0362102Y0115938D02*
X0364268Y0115938D01*
X0364268Y0117906D02*
X0362102Y0117906D01*
D47*
X0358165Y0115741D03*
X0352654Y0115741D03*
X0352654Y0110229D03*
X0358165Y0110229D03*
D48*
X0300729Y0105395D03*
X0300729Y0097914D03*
X0290493Y0097914D03*
X0290493Y0101654D03*
X0290493Y0105395D03*
D49*
X0271372Y0114220D03*
D50*
X0271372Y0112054D03*
X0271372Y0110086D03*
X0279050Y0110086D03*
X0279050Y0112054D03*
X0279050Y0114023D03*
D51*
X0276983Y0114009D02*
X0273439Y0114009D01*
X0273439Y0114047D02*
X0276983Y0114047D01*
X0276983Y0114085D02*
X0273439Y0114085D01*
X0273439Y0114123D02*
X0276983Y0114123D01*
X0276983Y0114160D02*
X0273439Y0114160D01*
X0273439Y0114198D02*
X0276983Y0114198D01*
X0276983Y0114236D02*
X0273439Y0114236D01*
X0273439Y0114274D02*
X0276983Y0114274D01*
X0276983Y0114312D02*
X0273439Y0114312D01*
X0273439Y0114350D02*
X0276983Y0114350D01*
X0276983Y0114388D02*
X0273439Y0114388D01*
X0273439Y0114426D02*
X0276983Y0114426D01*
X0276983Y0114463D02*
X0273439Y0114463D01*
X0273439Y0114501D02*
X0276983Y0114501D01*
X0276983Y0114539D02*
X0273439Y0114539D01*
X0273439Y0114577D02*
X0276983Y0114577D01*
X0276983Y0114615D02*
X0273439Y0114615D01*
X0273439Y0114653D02*
X0276983Y0114653D01*
X0276983Y0114691D02*
X0273439Y0114691D01*
X0273439Y0114729D02*
X0276983Y0114729D01*
X0276983Y0114766D02*
X0273439Y0114766D01*
X0273439Y0114804D02*
X0276983Y0114804D01*
X0276983Y0114810D02*
X0276983Y0113236D01*
X0273439Y0113236D01*
X0273439Y0114810D01*
X0273636Y0114810D01*
X0273636Y0115204D01*
X0276786Y0115204D01*
X0276786Y0114810D01*
X0276983Y0114810D01*
X0276786Y0114842D02*
X0273636Y0114842D01*
X0273636Y0114880D02*
X0276786Y0114880D01*
X0276786Y0114918D02*
X0273636Y0114918D01*
X0273636Y0114956D02*
X0276786Y0114956D01*
X0276786Y0114994D02*
X0273636Y0114994D01*
X0273636Y0115032D02*
X0276786Y0115032D01*
X0276786Y0115070D02*
X0273636Y0115070D01*
X0273636Y0115107D02*
X0276786Y0115107D01*
X0276786Y0115145D02*
X0273636Y0115145D01*
X0273636Y0115183D02*
X0276786Y0115183D01*
X0276983Y0113971D02*
X0273439Y0113971D01*
X0273439Y0113933D02*
X0276983Y0113933D01*
X0276983Y0113895D02*
X0273439Y0113895D01*
X0273439Y0113857D02*
X0276983Y0113857D01*
X0276983Y0113819D02*
X0273439Y0113819D01*
X0273439Y0113782D02*
X0276983Y0113782D01*
X0276983Y0113744D02*
X0273439Y0113744D01*
X0273439Y0113706D02*
X0276983Y0113706D01*
X0276983Y0113668D02*
X0273439Y0113668D01*
X0273439Y0113630D02*
X0276983Y0113630D01*
X0276983Y0113592D02*
X0273439Y0113592D01*
X0273439Y0113554D02*
X0276983Y0113554D01*
X0276983Y0113516D02*
X0273439Y0113516D01*
X0273439Y0113479D02*
X0276983Y0113479D01*
X0276983Y0113441D02*
X0273439Y0113441D01*
X0273439Y0113403D02*
X0276983Y0113403D01*
X0276983Y0113365D02*
X0273439Y0113365D01*
X0273439Y0113327D02*
X0276983Y0113327D01*
X0276983Y0113289D02*
X0273439Y0113289D01*
X0273439Y0113251D02*
X0276983Y0113251D01*
X0276983Y0110873D02*
X0273439Y0110873D01*
X0273439Y0109299D01*
X0273636Y0109299D01*
X0273636Y0108905D01*
X0276786Y0108905D01*
X0276786Y0109299D01*
X0276983Y0109299D01*
X0276983Y0110873D01*
X0276983Y0110865D02*
X0273439Y0110865D01*
X0273439Y0110827D02*
X0276983Y0110827D01*
X0276983Y0110789D02*
X0273439Y0110789D01*
X0273439Y0110751D02*
X0276983Y0110751D01*
X0276983Y0110713D02*
X0273439Y0110713D01*
X0273439Y0110675D02*
X0276983Y0110675D01*
X0276983Y0110637D02*
X0273439Y0110637D01*
X0273439Y0110600D02*
X0276983Y0110600D01*
X0276983Y0110562D02*
X0273439Y0110562D01*
X0273439Y0110524D02*
X0276983Y0110524D01*
X0276983Y0110486D02*
X0273439Y0110486D01*
X0273439Y0110448D02*
X0276983Y0110448D01*
X0276983Y0110410D02*
X0273439Y0110410D01*
X0273439Y0110372D02*
X0276983Y0110372D01*
X0276983Y0110334D02*
X0273439Y0110334D01*
X0273439Y0110296D02*
X0276983Y0110296D01*
X0276983Y0110259D02*
X0273439Y0110259D01*
X0273439Y0110221D02*
X0276983Y0110221D01*
X0276983Y0110183D02*
X0273439Y0110183D01*
X0273439Y0110145D02*
X0276983Y0110145D01*
X0276983Y0110107D02*
X0273439Y0110107D01*
X0273439Y0110069D02*
X0276983Y0110069D01*
X0276983Y0110031D02*
X0273439Y0110031D01*
X0273439Y0109993D02*
X0276983Y0109993D01*
X0276983Y0109956D02*
X0273439Y0109956D01*
X0273439Y0109918D02*
X0276983Y0109918D01*
X0276983Y0109880D02*
X0273439Y0109880D01*
X0273439Y0109842D02*
X0276983Y0109842D01*
X0276983Y0109804D02*
X0273439Y0109804D01*
X0273439Y0109766D02*
X0276983Y0109766D01*
X0276983Y0109728D02*
X0273439Y0109728D01*
X0273439Y0109690D02*
X0276983Y0109690D01*
X0276983Y0109652D02*
X0273439Y0109652D01*
X0273439Y0109615D02*
X0276983Y0109615D01*
X0276983Y0109577D02*
X0273439Y0109577D01*
X0273439Y0109539D02*
X0276983Y0109539D01*
X0276983Y0109501D02*
X0273439Y0109501D01*
X0273439Y0109463D02*
X0276983Y0109463D01*
X0276983Y0109425D02*
X0273439Y0109425D01*
X0273439Y0109387D02*
X0276983Y0109387D01*
X0276983Y0109349D02*
X0273439Y0109349D01*
X0273439Y0109312D02*
X0276983Y0109312D01*
X0276786Y0109274D02*
X0273636Y0109274D01*
X0273636Y0109236D02*
X0276786Y0109236D01*
X0276786Y0109198D02*
X0273636Y0109198D01*
X0273636Y0109160D02*
X0276786Y0109160D01*
X0276786Y0109122D02*
X0273636Y0109122D01*
X0273636Y0109084D02*
X0276786Y0109084D01*
X0276786Y0109046D02*
X0273636Y0109046D01*
X0273636Y0109009D02*
X0276786Y0109009D01*
X0276786Y0108971D02*
X0273636Y0108971D01*
X0273636Y0108933D02*
X0276786Y0108933D01*
D52*
X0474131Y0138869D03*
X0474131Y0141428D03*
X0474131Y0143987D03*
X0474131Y0146546D03*
X0474131Y0149105D03*
X0474131Y0300286D03*
X0474131Y0302845D03*
X0474131Y0305404D03*
X0474131Y0307963D03*
X0474131Y0310522D03*
D53*
X0472737Y0313304D02*
X0472381Y0313344D01*
X0472043Y0313463D01*
X0471739Y0313653D01*
X0471486Y0313906D01*
X0471295Y0314210D01*
X0471177Y0314548D01*
X0471137Y0314904D01*
X0471180Y0315282D01*
X0471305Y0315642D01*
X0471508Y0315964D01*
X0471777Y0316233D01*
X0472099Y0316436D01*
X0472459Y0316561D01*
X0472837Y0316604D01*
X0475637Y0316604D01*
X0475949Y0316569D01*
X0476244Y0316465D01*
X0476510Y0316299D01*
X0476732Y0316077D01*
X0476898Y0315811D01*
X0477002Y0315516D01*
X0477037Y0315204D01*
X0477037Y0314704D01*
X0477002Y0314393D01*
X0476898Y0314097D01*
X0476732Y0313831D01*
X0476510Y0313609D01*
X0476244Y0313443D01*
X0475949Y0313339D01*
X0475637Y0313304D01*
X0472737Y0313304D01*
X0472365Y0313350D02*
X0475979Y0313350D01*
X0476253Y0313448D02*
X0472083Y0313448D01*
X0471908Y0313547D02*
X0476410Y0313547D01*
X0476546Y0313645D02*
X0471752Y0313645D01*
X0471649Y0313744D02*
X0476644Y0313744D01*
X0476739Y0313842D02*
X0471550Y0313842D01*
X0471464Y0313941D02*
X0476801Y0313941D01*
X0476862Y0314039D02*
X0471403Y0314039D01*
X0471341Y0314138D02*
X0476913Y0314138D01*
X0476947Y0314236D02*
X0471286Y0314236D01*
X0471252Y0314335D02*
X0476982Y0314335D01*
X0477007Y0314433D02*
X0471217Y0314433D01*
X0471183Y0314532D02*
X0477018Y0314532D01*
X0477029Y0314631D02*
X0471168Y0314631D01*
X0471157Y0314729D02*
X0477037Y0314729D01*
X0477037Y0314828D02*
X0471146Y0314828D01*
X0471139Y0314926D02*
X0477037Y0314926D01*
X0477037Y0315025D02*
X0471151Y0315025D01*
X0471162Y0315123D02*
X0477037Y0315123D01*
X0477035Y0315222D02*
X0471173Y0315222D01*
X0471193Y0315320D02*
X0477024Y0315320D01*
X0477013Y0315419D02*
X0471227Y0315419D01*
X0471262Y0315517D02*
X0477001Y0315517D01*
X0476967Y0315616D02*
X0471296Y0315616D01*
X0471351Y0315714D02*
X0476932Y0315714D01*
X0476898Y0315813D02*
X0471413Y0315813D01*
X0471475Y0315911D02*
X0476836Y0315911D01*
X0476774Y0316010D02*
X0471554Y0316010D01*
X0471652Y0316108D02*
X0476700Y0316108D01*
X0476602Y0316207D02*
X0471751Y0316207D01*
X0471892Y0316305D02*
X0476499Y0316305D01*
X0476343Y0316404D02*
X0472049Y0316404D01*
X0472290Y0316502D02*
X0476139Y0316502D01*
X0475666Y0316601D02*
X0472808Y0316601D01*
X0480369Y0318866D02*
X0488832Y0318866D01*
X0488802Y0318768D02*
X0480399Y0318768D01*
X0480412Y0318724D02*
X0480281Y0319155D01*
X0480237Y0319604D01*
X0480283Y0320072D01*
X0480420Y0320522D01*
X0480641Y0320937D01*
X0480940Y0321301D01*
X0481304Y0321600D01*
X0481719Y0321821D01*
X0482169Y0321958D01*
X0482637Y0322004D01*
X0486737Y0322004D01*
X0487166Y0321962D01*
X0487579Y0321837D01*
X0487959Y0321633D01*
X0488293Y0321360D01*
X0488566Y0321026D01*
X0488770Y0320646D01*
X0488895Y0320233D01*
X0488937Y0319804D01*
X0488937Y0319504D01*
X0488895Y0319075D01*
X0488770Y0318662D01*
X0488566Y0318282D01*
X0488293Y0317948D01*
X0487959Y0317675D01*
X0487579Y0317472D01*
X0487166Y0317346D01*
X0486737Y0317304D01*
X0482537Y0317304D01*
X0482088Y0317348D01*
X0481657Y0317479D01*
X0481259Y0317692D01*
X0480911Y0317978D01*
X0480625Y0318326D01*
X0480412Y0318724D01*
X0480441Y0318669D02*
X0488772Y0318669D01*
X0488721Y0318571D02*
X0480494Y0318571D01*
X0480546Y0318472D02*
X0488668Y0318472D01*
X0488616Y0318374D02*
X0480599Y0318374D01*
X0480666Y0318275D02*
X0488561Y0318275D01*
X0488480Y0318177D02*
X0480747Y0318177D01*
X0480828Y0318078D02*
X0488399Y0318078D01*
X0488318Y0317980D02*
X0480909Y0317980D01*
X0481028Y0317881D02*
X0488211Y0317881D01*
X0488091Y0317783D02*
X0481148Y0317783D01*
X0481273Y0317684D02*
X0487971Y0317684D01*
X0487793Y0317586D02*
X0481457Y0317586D01*
X0481641Y0317487D02*
X0487609Y0317487D01*
X0487306Y0317389D02*
X0481955Y0317389D01*
X0480339Y0318965D02*
X0488861Y0318965D01*
X0488891Y0319064D02*
X0480309Y0319064D01*
X0480281Y0319162D02*
X0488903Y0319162D01*
X0488913Y0319261D02*
X0480271Y0319261D01*
X0480261Y0319359D02*
X0488923Y0319359D01*
X0488932Y0319458D02*
X0480251Y0319458D01*
X0480242Y0319556D02*
X0488937Y0319556D01*
X0488937Y0319655D02*
X0480242Y0319655D01*
X0480252Y0319753D02*
X0488937Y0319753D01*
X0488932Y0319852D02*
X0480261Y0319852D01*
X0480271Y0319950D02*
X0488923Y0319950D01*
X0488913Y0320049D02*
X0480281Y0320049D01*
X0480306Y0320147D02*
X0488903Y0320147D01*
X0488891Y0320246D02*
X0480336Y0320246D01*
X0480366Y0320344D02*
X0488861Y0320344D01*
X0488831Y0320443D02*
X0480395Y0320443D01*
X0480430Y0320541D02*
X0488801Y0320541D01*
X0488771Y0320640D02*
X0480482Y0320640D01*
X0480535Y0320738D02*
X0488720Y0320738D01*
X0488668Y0320837D02*
X0480588Y0320837D01*
X0480640Y0320935D02*
X0488615Y0320935D01*
X0488560Y0321034D02*
X0480721Y0321034D01*
X0480801Y0321132D02*
X0488479Y0321132D01*
X0488398Y0321231D02*
X0480882Y0321231D01*
X0480974Y0321329D02*
X0488318Y0321329D01*
X0488210Y0321428D02*
X0481094Y0321428D01*
X0481214Y0321526D02*
X0488090Y0321526D01*
X0487970Y0321625D02*
X0481351Y0321625D01*
X0481535Y0321723D02*
X0487791Y0321723D01*
X0487606Y0321822D02*
X0481720Y0321822D01*
X0482045Y0321920D02*
X0487303Y0321920D01*
X0476531Y0297546D02*
X0476835Y0297355D01*
X0477088Y0297102D01*
X0477279Y0296798D01*
X0477397Y0296460D01*
X0477437Y0296104D01*
X0477437Y0295704D01*
X0477394Y0295326D01*
X0477269Y0294966D01*
X0477066Y0294644D01*
X0476797Y0294375D01*
X0476475Y0294172D01*
X0476115Y0294047D01*
X0475737Y0294004D01*
X0472637Y0294004D01*
X0472236Y0294049D01*
X0471856Y0294182D01*
X0471515Y0294397D01*
X0471230Y0294682D01*
X0471015Y0295023D01*
X0470882Y0295404D01*
X0470837Y0295804D01*
X0470885Y0296227D01*
X0471025Y0296628D01*
X0471252Y0296989D01*
X0471552Y0297290D01*
X0471913Y0297516D01*
X0472314Y0297656D01*
X0472737Y0297704D01*
X0475837Y0297704D01*
X0476193Y0297664D01*
X0476531Y0297546D01*
X0476620Y0297490D02*
X0471871Y0297490D01*
X0471714Y0297391D02*
X0476777Y0297391D01*
X0476897Y0297293D02*
X0471557Y0297293D01*
X0471457Y0297194D02*
X0476996Y0297194D01*
X0477092Y0297095D02*
X0471358Y0297095D01*
X0471260Y0296997D02*
X0477154Y0296997D01*
X0477216Y0296898D02*
X0471195Y0296898D01*
X0471133Y0296800D02*
X0477277Y0296800D01*
X0477312Y0296701D02*
X0471071Y0296701D01*
X0471016Y0296603D02*
X0477347Y0296603D01*
X0477381Y0296504D02*
X0470982Y0296504D01*
X0470947Y0296406D02*
X0477403Y0296406D01*
X0477414Y0296307D02*
X0470913Y0296307D01*
X0470883Y0296209D02*
X0477425Y0296209D01*
X0477436Y0296110D02*
X0470872Y0296110D01*
X0470860Y0296012D02*
X0477437Y0296012D01*
X0477437Y0295913D02*
X0470849Y0295913D01*
X0470838Y0295815D02*
X0477437Y0295815D01*
X0477437Y0295716D02*
X0470847Y0295716D01*
X0470858Y0295618D02*
X0477427Y0295618D01*
X0477416Y0295519D02*
X0470869Y0295519D01*
X0470880Y0295421D02*
X0477405Y0295421D01*
X0477393Y0295322D02*
X0470911Y0295322D01*
X0470945Y0295224D02*
X0477359Y0295224D01*
X0477324Y0295125D02*
X0470980Y0295125D01*
X0471014Y0295027D02*
X0477290Y0295027D01*
X0477245Y0294928D02*
X0471075Y0294928D01*
X0471137Y0294830D02*
X0477183Y0294830D01*
X0477121Y0294731D02*
X0471199Y0294731D01*
X0471279Y0294633D02*
X0477055Y0294633D01*
X0476956Y0294534D02*
X0471377Y0294534D01*
X0471476Y0294436D02*
X0476858Y0294436D01*
X0476737Y0294337D02*
X0471610Y0294337D01*
X0471766Y0294239D02*
X0476580Y0294239D01*
X0476382Y0294140D02*
X0471976Y0294140D01*
X0472303Y0294042D02*
X0476071Y0294042D01*
X0476410Y0297588D02*
X0472119Y0297588D01*
X0472582Y0297687D02*
X0475992Y0297687D01*
X0480940Y0292701D02*
X0481304Y0293000D01*
X0481719Y0293221D01*
X0482169Y0293358D01*
X0482637Y0293404D01*
X0486737Y0293404D01*
X0487166Y0293362D01*
X0487579Y0293237D01*
X0487959Y0293033D01*
X0488293Y0292760D01*
X0488566Y0292426D01*
X0488770Y0292046D01*
X0488895Y0291633D01*
X0488937Y0291204D01*
X0488937Y0290904D01*
X0488895Y0290475D01*
X0488770Y0290062D01*
X0488566Y0289682D01*
X0488293Y0289348D01*
X0487959Y0289075D01*
X0487579Y0288872D01*
X0487166Y0288746D01*
X0486737Y0288704D01*
X0482537Y0288704D01*
X0482088Y0288748D01*
X0481657Y0288879D01*
X0481259Y0289092D01*
X0480911Y0289378D01*
X0480625Y0289726D01*
X0480412Y0290124D01*
X0480281Y0290555D01*
X0480237Y0291004D01*
X0480283Y0291472D01*
X0480420Y0291922D01*
X0480641Y0292337D01*
X0480940Y0292701D01*
X0480908Y0292662D02*
X0488372Y0292662D01*
X0488453Y0292564D02*
X0480827Y0292564D01*
X0480747Y0292465D02*
X0488534Y0292465D01*
X0488598Y0292367D02*
X0480666Y0292367D01*
X0480605Y0292268D02*
X0488651Y0292268D01*
X0488703Y0292170D02*
X0480552Y0292170D01*
X0480499Y0292071D02*
X0488756Y0292071D01*
X0488792Y0291973D02*
X0480447Y0291973D01*
X0480405Y0291874D02*
X0488822Y0291874D01*
X0488851Y0291776D02*
X0480375Y0291776D01*
X0480345Y0291677D02*
X0488881Y0291677D01*
X0488900Y0291579D02*
X0480315Y0291579D01*
X0480286Y0291480D02*
X0488910Y0291480D01*
X0488919Y0291382D02*
X0480274Y0291382D01*
X0480265Y0291283D02*
X0488929Y0291283D01*
X0488937Y0291185D02*
X0480255Y0291185D01*
X0480245Y0291086D02*
X0488937Y0291086D01*
X0488937Y0290988D02*
X0480239Y0290988D01*
X0480248Y0290889D02*
X0488936Y0290889D01*
X0488926Y0290791D02*
X0480258Y0290791D01*
X0480268Y0290692D02*
X0488916Y0290692D01*
X0488906Y0290594D02*
X0480277Y0290594D01*
X0480299Y0290495D02*
X0488897Y0290495D01*
X0488871Y0290397D02*
X0480329Y0290397D01*
X0480359Y0290298D02*
X0488841Y0290298D01*
X0488811Y0290200D02*
X0480389Y0290200D01*
X0480424Y0290101D02*
X0488781Y0290101D01*
X0488738Y0290003D02*
X0480477Y0290003D01*
X0480530Y0289904D02*
X0488685Y0289904D01*
X0488632Y0289806D02*
X0480582Y0289806D01*
X0480640Y0289707D02*
X0488580Y0289707D01*
X0488506Y0289609D02*
X0480721Y0289609D01*
X0480802Y0289510D02*
X0488425Y0289510D01*
X0488345Y0289412D02*
X0480883Y0289412D01*
X0480989Y0289313D02*
X0488250Y0289313D01*
X0488130Y0289215D02*
X0481109Y0289215D01*
X0481229Y0289116D02*
X0488010Y0289116D01*
X0487852Y0289018D02*
X0481398Y0289018D01*
X0481582Y0288919D02*
X0487668Y0288919D01*
X0487411Y0288821D02*
X0481850Y0288821D01*
X0482354Y0288722D02*
X0486920Y0288722D01*
X0488291Y0292761D02*
X0481013Y0292761D01*
X0481133Y0292860D02*
X0488171Y0292860D01*
X0488051Y0292958D02*
X0481253Y0292958D01*
X0481410Y0293057D02*
X0487916Y0293057D01*
X0487731Y0293155D02*
X0481595Y0293155D01*
X0481825Y0293254D02*
X0487523Y0293254D01*
X0487198Y0293352D02*
X0482149Y0293352D01*
X0482637Y0160587D02*
X0486737Y0160587D01*
X0487166Y0160544D01*
X0487579Y0160419D01*
X0487959Y0160216D01*
X0488293Y0159942D01*
X0488566Y0159609D01*
X0488770Y0159229D01*
X0488895Y0158816D01*
X0488937Y0158387D01*
X0488937Y0158087D01*
X0488895Y0157658D01*
X0488770Y0157245D01*
X0488566Y0156864D01*
X0488293Y0156531D01*
X0487959Y0156257D01*
X0487579Y0156054D01*
X0487166Y0155929D01*
X0486737Y0155887D01*
X0482537Y0155887D01*
X0482088Y0155931D01*
X0481657Y0156062D01*
X0481259Y0156274D01*
X0480911Y0156560D01*
X0480625Y0156909D01*
X0480412Y0157307D01*
X0480281Y0157738D01*
X0480237Y0158187D01*
X0480283Y0158655D01*
X0480420Y0159105D01*
X0480641Y0159520D01*
X0480940Y0159884D01*
X0481304Y0160182D01*
X0481719Y0160404D01*
X0482169Y0160541D01*
X0482637Y0160587D01*
X0482354Y0160559D02*
X0487020Y0160559D01*
X0487444Y0160460D02*
X0481904Y0160460D01*
X0481640Y0160362D02*
X0487686Y0160362D01*
X0487871Y0160263D02*
X0481455Y0160263D01*
X0481282Y0160165D02*
X0488022Y0160165D01*
X0488142Y0160066D02*
X0481162Y0160066D01*
X0481042Y0159968D02*
X0488262Y0159968D01*
X0488353Y0159869D02*
X0480928Y0159869D01*
X0480847Y0159771D02*
X0488434Y0159771D01*
X0488514Y0159672D02*
X0480766Y0159672D01*
X0480685Y0159574D02*
X0488585Y0159574D01*
X0488638Y0159475D02*
X0480617Y0159475D01*
X0480565Y0159377D02*
X0488690Y0159377D01*
X0488743Y0159278D02*
X0480512Y0159278D01*
X0480460Y0159180D02*
X0488784Y0159180D01*
X0488814Y0159081D02*
X0480412Y0159081D01*
X0480383Y0158983D02*
X0488844Y0158983D01*
X0488874Y0158884D02*
X0480353Y0158884D01*
X0480323Y0158786D02*
X0488898Y0158786D01*
X0488907Y0158687D02*
X0480293Y0158687D01*
X0480277Y0158589D02*
X0488917Y0158589D01*
X0488927Y0158490D02*
X0480267Y0158490D01*
X0480257Y0158392D02*
X0488937Y0158392D01*
X0488937Y0158293D02*
X0480247Y0158293D01*
X0480238Y0158195D02*
X0488937Y0158195D01*
X0488937Y0158096D02*
X0480246Y0158096D01*
X0480256Y0157998D02*
X0488928Y0157998D01*
X0488919Y0157899D02*
X0480265Y0157899D01*
X0480275Y0157800D02*
X0488909Y0157800D01*
X0488899Y0157702D02*
X0480292Y0157702D01*
X0480322Y0157603D02*
X0488878Y0157603D01*
X0488848Y0157505D02*
X0480352Y0157505D01*
X0480382Y0157406D02*
X0488819Y0157406D01*
X0488789Y0157308D02*
X0480412Y0157308D01*
X0480464Y0157209D02*
X0488751Y0157209D01*
X0488698Y0157111D02*
X0480517Y0157111D01*
X0480569Y0157012D02*
X0488645Y0157012D01*
X0488593Y0156914D02*
X0480622Y0156914D01*
X0480701Y0156815D02*
X0488526Y0156815D01*
X0488445Y0156717D02*
X0480782Y0156717D01*
X0480863Y0156618D02*
X0488364Y0156618D01*
X0488279Y0156520D02*
X0480960Y0156520D01*
X0481080Y0156421D02*
X0488159Y0156421D01*
X0488039Y0156323D02*
X0481200Y0156323D01*
X0481353Y0156224D02*
X0487897Y0156224D01*
X0487713Y0156126D02*
X0481537Y0156126D01*
X0481771Y0156027D02*
X0487490Y0156027D01*
X0487164Y0155929D02*
X0482110Y0155929D01*
X0476982Y0154156D02*
X0471281Y0154156D01*
X0471305Y0154224D02*
X0471508Y0154547D01*
X0471777Y0154816D01*
X0472099Y0155018D01*
X0472459Y0155144D01*
X0472837Y0155187D01*
X0475637Y0155187D01*
X0475949Y0155152D01*
X0476244Y0155048D01*
X0476510Y0154881D01*
X0476732Y0154660D01*
X0476898Y0154394D01*
X0477002Y0154098D01*
X0477037Y0153787D01*
X0477037Y0153287D01*
X0477002Y0152975D01*
X0476898Y0152679D01*
X0476732Y0152414D01*
X0476510Y0152192D01*
X0476244Y0152025D01*
X0475949Y0151922D01*
X0475637Y0151887D01*
X0472737Y0151887D01*
X0472381Y0151927D01*
X0472043Y0152045D01*
X0471739Y0152236D01*
X0471486Y0152489D01*
X0471295Y0152793D01*
X0471177Y0153131D01*
X0471137Y0153487D01*
X0471180Y0153865D01*
X0471305Y0154224D01*
X0471324Y0154254D02*
X0476947Y0154254D01*
X0476913Y0154353D02*
X0471386Y0154353D01*
X0471448Y0154451D02*
X0476863Y0154451D01*
X0476801Y0154550D02*
X0471511Y0154550D01*
X0471609Y0154648D02*
X0476739Y0154648D01*
X0476645Y0154747D02*
X0471708Y0154747D01*
X0471824Y0154845D02*
X0476546Y0154845D01*
X0476411Y0154944D02*
X0471981Y0154944D01*
X0472167Y0155042D02*
X0476254Y0155042D01*
X0475980Y0155141D02*
X0472449Y0155141D01*
X0471247Y0154057D02*
X0477007Y0154057D01*
X0477018Y0153959D02*
X0471212Y0153959D01*
X0471179Y0153860D02*
X0477029Y0153860D01*
X0477037Y0153762D02*
X0471168Y0153762D01*
X0471157Y0153663D02*
X0477037Y0153663D01*
X0477037Y0153565D02*
X0471146Y0153565D01*
X0471139Y0153466D02*
X0477037Y0153466D01*
X0477037Y0153367D02*
X0471150Y0153367D01*
X0471162Y0153269D02*
X0477035Y0153269D01*
X0477024Y0153170D02*
X0471173Y0153170D01*
X0471198Y0153072D02*
X0477013Y0153072D01*
X0477001Y0152973D02*
X0471232Y0152973D01*
X0471267Y0152875D02*
X0476967Y0152875D01*
X0476932Y0152776D02*
X0471306Y0152776D01*
X0471367Y0152678D02*
X0476897Y0152678D01*
X0476836Y0152579D02*
X0471429Y0152579D01*
X0471494Y0152481D02*
X0476774Y0152481D01*
X0476700Y0152382D02*
X0471593Y0152382D01*
X0471691Y0152284D02*
X0476602Y0152284D01*
X0476499Y0152185D02*
X0471820Y0152185D01*
X0471976Y0152087D02*
X0476342Y0152087D01*
X0476139Y0151988D02*
X0472205Y0151988D01*
X0472710Y0151890D02*
X0475664Y0151890D01*
X0475837Y0136287D02*
X0472737Y0136287D01*
X0472314Y0136239D01*
X0471913Y0136099D01*
X0471552Y0135872D01*
X0471252Y0135571D01*
X0471025Y0135211D01*
X0470885Y0134810D01*
X0470837Y0134387D01*
X0470882Y0133986D01*
X0471015Y0133606D01*
X0471230Y0133264D01*
X0471515Y0132979D01*
X0471856Y0132765D01*
X0472236Y0132632D01*
X0472637Y0132587D01*
X0475737Y0132587D01*
X0476115Y0132629D01*
X0476475Y0132755D01*
X0476797Y0132958D01*
X0477066Y0133227D01*
X0477269Y0133549D01*
X0477394Y0133908D01*
X0477437Y0134287D01*
X0477437Y0134687D01*
X0477397Y0135043D01*
X0477279Y0135381D01*
X0477088Y0135684D01*
X0476835Y0135938D01*
X0476531Y0136128D01*
X0476193Y0136247D01*
X0475837Y0136287D01*
X0476250Y0136227D02*
X0472278Y0136227D01*
X0471997Y0136128D02*
X0476532Y0136128D01*
X0476688Y0136029D02*
X0471803Y0136029D01*
X0471646Y0135931D02*
X0476841Y0135931D01*
X0476940Y0135832D02*
X0471513Y0135832D01*
X0471414Y0135734D02*
X0477038Y0135734D01*
X0477119Y0135635D02*
X0471316Y0135635D01*
X0471230Y0135537D02*
X0477181Y0135537D01*
X0477242Y0135438D02*
X0471168Y0135438D01*
X0471106Y0135340D02*
X0477293Y0135340D01*
X0477327Y0135241D02*
X0471044Y0135241D01*
X0471001Y0135143D02*
X0477362Y0135143D01*
X0477396Y0135044D02*
X0470967Y0135044D01*
X0470932Y0134946D02*
X0477408Y0134946D01*
X0477419Y0134847D02*
X0470898Y0134847D01*
X0470878Y0134749D02*
X0477430Y0134749D01*
X0477437Y0134650D02*
X0470867Y0134650D01*
X0470856Y0134552D02*
X0477437Y0134552D01*
X0477437Y0134453D02*
X0470845Y0134453D01*
X0470841Y0134355D02*
X0477437Y0134355D01*
X0477434Y0134256D02*
X0470852Y0134256D01*
X0470863Y0134158D02*
X0477422Y0134158D01*
X0477411Y0134059D02*
X0470874Y0134059D01*
X0470891Y0133961D02*
X0477400Y0133961D01*
X0477378Y0133862D02*
X0470926Y0133862D01*
X0470960Y0133764D02*
X0477344Y0133764D01*
X0477309Y0133665D02*
X0470994Y0133665D01*
X0471040Y0133567D02*
X0477275Y0133567D01*
X0477218Y0133468D02*
X0471102Y0133468D01*
X0471164Y0133370D02*
X0477156Y0133370D01*
X0477094Y0133271D02*
X0471225Y0133271D01*
X0471321Y0133173D02*
X0477012Y0133173D01*
X0476913Y0133074D02*
X0471420Y0133074D01*
X0471521Y0132976D02*
X0476815Y0132976D01*
X0476669Y0132877D02*
X0471678Y0132877D01*
X0471834Y0132779D02*
X0476512Y0132779D01*
X0476260Y0132680D02*
X0472099Y0132680D01*
X0480332Y0130217D02*
X0488894Y0130217D01*
X0488895Y0130216D02*
X0488937Y0129787D01*
X0488937Y0129487D01*
X0488895Y0129058D01*
X0488770Y0128645D01*
X0488566Y0128264D01*
X0488293Y0127931D01*
X0487959Y0127657D01*
X0487579Y0127454D01*
X0487166Y0127329D01*
X0486737Y0127287D01*
X0482537Y0127287D01*
X0482088Y0127331D01*
X0481657Y0127462D01*
X0481259Y0127674D01*
X0480911Y0127960D01*
X0480625Y0128309D01*
X0480412Y0128707D01*
X0480281Y0129138D01*
X0480237Y0129587D01*
X0480283Y0130055D01*
X0480420Y0130505D01*
X0480641Y0130920D01*
X0480940Y0131284D01*
X0481304Y0131582D01*
X0481719Y0131804D01*
X0482169Y0131941D01*
X0482637Y0131987D01*
X0486737Y0131987D01*
X0487166Y0131944D01*
X0487579Y0131819D01*
X0487959Y0131616D01*
X0488293Y0131342D01*
X0488566Y0131009D01*
X0488770Y0130629D01*
X0488895Y0130216D01*
X0488904Y0130119D02*
X0480302Y0130119D01*
X0480280Y0130020D02*
X0488914Y0130020D01*
X0488924Y0129922D02*
X0480270Y0129922D01*
X0480260Y0129823D02*
X0488933Y0129823D01*
X0488937Y0129725D02*
X0480251Y0129725D01*
X0480241Y0129626D02*
X0488937Y0129626D01*
X0488937Y0129528D02*
X0480243Y0129528D01*
X0480253Y0129429D02*
X0488931Y0129429D01*
X0488922Y0129331D02*
X0480262Y0129331D01*
X0480272Y0129232D02*
X0488912Y0129232D01*
X0488902Y0129134D02*
X0480283Y0129134D01*
X0480312Y0129035D02*
X0488888Y0129035D01*
X0488858Y0128937D02*
X0480342Y0128937D01*
X0480372Y0128838D02*
X0488828Y0128838D01*
X0488798Y0128740D02*
X0480402Y0128740D01*
X0480447Y0128641D02*
X0488768Y0128641D01*
X0488715Y0128543D02*
X0480500Y0128543D01*
X0480552Y0128444D02*
X0488662Y0128444D01*
X0488610Y0128346D02*
X0480605Y0128346D01*
X0480675Y0128247D02*
X0488552Y0128247D01*
X0488471Y0128149D02*
X0480756Y0128149D01*
X0480837Y0128050D02*
X0488390Y0128050D01*
X0488309Y0127952D02*
X0480921Y0127952D01*
X0481041Y0127853D02*
X0488198Y0127853D01*
X0488078Y0127755D02*
X0481161Y0127755D01*
X0481293Y0127656D02*
X0487957Y0127656D01*
X0487772Y0127558D02*
X0481478Y0127558D01*
X0481666Y0127459D02*
X0487588Y0127459D01*
X0487270Y0127360D02*
X0481991Y0127360D01*
X0480362Y0130316D02*
X0488864Y0130316D01*
X0488835Y0130414D02*
X0480392Y0130414D01*
X0480424Y0130513D02*
X0488805Y0130513D01*
X0488775Y0130611D02*
X0480476Y0130611D01*
X0480529Y0130710D02*
X0488726Y0130710D01*
X0488673Y0130808D02*
X0480582Y0130808D01*
X0480634Y0130907D02*
X0488621Y0130907D01*
X0488568Y0131005D02*
X0480712Y0131005D01*
X0480792Y0131104D02*
X0488488Y0131104D01*
X0488407Y0131202D02*
X0480873Y0131202D01*
X0480961Y0131301D02*
X0488327Y0131301D01*
X0488223Y0131399D02*
X0481081Y0131399D01*
X0481201Y0131498D02*
X0488103Y0131498D01*
X0487983Y0131596D02*
X0481330Y0131596D01*
X0481515Y0131695D02*
X0487811Y0131695D01*
X0487627Y0131794D02*
X0481699Y0131794D01*
X0482009Y0131892D02*
X0487339Y0131892D01*
X0175216Y0266228D02*
X0175220Y0266528D01*
X0175231Y0266827D01*
X0175249Y0267126D01*
X0175275Y0267424D01*
X0175308Y0267722D01*
X0175348Y0268019D01*
X0175396Y0268315D01*
X0175451Y0268609D01*
X0175513Y0268902D01*
X0175582Y0269194D01*
X0175658Y0269483D01*
X0175742Y0269771D01*
X0175832Y0270056D01*
X0175929Y0270340D01*
X0176034Y0270621D01*
X0176145Y0270899D01*
X0176263Y0271174D01*
X0176388Y0271446D01*
X0176519Y0271716D01*
X0176657Y0271981D01*
X0176802Y0272244D01*
X0176952Y0272503D01*
X0177110Y0272758D01*
X0177273Y0273009D01*
X0177442Y0273256D01*
X0177618Y0273499D01*
X0177799Y0273737D01*
X0177986Y0273971D01*
X0178179Y0274200D01*
X0178378Y0274424D01*
X0178582Y0274644D01*
X0178791Y0274858D01*
X0179005Y0275067D01*
X0179225Y0275271D01*
X0179449Y0275470D01*
X0179678Y0275663D01*
X0179912Y0275850D01*
X0180150Y0276031D01*
X0180393Y0276207D01*
X0180640Y0276376D01*
X0180891Y0276539D01*
X0181146Y0276697D01*
X0181405Y0276847D01*
X0181668Y0276992D01*
X0181933Y0277130D01*
X0182203Y0277261D01*
X0182475Y0277386D01*
X0182750Y0277504D01*
X0183028Y0277615D01*
X0183309Y0277720D01*
X0183593Y0277817D01*
X0183878Y0277907D01*
X0184166Y0277991D01*
X0184455Y0278067D01*
X0184747Y0278136D01*
X0185040Y0278198D01*
X0185334Y0278253D01*
X0185630Y0278301D01*
X0185927Y0278341D01*
X0186225Y0278374D01*
X0186523Y0278400D01*
X0186822Y0278418D01*
X0187121Y0278429D01*
X0187421Y0278433D01*
X0187721Y0278429D01*
X0188020Y0278418D01*
X0188319Y0278400D01*
X0188617Y0278374D01*
X0188915Y0278341D01*
X0189212Y0278301D01*
X0189508Y0278253D01*
X0189802Y0278198D01*
X0190095Y0278136D01*
X0190387Y0278067D01*
X0190676Y0277991D01*
X0190964Y0277907D01*
X0191249Y0277817D01*
X0191533Y0277720D01*
X0191814Y0277615D01*
X0192092Y0277504D01*
X0192367Y0277386D01*
X0192639Y0277261D01*
X0192909Y0277130D01*
X0193174Y0276992D01*
X0193437Y0276847D01*
X0193696Y0276697D01*
X0193951Y0276539D01*
X0194202Y0276376D01*
X0194449Y0276207D01*
X0194692Y0276031D01*
X0194930Y0275850D01*
X0195164Y0275663D01*
X0195393Y0275470D01*
X0195617Y0275271D01*
X0195837Y0275067D01*
X0196051Y0274858D01*
X0196260Y0274644D01*
X0196464Y0274424D01*
X0196663Y0274200D01*
X0196856Y0273971D01*
X0197043Y0273737D01*
X0197224Y0273499D01*
X0197400Y0273256D01*
X0197569Y0273009D01*
X0197732Y0272758D01*
X0197890Y0272503D01*
X0198040Y0272244D01*
X0198185Y0271981D01*
X0198323Y0271716D01*
X0198454Y0271446D01*
X0198579Y0271174D01*
X0198697Y0270899D01*
X0198808Y0270621D01*
X0198913Y0270340D01*
X0199010Y0270056D01*
X0199100Y0269771D01*
X0199184Y0269483D01*
X0199260Y0269194D01*
X0199329Y0268902D01*
X0199391Y0268609D01*
X0199446Y0268315D01*
X0199494Y0268019D01*
X0199534Y0267722D01*
X0199567Y0267424D01*
X0199593Y0267126D01*
X0199611Y0266827D01*
X0199622Y0266528D01*
X0199626Y0266228D01*
X0199622Y0265928D01*
X0199611Y0265629D01*
X0199593Y0265330D01*
X0199567Y0265032D01*
X0199534Y0264734D01*
X0199494Y0264437D01*
X0199446Y0264141D01*
X0199391Y0263847D01*
X0199329Y0263554D01*
X0199260Y0263262D01*
X0199184Y0262973D01*
X0199100Y0262685D01*
X0199010Y0262400D01*
X0198913Y0262116D01*
X0198808Y0261835D01*
X0198697Y0261557D01*
X0198579Y0261282D01*
X0198454Y0261010D01*
X0198323Y0260740D01*
X0198185Y0260475D01*
X0198040Y0260212D01*
X0197890Y0259953D01*
X0197732Y0259698D01*
X0197569Y0259447D01*
X0197400Y0259200D01*
X0197224Y0258957D01*
X0197043Y0258719D01*
X0196856Y0258485D01*
X0196663Y0258256D01*
X0196464Y0258032D01*
X0196260Y0257812D01*
X0196051Y0257598D01*
X0195837Y0257389D01*
X0195617Y0257185D01*
X0195393Y0256986D01*
X0195164Y0256793D01*
X0194930Y0256606D01*
X0194692Y0256425D01*
X0194449Y0256249D01*
X0194202Y0256080D01*
X0193951Y0255917D01*
X0193696Y0255759D01*
X0193437Y0255609D01*
X0193174Y0255464D01*
X0192909Y0255326D01*
X0192639Y0255195D01*
X0192367Y0255070D01*
X0192092Y0254952D01*
X0191814Y0254841D01*
X0191533Y0254736D01*
X0191249Y0254639D01*
X0190964Y0254549D01*
X0190676Y0254465D01*
X0190387Y0254389D01*
X0190095Y0254320D01*
X0189802Y0254258D01*
X0189508Y0254203D01*
X0189212Y0254155D01*
X0188915Y0254115D01*
X0188617Y0254082D01*
X0188319Y0254056D01*
X0188020Y0254038D01*
X0187721Y0254027D01*
X0187421Y0254023D01*
X0187121Y0254027D01*
X0186822Y0254038D01*
X0186523Y0254056D01*
X0186225Y0254082D01*
X0185927Y0254115D01*
X0185630Y0254155D01*
X0185334Y0254203D01*
X0185040Y0254258D01*
X0184747Y0254320D01*
X0184455Y0254389D01*
X0184166Y0254465D01*
X0183878Y0254549D01*
X0183593Y0254639D01*
X0183309Y0254736D01*
X0183028Y0254841D01*
X0182750Y0254952D01*
X0182475Y0255070D01*
X0182203Y0255195D01*
X0181933Y0255326D01*
X0181668Y0255464D01*
X0181405Y0255609D01*
X0181146Y0255759D01*
X0180891Y0255917D01*
X0180640Y0256080D01*
X0180393Y0256249D01*
X0180150Y0256425D01*
X0179912Y0256606D01*
X0179678Y0256793D01*
X0179449Y0256986D01*
X0179225Y0257185D01*
X0179005Y0257389D01*
X0178791Y0257598D01*
X0178582Y0257812D01*
X0178378Y0258032D01*
X0178179Y0258256D01*
X0177986Y0258485D01*
X0177799Y0258719D01*
X0177618Y0258957D01*
X0177442Y0259200D01*
X0177273Y0259447D01*
X0177110Y0259698D01*
X0176952Y0259953D01*
X0176802Y0260212D01*
X0176657Y0260475D01*
X0176519Y0260740D01*
X0176388Y0261010D01*
X0176263Y0261282D01*
X0176145Y0261557D01*
X0176034Y0261835D01*
X0175929Y0262116D01*
X0175832Y0262400D01*
X0175742Y0262685D01*
X0175658Y0262973D01*
X0175582Y0263262D01*
X0175513Y0263554D01*
X0175451Y0263847D01*
X0175396Y0264141D01*
X0175348Y0264437D01*
X0175308Y0264734D01*
X0175275Y0265032D01*
X0175249Y0265330D01*
X0175231Y0265629D01*
X0175220Y0265928D01*
X0175216Y0266228D01*
D54*
X0023154Y0259111D03*
X0021579Y0254780D03*
X0021579Y0263442D03*
X0020791Y0267773D03*
X0021579Y0272103D03*
X0020791Y0276434D03*
X0021579Y0280765D03*
X0021579Y0285095D03*
D55*
X0010358Y0288206D03*
X0006421Y0236434D03*
D56*
X0062130Y0259465D03*
X0062130Y0281906D03*
D57*
X0380285Y0187399D03*
X0380285Y0180510D03*
X0389537Y0180510D03*
X0389537Y0187399D03*
D58*
X0069268Y0022082D03*
X0079268Y0022082D03*
X0089268Y0022082D03*
X0099268Y0022082D03*
X0109268Y0022082D03*
X0119268Y0022082D03*
X0129268Y0022082D03*
X0139268Y0022082D03*
X0149268Y0022082D03*
X0159268Y0022082D03*
X0169268Y0022082D03*
X0179268Y0022082D03*
X0189268Y0022082D03*
X0199268Y0022082D03*
X0209268Y0022082D03*
X0219268Y0022082D03*
X0229268Y0022082D03*
X0239268Y0022082D03*
X0249268Y0022082D03*
X0259268Y0022082D03*
X0269268Y0022082D03*
X0279268Y0022082D03*
X0289268Y0022082D03*
X0299268Y0022082D03*
X0309268Y0022082D03*
X0319268Y0022082D03*
X0329268Y0022082D03*
X0339268Y0022082D03*
X0349268Y0022082D03*
X0359268Y0022082D03*
X0359268Y0046594D03*
X0349268Y0046594D03*
X0339268Y0046594D03*
X0329268Y0046594D03*
X0319268Y0046594D03*
X0309268Y0046594D03*
X0299268Y0046594D03*
X0289268Y0046594D03*
X0279268Y0046594D03*
X0269268Y0046594D03*
X0259268Y0046594D03*
X0249268Y0046594D03*
X0239268Y0046594D03*
X0229268Y0046594D03*
X0219268Y0046594D03*
X0209268Y0046594D03*
X0199268Y0046594D03*
X0189268Y0046594D03*
X0179268Y0046594D03*
X0169268Y0046594D03*
X0159268Y0046594D03*
X0149268Y0046594D03*
X0139268Y0046594D03*
X0129268Y0046594D03*
X0119268Y0046594D03*
X0109268Y0046594D03*
X0099268Y0046594D03*
X0089268Y0046594D03*
X0079268Y0046594D03*
X0069268Y0046594D03*
D59*
X0148051Y0130401D03*
X0148051Y0140243D03*
X0148051Y0150086D03*
X0148051Y0159928D03*
D60*
X0300188Y0129173D03*
X0300188Y0127205D03*
X0300188Y0125236D03*
X0300188Y0123268D03*
X0311212Y0123268D03*
X0311212Y0125236D03*
X0311212Y0127205D03*
X0311212Y0129173D03*
D61*
X0305700Y0126221D03*
D62*
X0317425Y0128101D03*
X0317425Y0131251D03*
D63*
X0295619Y0142448D03*
X0295619Y0152448D03*
X0295619Y0162448D03*
X0295619Y0172448D03*
X0295619Y0182448D03*
X0295619Y0192448D03*
X0295619Y0202448D03*
X0295619Y0212448D03*
X0295619Y0222448D03*
X0295619Y0232448D03*
X0295619Y0242448D03*
X0295619Y0252448D03*
X0270028Y0252448D03*
X0270028Y0242448D03*
X0270028Y0232448D03*
X0270028Y0222448D03*
X0270028Y0212448D03*
X0270028Y0202448D03*
X0270028Y0192448D03*
X0270028Y0182448D03*
X0270028Y0172448D03*
X0270028Y0162448D03*
X0270028Y0152448D03*
X0270028Y0142448D03*
X0104740Y0202448D03*
X0104740Y0212448D03*
X0104740Y0222448D03*
X0104740Y0232448D03*
X0104740Y0242448D03*
X0104740Y0252448D03*
X0079150Y0252448D03*
X0079150Y0242448D03*
X0079150Y0232448D03*
X0079150Y0222448D03*
X0079150Y0212448D03*
X0079150Y0202448D03*
D64*
X0436506Y0196154D03*
X0448317Y0196154D03*
D65*
X0461311Y0150254D03*
X0465311Y0150254D03*
X0465411Y0139654D03*
X0461411Y0139654D03*
X0466511Y0297254D03*
X0466511Y0301254D03*
X0466511Y0307754D03*
X0466511Y0311754D03*
X0031280Y0178473D03*
X0031280Y0174473D03*
X0027199Y0194597D03*
X0027199Y0198597D03*
D66*
X0177421Y0266228D02*
X0177424Y0266473D01*
X0177433Y0266719D01*
X0177448Y0266964D01*
X0177469Y0267208D01*
X0177496Y0267452D01*
X0177529Y0267695D01*
X0177568Y0267938D01*
X0177613Y0268179D01*
X0177664Y0268419D01*
X0177721Y0268658D01*
X0177783Y0268895D01*
X0177852Y0269131D01*
X0177926Y0269365D01*
X0178006Y0269597D01*
X0178091Y0269827D01*
X0178182Y0270055D01*
X0178279Y0270280D01*
X0178381Y0270504D01*
X0178489Y0270724D01*
X0178602Y0270942D01*
X0178720Y0271157D01*
X0178844Y0271369D01*
X0178972Y0271578D01*
X0179106Y0271784D01*
X0179245Y0271986D01*
X0179389Y0272185D01*
X0179538Y0272380D01*
X0179691Y0272572D01*
X0179849Y0272760D01*
X0180011Y0272944D01*
X0180179Y0273123D01*
X0180350Y0273299D01*
X0180526Y0273470D01*
X0180705Y0273638D01*
X0180889Y0273800D01*
X0181077Y0273958D01*
X0181269Y0274111D01*
X0181464Y0274260D01*
X0181663Y0274404D01*
X0181865Y0274543D01*
X0182071Y0274677D01*
X0182280Y0274805D01*
X0182492Y0274929D01*
X0182707Y0275047D01*
X0182925Y0275160D01*
X0183145Y0275268D01*
X0183369Y0275370D01*
X0183594Y0275467D01*
X0183822Y0275558D01*
X0184052Y0275643D01*
X0184284Y0275723D01*
X0184518Y0275797D01*
X0184754Y0275866D01*
X0184991Y0275928D01*
X0185230Y0275985D01*
X0185470Y0276036D01*
X0185711Y0276081D01*
X0185954Y0276120D01*
X0186197Y0276153D01*
X0186441Y0276180D01*
X0186685Y0276201D01*
X0186930Y0276216D01*
X0187176Y0276225D01*
X0187421Y0276228D01*
X0187666Y0276225D01*
X0187912Y0276216D01*
X0188157Y0276201D01*
X0188401Y0276180D01*
X0188645Y0276153D01*
X0188888Y0276120D01*
X0189131Y0276081D01*
X0189372Y0276036D01*
X0189612Y0275985D01*
X0189851Y0275928D01*
X0190088Y0275866D01*
X0190324Y0275797D01*
X0190558Y0275723D01*
X0190790Y0275643D01*
X0191020Y0275558D01*
X0191248Y0275467D01*
X0191473Y0275370D01*
X0191697Y0275268D01*
X0191917Y0275160D01*
X0192135Y0275047D01*
X0192350Y0274929D01*
X0192562Y0274805D01*
X0192771Y0274677D01*
X0192977Y0274543D01*
X0193179Y0274404D01*
X0193378Y0274260D01*
X0193573Y0274111D01*
X0193765Y0273958D01*
X0193953Y0273800D01*
X0194137Y0273638D01*
X0194316Y0273470D01*
X0194492Y0273299D01*
X0194663Y0273123D01*
X0194831Y0272944D01*
X0194993Y0272760D01*
X0195151Y0272572D01*
X0195304Y0272380D01*
X0195453Y0272185D01*
X0195597Y0271986D01*
X0195736Y0271784D01*
X0195870Y0271578D01*
X0195998Y0271369D01*
X0196122Y0271157D01*
X0196240Y0270942D01*
X0196353Y0270724D01*
X0196461Y0270504D01*
X0196563Y0270280D01*
X0196660Y0270055D01*
X0196751Y0269827D01*
X0196836Y0269597D01*
X0196916Y0269365D01*
X0196990Y0269131D01*
X0197059Y0268895D01*
X0197121Y0268658D01*
X0197178Y0268419D01*
X0197229Y0268179D01*
X0197274Y0267938D01*
X0197313Y0267695D01*
X0197346Y0267452D01*
X0197373Y0267208D01*
X0197394Y0266964D01*
X0197409Y0266719D01*
X0197418Y0266473D01*
X0197421Y0266228D01*
X0197418Y0265983D01*
X0197409Y0265737D01*
X0197394Y0265492D01*
X0197373Y0265248D01*
X0197346Y0265004D01*
X0197313Y0264761D01*
X0197274Y0264518D01*
X0197229Y0264277D01*
X0197178Y0264037D01*
X0197121Y0263798D01*
X0197059Y0263561D01*
X0196990Y0263325D01*
X0196916Y0263091D01*
X0196836Y0262859D01*
X0196751Y0262629D01*
X0196660Y0262401D01*
X0196563Y0262176D01*
X0196461Y0261952D01*
X0196353Y0261732D01*
X0196240Y0261514D01*
X0196122Y0261299D01*
X0195998Y0261087D01*
X0195870Y0260878D01*
X0195736Y0260672D01*
X0195597Y0260470D01*
X0195453Y0260271D01*
X0195304Y0260076D01*
X0195151Y0259884D01*
X0194993Y0259696D01*
X0194831Y0259512D01*
X0194663Y0259333D01*
X0194492Y0259157D01*
X0194316Y0258986D01*
X0194137Y0258818D01*
X0193953Y0258656D01*
X0193765Y0258498D01*
X0193573Y0258345D01*
X0193378Y0258196D01*
X0193179Y0258052D01*
X0192977Y0257913D01*
X0192771Y0257779D01*
X0192562Y0257651D01*
X0192350Y0257527D01*
X0192135Y0257409D01*
X0191917Y0257296D01*
X0191697Y0257188D01*
X0191473Y0257086D01*
X0191248Y0256989D01*
X0191020Y0256898D01*
X0190790Y0256813D01*
X0190558Y0256733D01*
X0190324Y0256659D01*
X0190088Y0256590D01*
X0189851Y0256528D01*
X0189612Y0256471D01*
X0189372Y0256420D01*
X0189131Y0256375D01*
X0188888Y0256336D01*
X0188645Y0256303D01*
X0188401Y0256276D01*
X0188157Y0256255D01*
X0187912Y0256240D01*
X0187666Y0256231D01*
X0187421Y0256228D01*
X0187176Y0256231D01*
X0186930Y0256240D01*
X0186685Y0256255D01*
X0186441Y0256276D01*
X0186197Y0256303D01*
X0185954Y0256336D01*
X0185711Y0256375D01*
X0185470Y0256420D01*
X0185230Y0256471D01*
X0184991Y0256528D01*
X0184754Y0256590D01*
X0184518Y0256659D01*
X0184284Y0256733D01*
X0184052Y0256813D01*
X0183822Y0256898D01*
X0183594Y0256989D01*
X0183369Y0257086D01*
X0183145Y0257188D01*
X0182925Y0257296D01*
X0182707Y0257409D01*
X0182492Y0257527D01*
X0182280Y0257651D01*
X0182071Y0257779D01*
X0181865Y0257913D01*
X0181663Y0258052D01*
X0181464Y0258196D01*
X0181269Y0258345D01*
X0181077Y0258498D01*
X0180889Y0258656D01*
X0180705Y0258818D01*
X0180526Y0258986D01*
X0180350Y0259157D01*
X0180179Y0259333D01*
X0180011Y0259512D01*
X0179849Y0259696D01*
X0179691Y0259884D01*
X0179538Y0260076D01*
X0179389Y0260271D01*
X0179245Y0260470D01*
X0179106Y0260672D01*
X0178972Y0260878D01*
X0178844Y0261087D01*
X0178720Y0261299D01*
X0178602Y0261514D01*
X0178489Y0261732D01*
X0178381Y0261952D01*
X0178279Y0262176D01*
X0178182Y0262401D01*
X0178091Y0262629D01*
X0178006Y0262859D01*
X0177926Y0263091D01*
X0177852Y0263325D01*
X0177783Y0263561D01*
X0177721Y0263798D01*
X0177664Y0264037D01*
X0177613Y0264277D01*
X0177568Y0264518D01*
X0177529Y0264761D01*
X0177496Y0265004D01*
X0177469Y0265248D01*
X0177448Y0265492D01*
X0177433Y0265737D01*
X0177424Y0265983D01*
X0177421Y0266228D01*
M02*
