%
M48
M72
T01C0.01181
T02C0.01200
T03C0.01378
T04C0.01969
T05C0.02362
T06C0.03150
T07C0.03346
T08C0.03740
T09C0.03937
T10C0.04000
T11C0.04331
T12C0.04724
T13C0.05000
T14C0.06102
T15C0.06299
T16C0.07000
T17C0.07087
T18C0.12598
T19C0.12795
T20C0.14567
%
T01
X351866Y109442
X351866Y112985
X351866Y116528
X355409Y116528
X355409Y112985
X355409Y109442
X358953Y109442
X358953Y112985
X358953Y116528
T02
X369611Y115854
X369411Y112054
X374111Y112954
X376111Y116754
X380611Y113054
X382011Y117654
X388011Y112754
X388911Y117454
X381300Y132348
X375100Y132548
X371511Y133354
X372359Y139407
X380911Y137654
X385811Y138654
X388211Y133954
X391811Y138954
X397702Y142146
X409411Y158854
X417511Y159654
X418111Y153454
X418811Y145154
X424211Y147754
X429711Y146954
X438011Y145354
X443111Y148854
X444211Y144754
X455311Y142254
X458111Y140154
X455711Y145754
X458211Y149554
X458011Y153854
X457311Y159654
X445911Y164154
X436711Y178854
X426811Y179354
X417911Y179454
X409511Y179854
X404011Y179854
X399611Y180254
X401711Y188054
X399011Y192254
X395811Y192454
X396211Y188254
X407211Y184554
X409411Y188554
X416611Y188854
X416511Y197654
X414311Y202854
X419611Y203154
X423611Y206154
X424011Y210454
X422811Y218854
X422811Y223054
X422811Y227254
X434611Y224154
X434711Y218154
X434811Y212754
X438811Y210554
X435211Y206954
X435311Y200854
X440911Y201554
X453111Y199254
X453011Y193454
X452411Y189754
X445711Y190654
X438111Y191054
X433911Y191054
X426711Y188754
X426311Y193054
X409011Y197354
X407911Y203254
X406811Y211054
X411511Y210554
X399711Y211054
X397600Y217048
X395000Y219548
X391000Y217248
X387200Y216648
X381711Y216954
X384711Y223754
X390311Y229054
X395011Y233354
X384611Y233854
X374211Y227254
X374211Y219554
X394711Y224454
X409611Y239254
X417911Y241554
X427711Y244954
X427911Y252454
X434411Y250754
X434111Y258254
X444311Y261154
X444411Y276454
X439211Y275754
X439611Y282154
X446011Y283654
X441411Y288554
X446011Y292954
X448511Y298154
X452511Y293554
X451311Y304554
X456311Y304454
X451311Y309254
X446411Y309254
X445911Y314154
X440811Y318654
X436711Y322054
X443911Y329654
X448598Y329203
X448311Y324954
X455100Y331748
X460100Y326248
X458823Y318291
X453511Y320754
X462461Y313004
X466100Y319648
X480411Y308654
X463411Y296254
X462911Y289054
X470011Y284254
X440411Y300254
X427811Y298854
X427511Y307154
X428111Y289954
X405911Y281054
X406211Y274554
X410511Y268554
X417111Y270954
X418700Y264748
X422811Y267354
X425011Y271254
X422411Y259654
X417111Y258854
X410111Y260354
X412411Y253254
X407711Y251154
X395211Y257854
X394211Y261854
X396111Y267854
X396211Y271954
X391111Y275854
X391311Y281754
X375900Y270248
X365000Y267248
X364000Y260348
X370611Y257254
X367011Y251854
X359411Y251354
X354100Y259448
X355600Y267248
X347511Y278754
X350511Y287454
X343511Y287854
X344411Y294954
X340611Y300554
X334711Y294554
X330511Y287554
X327111Y282354
X319111Y283454
X319011Y290354
X322011Y295754
X328311Y299954
X332211Y304254
X336211Y308786
X335837Y315549
X336011Y321954
X338411Y329254
X344111Y334954
X352611Y329354
X350711Y319954
X351011Y313054
X350811Y306354
X375400Y313448
X386200Y325548
X381211Y329654
X384711Y335254
X389211Y344154
X395511Y344154
X394811Y335754
X397200Y325548
X423211Y335854
X427911Y332154
X433711Y340054
X440536Y334822
X446400Y339048
X450000Y347348
X455411Y341554
X428211Y346354
X357811Y345754
X344385Y341339
X340200Y345948
X332000Y337348
X320300Y331148
X320200Y319148
X304700Y331148
X303200Y319848
X286300Y319848
X286500Y331348
X285900Y344648
X271500Y344748
X271400Y332348
X270200Y320748
X279400Y300748
X284100Y284448
X301311Y272054
X305011Y276154
X308311Y270854
X313111Y277954
X318211Y276454
X318911Y269454
X327111Y269654
X327411Y276354
X334900Y277548
X334700Y265248
X326811Y262854
X319011Y263754
X314611Y258254
X318012Y252063
X310393Y252063
X300311Y258954
X305311Y262554
X293611Y264354
X290900Y258848
X306111Y282954
X310711Y288154
X312911Y295654
X301800Y303448
X260800Y285248
X261000Y268048
X253111Y253954
X247511Y252454
X242900Y250448
X239100Y242148
X247400Y240548
X247500Y236048
X239400Y236348
X234400Y231048
X239000Y227748
X239300Y222648
X239400Y216748
X247500Y215448
X247800Y221048
X247600Y226248
X255000Y225948
X255800Y232248
X258200Y212448
X245300Y204148
X235700Y204948
X235300Y212348
X230124Y219574
X222100Y213648
X217500Y222748
X211600Y232648
X213600Y244948
X228300Y235948
X209400Y212348
X197600Y209648
X197800Y219948
X189000Y225648
X190600Y236148
X169600Y219248
X187800Y213548
X188800Y202748
X180200Y196148
X180300Y187848
X184800Y184748
X190700Y183248
X190200Y176548
X202700Y171748
X196800Y165548
X190900Y159948
X185900Y154948
X181800Y150948
X176900Y145648
X175700Y139448
X184600Y138048
X187000Y142348
X189100Y145648
X192100Y148848
X196200Y152748
X200600Y149348
X195900Y144548
X206100Y153648
X211000Y158448
X212500Y164148
X209455Y168178
X205124Y163060
X200400Y157548
X214573Y173690
X209300Y178648
X204200Y181448
X216800Y186148
X221800Y191248
X226384Y185501
X232290Y191406
X242300Y186748
X250200Y186848
X257200Y187348
X257200Y182448
X252500Y177648
X256000Y172048
X252200Y164548
X242800Y167048
X235000Y164248
X227700Y168648
X232400Y173248
X237700Y177548
X220479Y179202
X224100Y162648
X235000Y152248
X230600Y148948
X226300Y144848
X237700Y145248
X236600Y139248
X249400Y146048
X255300Y147748
X257900Y143548
X255800Y154048
X250100Y152848
X278511Y135554
X284911Y134654
X288811Y136354
X295911Y127754
X296300Y119748
X289411Y112954
X292111Y111454
X289411Y109554
X295311Y101554
X299311Y93654
X308700Y93048
X314711Y94654
X317600Y90648
X320411Y94654
X315200Y79048
X321900Y74248
X308200Y79748
X299400Y79948
X293100Y81348
X287700Y80848
X287811Y85654
X282511Y88254
X282011Y92754
X280811Y97154
X284211Y97854
X276411Y95154
X272411Y95154
X268811Y95154
X263111Y92554
X260911Y86954
X256200Y85448
X264600Y81948
X268311Y79754
X269711Y83954
X274511Y82954
X281511Y83954
X281811Y80354
X271511Y89054
X250711Y73854
X245211Y77454
X243211Y73954
X239611Y76654
X241100Y83348
X244611Y82654
X236100Y83048
X232600Y83048
X232700Y86748
X232700Y90048
X232600Y93248
X236100Y93148
X236200Y89848
X236300Y86548
X223700Y92348
X211100Y104248
X216100Y107648
X216800Y110248
X213900Y109948
X208400Y108548
X201700Y110448
X204200Y104248
X193400Y110448
X186800Y105048
X175700Y107148
X171700Y100448
X168400Y106448
X163600Y110148
X158500Y108848
X155200Y123448
X157600Y127848
X161200Y124648
X167100Y124748
X169300Y121948
X177600Y124348
X181400Y124548
X184800Y122748
X187800Y125548
X192300Y126048
X193200Y122148
X190200Y135648
X215300Y124948
X217500Y127248
X221000Y127348
X220100Y124248
X223800Y123948
X225600Y121548
X228300Y120848
X227200Y123948
X227400Y126848
X224400Y127248
X219700Y110548
X219200Y107848
X234200Y109248
X275211Y110054
X275111Y113954
X303811Y118054
X305611Y123954
X305711Y128154
X317411Y134354
X324411Y131654
X329811Y133354
X335511Y134454
X343711Y132354
X350811Y135154
X356011Y135054
X362411Y135954
X365711Y153354
X362311Y158354
X361511Y162754
X368511Y163054
X353911Y160654
X350211Y170354
X342911Y175854
X338911Y171754
X342111Y165254
X342711Y157854
X334711Y158054
X326911Y158454
X332611Y166454
X320300Y169048
X327000Y177948
X330500Y186848
X320300Y186748
X311400Y186848
X312900Y177748
X308200Y172448
X307200Y162448
X315711Y160054
X307300Y152448
X301900Y147048
X312211Y141454
X326811Y120654
X317511Y118254
X311500Y115248
X309500Y109648
X304111Y111754
X343411Y108854
X356411Y101454
X357411Y88054
X362811Y88054
X368211Y88054
X373911Y83454
X380811Y87754
X382311Y82654
X387111Y80954
X387611Y85554
X387911Y93354
X379611Y98254
X384311Y100754
X374211Y98254
X397011Y94554
X400711Y91354
X396511Y85754
X396411Y81054
X401111Y83254
X401611Y79154
X396111Y74154
X398611Y67554
X404111Y67154
X405611Y58254
X411611Y59254
X414111Y55054
X419411Y50954
X426011Y47354
X427411Y37854
X433911Y33054
X440911Y31254
X440411Y39054
X450511Y43554
X456611Y34354
X465311Y29754
X474511Y33654
X455443Y19754
X447211Y23854
X457400Y10748
X427700Y11948
X414000Y10348
X408600Y15148
X414011Y18054
X414411Y26254
X408811Y30754
X405211Y36654
X400111Y41154
X396611Y46354
X391011Y49554
X389211Y54354
X389911Y59054
X395911Y60954
X394011Y63954
X385411Y63554
X380011Y61254
X383111Y55854
X375311Y49054
X379711Y43754
X385411Y38954
X390411Y33754
X394111Y30754
X382811Y27154
X383111Y22154
X382811Y17654
X388300Y15148
X384100Y11248
X375011Y17554
X366011Y17854
X366611Y26654
X354300Y21648
X344200Y21848
X334200Y21548
X324300Y21548
X314200Y16948
X304600Y17848
X302900Y13548
X294100Y18048
X292900Y13448
X283300Y14748
X273000Y14248
X263300Y14448
X253000Y14148
X243300Y14448
X233200Y14248
X223300Y14348
X213400Y14448
X203500Y14048
X193300Y14448
X183400Y14148
X173600Y13948
X163300Y13748
X153300Y13748
X134600Y35448
X124700Y38748
X114200Y37448
X112800Y58748
X122600Y58848
X131500Y56548
X141400Y55948
X151600Y55848
X170500Y55948
X179200Y57648
X175843Y64613
X181800Y73848
X185500Y70448
X189300Y56948
X199300Y56848
X206700Y56448
X216100Y55648
X224300Y44648
X234300Y46548
X249300Y37448
X261200Y37448
X273800Y40848
X283700Y41248
X289300Y37548
X299300Y37348
X304200Y56948
X313800Y56948
X329300Y57748
X344100Y56948
X348400Y56748
X352000Y56648
X365111Y50554
X367011Y55254
X365911Y41854
X403311Y13754
X421411Y67454
X425211Y70454
X431611Y73254
X437011Y78154
X442511Y83454
X430711Y83754
X424811Y89354
X418911Y91754
X413311Y88154
X419011Y83354
X414111Y78654
X417911Y71954
X413111Y95854
X413311Y103154
X400811Y98154
X413911Y112954
X416811Y116654
X423511Y116354
X429511Y118454
X427511Y121354
X429611Y124454
X432511Y122054
X433111Y118654
X435611Y115154
X440811Y112954
X441211Y117154
X441011Y123454
X447911Y128654
X457811Y130154
X460311Y122954
X456500Y119948
X460111Y116554
X467611Y122354
X477811Y122254
X488511Y122254
X485000Y136048
X484700Y141248
X484300Y148948
X474011Y158154
X465211Y169854
X471800Y175148
X478500Y175548
X486100Y175348
X487311Y169754
X467111Y185854
X467411Y190954
X468011Y200754
X469211Y205354
X478700Y210648
X473811Y216854
X461311Y216854
X455911Y212054
X444111Y226654
X453311Y229254
X450311Y245654
X434011Y241754
X428711Y238354
X435000Y232448
X381411Y191654
X377611Y192054
X373911Y187654
X366600Y194448
X363400Y196248
X363800Y200048
X371111Y196854
X362800Y190848
X363000Y182448
X343100Y206748
X336600Y212248
X330500Y218148
X336011Y222154
X336900Y228448
X336211Y235354
X337400Y241248
X333311Y244054
X325700Y244748
X319911Y237954
X314200Y235748
X307800Y232448
X309800Y226548
X316900Y226148
X317500Y217048
X309500Y216948
X310000Y205548
X316900Y205348
X323800Y205248
X350811Y215854
X351411Y220054
X349911Y225454
X354511Y239654
X363011Y238154
X367711Y243954
X349611Y251554
X347711Y241454
X334300Y255248
X326311Y255054
X327911Y235354
X406011Y164954
X427511Y165054
X427511Y157154
X447900Y108848
X441700Y105548
X446111Y100354
X440611Y99954
X456811Y108754
X460111Y108654
X463311Y108654
X466411Y108754
X469511Y108654
X472811Y108554
X478911Y104954
X485211Y104854
X481011Y95354
X463811Y90654
X457011Y90754
X458611Y79454
X468511Y73554
X473411Y79754
X481411Y73454
X487811Y79454
X386711Y73754
X380811Y73954
X374011Y73754
X365911Y73954
X357211Y74454
X347111Y74454
X339911Y74754
X346511Y82654
X195094Y86700
X189189Y91818
X151400Y93548
X141900Y93148
X141800Y89948
X141700Y86348
X137900Y86248
X137900Y89548
X138200Y93048
X131700Y96948
X138111Y100454
X130211Y105954
X124611Y111654
X133400Y115848
X129600Y119048
X124011Y118754
X110411Y111754
X113911Y103554
X122511Y100254
X116011Y93754
X109511Y86854
X95111Y85654
X93600Y76848
X75811Y82554
X72311Y72754
X63411Y70054
X55811Y73754
X61311Y82254
X51011Y88754
X46000Y84148
X62011Y92654
X62411Y103354
X67600Y110548
X61100Y115348
X51011Y113054
X51011Y104954
X50911Y97154
X75311Y94754
X75611Y104354
X80000Y118048
X84600Y119448
X89200Y120448
X93000Y126748
X101500Y126648
X109200Y126648
X108600Y121948
X118000Y132248
X121200Y134648
X125800Y134448
X116500Y142748
X108400Y145648
X111800Y151148
X105100Y154448
X97500Y154648
X97400Y164248
X104100Y163948
X111600Y164248
X111100Y175548
X111400Y185548
X111000Y194848
X97400Y193348
X97400Y184848
X97500Y174148
X70500Y163748
X65600Y167848
X60400Y172648
X56011Y176554
X51500Y179548
X54833Y185582
X36200Y187048
X35700Y194348
X24900Y186148
X20000Y190648
X15700Y185848
X14900Y192848
X16700Y198748
X29899Y212397
X11999Y214197
X56600Y214448
X62811Y210654
X63600Y217848
X55600Y234048
X67000Y259448
X80900Y261748
X98500Y261548
X113600Y261948
X125600Y252248
X135700Y243948
X151600Y237048
X141500Y226548
X151600Y216948
X141200Y204548
X151500Y194548
X140200Y189448
X147400Y180648
X158100Y176848
X164500Y171448
X158400Y165548
X152111Y170454
X142000Y172448
X138800Y163948
X137100Y146248
X136300Y142048
X158600Y155748
X171300Y178348
X175500Y182548
X172200Y190548
X166300Y185448
X168700Y202648
X166800Y245448
X151600Y262848
X128000Y272948
X113700Y285448
X111900Y302048
X108500Y319748
X97100Y319748
X85900Y319748
X75200Y319748
X60300Y319048
X61100Y332948
X74000Y332948
X85500Y332348
X97200Y332348
X107800Y332348
X106900Y345748
X96600Y345248
X86700Y344948
X74800Y345248
X60800Y345448
X47800Y345248
X37400Y345548
X37100Y333748
X47800Y332948
X30000Y324148
X22400Y319348
X26800Y313448
X38400Y305848
X44300Y295648
X36800Y283348
X51000Y281948
X52900Y271948
X27600Y267748
X15000Y276048
X12900Y295448
X12700Y303948
X24100Y302648
X12500Y313048
X13300Y320148
X42900Y319048
X63300Y302048
X88300Y302048
X83000Y280548
X127800Y320248
X145700Y318148
X154200Y322748
X152600Y333348
X152500Y344848
X167600Y344848
X183200Y344948
X184500Y334648
X197300Y335548
X196600Y344848
X209000Y344848
X209500Y335348
X221400Y335148
X222100Y344848
X221900Y324448
X217200Y320248
X208700Y320748
X198200Y320748
X184600Y321248
X171200Y321248
X175000Y302748
X190200Y285448
X203900Y301148
X228300Y284948
X229100Y267348
X214400Y266648
X167000Y284448
X151100Y284948
X140300Y301748
X304800Y344748
X320200Y345348
X96000Y142948
X102000Y139848
X107900Y139048
X94200Y113548
X94211Y104054
X94011Y97054
X75000Y119648
X69100Y128748
X75700Y133848
X76400Y141948
X66000Y152648
X61300Y148048
X47500Y139848
X43400Y159348
X34200Y166548
X25000Y169348
X22600Y164848
X13300Y165848
X121911Y85854
X126900Y86148
X131700Y85348
X130800Y90348
X138800Y110348
X101900Y58148
X92100Y59048
X75300Y42448
X65400Y55348
X57900Y56548
X59200Y45148
X47200Y46948
X49800Y35948
X59100Y29848
X58800Y22448
X59900Y15948
X72700Y13048
X82800Y13048
X92600Y13648
X102700Y13548
X113000Y13548
X159500Y36348
X48500Y12948
X45400Y22348
X37200Y14048
X36800Y32548
X28200Y40348
T03
X173200Y104148
X178400Y109648
X313400Y66048
X309100Y32048
X340111Y117954
X342511Y120254
X343011Y123354
X345911Y120454
X343611Y117254
X30700Y198548
T04
X484564Y158258
X484564Y129715
X484564Y291132
X484564Y319676
T05
X474131Y314951
X474131Y295857
X474131Y153534
X474131Y134439
T06
X36433Y136306
X36433Y128432
X36433Y120558
X36433Y144180
X36433Y81188
X36433Y73314
X36433Y65440
X36433Y57566
T07
X367300Y304692
X377300Y304692
X387300Y304692
X397300Y304692
X407300Y304692
X402300Y294692
X392300Y294692
X382300Y294692
X372300Y294692
X412300Y294692
T08
X414702Y345716
X404702Y345716
X374898Y345716
X364898Y345716
T09
X463411Y276158
X473254Y276158
X483096Y276158
X483096Y263560
X473254Y263560
X463411Y263560
X463926Y244508
X473769Y244508
X483611Y244508
X483611Y231910
X473769Y231910
X463926Y231910
X451700Y71833
X463511Y52936
X439495Y52936
T10
X340911Y89354
X330911Y89354
X267611Y125854
X257611Y125854
X254111Y98554
X244111Y98554
X376867Y158958
X386867Y158958
X396867Y158958
X415489Y278458
X425489Y278458
X365367Y278458
X355367Y278458
T11
X226866Y106936
T12
X354268Y33944
X74268Y33944
T13
X127400Y337094
X248200Y337094
T14
X148126Y106936
T15
X359288Y317645
X420312Y317645
T16
X258239Y327055
X238161Y327055
X238161Y347133
X258239Y347133
X137439Y347133
X117361Y347133
X117361Y327055
X137439Y327055
T17
X91945Y247448
X91945Y207448
X282824Y247448
X282824Y147448
T18
X18717Y18196
X18717Y339062
X473441Y339062
X473441Y18196
T19
X412300Y329653
X367300Y329653
T20
X187421Y266228
M30
