G75*
%MOIN*%
%OFA0B0*%
%FSLAX25Y25*%
%IPPOS*%
%LPD*%
%AMOC8*
5,1,8,0,0,1.08239X$1,22.5*
%
%ADD10C,0.05131*%
%ADD11C,0.06902*%
%ADD12C,0.07099*%
%ADD13C,0.10249*%
%ADD14C,0.06146*%
%ADD15C,0.13595*%
%ADD16C,0.07887*%
%ADD17C,0.05162*%
%ADD18C,0.04769*%
%ADD19C,0.08300*%
%ADD20C,0.11300*%
%ADD21C,0.08200*%
%ADD22C,0.08674*%
%ADD23C,0.05524*%
%ADD24R,0.05950X0.05950*%
%ADD25C,0.05950*%
%ADD26C,0.25209*%
%ADD27C,0.05800*%
%ADD28C,0.24422*%
D10*
X0226866Y0106664D03*
D11*
X0148126Y0106664D03*
D12*
X0364898Y0345443D03*
X0374898Y0345443D03*
X0404702Y0345443D03*
X0414702Y0345443D03*
D13*
X0420312Y0317373D03*
X0359288Y0317373D03*
D14*
X0367300Y0304420D03*
X0377300Y0304420D03*
X0387300Y0304420D03*
X0397300Y0304420D03*
X0407300Y0304420D03*
X0402300Y0294420D03*
X0392300Y0294420D03*
X0382300Y0294420D03*
X0372300Y0294420D03*
X0412300Y0294420D03*
D15*
X0412300Y0329380D03*
X0367300Y0329380D03*
D16*
X0463411Y0275886D03*
X0473254Y0275886D03*
X0483096Y0275886D03*
X0483096Y0263288D03*
X0473254Y0263288D03*
X0463411Y0263288D03*
X0463926Y0244236D03*
X0473769Y0244236D03*
X0483611Y0244236D03*
X0483611Y0231637D03*
X0473769Y0231637D03*
X0463926Y0231637D03*
X0282824Y0247176D03*
X0282824Y0147176D03*
X0091945Y0207176D03*
X0091945Y0247176D03*
D17*
X0471950Y0295584D02*
X0476312Y0295584D01*
X0476312Y0314679D02*
X0471950Y0314679D01*
X0471950Y0153262D02*
X0476312Y0153262D01*
X0476312Y0134167D02*
X0471950Y0134167D01*
D18*
X0482580Y0129443D02*
X0486548Y0129443D01*
X0486548Y0157986D02*
X0482580Y0157986D01*
X0482580Y0290860D02*
X0486548Y0290860D01*
X0486548Y0319403D02*
X0482580Y0319403D01*
D19*
X0248200Y0336821D03*
X0127400Y0336821D03*
D20*
X0117361Y0346860D03*
X0137439Y0346860D03*
X0137439Y0326782D03*
X0117361Y0326782D03*
X0238161Y0326782D03*
X0258239Y0326782D03*
X0258239Y0346860D03*
X0238161Y0346860D03*
D21*
X0355367Y0278185D03*
X0365367Y0278185D03*
X0415489Y0278185D03*
X0425489Y0278185D03*
X0396867Y0158685D03*
X0386867Y0158685D03*
X0376867Y0158685D03*
X0340911Y0089082D03*
X0330911Y0089082D03*
X0267611Y0125582D03*
X0257611Y0125582D03*
X0254111Y0098282D03*
X0244111Y0098282D03*
D22*
X0439495Y0056600D02*
X0439495Y0048726D01*
X0463511Y0048726D02*
X0463511Y0056600D01*
X0455637Y0071561D02*
X0447763Y0071561D01*
D23*
X0354268Y0033672D03*
X0074268Y0033672D03*
D24*
X0036433Y0057294D03*
X0036433Y0120286D03*
D25*
X0036433Y0128160D03*
X0036433Y0136034D03*
X0036433Y0143908D03*
X0036433Y0080916D03*
X0036433Y0073042D03*
X0036433Y0065168D03*
D26*
X0187421Y0265955D03*
D27*
X0189143Y0046147D03*
X0179083Y0046147D03*
X0168928Y0046147D03*
X0159013Y0046147D03*
X0149098Y0046147D03*
X0138583Y0046147D03*
X0129258Y0046147D03*
X0119153Y0046147D03*
X0109088Y0046147D03*
X0099223Y0046147D03*
X0089308Y0046147D03*
X0078633Y0046147D03*
X0078633Y0021578D03*
X0069448Y0021578D03*
X0089308Y0021578D03*
X0099223Y0021578D03*
X0109088Y0021578D03*
X0119153Y0021578D03*
X0129258Y0021578D03*
X0138583Y0021578D03*
X0149098Y0021578D03*
X0159013Y0021578D03*
X0168928Y0021578D03*
X0179083Y0021578D03*
X0189143Y0021578D03*
X0199321Y0021578D03*
X0209161Y0021578D03*
X0219213Y0021578D03*
X0229291Y0021578D03*
X0239306Y0021578D03*
X0249183Y0021578D03*
X0259136Y0021578D03*
X0269251Y0021578D03*
X0278938Y0021578D03*
X0289123Y0021578D03*
X0299208Y0021578D03*
X0309400Y0021578D03*
X0309400Y0046147D03*
X0319578Y0046147D03*
X0329463Y0046147D03*
X0339428Y0046147D03*
X0299208Y0046147D03*
X0289123Y0046147D03*
X0278938Y0046147D03*
X0269251Y0046147D03*
X0259136Y0046147D03*
X0249183Y0046147D03*
X0239306Y0046147D03*
X0229291Y0046147D03*
X0199321Y0046147D03*
D28*
X0018717Y0017924D03*
X0018717Y0338790D03*
X0473441Y0338790D03*
X0473441Y0017924D03*
M02*
