G75*
%MOIN*%
%OFA0B0*%
%FSLAX25Y25*%
%IPPOS*%
%LPD*%
%AMOC8*
5,1,8,0,0,1.08239X$1,22.5*
%
%ADD10R,0.00060X0.00020*%
%ADD11R,0.00060X0.00020*%
%ADD12R,0.00080X0.00020*%
%ADD13R,0.00100X0.00020*%
%ADD14R,0.00100X0.00020*%
%ADD15R,0.00120X0.00020*%
%ADD16R,0.00140X0.00020*%
%ADD17R,0.00140X0.00020*%
%ADD18R,0.00180X0.00020*%
%ADD19R,0.00180X0.00020*%
%ADD20R,0.00200X0.00020*%
%ADD21R,0.00220X0.00020*%
%ADD22R,0.00220X0.00020*%
%ADD23R,0.00240X0.00020*%
%ADD24R,0.00260X0.00020*%
%ADD25R,0.00260X0.00020*%
%ADD26R,0.00300X0.00020*%
%ADD27R,0.00300X0.00020*%
%ADD28R,0.00320X0.00020*%
%ADD29R,0.00340X0.00020*%
%ADD30R,0.00340X0.00020*%
%ADD31R,0.00360X0.00020*%
%ADD32R,0.00380X0.00020*%
%ADD33R,0.00380X0.00020*%
%ADD34R,0.00420X0.00020*%
%ADD35R,0.00420X0.00020*%
%ADD36R,0.00440X0.00020*%
%ADD37R,0.00460X0.00020*%
%ADD38R,0.00460X0.00020*%
%ADD39R,0.00480X0.00020*%
%ADD40R,0.00500X0.00020*%
%ADD41R,0.00500X0.00020*%
%ADD42R,0.00540X0.00020*%
%ADD43R,0.00540X0.00020*%
%ADD44R,0.00560X0.00020*%
%ADD45R,0.00580X0.00020*%
%ADD46R,0.00620X0.00020*%
%ADD47R,0.00600X0.00020*%
%ADD48R,0.00580X0.00020*%
%ADD49R,0.00980X0.00020*%
%ADD50R,0.01000X0.00020*%
%ADD51R,0.01220X0.00020*%
%ADD52R,0.01260X0.00020*%
%ADD53R,0.01420X0.00020*%
%ADD54R,0.00880X0.00020*%
%ADD55R,0.01460X0.00020*%
%ADD56R,0.01620X0.00020*%
%ADD57R,0.01080X0.00020*%
%ADD58R,0.01640X0.00020*%
%ADD59R,0.00620X0.00020*%
%ADD60R,0.01760X0.00020*%
%ADD61R,0.01780X0.00020*%
%ADD62R,0.01800X0.00020*%
%ADD63R,0.00620X0.00020*%
%ADD64R,0.01900X0.00020*%
%ADD65R,0.01400X0.00020*%
%ADD66R,0.01940X0.00020*%
%ADD67R,0.00700X0.00020*%
%ADD68R,0.02040X0.00020*%
%ADD69R,0.00660X0.00020*%
%ADD70R,0.01540X0.00020*%
%ADD71R,0.02020X0.00020*%
%ADD72R,0.02080X0.00020*%
%ADD73R,0.00700X0.00020*%
%ADD74R,0.02160X0.00020*%
%ADD75R,0.00640X0.00020*%
%ADD76R,0.00660X0.00020*%
%ADD77R,0.01660X0.00020*%
%ADD78R,0.02200X0.00020*%
%ADD79R,0.02260X0.00020*%
%ADD80R,0.00640X0.00020*%
%ADD81R,0.02320X0.00020*%
%ADD82R,0.02380X0.00020*%
%ADD83R,0.01860X0.00020*%
%ADD84R,0.02420X0.00020*%
%ADD85R,0.02480X0.00020*%
%ADD86R,0.01960X0.00020*%
%ADD87R,0.02520X0.00020*%
%ADD88R,0.02580X0.00020*%
%ADD89R,0.02040X0.00020*%
%ADD90R,0.02620X0.00020*%
%ADD91R,0.00680X0.00020*%
%ADD92R,0.02660X0.00020*%
%ADD93R,0.02120X0.00020*%
%ADD94R,0.02700X0.00020*%
%ADD95R,0.02740X0.00020*%
%ADD96R,0.02160X0.00020*%
%ADD97R,0.02760X0.00020*%
%ADD98R,0.02800X0.00020*%
%ADD99R,0.02840X0.00020*%
%ADD100R,0.02200X0.00020*%
%ADD101R,0.02880X0.00020*%
%ADD102R,0.02920X0.00020*%
%ADD103R,0.02220X0.00020*%
%ADD104R,0.02980X0.00020*%
%ADD105R,0.03000X0.00020*%
%ADD106R,0.03060X0.00020*%
%ADD107R,0.00720X0.00020*%
%ADD108R,0.03060X0.00020*%
%ADD109R,0.02280X0.00020*%
%ADD110R,0.03080X0.00020*%
%ADD111R,0.03120X0.00020*%
%ADD112R,0.00740X0.00020*%
%ADD113R,0.03140X0.00020*%
%ADD114R,0.03160X0.00020*%
%ADD115R,0.03180X0.00020*%
%ADD116R,0.03220X0.00020*%
%ADD117R,0.02340X0.00020*%
%ADD118R,0.03260X0.00020*%
%ADD119R,0.00740X0.00020*%
%ADD120R,0.03280X0.00020*%
%ADD121R,0.02360X0.00020*%
%ADD122R,0.03340X0.00020*%
%ADD123R,0.03340X0.00020*%
%ADD124R,0.02400X0.00020*%
%ADD125R,0.03360X0.00020*%
%ADD126R,0.03400X0.00020*%
%ADD127R,0.00780X0.00020*%
%ADD128R,0.03400X0.00020*%
%ADD129R,0.02420X0.00020*%
%ADD130R,0.03440X0.00020*%
%ADD131R,0.03460X0.00020*%
%ADD132R,0.00780X0.00020*%
%ADD133R,0.03480X0.00020*%
%ADD134R,0.02440X0.00020*%
%ADD135R,0.03540X0.00020*%
%ADD136R,0.00040X0.00020*%
%ADD137R,0.03520X0.00020*%
%ADD138R,0.02460X0.00020*%
%ADD139R,0.03560X0.00020*%
%ADD140R,0.03580X0.00020*%
%ADD141R,0.03600X0.00020*%
%ADD142R,0.03660X0.00020*%
%ADD143R,0.00080X0.00020*%
%ADD144R,0.00800X0.00020*%
%ADD145R,0.03640X0.00020*%
%ADD146R,0.02500X0.00020*%
%ADD147R,0.03680X0.00020*%
%ADD148R,0.03720X0.00020*%
%ADD149R,0.00820X0.00020*%
%ADD150R,0.03680X0.00020*%
%ADD151R,0.03720X0.00020*%
%ADD152R,0.03780X0.00020*%
%ADD153R,0.00120X0.00020*%
%ADD154R,0.00820X0.00020*%
%ADD155R,0.03760X0.00020*%
%ADD156R,0.02540X0.00020*%
%ADD157R,0.03800X0.00020*%
%ADD158R,0.03820X0.00020*%
%ADD159R,0.00140X0.00020*%
%ADD160R,0.02560X0.00020*%
%ADD161R,0.01740X0.00020*%
%ADD162R,0.01740X0.00020*%
%ADD163R,0.01820X0.00020*%
%ADD164R,0.01700X0.00020*%
%ADD165R,0.01640X0.00020*%
%ADD166R,0.02580X0.00020*%
%ADD167R,0.01620X0.00020*%
%ADD168R,0.01560X0.00020*%
%ADD169R,0.01580X0.00020*%
%ADD170R,0.01620X0.00020*%
%ADD171R,0.00840X0.00020*%
%ADD172R,0.01560X0.00020*%
%ADD173R,0.01500X0.00020*%
%ADD174R,0.01480X0.00020*%
%ADD175R,0.01540X0.00020*%
%ADD176R,0.00200X0.00020*%
%ADD177R,0.00860X0.00020*%
%ADD178R,0.01440X0.00020*%
%ADD179R,0.00860X0.00020*%
%ADD180R,0.01420X0.00020*%
%ADD181R,0.01320X0.00020*%
%ADD182R,0.01400X0.00020*%
%ADD183R,0.01340X0.00020*%
%ADD184R,0.01360X0.00020*%
%ADD185R,0.01380X0.00020*%
%ADD186R,0.00220X0.00020*%
%ADD187R,0.01200X0.00020*%
%ADD188R,0.00540X0.00020*%
%ADD189R,0.01320X0.00020*%
%ADD190R,0.00240X0.00020*%
%ADD191R,0.01300X0.00020*%
%ADD192R,0.01220X0.00020*%
%ADD193R,0.01140X0.00020*%
%ADD194R,0.01320X0.00020*%
%ADD195R,0.01280X0.00020*%
%ADD196R,0.00900X0.00020*%
%ADD197R,0.00280X0.00020*%
%ADD198R,0.01160X0.00020*%
%ADD199R,0.01280X0.00020*%
%ADD200R,0.01240X0.00020*%
%ADD201R,0.01240X0.00020*%
%ADD202R,0.00280X0.00020*%
%ADD203R,0.00900X0.00020*%
%ADD204R,0.01240X0.00020*%
%ADD205R,0.01120X0.00020*%
%ADD206R,0.01040X0.00020*%
%ADD207R,0.01200X0.00020*%
%ADD208R,0.01220X0.00020*%
%ADD209R,0.01020X0.00020*%
%ADD210R,0.01220X0.00020*%
%ADD211R,0.01180X0.00020*%
%ADD212R,0.00320X0.00020*%
%ADD213R,0.01040X0.00020*%
%ADD214R,0.00980X0.00020*%
%ADD215R,0.00340X0.00020*%
%ADD216R,0.00920X0.00020*%
%ADD217R,0.01020X0.00020*%
%ADD218R,0.00960X0.00020*%
%ADD219R,0.00160X0.00020*%
%ADD220R,0.01180X0.00020*%
%ADD221R,0.01140X0.00020*%
%ADD222R,0.00340X0.00020*%
%ADD223R,0.00940X0.00020*%
%ADD224R,0.01100X0.00020*%
%ADD225R,0.00920X0.00020*%
%ADD226R,0.01120X0.00020*%
%ADD227R,0.00940X0.00020*%
%ADD228R,0.01080X0.00020*%
%ADD229R,0.00920X0.00020*%
%ADD230R,0.01100X0.00020*%
%ADD231R,0.00400X0.00020*%
%ADD232R,0.01060X0.00020*%
%ADD233R,0.00940X0.00020*%
%ADD234R,0.00880X0.00020*%
%ADD235R,0.00020X0.00020*%
%ADD236R,0.01120X0.00020*%
%ADD237R,0.00440X0.00020*%
%ADD238R,0.00420X0.00020*%
%ADD239R,0.01040X0.00020*%
%ADD240R,0.00440X0.00020*%
%ADD241R,0.01020X0.00020*%
%ADD242R,0.00840X0.00020*%
%ADD243R,0.00480X0.00020*%
%ADD244R,0.01060X0.00020*%
%ADD245R,0.00820X0.00020*%
%ADD246R,0.01040X0.00020*%
%ADD247R,0.01000X0.00020*%
%ADD248R,0.01020X0.00020*%
%ADD249R,0.00520X0.00020*%
%ADD250R,0.00940X0.00020*%
%ADD251R,0.00820X0.00020*%
%ADD252R,0.00800X0.00020*%
%ADD253R,0.00960X0.00020*%
%ADD254R,0.00540X0.00020*%
%ADD255R,0.00760X0.00020*%
%ADD256R,0.00760X0.00020*%
%ADD257R,0.00740X0.00020*%
%ADD258R,0.00600X0.00020*%
%ADD259R,0.00920X0.00020*%
%ADD260R,0.00740X0.00020*%
%ADD261R,0.00680X0.00020*%
%ADD262R,0.00840X0.00020*%
%ADD263R,0.01340X0.00020*%
%ADD264R,0.01300X0.00020*%
%ADD265R,0.00720X0.00020*%
%ADD266R,0.00720X0.00020*%
%ADD267R,0.01140X0.00020*%
%ADD268R,0.00720X0.00020*%
%ADD269R,0.00840X0.00020*%
%ADD270R,0.01140X0.00020*%
%ADD271R,0.00520X0.00020*%
%ADD272R,0.00140X0.00020*%
%ADD273R,0.00040X0.00020*%
%ADD274R,0.01260X0.00020*%
%ADD275R,0.00020X0.00020*%
%ADD276R,0.01160X0.00020*%
%ADD277R,0.01340X0.00020*%
%ADD278R,0.01340X0.00020*%
%ADD279R,0.01380X0.00020*%
%ADD280R,0.01320X0.00020*%
%ADD281R,0.01360X0.00020*%
%ADD282R,0.01420X0.00020*%
%ADD283R,0.01440X0.00020*%
%ADD284R,0.01460X0.00020*%
%ADD285R,0.01500X0.00020*%
%ADD286R,0.01520X0.00020*%
%ADD287R,0.01540X0.00020*%
%ADD288R,0.01580X0.00020*%
%ADD289R,0.01600X0.00020*%
%ADD290R,0.01660X0.00020*%
%ADD291R,0.01680X0.00020*%
%ADD292R,0.01700X0.00020*%
%ADD293R,0.00160X0.00020*%
%ADD294R,0.01720X0.00020*%
%ADD295R,0.01780X0.00020*%
%ADD296R,0.01760X0.00020*%
%ADD297R,0.01820X0.00020*%
%ADD298R,0.01860X0.00020*%
%ADD299R,0.01880X0.00020*%
%ADD300R,0.00620X0.00020*%
%ADD301R,0.01920X0.00020*%
%ADD302R,0.01940X0.00020*%
%ADD303R,0.01920X0.00020*%
%ADD304R,0.01980X0.00020*%
%ADD305R,0.01960X0.00020*%
%ADD306R,0.01980X0.00020*%
%ADD307R,0.02000X0.00020*%
%ADD308R,0.02020X0.00020*%
%ADD309R,0.02040X0.00020*%
%ADD310R,0.02060X0.00020*%
%ADD311R,0.02060X0.00020*%
%ADD312R,0.02080X0.00020*%
%ADD313R,0.02100X0.00020*%
%ADD314R,0.02120X0.00020*%
%ADD315R,0.02140X0.00020*%
%ADD316R,0.02180X0.00020*%
%ADD317R,0.02180X0.00020*%
%ADD318R,0.02220X0.00020*%
%ADD319R,0.02220X0.00020*%
%ADD320R,0.02240X0.00020*%
%ADD321R,0.02260X0.00020*%
%ADD322R,0.02280X0.00020*%
%ADD323R,0.02300X0.00020*%
%ADD324R,0.02320X0.00020*%
%ADD325R,0.02340X0.00020*%
%ADD326R,0.02440X0.00020*%
%ADD327R,0.06060X0.00020*%
%ADD328R,0.06060X0.00020*%
%ADD329R,0.02480X0.00020*%
%ADD330R,0.04980X0.00020*%
%ADD331R,0.04980X0.00020*%
%ADD332R,0.04940X0.00020*%
%ADD333R,0.06080X0.00020*%
%ADD334R,0.04920X0.00020*%
%ADD335R,0.06100X0.00020*%
%ADD336R,0.04900X0.00020*%
%ADD337R,0.04860X0.00020*%
%ADD338R,0.06100X0.00020*%
%ADD339R,0.04840X0.00020*%
%ADD340R,0.04820X0.00020*%
%ADD341R,0.04780X0.00020*%
%ADD342R,0.04760X0.00020*%
%ADD343R,0.04740X0.00020*%
%ADD344R,0.04700X0.00020*%
%ADD345R,0.04700X0.00020*%
%ADD346R,0.04660X0.00020*%
%ADD347R,0.04620X0.00020*%
%ADD348R,0.04620X0.00020*%
%ADD349R,0.04580X0.00020*%
%ADD350R,0.06080X0.00020*%
%ADD351R,0.04540X0.00020*%
%ADD352R,0.02900X0.00020*%
%ADD353R,0.01240X0.00020*%
%ADD354R,0.04540X0.00020*%
%ADD355R,0.01440X0.00020*%
%ADD356R,0.04500X0.00020*%
%ADD357R,0.04480X0.00020*%
%ADD358R,0.03480X0.00020*%
%ADD359R,0.04460X0.00020*%
%ADD360R,0.03600X0.00020*%
%ADD361R,0.04420X0.00020*%
%ADD362R,0.03700X0.00020*%
%ADD363R,0.04400X0.00020*%
%ADD364R,0.03780X0.00020*%
%ADD365R,0.04380X0.00020*%
%ADD366R,0.03860X0.00020*%
%ADD367R,0.02640X0.00020*%
%ADD368R,0.04340X0.00020*%
%ADD369R,0.03940X0.00020*%
%ADD370R,0.04320X0.00020*%
%ADD371R,0.04020X0.00020*%
%ADD372R,0.04940X0.00020*%
%ADD373R,0.04300X0.00020*%
%ADD374R,0.04080X0.00020*%
%ADD375R,0.04920X0.00020*%
%ADD376R,0.04260X0.00020*%
%ADD377R,0.04140X0.00020*%
%ADD378R,0.04200X0.00020*%
%ADD379R,0.04860X0.00020*%
%ADD380R,0.04220X0.00020*%
%ADD381R,0.04260X0.00020*%
%ADD382R,0.04820X0.00020*%
%ADD383R,0.04180X0.00020*%
%ADD384R,0.04320X0.00020*%
%ADD385R,0.04800X0.00020*%
%ADD386R,0.04180X0.00020*%
%ADD387R,0.04360X0.00020*%
%ADD388R,0.04760X0.00020*%
%ADD389R,0.04140X0.00020*%
%ADD390R,0.04420X0.00020*%
%ADD391R,0.04720X0.00020*%
%ADD392R,0.04100X0.00020*%
%ADD393R,0.04100X0.00020*%
%ADD394R,0.04520X0.00020*%
%ADD395R,0.04660X0.00020*%
%ADD396R,0.04060X0.00020*%
%ADD397R,0.04560X0.00020*%
%ADD398R,0.04620X0.00020*%
%ADD399R,0.04040X0.00020*%
%ADD400R,0.04600X0.00020*%
%ADD401R,0.04580X0.00020*%
%ADD402R,0.04020X0.00020*%
%ADD403R,0.04640X0.00020*%
%ADD404R,0.04520X0.00020*%
%ADD405R,0.03980X0.00020*%
%ADD406R,0.04680X0.00020*%
%ADD407R,0.04480X0.00020*%
%ADD408R,0.03960X0.00020*%
%ADD409R,0.04720X0.00020*%
%ADD410R,0.03940X0.00020*%
%ADD411R,0.03900X0.00020*%
%ADD412R,0.04800X0.00020*%
%ADD413R,0.03520X0.00020*%
%ADD414R,0.03880X0.00020*%
%ADD415R,0.04820X0.00020*%
%ADD416R,0.03380X0.00020*%
%ADD417R,0.03240X0.00020*%
%ADD418R,0.03820X0.00020*%
%ADD419R,0.04900X0.00020*%
%ADD420R,0.03100X0.00020*%
%ADD421R,0.04920X0.00020*%
%ADD422R,0.02920X0.00020*%
%ADD423R,0.00640X0.00020*%
%ADD424R,0.04960X0.00020*%
%ADD425R,0.02760X0.00020*%
%ADD426R,0.03740X0.00020*%
%ADD427R,0.05000X0.00020*%
%ADD428R,0.05020X0.00020*%
%ADD429R,0.03660X0.00020*%
%ADD430R,0.01820X0.00020*%
%ADD431R,0.03620X0.00020*%
%ADD432R,0.01640X0.00020*%
%ADD433R,0.03580X0.00020*%
%ADD434R,0.01600X0.00020*%
%ADD435R,0.03540X0.00020*%
%ADD436R,0.03500X0.00020*%
%ADD437R,0.03460X0.00020*%
%ADD438R,0.02020X0.00020*%
%ADD439R,0.02140X0.00020*%
%ADD440R,0.03420X0.00020*%
%ADD441R,0.02240X0.00020*%
%ADD442R,0.03380X0.00020*%
%ADD443R,0.02360X0.00020*%
%ADD444R,0.03340X0.00020*%
%ADD445R,0.02560X0.00020*%
%ADD446R,0.03300X0.00020*%
%ADD447R,0.02660X0.00020*%
%ADD448R,0.03300X0.00020*%
%ADD449R,0.02680X0.00020*%
%ADD450R,0.02780X0.00020*%
%ADD451R,0.03260X0.00020*%
%ADD452R,0.03220X0.00020*%
%ADD453R,0.02980X0.00020*%
%ADD454R,0.03180X0.00020*%
%ADD455R,0.03200X0.00020*%
%ADD456R,0.03140X0.00020*%
%ADD457R,0.03100X0.00020*%
%ADD458R,0.03080X0.00020*%
%ADD459R,0.03620X0.00020*%
%ADD460R,0.03020X0.00020*%
%ADD461R,0.02960X0.00020*%
%ADD462R,0.02740X0.00020*%
%ADD463R,0.03320X0.00020*%
%ADD464R,0.02540X0.00020*%
%ADD465R,0.02420X0.00020*%
%ADD466R,0.02320X0.00020*%
%ADD467R,0.01900X0.00020*%
%ADD468R,0.03540X0.00020*%
%ADD469R,0.01480X0.00020*%
%ADD470R,0.00040X0.00020*%
%ADD471R,0.00400X0.00020*%
%ADD472R,0.03840X0.00020*%
%ADD473R,0.03900X0.00020*%
%ADD474R,0.00560X0.00020*%
%ADD475R,0.03980X0.00020*%
%ADD476R,0.04060X0.00020*%
%ADD477R,0.04120X0.00020*%
%ADD478R,0.04280X0.00020*%
%ADD479R,0.04340X0.00020*%
%ADD480R,0.04420X0.00020*%
%ADD481R,0.04500X0.00020*%
%ADD482R,0.04560X0.00020*%
%ADD483R,0.04720X0.00020*%
%ADD484R,0.01120X0.00020*%
%ADD485R,0.01720X0.00020*%
%ADD486R,0.04940X0.00020*%
%ADD487R,0.01420X0.00020*%
%ADD488R,0.01520X0.00020*%
%ADD489R,0.02500X0.00020*%
%ADD490R,0.03020X0.00020*%
%ADD491R,0.03720X0.00020*%
%ADD492R,0.03500X0.00020*%
%ADD493R,0.03440X0.00020*%
%ADD494R,0.01680X0.00020*%
%ADD495R,0.02000X0.00020*%
%ADD496R,0.02420X0.00020*%
%ADD497R,0.02300X0.00020*%
%ADD498R,0.03540X0.00020*%
%ADD499R,0.03340X0.00020*%
%ADD500R,0.03280X0.00020*%
%ADD501R,0.02400X0.00020*%
%ADD502R,0.04320X0.00020*%
%ADD503R,0.03420X0.00020*%
%ADD504R,0.03220X0.00020*%
%ADD505R,0.04120X0.00020*%
%ADD506R,0.03200X0.00020*%
%ADD507R,0.03920X0.00020*%
%ADD508R,0.02820X0.00020*%
%ADD509R,0.02900X0.00020*%
%ADD510R,0.02740X0.00020*%
%ADD511R,0.03760X0.00020*%
%ADD512R,0.02820X0.00020*%
%ADD513R,0.02240X0.00020*%
%ADD514R,0.02640X0.00020*%
%ADD515R,0.03420X0.00020*%
%ADD516R,0.02340X0.00020*%
%ADD517R,0.02140X0.00020*%
%ADD518R,0.02920X0.00020*%
%ADD519R,0.02800X0.00020*%
%ADD520R,0.01740X0.00020*%
%ADD521R,0.00520X0.00020*%
%ADD522R,0.01840X0.00020*%
%ADD523R,0.01840X0.00020*%
%ADD524R,0.01800X0.00020*%
%ADD525R,0.00360X0.00020*%
%ADD526R,0.01520X0.00020*%
%ADD527R,0.02020X0.00020*%
%ADD528R,0.05160X0.00020*%
%ADD529R,0.05120X0.00020*%
%ADD530R,0.05100X0.00020*%
%ADD531R,0.05060X0.00020*%
%ADD532R,0.05040X0.00020*%
%ADD533R,0.04960X0.00020*%
%ADD534R,0.04940X0.00020*%
%ADD535R,0.00120X0.00020*%
%ADD536R,0.04540X0.00020*%
%ADD537R,0.04420X0.00020*%
%ADD538R,0.04120X0.00020*%
%ADD539R,0.04040X0.00020*%
%ADD540R,0.03960X0.00020*%
%ADD541R,0.03880X0.00020*%
%ADD542R,0.00020X0.00020*%
%ADD543R,0.05800X0.03300*%
%ADD544R,0.03200X0.02600*%
%ADD545R,0.02400X0.02000*%
%ADD546R,0.02600X0.03200*%
%ADD547R,0.08871X0.05131*%
%ADD548R,0.04900X0.03600*%
%ADD549R,0.03600X0.04900*%
%ADD550R,0.02572X0.02965*%
%ADD551R,0.03800X0.05800*%
%ADD552R,0.10000X0.10500*%
%ADD553C,0.01990*%
%ADD554R,0.09068X0.03556*%
%ADD555R,0.04146X0.05721*%
%ADD556R,0.01981X0.06902*%
%ADD557C,0.05131*%
%ADD558C,0.06902*%
%ADD559R,0.05524X0.11627*%
%ADD560R,0.18910X0.04737*%
%ADD561R,0.14186X0.07099*%
%ADD562R,0.04146X0.03556*%
%ADD563R,0.12611X0.04737*%
%ADD564R,0.03950X0.05524*%
%ADD565R,0.09855X0.07296*%
%ADD566R,0.03556X0.03950*%
%ADD567R,0.03950X0.09461*%
%ADD568R,0.03674X0.06706*%
%ADD569R,0.03950X0.04540*%
%ADD570R,0.03950X0.05721*%
%ADD571R,0.02965X0.02572*%
%ADD572R,0.02000X0.02400*%
%ADD573R,0.07887X0.13398*%
%ADD574R,0.03162X0.03162*%
%ADD575R,0.04737X0.03950*%
%ADD576C,0.07099*%
%ADD577C,0.10249*%
%ADD578C,0.06146*%
%ADD579C,0.13595*%
%ADD580R,0.02769X0.02375*%
%ADD581R,0.02769X0.01981*%
%ADD582C,0.07887*%
%ADD583C,0.04737*%
%ADD584R,0.07800X0.07800*%
%ADD585R,0.01981X0.06706*%
%ADD586R,0.06706X0.01981*%
%ADD587C,0.01457*%
%ADD588R,0.10236X0.10236*%
%ADD589R,0.05524X0.02965*%
%ADD590R,0.02572X0.02178*%
%ADD591R,0.02572X0.01784*%
%ADD592C,0.00039*%
%ADD593R,0.06312X0.02375*%
%ADD594C,0.05162*%
%ADD595C,0.04769*%
%ADD596C,0.08300*%
%ADD597C,0.11300*%
%ADD598R,0.06706X0.03950*%
%ADD599R,0.08280X0.06312*%
%ADD600R,0.06312X0.07887*%
%ADD601R,0.05524X0.05131*%
%ADD602C,0.08200*%
%ADD603C,0.08674*%
%ADD604R,0.04737X0.14580*%
%ADD605C,0.05524*%
%ADD606C,0.08800*%
%ADD607R,0.03150X0.01181*%
%ADD608R,0.06811X0.07402*%
%ADD609R,0.03162X0.02965*%
%ADD610R,0.05950X0.05950*%
%ADD611C,0.05950*%
%ADD612R,0.18517X0.04816*%
%ADD613C,0.25209*%
%ADD614R,0.05524X0.03556*%
%ADD615R,0.02769X0.02769*%
%ADD616C,0.24422*%
D10*
X0167828Y0323437D03*
X0167828Y0323477D03*
X0167828Y0331737D03*
X0167828Y0335277D03*
X0167828Y0335317D03*
X0183508Y0330437D03*
D11*
X0172048Y0333597D03*
X0167828Y0335257D03*
X0167828Y0335297D03*
X0163608Y0333597D03*
X0167828Y0323457D03*
X0196908Y0325497D03*
X0204508Y0326297D03*
D12*
X0172038Y0325157D03*
X0167838Y0323497D03*
X0163618Y0325157D03*
X0164998Y0330057D03*
X0163658Y0333557D03*
X0170658Y0330057D03*
D13*
X0167828Y0335177D03*
X0167828Y0335217D03*
X0167828Y0335237D03*
X0167828Y0323577D03*
X0167828Y0323537D03*
X0167828Y0323517D03*
X0204508Y0326277D03*
D14*
X0183528Y0330457D03*
X0172008Y0333557D03*
X0167828Y0335197D03*
X0167828Y0331757D03*
X0167828Y0326997D03*
X0167828Y0323557D03*
X0171988Y0325197D03*
X0163668Y0325197D03*
D15*
X0164978Y0328697D03*
X0170678Y0328697D03*
X0167838Y0323597D03*
X0167838Y0335157D03*
D16*
X0167828Y0335137D03*
X0167828Y0335117D03*
X0167828Y0335077D03*
X0167828Y0323677D03*
X0167828Y0323637D03*
X0167828Y0323617D03*
D17*
X0167828Y0323657D03*
X0171928Y0325257D03*
X0163728Y0325257D03*
X0167828Y0335097D03*
D18*
X0167828Y0334997D03*
X0171888Y0333457D03*
X0163768Y0333457D03*
X0171888Y0325297D03*
X0167828Y0323757D03*
X0167828Y0323697D03*
D19*
X0167828Y0323717D03*
X0167828Y0323737D03*
X0171908Y0325277D03*
X0167828Y0331777D03*
X0167828Y0334977D03*
X0167828Y0335017D03*
X0167828Y0335037D03*
X0163748Y0333477D03*
X0163748Y0325277D03*
X0204508Y0326237D03*
X0212388Y0326177D03*
D20*
X0204438Y0329877D03*
X0171878Y0333437D03*
X0170698Y0330037D03*
X0164958Y0330037D03*
X0163798Y0325317D03*
X0167838Y0323777D03*
D21*
X0167828Y0323797D03*
X0167828Y0323857D03*
X0167828Y0326957D03*
X0167828Y0334897D03*
X0167828Y0334957D03*
X0212388Y0326157D03*
D22*
X0196828Y0325437D03*
X0171868Y0325317D03*
X0167828Y0323837D03*
X0167828Y0323817D03*
X0163788Y0333437D03*
X0167828Y0334917D03*
X0167828Y0334937D03*
D23*
X0167838Y0334877D03*
X0163818Y0325337D03*
X0167838Y0323877D03*
D24*
X0167828Y0323897D03*
X0167828Y0323957D03*
X0167828Y0334797D03*
X0167828Y0334857D03*
D25*
X0167828Y0334837D03*
X0167828Y0334817D03*
X0171808Y0333377D03*
X0163848Y0333377D03*
X0163868Y0325377D03*
X0167828Y0323937D03*
X0167828Y0323917D03*
X0183568Y0330517D03*
X0196808Y0325417D03*
X0212388Y0326137D03*
D26*
X0212388Y0326117D03*
X0185628Y0331577D03*
X0183588Y0330537D03*
X0171768Y0333337D03*
X0170748Y0330017D03*
X0167828Y0331817D03*
X0167828Y0334717D03*
X0167828Y0334737D03*
X0164908Y0330017D03*
X0163928Y0325437D03*
X0163908Y0325417D03*
X0167828Y0324037D03*
X0167828Y0324017D03*
X0167828Y0323977D03*
X0171748Y0325417D03*
D27*
X0167828Y0323997D03*
X0167828Y0334697D03*
X0167828Y0334757D03*
D28*
X0171718Y0333297D03*
X0163938Y0333297D03*
X0167838Y0324057D03*
X0196778Y0325397D03*
D29*
X0167828Y0324137D03*
X0167828Y0324117D03*
X0167828Y0324077D03*
X0167828Y0326917D03*
X0167828Y0334617D03*
X0167828Y0334637D03*
X0167828Y0334677D03*
D30*
X0167828Y0334657D03*
X0167828Y0324097D03*
D31*
X0167838Y0324157D03*
X0171678Y0333257D03*
X0167838Y0334597D03*
X0183618Y0330557D03*
X0204438Y0329957D03*
X0204518Y0326157D03*
D32*
X0212388Y0326077D03*
X0196748Y0325377D03*
X0171648Y0325517D03*
X0167828Y0324237D03*
X0167828Y0324217D03*
X0167828Y0324177D03*
X0171648Y0333237D03*
X0167828Y0334517D03*
X0167828Y0334537D03*
X0167828Y0334577D03*
X0164008Y0333237D03*
D33*
X0163988Y0333257D03*
X0167828Y0334557D03*
X0171668Y0325497D03*
X0167828Y0324197D03*
X0163988Y0325497D03*
D34*
X0167828Y0324297D03*
X0167828Y0324257D03*
X0167828Y0326897D03*
X0167828Y0331857D03*
X0167828Y0334457D03*
X0212388Y0326057D03*
D35*
X0192968Y0331437D03*
X0183628Y0330577D03*
X0167828Y0334417D03*
X0167828Y0334437D03*
X0167828Y0334477D03*
X0167828Y0324317D03*
X0167828Y0324277D03*
D36*
X0167838Y0324337D03*
X0204518Y0326117D03*
D37*
X0196708Y0325357D03*
X0183648Y0330597D03*
X0171568Y0333157D03*
X0167828Y0334357D03*
X0167828Y0334397D03*
X0164088Y0333157D03*
X0164108Y0325597D03*
X0167828Y0324397D03*
X0167828Y0324357D03*
D38*
X0167828Y0324377D03*
X0167828Y0324417D03*
X0167828Y0326877D03*
X0167828Y0334337D03*
X0167828Y0334377D03*
D39*
X0167838Y0334317D03*
X0171518Y0333117D03*
X0171538Y0333137D03*
X0164138Y0333117D03*
X0164118Y0333137D03*
X0164118Y0325617D03*
X0167838Y0324437D03*
X0171538Y0325617D03*
X0204438Y0330017D03*
X0212398Y0326037D03*
D40*
X0167828Y0324497D03*
X0167828Y0324457D03*
X0164168Y0325657D03*
X0167828Y0334257D03*
X0167828Y0334297D03*
D41*
X0167828Y0334277D03*
X0167828Y0334237D03*
X0167828Y0331877D03*
X0171508Y0325637D03*
X0167828Y0324517D03*
X0167828Y0324477D03*
X0164148Y0325637D03*
D42*
X0164828Y0328777D03*
X0167828Y0324577D03*
X0167828Y0324537D03*
X0170828Y0328777D03*
X0167828Y0334137D03*
X0167828Y0334177D03*
D43*
X0167828Y0334157D03*
X0167828Y0334197D03*
X0167828Y0331897D03*
X0167828Y0326857D03*
X0167828Y0324597D03*
X0167828Y0324557D03*
D44*
X0167838Y0324617D03*
X0164238Y0325717D03*
X0171438Y0333037D03*
X0195858Y0324677D03*
D45*
X0192888Y0331417D03*
X0183688Y0330637D03*
X0171408Y0333017D03*
X0167828Y0334077D03*
X0167828Y0334117D03*
X0164248Y0333017D03*
X0164228Y0333037D03*
X0167828Y0326837D03*
X0167828Y0324677D03*
X0167828Y0324637D03*
X0171408Y0325737D03*
X0171428Y0325717D03*
D46*
X0185248Y0324637D03*
X0188108Y0327217D03*
X0188108Y0327237D03*
X0188108Y0327277D03*
X0188108Y0327317D03*
X0188108Y0327337D03*
X0188108Y0327377D03*
X0188108Y0327417D03*
X0188108Y0327437D03*
X0188108Y0327477D03*
X0188108Y0327517D03*
X0188108Y0327537D03*
X0188108Y0327577D03*
X0188108Y0327617D03*
X0188108Y0327637D03*
X0188108Y0327677D03*
X0188108Y0327717D03*
X0188108Y0327737D03*
X0188108Y0327777D03*
X0188108Y0327817D03*
X0188108Y0327837D03*
X0188108Y0327877D03*
X0188108Y0327917D03*
X0188108Y0327937D03*
X0188108Y0327977D03*
X0188108Y0328017D03*
X0188108Y0328037D03*
X0210148Y0324637D03*
D47*
X0202298Y0324637D03*
X0204438Y0330077D03*
X0167838Y0334037D03*
X0164258Y0325737D03*
X0167838Y0324717D03*
D48*
X0167828Y0324697D03*
X0167828Y0324657D03*
X0167828Y0334057D03*
X0167828Y0334097D03*
X0204528Y0326057D03*
X0212388Y0325997D03*
D49*
X0212148Y0325657D03*
X0211648Y0330557D03*
X0204408Y0330257D03*
X0200428Y0330457D03*
X0200288Y0325757D03*
X0202308Y0324657D03*
X0185248Y0324657D03*
X0181388Y0329397D03*
X0183828Y0330757D03*
X0181468Y0332757D03*
X0167828Y0333157D03*
X0164668Y0328857D03*
X0167828Y0325597D03*
D50*
X0170898Y0326197D03*
X0164758Y0326197D03*
X0164758Y0332557D03*
X0167838Y0333097D03*
X0170898Y0332557D03*
X0181438Y0332797D03*
X0181338Y0329357D03*
X0183558Y0327997D03*
X0183518Y0325597D03*
X0187918Y0326197D03*
X0189738Y0329057D03*
X0190918Y0330357D03*
X0200478Y0330497D03*
X0204358Y0330297D03*
X0208378Y0330557D03*
X0212058Y0325597D03*
X0210158Y0324657D03*
X0204138Y0325597D03*
X0200358Y0325697D03*
D51*
X0202308Y0324677D03*
X0189848Y0329437D03*
X0187808Y0328177D03*
X0185248Y0324677D03*
X0181008Y0329117D03*
X0181108Y0333037D03*
X0170648Y0332317D03*
D52*
X0171108Y0329837D03*
X0170588Y0326477D03*
X0167828Y0326617D03*
X0167828Y0326277D03*
X0167828Y0326237D03*
X0167828Y0326217D03*
X0165068Y0326477D03*
X0167828Y0332477D03*
X0167828Y0332517D03*
X0167828Y0332537D03*
X0183828Y0325377D03*
X0186648Y0325337D03*
X0187788Y0325917D03*
X0189868Y0329517D03*
X0191348Y0330637D03*
X0194948Y0325317D03*
X0195868Y0324737D03*
X0200868Y0330737D03*
X0211288Y0330777D03*
X0211688Y0325377D03*
X0210168Y0324677D03*
D53*
X0202308Y0324697D03*
X0185248Y0324697D03*
D54*
X0183318Y0325797D03*
X0181578Y0329597D03*
X0181698Y0332497D03*
X0181658Y0332557D03*
X0187618Y0330457D03*
X0189678Y0328797D03*
X0190678Y0330157D03*
X0194598Y0325557D03*
X0195858Y0324697D03*
X0200058Y0325997D03*
X0200198Y0330257D03*
X0204498Y0325897D03*
X0204458Y0325857D03*
X0208058Y0325857D03*
X0212378Y0325857D03*
X0211858Y0330357D03*
X0208138Y0330357D03*
X0171058Y0332697D03*
X0164598Y0332697D03*
X0171058Y0326057D03*
D55*
X0170348Y0326697D03*
X0171188Y0329797D03*
X0165308Y0326697D03*
X0184028Y0325297D03*
X0186968Y0330897D03*
X0201028Y0325297D03*
X0210168Y0324697D03*
D56*
X0202308Y0324717D03*
X0185248Y0324717D03*
X0170148Y0326877D03*
X0165508Y0326877D03*
D57*
X0164618Y0328877D03*
X0164838Y0332477D03*
X0167838Y0332917D03*
X0170818Y0332477D03*
X0171038Y0328877D03*
X0170818Y0326277D03*
X0167838Y0325837D03*
X0185658Y0328917D03*
X0187318Y0330717D03*
X0189778Y0329237D03*
X0189778Y0329217D03*
X0191078Y0330477D03*
X0192638Y0331317D03*
X0194818Y0325377D03*
X0195858Y0324717D03*
X0186838Y0325417D03*
X0204138Y0330477D03*
X0208458Y0325517D03*
X0211938Y0325517D03*
X0211478Y0330677D03*
D58*
X0210178Y0324717D03*
D59*
X0212388Y0325977D03*
X0204528Y0326037D03*
X0171368Y0325777D03*
X0167828Y0324777D03*
X0167828Y0324737D03*
X0167828Y0331917D03*
X0167828Y0333977D03*
X0167828Y0334017D03*
X0171368Y0332977D03*
X0164288Y0332977D03*
D60*
X0165678Y0331717D03*
X0169978Y0331717D03*
X0169978Y0327037D03*
X0165678Y0327037D03*
X0185258Y0324737D03*
X0195858Y0324817D03*
D61*
X0202308Y0324737D03*
X0210028Y0331337D03*
X0171308Y0329737D03*
X0165728Y0327077D03*
D62*
X0164358Y0329737D03*
X0165718Y0331677D03*
X0169938Y0331677D03*
X0169938Y0327077D03*
X0201278Y0325237D03*
X0210178Y0324737D03*
D63*
X0170868Y0329957D03*
X0167828Y0333957D03*
X0167828Y0333997D03*
X0164788Y0329957D03*
X0167828Y0324797D03*
X0167828Y0324757D03*
D64*
X0169808Y0327197D03*
X0165848Y0327197D03*
X0165848Y0331557D03*
X0169808Y0331557D03*
X0185248Y0324757D03*
X0192228Y0330997D03*
X0202308Y0324757D03*
D65*
X0203598Y0325297D03*
X0208878Y0325297D03*
X0202318Y0331397D03*
X0201018Y0330797D03*
X0195038Y0325297D03*
X0195858Y0324757D03*
X0186538Y0325297D03*
X0184018Y0328257D03*
X0170398Y0332097D03*
X0165258Y0332097D03*
D66*
X0210168Y0324757D03*
D67*
X0212388Y0325937D03*
X0212648Y0328437D03*
X0212648Y0328477D03*
X0212628Y0328617D03*
X0212628Y0328637D03*
X0212608Y0328737D03*
X0212608Y0328777D03*
X0212588Y0328837D03*
X0212588Y0328877D03*
X0212568Y0328937D03*
X0212568Y0328977D03*
X0212548Y0329017D03*
X0212548Y0329037D03*
X0212548Y0329077D03*
X0212528Y0329117D03*
X0212528Y0329137D03*
X0212508Y0329177D03*
X0212468Y0329317D03*
X0207508Y0329377D03*
X0207488Y0329337D03*
X0207488Y0329317D03*
X0207468Y0329277D03*
X0207448Y0329237D03*
X0207448Y0329217D03*
X0207428Y0329177D03*
X0207428Y0329137D03*
X0207408Y0329077D03*
X0207388Y0329037D03*
X0207388Y0329017D03*
X0207368Y0328937D03*
X0207328Y0327337D03*
X0207348Y0327237D03*
X0207348Y0327217D03*
X0207368Y0327177D03*
X0207368Y0327137D03*
X0207388Y0327077D03*
X0207408Y0327037D03*
X0207408Y0327017D03*
X0207428Y0326937D03*
X0207448Y0326877D03*
X0207468Y0326837D03*
X0207488Y0326777D03*
X0204428Y0330117D03*
X0199468Y0329037D03*
X0199448Y0328977D03*
X0199428Y0328917D03*
X0199408Y0328837D03*
X0199408Y0328817D03*
X0199388Y0328777D03*
X0199388Y0328737D03*
X0199388Y0328717D03*
X0199368Y0328677D03*
X0199368Y0328637D03*
X0199368Y0328617D03*
X0199348Y0328577D03*
X0199348Y0328537D03*
X0199348Y0328517D03*
X0199348Y0328477D03*
X0199328Y0328417D03*
X0199328Y0328377D03*
X0199328Y0328337D03*
X0199328Y0328317D03*
X0199328Y0328277D03*
X0199308Y0328077D03*
X0199308Y0328037D03*
X0199308Y0328017D03*
X0199308Y0327977D03*
X0199328Y0327837D03*
X0199328Y0327817D03*
X0199328Y0327777D03*
X0199328Y0327737D03*
X0199328Y0327717D03*
X0199328Y0327677D03*
X0199348Y0327617D03*
X0199348Y0327577D03*
X0199348Y0327537D03*
X0199368Y0327477D03*
X0199368Y0327437D03*
X0194328Y0326177D03*
X0194348Y0326077D03*
X0194368Y0326017D03*
X0194388Y0325937D03*
X0189588Y0328077D03*
X0189588Y0328117D03*
X0189588Y0328137D03*
X0190268Y0329677D03*
X0188008Y0329717D03*
X0187988Y0329777D03*
X0187968Y0329817D03*
X0187968Y0329837D03*
X0187948Y0329877D03*
X0188068Y0326817D03*
X0188068Y0326777D03*
X0187408Y0325837D03*
X0187388Y0325817D03*
X0183008Y0326577D03*
X0183008Y0326617D03*
X0183008Y0326637D03*
X0183008Y0326677D03*
X0183008Y0326717D03*
X0183008Y0326737D03*
X0183008Y0326777D03*
X0183008Y0326817D03*
X0183008Y0326837D03*
X0183008Y0326877D03*
X0183008Y0326917D03*
X0183008Y0326937D03*
X0183008Y0326977D03*
X0183008Y0327017D03*
X0183028Y0327077D03*
X0183028Y0327117D03*
X0182048Y0330537D03*
X0182068Y0330637D03*
X0182068Y0330677D03*
X0182088Y0330737D03*
X0182088Y0330777D03*
X0182088Y0330817D03*
X0182088Y0330837D03*
X0182108Y0330917D03*
X0182108Y0330937D03*
X0182108Y0330977D03*
X0182108Y0331017D03*
X0182108Y0331037D03*
X0182108Y0331077D03*
X0182108Y0331117D03*
X0182108Y0331137D03*
X0182108Y0331177D03*
X0182108Y0331217D03*
X0182108Y0331237D03*
X0182108Y0331277D03*
X0182108Y0331317D03*
X0182088Y0331417D03*
X0182088Y0331437D03*
X0182088Y0331477D03*
X0183728Y0330677D03*
X0176588Y0330677D03*
X0176588Y0330637D03*
X0176588Y0330617D03*
X0176588Y0330577D03*
X0176588Y0330537D03*
X0176588Y0330517D03*
X0176588Y0330477D03*
X0176588Y0330437D03*
X0176588Y0330417D03*
X0176588Y0330377D03*
X0176588Y0330337D03*
X0176588Y0330317D03*
X0176588Y0330277D03*
X0176588Y0330237D03*
X0176588Y0330217D03*
X0176588Y0330177D03*
X0176588Y0330137D03*
X0176588Y0330117D03*
X0176588Y0330077D03*
X0176588Y0330037D03*
X0176588Y0330017D03*
X0176588Y0329977D03*
X0176588Y0329937D03*
X0176588Y0329917D03*
X0176588Y0329877D03*
X0176588Y0329837D03*
X0176588Y0329817D03*
X0176588Y0329777D03*
X0176588Y0329737D03*
X0176588Y0329717D03*
X0176588Y0329677D03*
X0176588Y0329637D03*
X0176588Y0329617D03*
X0176588Y0329577D03*
X0176588Y0329537D03*
X0176588Y0329517D03*
X0176588Y0329477D03*
X0176588Y0329437D03*
X0176588Y0329417D03*
X0176588Y0329377D03*
X0176588Y0329337D03*
X0176588Y0329317D03*
X0176588Y0329277D03*
X0176588Y0329237D03*
X0176588Y0329217D03*
X0176588Y0329177D03*
X0176588Y0329137D03*
X0176588Y0329117D03*
X0176588Y0329077D03*
X0176588Y0329037D03*
X0176588Y0329017D03*
X0176588Y0328977D03*
X0176588Y0328937D03*
X0176588Y0328917D03*
X0176588Y0328877D03*
X0176588Y0328177D03*
X0176588Y0328137D03*
X0176588Y0328117D03*
X0176588Y0328077D03*
X0176588Y0328037D03*
X0176588Y0328017D03*
X0176588Y0327977D03*
X0176588Y0327937D03*
X0176588Y0327917D03*
X0176588Y0327877D03*
X0176588Y0327837D03*
X0176588Y0327817D03*
X0176588Y0327777D03*
X0176588Y0327737D03*
X0176588Y0327717D03*
X0176588Y0327677D03*
X0176588Y0327637D03*
X0176588Y0327617D03*
X0176588Y0327577D03*
X0176588Y0327537D03*
X0176588Y0327517D03*
X0176588Y0327477D03*
X0176588Y0327437D03*
X0176588Y0327417D03*
X0176588Y0327377D03*
X0176588Y0327337D03*
X0176588Y0327317D03*
X0176588Y0327277D03*
X0176588Y0327237D03*
X0176588Y0327217D03*
X0176588Y0327177D03*
X0176588Y0327137D03*
X0176588Y0327117D03*
X0176588Y0327077D03*
X0176588Y0327037D03*
X0176588Y0327017D03*
X0176588Y0326977D03*
X0176588Y0326937D03*
X0176588Y0326917D03*
X0176588Y0326877D03*
X0176588Y0326837D03*
X0176588Y0326817D03*
X0176588Y0326777D03*
X0176588Y0326737D03*
X0176588Y0326717D03*
X0176588Y0326677D03*
X0176588Y0326637D03*
X0176588Y0326617D03*
X0176588Y0326577D03*
X0176588Y0326537D03*
X0176588Y0326517D03*
X0176588Y0326477D03*
X0176588Y0326437D03*
X0176588Y0326417D03*
X0176588Y0326377D03*
X0176588Y0326337D03*
X0176588Y0326317D03*
X0176588Y0326277D03*
X0176588Y0326237D03*
X0176588Y0326217D03*
X0176588Y0326177D03*
X0176588Y0326137D03*
X0176588Y0326117D03*
X0176588Y0326077D03*
X0176588Y0326037D03*
X0176588Y0326017D03*
X0176588Y0325977D03*
X0176588Y0325937D03*
X0176588Y0325917D03*
X0176588Y0325877D03*
X0176588Y0325837D03*
X0176588Y0325817D03*
X0176588Y0325777D03*
X0176588Y0325737D03*
X0176588Y0325717D03*
X0176588Y0325677D03*
X0176588Y0325637D03*
X0176588Y0325617D03*
X0176588Y0325577D03*
X0176588Y0325537D03*
X0176588Y0325517D03*
X0176588Y0325477D03*
X0176588Y0325437D03*
X0176588Y0325417D03*
X0176588Y0325377D03*
X0176588Y0325337D03*
X0176588Y0325317D03*
X0176588Y0325277D03*
X0176588Y0325237D03*
X0176588Y0325217D03*
X0176588Y0325177D03*
X0176588Y0325137D03*
X0176588Y0325117D03*
X0176588Y0325077D03*
X0176588Y0325037D03*
X0176588Y0325017D03*
X0176588Y0324977D03*
X0176588Y0324937D03*
X0176588Y0324917D03*
X0176588Y0324877D03*
X0176588Y0324837D03*
X0176588Y0324817D03*
X0176588Y0324777D03*
X0171248Y0325877D03*
X0167828Y0324977D03*
X0167828Y0324937D03*
X0167828Y0324917D03*
X0164408Y0325877D03*
X0164408Y0332877D03*
X0167828Y0333777D03*
X0167828Y0333817D03*
X0167828Y0333837D03*
X0176588Y0333277D03*
X0176588Y0333237D03*
X0176588Y0333217D03*
X0176588Y0333177D03*
X0176588Y0333137D03*
X0176588Y0333117D03*
X0176588Y0333077D03*
X0176588Y0333037D03*
X0176588Y0333017D03*
X0176588Y0332977D03*
X0176588Y0332937D03*
X0176588Y0332917D03*
X0176588Y0332877D03*
X0176588Y0332837D03*
X0176588Y0332817D03*
X0176588Y0332777D03*
X0176588Y0332737D03*
X0176588Y0332717D03*
X0176588Y0332677D03*
X0176588Y0332637D03*
X0176588Y0332617D03*
X0176588Y0332577D03*
X0176588Y0332537D03*
X0176588Y0332517D03*
X0176588Y0332477D03*
X0176588Y0332437D03*
X0176588Y0332417D03*
X0176588Y0332377D03*
X0176588Y0332337D03*
X0176588Y0332317D03*
X0176588Y0332277D03*
X0176588Y0332237D03*
X0176588Y0332217D03*
X0176588Y0332177D03*
X0176588Y0332137D03*
X0176588Y0332117D03*
X0176588Y0332077D03*
X0176588Y0332037D03*
X0176588Y0332017D03*
X0176588Y0331977D03*
X0176588Y0331937D03*
X0176588Y0331917D03*
X0176588Y0331877D03*
X0176588Y0331837D03*
X0176588Y0331817D03*
X0176588Y0331777D03*
X0176588Y0331737D03*
X0176588Y0331717D03*
X0176588Y0331677D03*
X0176588Y0331637D03*
X0176588Y0331617D03*
X0176588Y0331577D03*
X0176588Y0331537D03*
X0176588Y0331517D03*
X0176588Y0331477D03*
X0176588Y0331437D03*
X0176588Y0331417D03*
X0176588Y0331377D03*
X0176588Y0331337D03*
X0176588Y0331317D03*
X0176588Y0331277D03*
X0176588Y0331237D03*
X0176588Y0331217D03*
X0176588Y0331177D03*
X0176588Y0331137D03*
X0176588Y0331117D03*
X0176588Y0331077D03*
X0176588Y0331037D03*
X0176588Y0331017D03*
X0176588Y0330977D03*
X0176588Y0330937D03*
X0176588Y0330917D03*
X0176588Y0330877D03*
X0176588Y0330837D03*
X0176588Y0330817D03*
X0176588Y0330777D03*
X0176588Y0330737D03*
X0176588Y0330717D03*
D68*
X0185258Y0324777D03*
X0192158Y0330917D03*
D69*
X0189568Y0330917D03*
X0189568Y0330937D03*
X0189568Y0330977D03*
X0189568Y0331017D03*
X0189568Y0331037D03*
X0189568Y0331077D03*
X0189568Y0331117D03*
X0189568Y0331137D03*
X0189568Y0331177D03*
X0189568Y0331217D03*
X0189568Y0331237D03*
X0189568Y0331277D03*
X0189568Y0331317D03*
X0189568Y0331337D03*
X0189568Y0331377D03*
X0189568Y0331417D03*
X0189568Y0331437D03*
X0189568Y0330877D03*
X0189568Y0330837D03*
X0189568Y0330817D03*
X0189568Y0330777D03*
X0189568Y0330737D03*
X0189568Y0330717D03*
X0189568Y0330677D03*
X0189568Y0330637D03*
X0189568Y0330617D03*
X0189568Y0330577D03*
X0189568Y0330537D03*
X0189568Y0330517D03*
X0189568Y0330477D03*
X0189568Y0330437D03*
X0189568Y0330417D03*
X0189568Y0330377D03*
X0189568Y0330337D03*
X0189568Y0330317D03*
X0189568Y0330277D03*
X0189568Y0330237D03*
X0189568Y0330217D03*
X0189568Y0330177D03*
X0189568Y0330137D03*
X0189568Y0330117D03*
X0189568Y0330077D03*
X0189568Y0330037D03*
X0189568Y0330017D03*
X0189568Y0329977D03*
X0189568Y0329937D03*
X0189568Y0329917D03*
X0189568Y0329877D03*
X0189568Y0329837D03*
X0189568Y0329817D03*
X0189568Y0329777D03*
X0189568Y0329737D03*
X0189568Y0329717D03*
X0189568Y0329677D03*
X0188088Y0329337D03*
X0188088Y0329317D03*
X0188088Y0329277D03*
X0188088Y0329237D03*
X0188088Y0329217D03*
X0188088Y0329177D03*
X0188068Y0329377D03*
X0188068Y0329417D03*
X0188068Y0329437D03*
X0188048Y0329517D03*
X0188048Y0329537D03*
X0189568Y0327837D03*
X0189568Y0327817D03*
X0189568Y0327777D03*
X0189568Y0327737D03*
X0189568Y0327717D03*
X0189568Y0327677D03*
X0189568Y0327637D03*
X0189568Y0327617D03*
X0189568Y0327577D03*
X0189568Y0327537D03*
X0189568Y0327517D03*
X0189568Y0327477D03*
X0189568Y0327437D03*
X0189568Y0327417D03*
X0189568Y0327377D03*
X0189568Y0327337D03*
X0189568Y0327317D03*
X0189568Y0327277D03*
X0189568Y0327237D03*
X0189568Y0327217D03*
X0189568Y0327177D03*
X0189568Y0327137D03*
X0189568Y0327117D03*
X0189568Y0327077D03*
X0189568Y0327037D03*
X0189568Y0327017D03*
X0189568Y0326977D03*
X0189568Y0326937D03*
X0189568Y0326917D03*
X0189568Y0326877D03*
X0189568Y0326837D03*
X0189568Y0326817D03*
X0189568Y0326777D03*
X0189568Y0326737D03*
X0189568Y0326717D03*
X0189568Y0326677D03*
X0189568Y0326637D03*
X0189568Y0326617D03*
X0189568Y0326577D03*
X0189568Y0326537D03*
X0189568Y0326517D03*
X0189568Y0326477D03*
X0189568Y0326437D03*
X0189568Y0326417D03*
X0189568Y0326377D03*
X0189568Y0326337D03*
X0189568Y0326317D03*
X0189568Y0326277D03*
X0189568Y0326237D03*
X0189568Y0326217D03*
X0189568Y0326177D03*
X0189568Y0326137D03*
X0189568Y0326117D03*
X0189568Y0326077D03*
X0189568Y0326037D03*
X0189568Y0326017D03*
X0189568Y0325977D03*
X0189568Y0325937D03*
X0189568Y0325917D03*
X0189568Y0325877D03*
X0189568Y0325837D03*
X0189568Y0325817D03*
X0189568Y0325777D03*
X0189568Y0325737D03*
X0189568Y0325717D03*
X0189568Y0325677D03*
X0189568Y0325637D03*
X0189568Y0325617D03*
X0189568Y0325577D03*
X0189568Y0325537D03*
X0189568Y0325517D03*
X0189568Y0325477D03*
X0189568Y0325437D03*
X0189568Y0325417D03*
X0189568Y0325377D03*
X0189568Y0325337D03*
X0189568Y0325317D03*
X0189568Y0325277D03*
X0189568Y0325237D03*
X0189568Y0325217D03*
X0189568Y0325177D03*
X0189568Y0325137D03*
X0189568Y0325117D03*
X0189568Y0325077D03*
X0189568Y0325037D03*
X0189568Y0325017D03*
X0189568Y0324977D03*
X0189568Y0324937D03*
X0189568Y0324917D03*
X0189568Y0324877D03*
X0189568Y0324837D03*
X0189568Y0324817D03*
X0189568Y0324777D03*
X0188088Y0326917D03*
X0188088Y0326937D03*
X0188088Y0326977D03*
X0194308Y0326417D03*
X0194308Y0326377D03*
X0194308Y0326337D03*
X0194308Y0326317D03*
X0197988Y0326317D03*
X0197988Y0326337D03*
X0197988Y0326377D03*
X0197988Y0326417D03*
X0197988Y0326437D03*
X0197988Y0326477D03*
X0197988Y0326517D03*
X0197988Y0326537D03*
X0197988Y0326577D03*
X0197988Y0326617D03*
X0197988Y0326637D03*
X0197988Y0326677D03*
X0197988Y0326717D03*
X0197988Y0326737D03*
X0197988Y0326777D03*
X0197988Y0326817D03*
X0197988Y0326837D03*
X0197988Y0326877D03*
X0197988Y0326917D03*
X0197988Y0326937D03*
X0197988Y0326977D03*
X0197988Y0327017D03*
X0197988Y0327037D03*
X0197988Y0327077D03*
X0197988Y0327117D03*
X0197988Y0327137D03*
X0197988Y0327177D03*
X0197988Y0327217D03*
X0197988Y0327237D03*
X0197988Y0327277D03*
X0197988Y0327317D03*
X0197988Y0327337D03*
X0197988Y0327377D03*
X0197988Y0327417D03*
X0197988Y0327437D03*
X0197988Y0327477D03*
X0197988Y0327517D03*
X0197988Y0327537D03*
X0197988Y0327577D03*
X0197988Y0327617D03*
X0197988Y0327637D03*
X0197988Y0327677D03*
X0197988Y0327717D03*
X0197988Y0327737D03*
X0197988Y0327777D03*
X0197988Y0327817D03*
X0197988Y0327837D03*
X0197988Y0327877D03*
X0197988Y0327917D03*
X0197988Y0327937D03*
X0197988Y0327977D03*
X0197988Y0328017D03*
X0197988Y0328037D03*
X0197988Y0328077D03*
X0197988Y0328117D03*
X0197988Y0328137D03*
X0197988Y0328177D03*
X0197988Y0328217D03*
X0197988Y0328237D03*
X0197988Y0328277D03*
X0197988Y0328317D03*
X0197988Y0328337D03*
X0197988Y0328377D03*
X0197988Y0328417D03*
X0197988Y0328437D03*
X0197988Y0328477D03*
X0197988Y0328517D03*
X0197988Y0328537D03*
X0197988Y0328577D03*
X0197988Y0328617D03*
X0197988Y0328637D03*
X0197988Y0328677D03*
X0197988Y0328717D03*
X0197988Y0328737D03*
X0197988Y0328777D03*
X0197988Y0328817D03*
X0197988Y0328837D03*
X0197988Y0328877D03*
X0197988Y0328917D03*
X0197988Y0328937D03*
X0197988Y0328977D03*
X0197988Y0329017D03*
X0197988Y0329037D03*
X0197988Y0329077D03*
X0197988Y0329117D03*
X0197988Y0329137D03*
X0197988Y0329177D03*
X0197988Y0329217D03*
X0197988Y0329237D03*
X0197988Y0329277D03*
X0197988Y0329317D03*
X0197988Y0329337D03*
X0197988Y0329377D03*
X0197988Y0329417D03*
X0197988Y0329437D03*
X0197988Y0329477D03*
X0197988Y0329517D03*
X0197988Y0329537D03*
X0197988Y0329577D03*
X0197988Y0329617D03*
X0197988Y0329637D03*
X0197988Y0329677D03*
X0197988Y0329717D03*
X0197988Y0329737D03*
X0197988Y0329777D03*
X0197988Y0329817D03*
X0197988Y0329837D03*
X0197988Y0329877D03*
X0197988Y0329917D03*
X0197988Y0329937D03*
X0197988Y0329977D03*
X0197988Y0330017D03*
X0197988Y0330037D03*
X0197988Y0330077D03*
X0197988Y0330117D03*
X0197988Y0330137D03*
X0197988Y0330177D03*
X0197988Y0330217D03*
X0197988Y0330237D03*
X0197988Y0330277D03*
X0197988Y0330317D03*
X0197988Y0330337D03*
X0197988Y0330377D03*
X0197988Y0330417D03*
X0197988Y0330437D03*
X0197988Y0330477D03*
X0197988Y0330517D03*
X0197988Y0330537D03*
X0197988Y0330577D03*
X0197988Y0330617D03*
X0197988Y0330637D03*
X0197988Y0330677D03*
X0197988Y0330717D03*
X0197988Y0330737D03*
X0197988Y0330777D03*
X0197988Y0330817D03*
X0197988Y0330837D03*
X0197988Y0330877D03*
X0197988Y0330917D03*
X0197988Y0330937D03*
X0197988Y0330977D03*
X0197988Y0331017D03*
X0197988Y0331037D03*
X0197988Y0331077D03*
X0197988Y0331117D03*
X0197988Y0331137D03*
X0197988Y0331177D03*
X0197988Y0331217D03*
X0197988Y0331237D03*
X0197988Y0331277D03*
X0197988Y0331317D03*
X0197988Y0331337D03*
X0197988Y0331377D03*
X0197988Y0331417D03*
X0197988Y0331437D03*
X0197988Y0332537D03*
X0197988Y0332577D03*
X0197988Y0332617D03*
X0197988Y0332637D03*
X0197988Y0332677D03*
X0197988Y0332717D03*
X0197988Y0332737D03*
X0197988Y0332777D03*
X0197988Y0332817D03*
X0197988Y0332837D03*
X0197988Y0332877D03*
X0197988Y0332917D03*
X0197988Y0332937D03*
X0197988Y0332977D03*
X0197988Y0333017D03*
X0197988Y0333037D03*
X0197988Y0333077D03*
X0197988Y0333117D03*
X0197988Y0333137D03*
X0197988Y0333177D03*
X0197988Y0333217D03*
X0197988Y0333237D03*
X0197988Y0333277D03*
X0197988Y0333317D03*
X0197988Y0333337D03*
X0197988Y0333377D03*
X0197988Y0333417D03*
X0197988Y0333437D03*
X0197988Y0333477D03*
X0197988Y0333517D03*
X0197988Y0333537D03*
X0197988Y0333577D03*
X0197988Y0326277D03*
X0197988Y0326237D03*
X0197988Y0326217D03*
X0197988Y0326177D03*
X0197988Y0326137D03*
X0197988Y0326117D03*
X0197988Y0326077D03*
X0197988Y0326037D03*
X0197988Y0326017D03*
X0197988Y0325977D03*
X0197988Y0325937D03*
X0197988Y0325917D03*
X0197988Y0325877D03*
X0197988Y0325837D03*
X0197988Y0325817D03*
X0197988Y0325777D03*
X0197988Y0325737D03*
X0197988Y0325717D03*
X0197988Y0325677D03*
X0197988Y0325637D03*
X0197988Y0325617D03*
X0197988Y0325577D03*
X0197988Y0325537D03*
X0197988Y0325517D03*
X0197988Y0325477D03*
X0197988Y0325437D03*
X0197988Y0325417D03*
X0197988Y0325377D03*
X0197988Y0325337D03*
X0197988Y0325317D03*
X0197988Y0325277D03*
X0197988Y0325237D03*
X0197988Y0325217D03*
X0197988Y0325177D03*
X0197988Y0325137D03*
X0197988Y0325117D03*
X0197988Y0325077D03*
X0197988Y0325037D03*
X0197988Y0325017D03*
X0197988Y0324977D03*
X0197988Y0324937D03*
X0197988Y0324917D03*
X0197988Y0324877D03*
X0197988Y0324837D03*
X0197988Y0324817D03*
X0197988Y0324777D03*
X0204528Y0326017D03*
X0205948Y0326017D03*
X0205948Y0326037D03*
X0205948Y0326077D03*
X0205948Y0326117D03*
X0205948Y0326137D03*
X0205948Y0326177D03*
X0205948Y0326217D03*
X0205948Y0326237D03*
X0205948Y0326277D03*
X0205948Y0326317D03*
X0205948Y0326337D03*
X0205948Y0326377D03*
X0205948Y0326417D03*
X0205948Y0326437D03*
X0205948Y0326477D03*
X0205948Y0326517D03*
X0205948Y0326537D03*
X0205948Y0326577D03*
X0205948Y0326617D03*
X0205948Y0326637D03*
X0205948Y0326677D03*
X0205948Y0326717D03*
X0205948Y0326737D03*
X0205948Y0326777D03*
X0205948Y0326817D03*
X0205948Y0326837D03*
X0205948Y0326877D03*
X0205948Y0326917D03*
X0205948Y0326937D03*
X0205948Y0326977D03*
X0205948Y0327017D03*
X0205948Y0327037D03*
X0205948Y0327077D03*
X0205948Y0327117D03*
X0205948Y0327137D03*
X0205948Y0327177D03*
X0205948Y0327217D03*
X0205948Y0327237D03*
X0205948Y0327277D03*
X0205948Y0327317D03*
X0205948Y0327337D03*
X0205948Y0327377D03*
X0205948Y0327417D03*
X0205948Y0327437D03*
X0205948Y0327477D03*
X0205948Y0327517D03*
X0205948Y0327537D03*
X0205948Y0327577D03*
X0205948Y0327617D03*
X0205948Y0327637D03*
X0205948Y0327677D03*
X0205948Y0327717D03*
X0205948Y0327737D03*
X0205948Y0327777D03*
X0205948Y0327817D03*
X0205948Y0327837D03*
X0205948Y0327877D03*
X0205948Y0327917D03*
X0205948Y0327937D03*
X0205948Y0327977D03*
X0205948Y0328017D03*
X0205948Y0328037D03*
X0205948Y0328077D03*
X0205948Y0328117D03*
X0205948Y0328137D03*
X0205948Y0328177D03*
X0205948Y0328217D03*
X0205948Y0328237D03*
X0205948Y0328277D03*
X0205948Y0328317D03*
X0205948Y0328337D03*
X0205948Y0328377D03*
X0205948Y0328417D03*
X0205948Y0328437D03*
X0205948Y0328477D03*
X0205948Y0328517D03*
X0205948Y0328537D03*
X0205948Y0328577D03*
X0205948Y0328617D03*
X0205948Y0328637D03*
X0205948Y0328677D03*
X0205948Y0328717D03*
X0205948Y0328737D03*
X0205948Y0328777D03*
X0205948Y0328817D03*
X0205948Y0328837D03*
X0205948Y0328877D03*
X0205948Y0328917D03*
X0205948Y0328937D03*
X0205948Y0328977D03*
X0205948Y0329017D03*
X0205948Y0329037D03*
X0205948Y0329077D03*
X0205948Y0329117D03*
X0205948Y0329137D03*
X0205948Y0329177D03*
X0205948Y0329217D03*
X0205948Y0329237D03*
X0205948Y0329277D03*
X0205948Y0329317D03*
X0205948Y0329337D03*
X0205948Y0329377D03*
X0205948Y0329417D03*
X0205948Y0329437D03*
X0205948Y0329477D03*
X0205948Y0329517D03*
X0205948Y0329537D03*
X0205948Y0329577D03*
X0205948Y0329617D03*
X0205948Y0329637D03*
X0205948Y0329677D03*
X0205948Y0329717D03*
X0205948Y0329737D03*
X0205948Y0329777D03*
X0205948Y0329817D03*
X0205948Y0329837D03*
X0205948Y0329877D03*
X0205948Y0329917D03*
X0205948Y0329937D03*
X0205948Y0329977D03*
X0205948Y0330017D03*
X0205948Y0330037D03*
X0205948Y0330077D03*
X0205948Y0330117D03*
X0205948Y0330137D03*
X0205948Y0330177D03*
X0205948Y0330217D03*
X0205948Y0330237D03*
X0205948Y0330277D03*
X0205948Y0330317D03*
X0205948Y0330337D03*
X0205948Y0330377D03*
X0205948Y0330417D03*
X0205948Y0330437D03*
X0205948Y0330477D03*
X0205948Y0330517D03*
X0205948Y0330537D03*
X0205948Y0330577D03*
X0205948Y0330617D03*
X0205948Y0330637D03*
X0205948Y0330677D03*
X0205948Y0330717D03*
X0205948Y0330737D03*
X0205948Y0330777D03*
X0205948Y0330817D03*
X0205948Y0330837D03*
X0205948Y0330877D03*
X0205948Y0330917D03*
X0205948Y0330937D03*
X0205948Y0330977D03*
X0205948Y0331017D03*
X0205948Y0331037D03*
X0205948Y0331077D03*
X0205948Y0331117D03*
X0205948Y0331137D03*
X0205948Y0331177D03*
X0205948Y0331217D03*
X0205948Y0331237D03*
X0205948Y0331277D03*
X0205948Y0331317D03*
X0205948Y0331337D03*
X0205948Y0331377D03*
X0205948Y0331417D03*
X0205948Y0331437D03*
X0205948Y0331477D03*
X0205948Y0331517D03*
X0205948Y0331537D03*
X0205948Y0331577D03*
X0205948Y0331617D03*
X0205948Y0331637D03*
X0205948Y0331677D03*
X0205948Y0331717D03*
X0205948Y0331737D03*
X0205948Y0331777D03*
X0205948Y0331817D03*
X0205948Y0331837D03*
X0205948Y0331877D03*
X0205948Y0331917D03*
X0205948Y0331937D03*
X0205948Y0331977D03*
X0205948Y0332017D03*
X0205948Y0332037D03*
X0205948Y0332077D03*
X0205948Y0332117D03*
X0205948Y0332137D03*
X0205948Y0332177D03*
X0205948Y0332217D03*
X0205948Y0332237D03*
X0205948Y0332277D03*
X0205948Y0332317D03*
X0205948Y0332337D03*
X0205948Y0332377D03*
X0205948Y0332417D03*
X0205948Y0332437D03*
X0205948Y0332477D03*
X0205948Y0332517D03*
X0205948Y0332537D03*
X0205948Y0332577D03*
X0205948Y0332617D03*
X0205948Y0332637D03*
X0205948Y0332677D03*
X0205948Y0332717D03*
X0205948Y0332737D03*
X0205948Y0332777D03*
X0205948Y0332817D03*
X0205948Y0332837D03*
X0205948Y0332877D03*
X0205948Y0332917D03*
X0205948Y0332937D03*
X0205948Y0332977D03*
X0205948Y0333017D03*
X0205948Y0333037D03*
X0205948Y0333077D03*
X0205948Y0333117D03*
X0205948Y0333137D03*
X0205948Y0333177D03*
X0205948Y0333217D03*
X0205948Y0333237D03*
X0205948Y0333277D03*
X0205948Y0333317D03*
X0205948Y0333337D03*
X0205948Y0333377D03*
X0205948Y0333417D03*
X0205948Y0333437D03*
X0205948Y0333477D03*
X0205948Y0333517D03*
X0205948Y0333537D03*
X0205948Y0333577D03*
X0205948Y0333617D03*
X0205948Y0333637D03*
X0205948Y0333677D03*
X0205948Y0333717D03*
X0205948Y0333737D03*
X0205948Y0333777D03*
X0205948Y0333817D03*
X0205948Y0333837D03*
X0205948Y0333877D03*
X0205948Y0333917D03*
X0205948Y0333937D03*
X0205948Y0333977D03*
X0205948Y0334017D03*
X0205948Y0334037D03*
X0205948Y0334077D03*
X0205948Y0334117D03*
X0205948Y0334137D03*
X0205948Y0334177D03*
X0205948Y0334217D03*
X0205948Y0334237D03*
X0205948Y0334277D03*
X0205948Y0334317D03*
X0205948Y0334337D03*
X0207288Y0328517D03*
X0205948Y0325977D03*
X0205948Y0325937D03*
X0205948Y0325917D03*
X0205948Y0325877D03*
X0205948Y0325837D03*
X0205948Y0325817D03*
X0205948Y0325777D03*
X0205948Y0325737D03*
X0205948Y0325717D03*
X0205948Y0325677D03*
X0205948Y0325637D03*
X0205948Y0325617D03*
X0205948Y0325577D03*
X0205948Y0325537D03*
X0205948Y0325517D03*
X0205948Y0325477D03*
X0205948Y0325437D03*
X0205948Y0325417D03*
X0205948Y0325377D03*
X0205948Y0325337D03*
X0205948Y0325317D03*
X0205948Y0325277D03*
X0205948Y0325237D03*
X0205948Y0325217D03*
X0205948Y0325177D03*
X0205948Y0325137D03*
X0205948Y0325117D03*
X0205948Y0325077D03*
X0205948Y0325037D03*
X0205948Y0325017D03*
X0205948Y0324977D03*
X0205948Y0324937D03*
X0205948Y0324917D03*
X0205948Y0324877D03*
X0205948Y0324837D03*
X0205948Y0324817D03*
X0205948Y0324777D03*
X0171308Y0325817D03*
X0167828Y0324877D03*
X0167828Y0324837D03*
X0167828Y0324817D03*
X0167828Y0326817D03*
X0164348Y0325817D03*
X0167828Y0331937D03*
X0167828Y0333877D03*
X0167828Y0333917D03*
X0171328Y0332937D03*
D70*
X0185608Y0331517D03*
X0195868Y0324777D03*
X0201088Y0325277D03*
X0203508Y0330817D03*
D71*
X0202308Y0324777D03*
X0169648Y0327337D03*
X0166008Y0327337D03*
X0166008Y0331417D03*
X0169648Y0331417D03*
D72*
X0210178Y0324777D03*
D73*
X0207448Y0326897D03*
X0207428Y0326957D03*
X0207408Y0326997D03*
X0207388Y0327057D03*
X0207388Y0327097D03*
X0207368Y0327157D03*
X0207348Y0327257D03*
X0207328Y0327357D03*
X0207308Y0327457D03*
X0207348Y0328857D03*
X0207368Y0328957D03*
X0207408Y0329097D03*
X0207428Y0329157D03*
X0207448Y0329197D03*
X0207468Y0329257D03*
X0204528Y0325997D03*
X0199388Y0327357D03*
X0199368Y0327457D03*
X0199348Y0327557D03*
X0199348Y0327597D03*
X0199328Y0327697D03*
X0199328Y0327757D03*
X0199328Y0327797D03*
X0199328Y0327857D03*
X0199308Y0327997D03*
X0199308Y0328057D03*
X0199328Y0328257D03*
X0199328Y0328297D03*
X0199328Y0328357D03*
X0199328Y0328397D03*
X0199348Y0328497D03*
X0199348Y0328557D03*
X0199368Y0328597D03*
X0199368Y0328657D03*
X0199388Y0328697D03*
X0199388Y0328757D03*
X0199408Y0328797D03*
X0199408Y0328857D03*
X0199428Y0328897D03*
X0199488Y0329097D03*
X0199508Y0329157D03*
X0194348Y0326097D03*
X0194348Y0326057D03*
X0194368Y0325997D03*
X0189588Y0328057D03*
X0189588Y0328097D03*
X0189588Y0328157D03*
X0188068Y0328057D03*
X0188068Y0326797D03*
X0188068Y0326757D03*
X0187368Y0325797D03*
X0188008Y0329697D03*
X0187988Y0329757D03*
X0187988Y0329797D03*
X0187948Y0329897D03*
X0190268Y0329657D03*
X0190288Y0329697D03*
X0183048Y0327197D03*
X0183028Y0327097D03*
X0183008Y0326997D03*
X0183008Y0326957D03*
X0183008Y0326897D03*
X0183008Y0326857D03*
X0183008Y0326797D03*
X0183008Y0326757D03*
X0183008Y0326697D03*
X0183008Y0326657D03*
X0183008Y0326597D03*
X0183008Y0326557D03*
X0182048Y0330557D03*
X0182068Y0330657D03*
X0182088Y0330757D03*
X0182088Y0330797D03*
X0182088Y0330857D03*
X0182108Y0330897D03*
X0182108Y0330957D03*
X0182108Y0330997D03*
X0182108Y0331057D03*
X0182108Y0331097D03*
X0182108Y0331157D03*
X0182108Y0331197D03*
X0182108Y0331257D03*
X0182108Y0331297D03*
X0182088Y0331397D03*
X0182088Y0331457D03*
X0182068Y0331597D03*
X0176588Y0331597D03*
X0176588Y0331557D03*
X0176588Y0331497D03*
X0176588Y0331457D03*
X0176588Y0331397D03*
X0176588Y0331357D03*
X0176588Y0331297D03*
X0176588Y0331257D03*
X0176588Y0331197D03*
X0176588Y0331157D03*
X0176588Y0331097D03*
X0176588Y0331057D03*
X0176588Y0330997D03*
X0176588Y0330957D03*
X0176588Y0330897D03*
X0176588Y0330857D03*
X0176588Y0330797D03*
X0176588Y0330757D03*
X0176588Y0330697D03*
X0176588Y0330657D03*
X0176588Y0330597D03*
X0176588Y0330557D03*
X0176588Y0330497D03*
X0176588Y0330457D03*
X0176588Y0330397D03*
X0176588Y0330357D03*
X0176588Y0330297D03*
X0176588Y0330257D03*
X0176588Y0330197D03*
X0176588Y0330157D03*
X0176588Y0330097D03*
X0176588Y0330057D03*
X0176588Y0329997D03*
X0176588Y0329957D03*
X0176588Y0329897D03*
X0176588Y0329857D03*
X0176588Y0329797D03*
X0176588Y0329757D03*
X0176588Y0329697D03*
X0176588Y0329657D03*
X0176588Y0329597D03*
X0176588Y0329557D03*
X0176588Y0329497D03*
X0176588Y0329457D03*
X0176588Y0329397D03*
X0176588Y0329357D03*
X0176588Y0329297D03*
X0176588Y0329257D03*
X0176588Y0329197D03*
X0176588Y0329157D03*
X0176588Y0329097D03*
X0176588Y0329057D03*
X0176588Y0328997D03*
X0176588Y0328957D03*
X0176588Y0328897D03*
X0176588Y0328857D03*
X0176588Y0328157D03*
X0176588Y0328097D03*
X0176588Y0328057D03*
X0176588Y0327997D03*
X0176588Y0327957D03*
X0176588Y0327897D03*
X0176588Y0327857D03*
X0176588Y0327797D03*
X0176588Y0327757D03*
X0176588Y0327697D03*
X0176588Y0327657D03*
X0176588Y0327597D03*
X0176588Y0327557D03*
X0176588Y0327497D03*
X0176588Y0327457D03*
X0176588Y0327397D03*
X0176588Y0327357D03*
X0176588Y0327297D03*
X0176588Y0327257D03*
X0176588Y0327197D03*
X0176588Y0327157D03*
X0176588Y0327097D03*
X0176588Y0327057D03*
X0176588Y0326997D03*
X0176588Y0326957D03*
X0176588Y0326897D03*
X0176588Y0326857D03*
X0176588Y0326797D03*
X0176588Y0326757D03*
X0176588Y0326697D03*
X0176588Y0326657D03*
X0176588Y0326597D03*
X0176588Y0326557D03*
X0176588Y0326497D03*
X0176588Y0326457D03*
X0176588Y0326397D03*
X0176588Y0326357D03*
X0176588Y0326297D03*
X0176588Y0326257D03*
X0176588Y0326197D03*
X0176588Y0326157D03*
X0176588Y0326097D03*
X0176588Y0326057D03*
X0176588Y0325997D03*
X0176588Y0325957D03*
X0176588Y0325897D03*
X0176588Y0325857D03*
X0176588Y0325797D03*
X0176588Y0325757D03*
X0176588Y0325697D03*
X0176588Y0325657D03*
X0176588Y0325597D03*
X0176588Y0325557D03*
X0176588Y0325497D03*
X0176588Y0325457D03*
X0176588Y0325397D03*
X0176588Y0325357D03*
X0176588Y0325297D03*
X0176588Y0325257D03*
X0176588Y0325197D03*
X0176588Y0325157D03*
X0176588Y0325097D03*
X0176588Y0325057D03*
X0176588Y0324997D03*
X0176588Y0324957D03*
X0176588Y0324897D03*
X0176588Y0324857D03*
X0176588Y0324797D03*
X0171268Y0325857D03*
X0167828Y0324957D03*
X0167828Y0326797D03*
X0164388Y0325857D03*
X0167828Y0333797D03*
X0176588Y0333297D03*
X0176588Y0333257D03*
X0176588Y0333197D03*
X0176588Y0333157D03*
X0176588Y0333097D03*
X0176588Y0333057D03*
X0176588Y0332997D03*
X0176588Y0332957D03*
X0176588Y0332897D03*
X0176588Y0332857D03*
X0176588Y0332797D03*
X0176588Y0332757D03*
X0176588Y0332697D03*
X0176588Y0332657D03*
X0176588Y0332597D03*
X0176588Y0332557D03*
X0176588Y0332497D03*
X0176588Y0332457D03*
X0176588Y0332397D03*
X0176588Y0332357D03*
X0176588Y0332297D03*
X0176588Y0332257D03*
X0176588Y0332197D03*
X0176588Y0332157D03*
X0176588Y0332097D03*
X0176588Y0332057D03*
X0176588Y0331997D03*
X0176588Y0331957D03*
X0176588Y0331897D03*
X0176588Y0331857D03*
X0176588Y0331797D03*
X0176588Y0331757D03*
X0176588Y0331697D03*
X0176588Y0331657D03*
X0212488Y0329257D03*
X0212508Y0329197D03*
X0212528Y0329097D03*
X0212548Y0329057D03*
X0212568Y0328997D03*
X0212568Y0328957D03*
X0212588Y0328897D03*
X0212588Y0328857D03*
X0212608Y0328797D03*
X0212608Y0328757D03*
X0212628Y0328657D03*
X0212648Y0328497D03*
X0212648Y0328457D03*
D74*
X0202298Y0324797D03*
X0185258Y0324797D03*
X0169478Y0327497D03*
X0169478Y0331257D03*
X0166178Y0331257D03*
D75*
X0164318Y0332957D03*
X0171338Y0332957D03*
X0171338Y0325797D03*
X0164318Y0325797D03*
X0188098Y0325797D03*
X0188098Y0325757D03*
X0188098Y0325697D03*
X0188098Y0325657D03*
X0188098Y0325597D03*
X0188098Y0325557D03*
X0188098Y0325497D03*
X0188098Y0325457D03*
X0188098Y0325397D03*
X0188098Y0325357D03*
X0188098Y0325297D03*
X0188098Y0325257D03*
X0188098Y0325197D03*
X0188098Y0325157D03*
X0188098Y0325097D03*
X0188098Y0325057D03*
X0188098Y0324997D03*
X0188098Y0324957D03*
X0188098Y0324897D03*
X0188098Y0324857D03*
X0188098Y0324797D03*
X0188098Y0327057D03*
X0188098Y0327097D03*
X0188098Y0327157D03*
X0188098Y0328657D03*
X0188098Y0328697D03*
X0188098Y0328757D03*
X0188098Y0328797D03*
X0188098Y0328857D03*
X0188098Y0328897D03*
X0188098Y0328957D03*
X0188098Y0328997D03*
X0188098Y0329057D03*
X0188098Y0329097D03*
X0188098Y0329157D03*
D76*
X0188088Y0329197D03*
X0188088Y0329257D03*
X0188088Y0329297D03*
X0188068Y0329357D03*
X0188068Y0329397D03*
X0189568Y0329657D03*
X0189568Y0329697D03*
X0189568Y0329757D03*
X0189568Y0329797D03*
X0189568Y0329857D03*
X0189568Y0329897D03*
X0189568Y0329957D03*
X0189568Y0329997D03*
X0189568Y0330057D03*
X0189568Y0330097D03*
X0189568Y0330157D03*
X0189568Y0330197D03*
X0189568Y0330257D03*
X0189568Y0330297D03*
X0189568Y0330357D03*
X0189568Y0330397D03*
X0189568Y0330457D03*
X0189568Y0330497D03*
X0189568Y0330557D03*
X0189568Y0330597D03*
X0189568Y0330657D03*
X0189568Y0330697D03*
X0189568Y0330757D03*
X0189568Y0330797D03*
X0189568Y0330857D03*
X0189568Y0330897D03*
X0189568Y0330957D03*
X0189568Y0330997D03*
X0189568Y0331057D03*
X0189568Y0331097D03*
X0189568Y0331157D03*
X0189568Y0331197D03*
X0189568Y0331257D03*
X0189568Y0331297D03*
X0189568Y0331357D03*
X0189568Y0331397D03*
X0189568Y0331457D03*
X0189568Y0327797D03*
X0189568Y0327757D03*
X0189568Y0327697D03*
X0189568Y0327657D03*
X0189568Y0327597D03*
X0189568Y0327557D03*
X0189568Y0327497D03*
X0189568Y0327457D03*
X0189568Y0327397D03*
X0189568Y0327357D03*
X0189568Y0327297D03*
X0189568Y0327257D03*
X0189568Y0327197D03*
X0189568Y0327157D03*
X0189568Y0327097D03*
X0189568Y0327057D03*
X0189568Y0326997D03*
X0189568Y0326957D03*
X0189568Y0326897D03*
X0189568Y0326857D03*
X0189568Y0326797D03*
X0189568Y0326757D03*
X0189568Y0326697D03*
X0189568Y0326657D03*
X0189568Y0326597D03*
X0189568Y0326557D03*
X0189568Y0326497D03*
X0189568Y0326457D03*
X0189568Y0326397D03*
X0189568Y0326357D03*
X0189568Y0326297D03*
X0189568Y0326257D03*
X0189568Y0326197D03*
X0189568Y0326157D03*
X0189568Y0326097D03*
X0189568Y0326057D03*
X0189568Y0325997D03*
X0189568Y0325957D03*
X0189568Y0325897D03*
X0189568Y0325857D03*
X0189568Y0325797D03*
X0189568Y0325757D03*
X0189568Y0325697D03*
X0189568Y0325657D03*
X0189568Y0325597D03*
X0189568Y0325557D03*
X0189568Y0325497D03*
X0189568Y0325457D03*
X0189568Y0325397D03*
X0189568Y0325357D03*
X0189568Y0325297D03*
X0189568Y0325257D03*
X0189568Y0325197D03*
X0189568Y0325157D03*
X0189568Y0325097D03*
X0189568Y0325057D03*
X0189568Y0324997D03*
X0189568Y0324957D03*
X0189568Y0324897D03*
X0189568Y0324857D03*
X0189568Y0324797D03*
X0188088Y0326957D03*
X0188088Y0326997D03*
X0183708Y0330657D03*
X0194308Y0326397D03*
X0194308Y0326357D03*
X0194308Y0326297D03*
X0197988Y0326297D03*
X0197988Y0326257D03*
X0197988Y0326197D03*
X0197988Y0326157D03*
X0197988Y0326097D03*
X0197988Y0326057D03*
X0197988Y0325997D03*
X0197988Y0325957D03*
X0197988Y0325897D03*
X0197988Y0325857D03*
X0197988Y0325797D03*
X0197988Y0325757D03*
X0197988Y0325697D03*
X0197988Y0325657D03*
X0197988Y0325597D03*
X0197988Y0325557D03*
X0197988Y0325497D03*
X0197988Y0325457D03*
X0197988Y0325397D03*
X0197988Y0325357D03*
X0197988Y0325297D03*
X0197988Y0325257D03*
X0197988Y0325197D03*
X0197988Y0325157D03*
X0197988Y0325097D03*
X0197988Y0325057D03*
X0197988Y0324997D03*
X0197988Y0324957D03*
X0197988Y0324897D03*
X0197988Y0324857D03*
X0197988Y0324797D03*
X0197988Y0326357D03*
X0197988Y0326397D03*
X0197988Y0326457D03*
X0197988Y0326497D03*
X0197988Y0326557D03*
X0197988Y0326597D03*
X0197988Y0326657D03*
X0197988Y0326697D03*
X0197988Y0326757D03*
X0197988Y0326797D03*
X0197988Y0326857D03*
X0197988Y0326897D03*
X0197988Y0326957D03*
X0197988Y0326997D03*
X0197988Y0327057D03*
X0197988Y0327097D03*
X0197988Y0327157D03*
X0197988Y0327197D03*
X0197988Y0327257D03*
X0197988Y0327297D03*
X0197988Y0327357D03*
X0197988Y0327397D03*
X0197988Y0327457D03*
X0197988Y0327497D03*
X0197988Y0327557D03*
X0197988Y0327597D03*
X0197988Y0327657D03*
X0197988Y0327697D03*
X0197988Y0327757D03*
X0197988Y0327797D03*
X0197988Y0327857D03*
X0197988Y0327897D03*
X0197988Y0327957D03*
X0197988Y0327997D03*
X0197988Y0328057D03*
X0197988Y0328097D03*
X0197988Y0328157D03*
X0197988Y0328197D03*
X0197988Y0328257D03*
X0197988Y0328297D03*
X0197988Y0328357D03*
X0197988Y0328397D03*
X0197988Y0328457D03*
X0197988Y0328497D03*
X0197988Y0328557D03*
X0197988Y0328597D03*
X0197988Y0328657D03*
X0197988Y0328697D03*
X0197988Y0328757D03*
X0197988Y0328797D03*
X0197988Y0328857D03*
X0197988Y0328897D03*
X0197988Y0328957D03*
X0197988Y0328997D03*
X0197988Y0329057D03*
X0197988Y0329097D03*
X0197988Y0329157D03*
X0197988Y0329197D03*
X0197988Y0329257D03*
X0197988Y0329297D03*
X0197988Y0329357D03*
X0197988Y0329397D03*
X0197988Y0329457D03*
X0197988Y0329497D03*
X0197988Y0329557D03*
X0197988Y0329597D03*
X0197988Y0329657D03*
X0197988Y0329697D03*
X0197988Y0329757D03*
X0197988Y0329797D03*
X0197988Y0329857D03*
X0197988Y0329897D03*
X0197988Y0329957D03*
X0197988Y0329997D03*
X0197988Y0330057D03*
X0197988Y0330097D03*
X0197988Y0330157D03*
X0197988Y0330197D03*
X0197988Y0330257D03*
X0197988Y0330297D03*
X0197988Y0330357D03*
X0197988Y0330397D03*
X0197988Y0330457D03*
X0197988Y0330497D03*
X0197988Y0330557D03*
X0197988Y0330597D03*
X0197988Y0330657D03*
X0197988Y0330697D03*
X0197988Y0330757D03*
X0197988Y0330797D03*
X0197988Y0330857D03*
X0197988Y0330897D03*
X0197988Y0330957D03*
X0197988Y0330997D03*
X0197988Y0331057D03*
X0197988Y0331097D03*
X0197988Y0331157D03*
X0197988Y0331197D03*
X0197988Y0331257D03*
X0197988Y0331297D03*
X0197988Y0331357D03*
X0197988Y0331397D03*
X0197988Y0331457D03*
X0197988Y0332557D03*
X0197988Y0332597D03*
X0197988Y0332657D03*
X0197988Y0332697D03*
X0197988Y0332757D03*
X0197988Y0332797D03*
X0197988Y0332857D03*
X0197988Y0332897D03*
X0197988Y0332957D03*
X0197988Y0332997D03*
X0197988Y0333057D03*
X0197988Y0333097D03*
X0197988Y0333157D03*
X0197988Y0333197D03*
X0197988Y0333257D03*
X0197988Y0333297D03*
X0197988Y0333357D03*
X0197988Y0333397D03*
X0197988Y0333457D03*
X0197988Y0333497D03*
X0197988Y0333557D03*
X0197988Y0333597D03*
X0204428Y0330097D03*
X0205948Y0330097D03*
X0205948Y0330057D03*
X0205948Y0329997D03*
X0205948Y0329957D03*
X0205948Y0329897D03*
X0205948Y0329857D03*
X0205948Y0329797D03*
X0205948Y0329757D03*
X0205948Y0329697D03*
X0205948Y0329657D03*
X0205948Y0329597D03*
X0205948Y0329557D03*
X0205948Y0329497D03*
X0205948Y0329457D03*
X0205948Y0329397D03*
X0205948Y0329357D03*
X0205948Y0329297D03*
X0205948Y0329257D03*
X0205948Y0329197D03*
X0205948Y0329157D03*
X0205948Y0329097D03*
X0205948Y0329057D03*
X0205948Y0328997D03*
X0205948Y0328957D03*
X0205948Y0328897D03*
X0205948Y0328857D03*
X0205948Y0328797D03*
X0205948Y0328757D03*
X0205948Y0328697D03*
X0205948Y0328657D03*
X0205948Y0328597D03*
X0205948Y0328557D03*
X0205948Y0328497D03*
X0205948Y0328457D03*
X0205948Y0328397D03*
X0205948Y0328357D03*
X0205948Y0328297D03*
X0205948Y0328257D03*
X0205948Y0328197D03*
X0205948Y0328157D03*
X0205948Y0328097D03*
X0205948Y0328057D03*
X0205948Y0327997D03*
X0205948Y0327957D03*
X0205948Y0327897D03*
X0205948Y0327857D03*
X0205948Y0327797D03*
X0205948Y0327757D03*
X0205948Y0327697D03*
X0205948Y0327657D03*
X0205948Y0327597D03*
X0205948Y0327557D03*
X0205948Y0327497D03*
X0205948Y0327457D03*
X0205948Y0327397D03*
X0205948Y0327357D03*
X0205948Y0327297D03*
X0205948Y0327257D03*
X0205948Y0327197D03*
X0205948Y0327157D03*
X0205948Y0327097D03*
X0205948Y0327057D03*
X0205948Y0326997D03*
X0205948Y0326957D03*
X0205948Y0326897D03*
X0205948Y0326857D03*
X0205948Y0326797D03*
X0205948Y0326757D03*
X0205948Y0326697D03*
X0205948Y0326657D03*
X0205948Y0326597D03*
X0205948Y0326557D03*
X0205948Y0326497D03*
X0205948Y0326457D03*
X0205948Y0326397D03*
X0205948Y0326357D03*
X0205948Y0326297D03*
X0205948Y0326257D03*
X0205948Y0326197D03*
X0205948Y0326157D03*
X0205948Y0326097D03*
X0205948Y0326057D03*
X0205948Y0325997D03*
X0205948Y0325957D03*
X0205948Y0325897D03*
X0205948Y0325857D03*
X0205948Y0325797D03*
X0205948Y0325757D03*
X0205948Y0325697D03*
X0205948Y0325657D03*
X0205948Y0325597D03*
X0205948Y0325557D03*
X0205948Y0325497D03*
X0205948Y0325457D03*
X0205948Y0325397D03*
X0205948Y0325357D03*
X0205948Y0325297D03*
X0205948Y0325257D03*
X0205948Y0325197D03*
X0205948Y0325157D03*
X0205948Y0325097D03*
X0205948Y0325057D03*
X0205948Y0324997D03*
X0205948Y0324957D03*
X0205948Y0324897D03*
X0205948Y0324857D03*
X0205948Y0324797D03*
X0207288Y0328497D03*
X0205948Y0330157D03*
X0205948Y0330197D03*
X0205948Y0330257D03*
X0205948Y0330297D03*
X0205948Y0330357D03*
X0205948Y0330397D03*
X0205948Y0330457D03*
X0205948Y0330497D03*
X0205948Y0330557D03*
X0205948Y0330597D03*
X0205948Y0330657D03*
X0205948Y0330697D03*
X0205948Y0330757D03*
X0205948Y0330797D03*
X0205948Y0330857D03*
X0205948Y0330897D03*
X0205948Y0330957D03*
X0205948Y0330997D03*
X0205948Y0331057D03*
X0205948Y0331097D03*
X0205948Y0331157D03*
X0205948Y0331197D03*
X0205948Y0331257D03*
X0205948Y0331297D03*
X0205948Y0331357D03*
X0205948Y0331397D03*
X0205948Y0331457D03*
X0205948Y0331497D03*
X0205948Y0331557D03*
X0205948Y0331597D03*
X0205948Y0331657D03*
X0205948Y0331697D03*
X0205948Y0331757D03*
X0205948Y0331797D03*
X0205948Y0331857D03*
X0205948Y0331897D03*
X0205948Y0331957D03*
X0205948Y0331997D03*
X0205948Y0332057D03*
X0205948Y0332097D03*
X0205948Y0332157D03*
X0205948Y0332197D03*
X0205948Y0332257D03*
X0205948Y0332297D03*
X0205948Y0332357D03*
X0205948Y0332397D03*
X0205948Y0332457D03*
X0205948Y0332497D03*
X0205948Y0332557D03*
X0205948Y0332597D03*
X0205948Y0332657D03*
X0205948Y0332697D03*
X0205948Y0332757D03*
X0205948Y0332797D03*
X0205948Y0332857D03*
X0205948Y0332897D03*
X0205948Y0332957D03*
X0205948Y0332997D03*
X0205948Y0333057D03*
X0205948Y0333097D03*
X0205948Y0333157D03*
X0205948Y0333197D03*
X0205948Y0333257D03*
X0205948Y0333297D03*
X0205948Y0333357D03*
X0205948Y0333397D03*
X0205948Y0333457D03*
X0205948Y0333497D03*
X0205948Y0333557D03*
X0205948Y0333597D03*
X0205948Y0333657D03*
X0205948Y0333697D03*
X0205948Y0333757D03*
X0205948Y0333797D03*
X0205948Y0333857D03*
X0205948Y0333897D03*
X0205948Y0333957D03*
X0205948Y0333997D03*
X0205948Y0334057D03*
X0205948Y0334097D03*
X0205948Y0334157D03*
X0205948Y0334197D03*
X0205948Y0334257D03*
X0205948Y0334297D03*
X0212388Y0325957D03*
X0167828Y0324857D03*
X0164788Y0328797D03*
X0167828Y0333857D03*
X0167828Y0333897D03*
D77*
X0195868Y0324797D03*
X0210028Y0331357D03*
D78*
X0210178Y0324797D03*
X0164198Y0329657D03*
D79*
X0169348Y0331137D03*
X0169388Y0327577D03*
X0185248Y0324817D03*
X0187288Y0328317D03*
X0195808Y0324977D03*
X0202308Y0324817D03*
D80*
X0196618Y0325317D03*
X0188098Y0325317D03*
X0188098Y0325337D03*
X0188098Y0325377D03*
X0188098Y0325417D03*
X0188098Y0325437D03*
X0188098Y0325477D03*
X0188098Y0325517D03*
X0188098Y0325537D03*
X0188098Y0325577D03*
X0188098Y0325617D03*
X0188098Y0325637D03*
X0188098Y0325677D03*
X0188098Y0325717D03*
X0188098Y0325737D03*
X0188098Y0325777D03*
X0188098Y0325817D03*
X0188098Y0325837D03*
X0188098Y0325277D03*
X0188098Y0325237D03*
X0188098Y0325217D03*
X0188098Y0325177D03*
X0188098Y0325137D03*
X0188098Y0325117D03*
X0188098Y0325077D03*
X0188098Y0325037D03*
X0188098Y0325017D03*
X0188098Y0324977D03*
X0188098Y0324937D03*
X0188098Y0324917D03*
X0188098Y0324877D03*
X0188098Y0324837D03*
X0188098Y0324817D03*
X0188098Y0327017D03*
X0188098Y0327037D03*
X0188098Y0327077D03*
X0188098Y0327117D03*
X0188098Y0327137D03*
X0188098Y0327177D03*
X0188098Y0328677D03*
X0188098Y0328717D03*
X0188098Y0328737D03*
X0188098Y0328777D03*
X0188098Y0328817D03*
X0188098Y0328837D03*
X0188098Y0328877D03*
X0188098Y0328917D03*
X0188098Y0328937D03*
X0188098Y0328977D03*
X0188098Y0329017D03*
X0188098Y0329037D03*
X0188098Y0329077D03*
X0188098Y0329117D03*
X0188098Y0329137D03*
X0167838Y0333937D03*
X0164338Y0332937D03*
X0164298Y0325777D03*
D81*
X0169278Y0327677D03*
X0169278Y0331077D03*
X0166378Y0331077D03*
X0195778Y0325017D03*
X0210178Y0324817D03*
D82*
X0202308Y0324837D03*
X0185248Y0324837D03*
X0169228Y0327717D03*
X0169208Y0327737D03*
X0166448Y0327737D03*
X0166428Y0327717D03*
X0166448Y0331017D03*
D83*
X0165788Y0327137D03*
X0169868Y0327137D03*
X0185708Y0328877D03*
X0187488Y0328277D03*
X0192248Y0331017D03*
X0195868Y0324837D03*
D84*
X0185568Y0331417D03*
X0169168Y0330977D03*
X0166488Y0330977D03*
X0166488Y0327777D03*
X0169168Y0327777D03*
X0210028Y0331217D03*
X0210188Y0324837D03*
D85*
X0202298Y0324857D03*
X0195698Y0325157D03*
X0185258Y0324857D03*
X0166578Y0330897D03*
D86*
X0165918Y0331497D03*
X0169738Y0331497D03*
X0169738Y0327257D03*
X0165918Y0327257D03*
X0192198Y0330957D03*
X0195878Y0324857D03*
D87*
X0195678Y0325197D03*
X0210178Y0324857D03*
X0164078Y0329597D03*
D88*
X0185248Y0324877D03*
X0195648Y0325277D03*
X0202308Y0324877D03*
X0210028Y0331177D03*
D89*
X0195878Y0324877D03*
D90*
X0210188Y0324877D03*
D91*
X0207358Y0327197D03*
X0207338Y0327297D03*
X0207318Y0327397D03*
X0207298Y0327497D03*
X0207298Y0327557D03*
X0207298Y0327597D03*
X0207278Y0327657D03*
X0207278Y0327697D03*
X0207278Y0327757D03*
X0207278Y0328397D03*
X0207278Y0328457D03*
X0207298Y0328557D03*
X0207298Y0328597D03*
X0207318Y0328657D03*
X0207318Y0328697D03*
X0207318Y0328757D03*
X0207338Y0328797D03*
X0207358Y0328897D03*
X0207378Y0328997D03*
X0207398Y0329057D03*
X0212618Y0328697D03*
X0212638Y0328597D03*
X0212638Y0328557D03*
X0212658Y0328397D03*
X0199338Y0328457D03*
X0199318Y0328197D03*
X0199318Y0328157D03*
X0199318Y0328097D03*
X0199318Y0327957D03*
X0199318Y0327897D03*
X0194298Y0327897D03*
X0194298Y0327857D03*
X0194298Y0327797D03*
X0194298Y0327757D03*
X0194298Y0327697D03*
X0194298Y0327657D03*
X0194298Y0327597D03*
X0194298Y0327557D03*
X0194298Y0327497D03*
X0194298Y0327457D03*
X0194298Y0327397D03*
X0194298Y0327357D03*
X0194298Y0327297D03*
X0194298Y0327257D03*
X0194298Y0327197D03*
X0194298Y0327157D03*
X0194298Y0327097D03*
X0194298Y0327057D03*
X0194298Y0326997D03*
X0194298Y0326957D03*
X0194298Y0326897D03*
X0194298Y0326857D03*
X0194298Y0326797D03*
X0194298Y0326757D03*
X0194298Y0326697D03*
X0194298Y0326657D03*
X0194298Y0326597D03*
X0194298Y0326557D03*
X0194298Y0326497D03*
X0194298Y0326457D03*
X0194318Y0326257D03*
X0194318Y0326197D03*
X0194338Y0326157D03*
X0194298Y0327957D03*
X0194298Y0327997D03*
X0194298Y0328057D03*
X0194298Y0328097D03*
X0194298Y0328157D03*
X0194298Y0328197D03*
X0194298Y0328257D03*
X0194298Y0328297D03*
X0194298Y0328357D03*
X0194298Y0328397D03*
X0194298Y0328457D03*
X0194298Y0328497D03*
X0194298Y0328557D03*
X0194298Y0328597D03*
X0194298Y0328657D03*
X0194298Y0328697D03*
X0194298Y0328757D03*
X0194298Y0328797D03*
X0194298Y0328857D03*
X0194298Y0328897D03*
X0194298Y0328957D03*
X0194298Y0328997D03*
X0194298Y0329057D03*
X0194298Y0329097D03*
X0194298Y0329157D03*
X0194298Y0329197D03*
X0194298Y0329257D03*
X0194298Y0329297D03*
X0194298Y0329357D03*
X0194298Y0329397D03*
X0194298Y0329457D03*
X0194298Y0329497D03*
X0194298Y0329557D03*
X0194298Y0329597D03*
X0194298Y0329657D03*
X0194298Y0329697D03*
X0194298Y0329757D03*
X0194298Y0329797D03*
X0194298Y0329857D03*
X0194298Y0329897D03*
X0194298Y0329957D03*
X0194298Y0329997D03*
X0194298Y0330057D03*
X0194298Y0330097D03*
X0194298Y0330157D03*
X0194298Y0330197D03*
X0194298Y0330257D03*
X0194298Y0330297D03*
X0194298Y0330357D03*
X0194298Y0330397D03*
X0194298Y0330457D03*
X0194298Y0330497D03*
X0194298Y0330557D03*
X0194298Y0330597D03*
X0194298Y0330657D03*
X0194298Y0330697D03*
X0194298Y0330757D03*
X0194298Y0330797D03*
X0194298Y0330857D03*
X0194298Y0331497D03*
X0194298Y0331557D03*
X0194298Y0331597D03*
X0194298Y0331657D03*
X0194298Y0331697D03*
X0194298Y0331757D03*
X0194298Y0331797D03*
X0194298Y0331857D03*
X0194298Y0331897D03*
X0194298Y0331957D03*
X0194298Y0331997D03*
X0194298Y0332057D03*
X0194298Y0332097D03*
X0194298Y0332157D03*
X0194298Y0332197D03*
X0194298Y0332257D03*
X0194298Y0332297D03*
X0194298Y0332357D03*
X0194298Y0332397D03*
X0194298Y0332457D03*
X0194298Y0332497D03*
X0194298Y0332557D03*
X0194298Y0332597D03*
X0194298Y0332657D03*
X0194298Y0332697D03*
X0194298Y0332757D03*
X0194298Y0332797D03*
X0194298Y0332857D03*
X0194298Y0332897D03*
X0194298Y0332957D03*
X0194298Y0332997D03*
X0194298Y0333057D03*
X0194298Y0333097D03*
X0194298Y0333157D03*
X0194298Y0333197D03*
X0194298Y0333257D03*
X0194298Y0333297D03*
X0194298Y0333357D03*
X0194298Y0333397D03*
X0194298Y0333457D03*
X0194298Y0333497D03*
X0194298Y0333557D03*
X0194298Y0333597D03*
X0189578Y0327997D03*
X0189578Y0327957D03*
X0189578Y0327897D03*
X0189578Y0327857D03*
X0188078Y0326897D03*
X0188078Y0326857D03*
X0188058Y0329457D03*
X0188058Y0329497D03*
X0188038Y0329557D03*
X0188038Y0329597D03*
X0188018Y0329657D03*
X0171278Y0332897D03*
X0164378Y0332897D03*
X0167838Y0324897D03*
D92*
X0185248Y0324897D03*
X0202308Y0324897D03*
X0210028Y0331157D03*
D93*
X0202318Y0331297D03*
X0195878Y0324897D03*
X0185738Y0328857D03*
X0185578Y0331457D03*
X0169518Y0327457D03*
X0166138Y0331297D03*
D94*
X0210188Y0324897D03*
D95*
X0202308Y0331177D03*
X0185248Y0324917D03*
D96*
X0195858Y0324917D03*
X0169498Y0327477D03*
X0166158Y0327477D03*
X0166158Y0331277D03*
X0169498Y0331277D03*
D97*
X0202298Y0324917D03*
D98*
X0210178Y0324917D03*
D99*
X0202298Y0324937D03*
X0185258Y0324937D03*
X0171698Y0329537D03*
X0163958Y0329537D03*
D100*
X0166218Y0331217D03*
X0169438Y0331217D03*
X0169458Y0331237D03*
X0195838Y0324937D03*
D101*
X0210178Y0324937D03*
X0171718Y0329217D03*
X0163938Y0329217D03*
D102*
X0185258Y0324957D03*
X0202298Y0324957D03*
D103*
X0195828Y0324957D03*
X0210028Y0331257D03*
X0171468Y0329657D03*
D104*
X0210188Y0324957D03*
D105*
X0202298Y0324977D03*
X0185258Y0324977D03*
X0171758Y0329237D03*
D106*
X0210188Y0324977D03*
D107*
X0207538Y0326657D03*
X0207518Y0326697D03*
X0207478Y0326797D03*
X0207478Y0329297D03*
X0207518Y0329397D03*
X0207538Y0329457D03*
X0207638Y0329657D03*
X0212378Y0329557D03*
X0212418Y0329457D03*
X0212438Y0329397D03*
X0212478Y0329297D03*
X0212518Y0329157D03*
X0199538Y0329257D03*
X0199518Y0329197D03*
X0199478Y0329057D03*
X0199438Y0328957D03*
X0199338Y0327657D03*
X0199378Y0327397D03*
X0199418Y0327257D03*
X0199418Y0327197D03*
X0199438Y0327157D03*
X0194418Y0325857D03*
X0194378Y0325957D03*
X0192818Y0331397D03*
X0187918Y0329957D03*
X0183078Y0327297D03*
X0183038Y0327157D03*
X0183018Y0327057D03*
X0183018Y0326497D03*
X0183018Y0326457D03*
X0183038Y0326397D03*
X0181978Y0330297D03*
X0182018Y0330457D03*
X0182038Y0330497D03*
X0182078Y0330697D03*
X0182078Y0331497D03*
X0182078Y0331557D03*
X0182038Y0331757D03*
X0171238Y0332857D03*
X0167838Y0333757D03*
X0164418Y0332857D03*
X0167838Y0324997D03*
D108*
X0167828Y0329357D03*
X0167828Y0329397D03*
X0171788Y0329497D03*
X0177768Y0333957D03*
X0185248Y0324997D03*
X0202308Y0331097D03*
X0163868Y0329497D03*
D109*
X0195798Y0324997D03*
D110*
X0202298Y0324997D03*
X0171798Y0329257D03*
X0163858Y0329257D03*
D111*
X0210178Y0324997D03*
D112*
X0207628Y0326477D03*
X0207528Y0326677D03*
X0207628Y0329637D03*
X0207728Y0329817D03*
X0204428Y0330137D03*
X0204528Y0325977D03*
X0199528Y0326877D03*
X0199628Y0329437D03*
X0199728Y0329637D03*
X0194428Y0325837D03*
X0194428Y0325817D03*
X0183128Y0327417D03*
X0183128Y0327437D03*
X0183028Y0326437D03*
X0182028Y0331777D03*
X0167828Y0333677D03*
X0167828Y0333717D03*
X0167828Y0333737D03*
X0167828Y0325077D03*
X0167828Y0325037D03*
X0167828Y0325017D03*
X0212328Y0329677D03*
D113*
X0202308Y0331077D03*
X0185248Y0325017D03*
D114*
X0171818Y0329477D03*
X0167838Y0329277D03*
X0163838Y0329477D03*
X0202298Y0325017D03*
X0210018Y0331017D03*
D115*
X0210188Y0325017D03*
X0177828Y0328217D03*
X0167828Y0329477D03*
D116*
X0185248Y0325037D03*
X0202308Y0325037D03*
D117*
X0195768Y0325037D03*
X0185748Y0328837D03*
X0166388Y0327677D03*
X0164148Y0329117D03*
D118*
X0210188Y0325037D03*
D119*
X0212328Y0329657D03*
X0199628Y0329457D03*
X0199528Y0326897D03*
X0190328Y0329757D03*
X0187328Y0325757D03*
X0182028Y0331797D03*
X0171228Y0325897D03*
X0167828Y0325057D03*
X0164428Y0325897D03*
X0167828Y0331957D03*
X0167828Y0333697D03*
D120*
X0163798Y0329457D03*
X0185258Y0325057D03*
X0202298Y0325057D03*
D121*
X0202318Y0331257D03*
X0195758Y0325057D03*
X0169258Y0327697D03*
X0169258Y0331057D03*
X0166398Y0331057D03*
D122*
X0210188Y0325057D03*
D123*
X0202308Y0331017D03*
X0185248Y0325077D03*
X0177908Y0328237D03*
D124*
X0169218Y0331017D03*
X0195738Y0325077D03*
D125*
X0202298Y0325077D03*
X0177918Y0333937D03*
D126*
X0171918Y0329317D03*
X0163738Y0329317D03*
X0210018Y0330937D03*
X0210198Y0325077D03*
D127*
X0207788Y0326197D03*
X0207748Y0326257D03*
X0207728Y0326297D03*
X0204528Y0325957D03*
X0204428Y0330157D03*
X0207808Y0329957D03*
X0207848Y0329997D03*
X0207888Y0330057D03*
X0212108Y0330057D03*
X0212148Y0329997D03*
X0212168Y0329957D03*
X0212208Y0329897D03*
X0199868Y0329857D03*
X0199828Y0329797D03*
X0199708Y0326497D03*
X0199728Y0326457D03*
X0199768Y0326397D03*
X0196548Y0325297D03*
X0189628Y0328457D03*
X0189628Y0328497D03*
X0190408Y0329857D03*
X0190428Y0329897D03*
X0187828Y0330157D03*
X0187808Y0330197D03*
X0187768Y0330257D03*
X0188028Y0326557D03*
X0183128Y0326097D03*
X0183188Y0327557D03*
X0183208Y0327597D03*
X0181828Y0329957D03*
X0181848Y0329997D03*
X0181888Y0332157D03*
X0171168Y0332797D03*
X0167828Y0333597D03*
X0164488Y0332797D03*
X0167828Y0325157D03*
X0167828Y0325097D03*
X0171168Y0325957D03*
D128*
X0167838Y0329657D03*
X0185258Y0325097D03*
D129*
X0195728Y0325097D03*
X0169188Y0327757D03*
X0166468Y0327757D03*
D130*
X0167838Y0329057D03*
X0202298Y0325097D03*
D131*
X0210188Y0325097D03*
X0167828Y0329697D03*
D132*
X0167828Y0331977D03*
X0167828Y0333577D03*
X0167828Y0333617D03*
X0167828Y0333637D03*
X0171148Y0332777D03*
X0164468Y0332817D03*
X0167828Y0326777D03*
X0167828Y0325137D03*
X0167828Y0325117D03*
X0171188Y0325937D03*
X0181868Y0330037D03*
X0181888Y0330077D03*
X0181908Y0332137D03*
X0181888Y0332177D03*
X0181868Y0332217D03*
X0183208Y0327577D03*
X0183168Y0327517D03*
X0183128Y0326117D03*
X0183148Y0326077D03*
X0183168Y0326037D03*
X0187228Y0325677D03*
X0188028Y0326577D03*
X0188028Y0328077D03*
X0189628Y0328477D03*
X0189628Y0328517D03*
X0190448Y0329917D03*
X0187788Y0330217D03*
X0194488Y0325717D03*
X0194508Y0325677D03*
X0199648Y0326617D03*
X0199668Y0326577D03*
X0199688Y0326537D03*
X0199688Y0326517D03*
X0199788Y0329737D03*
X0199808Y0329777D03*
X0199848Y0329817D03*
X0199848Y0329837D03*
X0207788Y0329917D03*
X0207808Y0329937D03*
X0207828Y0329977D03*
X0207868Y0330037D03*
X0207768Y0326237D03*
X0212188Y0329937D03*
X0212168Y0329977D03*
X0212128Y0330017D03*
D133*
X0202318Y0330977D03*
X0202298Y0325117D03*
X0185258Y0325117D03*
X0171938Y0329417D03*
X0163718Y0329417D03*
D134*
X0171558Y0329137D03*
X0195718Y0325117D03*
D135*
X0210188Y0325117D03*
D136*
X0172058Y0325137D03*
X0163598Y0325137D03*
X0163598Y0333617D03*
X0167838Y0335337D03*
X0172058Y0333617D03*
D137*
X0171958Y0329337D03*
X0177998Y0333917D03*
X0185258Y0325137D03*
X0163698Y0329337D03*
D138*
X0164108Y0329137D03*
X0166528Y0327817D03*
X0169128Y0327817D03*
X0169108Y0330917D03*
X0169128Y0330937D03*
X0166528Y0330937D03*
X0195708Y0325137D03*
X0202308Y0331237D03*
D139*
X0202298Y0325137D03*
X0210018Y0330877D03*
D140*
X0210188Y0325137D03*
D141*
X0202298Y0325157D03*
X0185258Y0325157D03*
X0163678Y0329397D03*
D142*
X0167828Y0329857D03*
X0167828Y0328897D03*
X0178068Y0333897D03*
X0210188Y0325157D03*
D143*
X0212378Y0326217D03*
X0204438Y0329817D03*
X0172018Y0333577D03*
X0163638Y0333577D03*
X0163638Y0325177D03*
X0172018Y0325177D03*
D144*
X0171138Y0325977D03*
X0167838Y0325177D03*
X0164518Y0325977D03*
X0164518Y0332777D03*
X0181818Y0332317D03*
X0181838Y0332277D03*
X0181858Y0332237D03*
X0181838Y0329977D03*
X0181818Y0329937D03*
X0181798Y0329917D03*
X0181778Y0329877D03*
X0181758Y0329837D03*
X0183258Y0327677D03*
X0183238Y0327637D03*
X0183218Y0327617D03*
X0183178Y0326017D03*
X0183198Y0325977D03*
X0188018Y0326517D03*
X0188018Y0326537D03*
X0189638Y0328537D03*
X0189638Y0328577D03*
X0190478Y0329937D03*
X0187778Y0330237D03*
X0187758Y0330277D03*
X0194538Y0325637D03*
X0199718Y0326477D03*
X0199738Y0326437D03*
X0199758Y0326417D03*
X0199778Y0326377D03*
X0199798Y0326337D03*
X0199818Y0326317D03*
X0199878Y0329877D03*
X0199918Y0329917D03*
X0199918Y0329937D03*
X0199958Y0329977D03*
X0207858Y0330017D03*
X0207898Y0330077D03*
X0207938Y0330117D03*
X0207778Y0326217D03*
X0207798Y0326177D03*
X0207838Y0326137D03*
X0207878Y0326077D03*
X0212118Y0330037D03*
X0212098Y0330077D03*
X0212058Y0330117D03*
D145*
X0185858Y0328677D03*
X0185258Y0325177D03*
D146*
X0195688Y0325177D03*
D147*
X0202298Y0325177D03*
X0167838Y0329877D03*
D148*
X0210198Y0325177D03*
D149*
X0207888Y0326057D03*
X0207968Y0330157D03*
X0212028Y0330157D03*
X0199968Y0329997D03*
X0199828Y0326297D03*
X0194568Y0325597D03*
X0190488Y0329957D03*
X0190528Y0329997D03*
X0183268Y0327697D03*
X0183188Y0325997D03*
X0181728Y0329797D03*
X0181768Y0329857D03*
X0181828Y0332297D03*
X0181788Y0332357D03*
X0181768Y0332397D03*
X0171128Y0332757D03*
X0167828Y0333497D03*
X0167828Y0333557D03*
X0164528Y0332757D03*
X0167828Y0325257D03*
X0167828Y0325197D03*
X0171128Y0325997D03*
D150*
X0185258Y0325197D03*
D151*
X0202298Y0325197D03*
D152*
X0210188Y0325197D03*
X0185868Y0328657D03*
X0167828Y0328797D03*
X0167828Y0329957D03*
D153*
X0171978Y0333537D03*
X0163678Y0333537D03*
X0163678Y0325217D03*
X0171978Y0325217D03*
X0196878Y0325477D03*
X0204438Y0329837D03*
D154*
X0204428Y0330177D03*
X0207988Y0330177D03*
X0211988Y0330217D03*
X0207928Y0326017D03*
X0199888Y0326217D03*
X0199868Y0326237D03*
X0199988Y0330017D03*
X0192768Y0331377D03*
X0187728Y0330317D03*
X0187188Y0325637D03*
X0183228Y0325937D03*
X0183288Y0327717D03*
X0167828Y0325237D03*
X0167828Y0325217D03*
X0167828Y0333517D03*
X0167828Y0333537D03*
D155*
X0167838Y0329937D03*
X0185258Y0325217D03*
D156*
X0195668Y0325217D03*
D157*
X0202298Y0325217D03*
X0185258Y0325237D03*
D158*
X0185468Y0331137D03*
X0167828Y0329977D03*
X0167828Y0328777D03*
X0210188Y0325217D03*
D159*
X0171948Y0325237D03*
X0163708Y0325237D03*
D160*
X0185758Y0328817D03*
X0195658Y0325237D03*
X0202318Y0331217D03*
D161*
X0203348Y0325237D03*
X0192308Y0331077D03*
X0184148Y0330917D03*
X0170008Y0331737D03*
X0165648Y0331737D03*
X0165668Y0327017D03*
X0170008Y0327017D03*
D162*
X0209128Y0325237D03*
D163*
X0211228Y0325237D03*
X0192268Y0331037D03*
X0169888Y0327117D03*
X0165768Y0327117D03*
X0165768Y0331637D03*
D164*
X0164388Y0328997D03*
X0170068Y0326957D03*
X0170028Y0331757D03*
X0184188Y0325257D03*
X0187568Y0328257D03*
D165*
X0186358Y0325257D03*
X0191758Y0330797D03*
X0170138Y0331857D03*
D166*
X0195648Y0325257D03*
D167*
X0201168Y0325257D03*
X0170128Y0326897D03*
X0165528Y0326897D03*
X0165528Y0331857D03*
D168*
X0165418Y0326797D03*
X0203458Y0325257D03*
X0211038Y0330857D03*
D169*
X0209008Y0325257D03*
X0184148Y0328297D03*
D170*
X0211348Y0325257D03*
D171*
X0207958Y0325977D03*
X0204518Y0325937D03*
X0199958Y0326117D03*
X0199938Y0326137D03*
X0199918Y0326177D03*
X0200038Y0330077D03*
X0208018Y0330217D03*
X0208038Y0330237D03*
X0211938Y0330277D03*
X0212018Y0330177D03*
X0190598Y0330077D03*
X0190558Y0330037D03*
X0190538Y0330017D03*
X0189658Y0328677D03*
X0187998Y0326437D03*
X0187158Y0325617D03*
X0183258Y0325877D03*
X0183238Y0325917D03*
X0183298Y0327737D03*
X0183338Y0327777D03*
X0181718Y0329777D03*
X0181758Y0332417D03*
X0181738Y0332437D03*
X0171098Y0332737D03*
X0170938Y0329917D03*
X0171098Y0326017D03*
X0167838Y0325277D03*
X0164558Y0326017D03*
X0164718Y0329917D03*
X0164558Y0332737D03*
X0167838Y0333477D03*
D172*
X0165458Y0331917D03*
X0165438Y0331937D03*
X0164438Y0329777D03*
X0165438Y0326817D03*
X0170198Y0326837D03*
X0170218Y0326817D03*
X0180618Y0328937D03*
X0184098Y0325277D03*
X0187638Y0328237D03*
X0186898Y0330917D03*
X0191698Y0330777D03*
D173*
X0192428Y0331177D03*
X0186468Y0325277D03*
X0170308Y0326737D03*
X0210028Y0331377D03*
D174*
X0208938Y0325277D03*
X0203538Y0325277D03*
X0201078Y0330817D03*
X0184038Y0330877D03*
X0184078Y0328277D03*
X0180838Y0333177D03*
X0170318Y0332017D03*
X0165338Y0332017D03*
X0165358Y0326737D03*
D175*
X0170228Y0331937D03*
X0211428Y0325277D03*
D176*
X0183558Y0330497D03*
X0163778Y0325297D03*
D177*
X0164608Y0326057D03*
X0167828Y0325357D03*
X0167828Y0325297D03*
X0167828Y0331997D03*
X0167828Y0333397D03*
X0167828Y0333457D03*
X0181728Y0332457D03*
X0181628Y0329657D03*
X0183348Y0327797D03*
X0187128Y0325597D03*
X0187988Y0326397D03*
X0187988Y0328097D03*
X0189668Y0328757D03*
X0190608Y0330097D03*
X0187668Y0330397D03*
X0200108Y0330157D03*
X0200148Y0330197D03*
X0199968Y0326097D03*
X0200008Y0326057D03*
X0204428Y0330197D03*
X0208048Y0330257D03*
X0208088Y0330297D03*
X0211928Y0330297D03*
X0208028Y0325897D03*
D178*
X0211498Y0325297D03*
X0192458Y0331197D03*
X0170358Y0332057D03*
X0165298Y0332057D03*
D179*
X0167828Y0333417D03*
X0167828Y0333437D03*
X0170948Y0328837D03*
X0171068Y0326037D03*
X0167828Y0325337D03*
X0167828Y0325317D03*
X0164588Y0326037D03*
X0164708Y0328837D03*
X0181648Y0329677D03*
X0181688Y0329737D03*
X0183368Y0327817D03*
X0183288Y0325837D03*
X0183308Y0325817D03*
X0187988Y0326417D03*
X0189668Y0328717D03*
X0189668Y0328737D03*
X0187648Y0330417D03*
X0187628Y0330437D03*
X0181708Y0332477D03*
X0181688Y0332517D03*
X0181668Y0332537D03*
X0200088Y0330137D03*
X0200128Y0330177D03*
X0199988Y0326077D03*
X0200028Y0326037D03*
X0204508Y0325917D03*
X0207988Y0325937D03*
X0208008Y0325917D03*
X0208068Y0330277D03*
X0208108Y0330317D03*
X0208128Y0330337D03*
X0211908Y0330317D03*
X0212388Y0325877D03*
D180*
X0203628Y0330777D03*
X0183968Y0325317D03*
X0165288Y0326677D03*
D181*
X0186598Y0325317D03*
X0189898Y0329577D03*
X0203698Y0325337D03*
D182*
X0200978Y0325317D03*
X0192478Y0331217D03*
X0187018Y0330877D03*
X0171158Y0328937D03*
X0170418Y0326637D03*
X0165238Y0326637D03*
X0164498Y0328937D03*
X0165238Y0332117D03*
X0170418Y0332117D03*
D183*
X0170488Y0332177D03*
X0165168Y0332177D03*
X0170488Y0326577D03*
X0180848Y0329037D03*
X0183968Y0328237D03*
X0180968Y0333117D03*
X0189908Y0329617D03*
X0192508Y0331237D03*
X0200968Y0330777D03*
X0203648Y0325317D03*
X0211608Y0325337D03*
D184*
X0208818Y0325317D03*
X0208838Y0330817D03*
X0200918Y0325337D03*
X0189918Y0329637D03*
X0183918Y0325337D03*
X0171138Y0329817D03*
X0167838Y0326477D03*
X0165178Y0326577D03*
X0164518Y0329817D03*
D185*
X0165208Y0332137D03*
X0167828Y0332177D03*
X0167828Y0332217D03*
X0167828Y0332237D03*
X0170448Y0332137D03*
X0170448Y0326617D03*
X0167828Y0326577D03*
X0167828Y0326537D03*
X0167828Y0326517D03*
X0165228Y0326617D03*
X0180808Y0329017D03*
X0180928Y0333137D03*
X0191528Y0330717D03*
X0211188Y0330817D03*
X0211548Y0325317D03*
D186*
X0204508Y0326217D03*
X0171848Y0325337D03*
X0170708Y0328717D03*
X0164948Y0328717D03*
X0163808Y0333417D03*
X0171848Y0333417D03*
D187*
X0170658Y0332337D03*
X0167838Y0332637D03*
X0165018Y0332317D03*
X0164998Y0332337D03*
X0164998Y0326417D03*
X0167838Y0326117D03*
X0170658Y0326417D03*
X0181038Y0329137D03*
X0183918Y0330817D03*
X0181138Y0333017D03*
X0183758Y0325417D03*
X0187818Y0325977D03*
X0189838Y0329417D03*
X0194898Y0325337D03*
X0200718Y0325437D03*
X0203898Y0330637D03*
D188*
X0196668Y0325337D03*
X0183668Y0330617D03*
X0171468Y0325677D03*
X0164188Y0325677D03*
X0212388Y0326017D03*
D189*
X0208778Y0325337D03*
X0203718Y0330737D03*
X0191438Y0330677D03*
D190*
X0204438Y0329897D03*
X0171818Y0333397D03*
X0167838Y0331797D03*
X0163838Y0333397D03*
X0163838Y0325357D03*
X0171818Y0325357D03*
D191*
X0167828Y0326357D03*
X0167828Y0332397D03*
X0181008Y0333097D03*
X0180888Y0329057D03*
X0183868Y0325357D03*
X0189888Y0329557D03*
X0208788Y0330797D03*
X0211248Y0330797D03*
X0211648Y0325357D03*
D192*
X0189848Y0329457D03*
X0187808Y0325957D03*
X0186708Y0325357D03*
D193*
X0183688Y0325457D03*
X0187848Y0328157D03*
X0187268Y0330757D03*
X0192608Y0331297D03*
X0194848Y0325357D03*
X0208548Y0325457D03*
X0211848Y0325457D03*
D194*
X0200878Y0325357D03*
X0200918Y0330757D03*
X0170518Y0332197D03*
X0167838Y0332357D03*
X0167838Y0326397D03*
D195*
X0167838Y0326297D03*
X0167838Y0332457D03*
X0170578Y0332257D03*
X0187778Y0325897D03*
X0191398Y0330657D03*
X0192538Y0331257D03*
X0203798Y0330697D03*
X0203738Y0325357D03*
X0208738Y0325357D03*
D196*
X0208108Y0325817D03*
X0204428Y0325837D03*
X0204408Y0325817D03*
X0200128Y0325917D03*
X0200108Y0325937D03*
X0200268Y0330317D03*
X0204408Y0330217D03*
X0208168Y0330377D03*
X0208208Y0330417D03*
X0211788Y0330437D03*
X0211808Y0330417D03*
X0211848Y0330377D03*
X0212328Y0325817D03*
X0189688Y0328837D03*
X0187968Y0326337D03*
X0183388Y0325717D03*
X0183368Y0325737D03*
X0183428Y0327877D03*
X0181568Y0329577D03*
X0181528Y0329537D03*
X0183808Y0330737D03*
X0181608Y0332617D03*
X0181588Y0332637D03*
X0171028Y0326077D03*
X0167828Y0325437D03*
X0167828Y0325417D03*
X0167828Y0325377D03*
X0167828Y0326737D03*
X0164628Y0326077D03*
X0167828Y0333317D03*
X0167828Y0333337D03*
D197*
X0167838Y0334777D03*
X0163898Y0333337D03*
X0167838Y0326937D03*
X0171798Y0325377D03*
X0204438Y0329917D03*
D198*
X0200758Y0330677D03*
X0200658Y0325477D03*
X0203858Y0325417D03*
X0203898Y0325437D03*
X0208578Y0325437D03*
X0208618Y0325417D03*
X0208658Y0330737D03*
X0187838Y0326017D03*
X0186758Y0325377D03*
X0183758Y0328137D03*
X0181098Y0329177D03*
X0170698Y0326377D03*
X0167838Y0326017D03*
X0164958Y0326377D03*
X0164958Y0332377D03*
X0167838Y0332737D03*
D199*
X0170558Y0332237D03*
X0171118Y0328917D03*
X0165098Y0332237D03*
X0181038Y0333077D03*
X0183958Y0330837D03*
X0187118Y0330837D03*
X0189878Y0329537D03*
X0180938Y0329077D03*
X0200838Y0325377D03*
D200*
X0203778Y0325377D03*
D201*
X0208698Y0325377D03*
X0208738Y0330777D03*
X0203838Y0330677D03*
X0191318Y0330617D03*
X0189858Y0329477D03*
X0187158Y0330817D03*
X0187798Y0325937D03*
X0170598Y0332277D03*
X0165058Y0332277D03*
X0164558Y0329837D03*
D202*
X0163878Y0333357D03*
X0171778Y0333357D03*
X0171778Y0325397D03*
X0163878Y0325397D03*
X0204518Y0326197D03*
D203*
X0204388Y0325797D03*
X0208128Y0325797D03*
X0212308Y0325797D03*
X0211828Y0330397D03*
X0208188Y0330397D03*
X0200248Y0330297D03*
X0200088Y0325957D03*
X0200148Y0325897D03*
X0189688Y0328857D03*
X0187588Y0330497D03*
X0187968Y0326357D03*
X0187068Y0325557D03*
X0183348Y0325757D03*
X0183408Y0327857D03*
X0181548Y0329557D03*
X0181628Y0332597D03*
X0171008Y0326097D03*
X0167828Y0325397D03*
X0164648Y0326097D03*
X0164648Y0332657D03*
X0167828Y0333297D03*
X0167828Y0333357D03*
D204*
X0170618Y0332297D03*
X0165038Y0332297D03*
X0165038Y0326457D03*
X0170618Y0326457D03*
X0183798Y0325397D03*
X0200798Y0325397D03*
D205*
X0189798Y0329297D03*
X0187858Y0326057D03*
X0186798Y0325397D03*
D206*
X0194778Y0325397D03*
X0204078Y0325557D03*
D207*
X0203818Y0325397D03*
X0208658Y0325397D03*
X0208698Y0330757D03*
X0200798Y0330697D03*
X0191278Y0330597D03*
X0187198Y0330797D03*
D208*
X0203868Y0330657D03*
X0211328Y0330757D03*
X0211728Y0325397D03*
X0167828Y0326157D03*
X0167828Y0326197D03*
X0167828Y0332557D03*
X0167828Y0332597D03*
D209*
X0181408Y0332817D03*
X0181308Y0329337D03*
X0183608Y0328037D03*
X0187908Y0326177D03*
X0189748Y0329117D03*
X0194748Y0325417D03*
X0200508Y0330517D03*
X0204108Y0325577D03*
D210*
X0200768Y0325417D03*
X0200828Y0330717D03*
X0192568Y0331277D03*
X0183828Y0328177D03*
X0170628Y0326437D03*
X0167828Y0326637D03*
X0167828Y0326177D03*
X0167828Y0326137D03*
X0165028Y0326437D03*
X0167828Y0332117D03*
X0167828Y0332577D03*
X0167828Y0332617D03*
D211*
X0167828Y0332677D03*
X0167828Y0332717D03*
X0167828Y0326077D03*
X0167828Y0326037D03*
X0183728Y0325437D03*
X0187228Y0330777D03*
X0189828Y0329377D03*
X0191248Y0330577D03*
X0202308Y0331417D03*
X0203948Y0330617D03*
X0211368Y0330737D03*
X0211808Y0325437D03*
X0211768Y0325417D03*
D212*
X0204518Y0326177D03*
X0204438Y0329937D03*
X0171738Y0333317D03*
X0163918Y0333317D03*
X0171738Y0325437D03*
D213*
X0183578Y0325537D03*
X0186878Y0325437D03*
X0187378Y0330677D03*
D214*
X0187448Y0330617D03*
X0189728Y0329037D03*
X0189728Y0329017D03*
X0190888Y0330337D03*
X0187928Y0326237D03*
X0187928Y0326217D03*
X0186948Y0325477D03*
X0183488Y0325617D03*
X0183468Y0325637D03*
X0183528Y0327977D03*
X0181408Y0329417D03*
X0170928Y0332577D03*
X0167828Y0332037D03*
X0167828Y0333117D03*
X0167828Y0333137D03*
X0167828Y0333177D03*
X0164728Y0332577D03*
X0167828Y0325637D03*
X0167828Y0325617D03*
X0167828Y0325577D03*
X0170928Y0326177D03*
X0194728Y0325437D03*
X0200308Y0325737D03*
X0200328Y0325717D03*
X0204168Y0325617D03*
X0204188Y0325637D03*
X0204388Y0330277D03*
X0200448Y0330477D03*
X0208348Y0330537D03*
X0211668Y0330537D03*
X0212168Y0325677D03*
D215*
X0212388Y0326097D03*
X0171708Y0325457D03*
X0163948Y0325457D03*
D216*
X0167838Y0325457D03*
X0171018Y0332657D03*
X0183438Y0327897D03*
X0190718Y0330197D03*
X0192718Y0331357D03*
X0204338Y0325757D03*
D217*
X0200408Y0325657D03*
X0208348Y0325597D03*
X0189748Y0329097D03*
X0187408Y0330657D03*
X0186908Y0325457D03*
D218*
X0186978Y0325497D03*
X0187938Y0326257D03*
X0189718Y0328997D03*
X0190838Y0330297D03*
X0187478Y0330597D03*
X0194698Y0325457D03*
X0204218Y0325657D03*
X0208278Y0325657D03*
X0212198Y0325697D03*
X0211718Y0330497D03*
X0208298Y0330497D03*
X0170998Y0328857D03*
X0170938Y0326157D03*
X0167838Y0325557D03*
X0164718Y0326157D03*
X0164718Y0332597D03*
X0167838Y0333197D03*
X0170958Y0332597D03*
D219*
X0171938Y0333497D03*
X0167838Y0335057D03*
X0163718Y0333497D03*
X0196858Y0325457D03*
X0204438Y0329857D03*
D220*
X0200688Y0325457D03*
X0191208Y0330557D03*
X0189828Y0329397D03*
X0187828Y0325997D03*
X0183788Y0328157D03*
X0181068Y0329157D03*
X0181168Y0332997D03*
X0170688Y0332357D03*
X0167828Y0332097D03*
X0167828Y0332657D03*
X0167828Y0332697D03*
X0164968Y0332357D03*
X0164588Y0328897D03*
X0164988Y0326397D03*
X0167828Y0326097D03*
X0167828Y0326057D03*
X0170688Y0326397D03*
X0171068Y0328897D03*
D221*
X0170728Y0326357D03*
X0167828Y0326657D03*
X0167828Y0325997D03*
X0167828Y0325957D03*
X0167828Y0332757D03*
X0167828Y0332797D03*
X0170728Y0332397D03*
X0164928Y0332397D03*
X0181128Y0329197D03*
X0200628Y0325497D03*
X0203928Y0325457D03*
X0204028Y0330557D03*
D222*
X0171688Y0325477D03*
X0170748Y0328737D03*
X0164908Y0328737D03*
X0163968Y0325477D03*
X0163968Y0333277D03*
D223*
X0167828Y0333277D03*
X0167828Y0333237D03*
X0167828Y0333217D03*
X0167828Y0325537D03*
X0167828Y0325517D03*
X0167828Y0325477D03*
X0183428Y0325677D03*
X0200228Y0325817D03*
X0200328Y0330377D03*
X0212228Y0325717D03*
D224*
X0208548Y0330677D03*
X0204088Y0330517D03*
X0200648Y0330617D03*
X0200568Y0325537D03*
X0203968Y0325477D03*
X0187868Y0326077D03*
X0183668Y0325477D03*
X0183728Y0328117D03*
X0181188Y0329237D03*
X0181288Y0332917D03*
X0187288Y0330737D03*
X0170768Y0332437D03*
X0167828Y0332077D03*
X0167828Y0332837D03*
X0167828Y0332877D03*
X0164888Y0332437D03*
X0164888Y0326317D03*
X0167828Y0326677D03*
X0167828Y0325917D03*
X0167828Y0325877D03*
X0170768Y0326317D03*
D225*
X0167838Y0332017D03*
X0187538Y0330537D03*
X0190738Y0330217D03*
X0187038Y0325537D03*
X0194678Y0325477D03*
X0200278Y0330337D03*
X0204318Y0325737D03*
X0208138Y0325777D03*
X0208238Y0330437D03*
X0208278Y0330477D03*
D226*
X0208518Y0325477D03*
X0211878Y0325477D03*
X0200678Y0330637D03*
X0191138Y0330517D03*
X0167838Y0332817D03*
X0164918Y0326337D03*
D227*
X0167828Y0325497D03*
X0167828Y0333257D03*
X0181528Y0332697D03*
X0187528Y0330557D03*
X0208228Y0325697D03*
D228*
X0203998Y0325497D03*
X0200538Y0325557D03*
X0200618Y0330597D03*
X0204118Y0330497D03*
X0208518Y0330657D03*
X0187878Y0326097D03*
X0183638Y0325497D03*
X0183698Y0328097D03*
X0181218Y0329257D03*
X0181318Y0332897D03*
X0170798Y0332457D03*
X0164858Y0332457D03*
D229*
X0189698Y0328897D03*
X0194658Y0325497D03*
X0208158Y0325757D03*
X0208258Y0330457D03*
X0211758Y0330457D03*
D230*
X0211908Y0325497D03*
X0208488Y0325497D03*
X0191108Y0330497D03*
X0189788Y0329257D03*
X0183888Y0330797D03*
X0170788Y0326297D03*
X0167828Y0325897D03*
X0167828Y0325857D03*
X0164868Y0326297D03*
X0167828Y0332857D03*
X0167828Y0332897D03*
D231*
X0164038Y0333217D03*
X0171638Y0333217D03*
X0171618Y0325537D03*
X0164038Y0325537D03*
X0164018Y0325517D03*
X0204518Y0326137D03*
X0204438Y0329977D03*
D232*
X0204188Y0330437D03*
X0200588Y0330577D03*
X0200508Y0325577D03*
X0204028Y0325517D03*
X0204048Y0325537D03*
X0208428Y0325537D03*
X0211968Y0325537D03*
X0208488Y0330637D03*
X0189768Y0329177D03*
X0187888Y0326117D03*
X0183608Y0325517D03*
X0183668Y0328077D03*
X0181248Y0329277D03*
X0181348Y0332877D03*
X0167828Y0332937D03*
X0167828Y0332977D03*
X0167828Y0325817D03*
X0167828Y0325777D03*
X0164848Y0326277D03*
D233*
X0164688Y0326137D03*
X0164668Y0326117D03*
X0170968Y0326137D03*
X0170988Y0326117D03*
X0170968Y0332617D03*
X0164688Y0332617D03*
X0164668Y0332637D03*
X0181548Y0332677D03*
X0181508Y0329517D03*
X0181468Y0329477D03*
X0183488Y0327937D03*
X0187008Y0325517D03*
X0187948Y0326277D03*
X0187948Y0328117D03*
X0189708Y0328937D03*
X0190768Y0330237D03*
X0190808Y0330277D03*
X0200208Y0325837D03*
X0200268Y0325777D03*
X0204288Y0325717D03*
X0208188Y0325737D03*
X0208208Y0325717D03*
X0212248Y0325737D03*
X0211748Y0330477D03*
X0204408Y0330237D03*
X0202308Y0331437D03*
D234*
X0200218Y0330277D03*
X0200178Y0330237D03*
X0200158Y0330217D03*
X0200038Y0326017D03*
X0200078Y0325977D03*
X0204478Y0325877D03*
X0208038Y0325877D03*
X0208078Y0325837D03*
X0212358Y0325837D03*
X0211878Y0330337D03*
X0210018Y0331437D03*
X0194638Y0325517D03*
X0194618Y0325537D03*
X0189678Y0328777D03*
X0189678Y0328817D03*
X0190638Y0330117D03*
X0190658Y0330137D03*
X0190698Y0330177D03*
X0187598Y0330477D03*
X0187978Y0326377D03*
X0187098Y0325577D03*
X0183338Y0325777D03*
X0183378Y0327837D03*
X0181598Y0329617D03*
X0181618Y0329637D03*
X0181638Y0332577D03*
X0171038Y0332677D03*
X0167838Y0333377D03*
X0164618Y0332677D03*
D235*
X0167828Y0335377D03*
X0167828Y0327017D03*
X0196928Y0325517D03*
D236*
X0200598Y0325517D03*
X0204058Y0330537D03*
X0189798Y0329277D03*
X0181158Y0329217D03*
X0181258Y0332937D03*
X0170758Y0332417D03*
D237*
X0170798Y0328757D03*
X0164858Y0328757D03*
X0164058Y0325557D03*
X0204438Y0329997D03*
D238*
X0171608Y0333197D03*
X0164048Y0333197D03*
X0171608Y0325557D03*
D239*
X0170838Y0332497D03*
X0167838Y0332057D03*
X0164818Y0332497D03*
X0181358Y0332857D03*
X0183638Y0328057D03*
X0183558Y0325557D03*
X0187898Y0326157D03*
X0189758Y0329157D03*
X0200558Y0330557D03*
X0204238Y0330397D03*
X0208398Y0325557D03*
X0211998Y0325557D03*
D240*
X0171578Y0325577D03*
X0164078Y0325577D03*
X0164078Y0333177D03*
X0171578Y0333177D03*
D241*
X0170888Y0332537D03*
X0167828Y0333017D03*
X0167828Y0333037D03*
X0167828Y0333077D03*
X0167828Y0325717D03*
X0167828Y0325677D03*
X0170868Y0326217D03*
X0164788Y0326217D03*
X0181388Y0332837D03*
X0183528Y0325577D03*
X0200428Y0325637D03*
X0200528Y0330537D03*
X0204268Y0330377D03*
X0208368Y0325577D03*
X0212028Y0325577D03*
X0211568Y0330617D03*
D242*
X0211978Y0330237D03*
X0200078Y0330117D03*
X0194578Y0325577D03*
X0187678Y0330377D03*
X0183778Y0330717D03*
X0181678Y0329717D03*
X0181778Y0332377D03*
X0171078Y0332717D03*
X0164578Y0332717D03*
D243*
X0171558Y0325597D03*
X0204518Y0326097D03*
D244*
X0200488Y0325597D03*
X0204168Y0330457D03*
X0211508Y0330657D03*
X0191048Y0330457D03*
X0189768Y0329197D03*
X0187348Y0330697D03*
X0181268Y0329297D03*
X0170828Y0326257D03*
X0167828Y0325797D03*
X0167828Y0325757D03*
X0164828Y0326257D03*
X0167828Y0332957D03*
X0167828Y0332997D03*
D245*
X0181808Y0332337D03*
X0181748Y0329817D03*
X0187708Y0330337D03*
X0189648Y0328637D03*
X0189648Y0328617D03*
X0190508Y0329977D03*
X0188008Y0326477D03*
X0194548Y0325617D03*
X0199848Y0326277D03*
X0200008Y0330037D03*
X0207948Y0330137D03*
X0207848Y0326117D03*
X0207908Y0326037D03*
X0212048Y0330137D03*
D246*
X0211538Y0330637D03*
X0208458Y0330617D03*
X0204218Y0330417D03*
X0200458Y0325617D03*
X0191018Y0330437D03*
X0190998Y0330417D03*
X0189758Y0329137D03*
X0187898Y0328137D03*
X0187898Y0326137D03*
X0183858Y0330777D03*
X0181298Y0329317D03*
X0171018Y0329877D03*
X0170858Y0332517D03*
X0164798Y0332517D03*
X0164638Y0329877D03*
X0164798Y0326237D03*
X0167838Y0325737D03*
X0170858Y0326237D03*
D247*
X0164738Y0326177D03*
X0164778Y0332537D03*
X0181458Y0332777D03*
X0181358Y0329377D03*
X0183578Y0328017D03*
X0187438Y0330637D03*
X0189738Y0329077D03*
X0190938Y0330377D03*
X0192678Y0331337D03*
X0200378Y0325677D03*
X0204338Y0330317D03*
X0204318Y0330337D03*
X0208398Y0330577D03*
X0211618Y0330577D03*
X0212118Y0325637D03*
X0212098Y0325617D03*
X0208318Y0325617D03*
X0208298Y0325637D03*
D248*
X0208428Y0330597D03*
X0211588Y0330597D03*
X0204288Y0330357D03*
X0190968Y0330397D03*
X0167828Y0333057D03*
X0167828Y0326697D03*
X0167828Y0325697D03*
X0167828Y0325657D03*
D249*
X0171498Y0325657D03*
X0171498Y0333097D03*
X0164158Y0333097D03*
D250*
X0164668Y0329897D03*
X0170988Y0329897D03*
X0181448Y0329457D03*
X0181488Y0329497D03*
X0183508Y0327957D03*
X0183408Y0325697D03*
X0183448Y0325657D03*
X0187948Y0326297D03*
X0189708Y0328957D03*
X0190788Y0330257D03*
X0185608Y0331557D03*
X0181568Y0332657D03*
X0200308Y0330357D03*
X0200348Y0330397D03*
X0200188Y0325857D03*
X0200248Y0325797D03*
X0204268Y0325697D03*
X0212268Y0325757D03*
D251*
X0212008Y0330197D03*
X0199848Y0326257D03*
X0189648Y0328597D03*
X0188008Y0326497D03*
X0187208Y0325657D03*
X0183248Y0325897D03*
X0183208Y0325957D03*
X0183248Y0327657D03*
X0164548Y0325997D03*
D252*
X0164498Y0325957D03*
X0181798Y0329897D03*
X0181878Y0332197D03*
X0181838Y0332257D03*
X0187738Y0330297D03*
X0189638Y0328557D03*
X0194498Y0325697D03*
X0194518Y0325657D03*
X0199798Y0326357D03*
X0199898Y0329897D03*
X0199938Y0329957D03*
X0207918Y0330097D03*
X0207818Y0326157D03*
X0207858Y0326097D03*
X0212398Y0325897D03*
X0212078Y0330097D03*
X0183158Y0326057D03*
D253*
X0181438Y0329437D03*
X0181518Y0332717D03*
X0181498Y0332737D03*
X0187498Y0330577D03*
X0189718Y0328977D03*
X0190858Y0330317D03*
X0200378Y0330417D03*
X0200398Y0330437D03*
X0204238Y0325677D03*
X0208258Y0325677D03*
X0208318Y0330517D03*
X0211698Y0330517D03*
X0167838Y0326717D03*
D254*
X0171448Y0325697D03*
X0164208Y0325697D03*
X0164208Y0333057D03*
X0171448Y0333057D03*
D255*
X0167838Y0333657D03*
X0181918Y0332097D03*
X0181938Y0332057D03*
X0181958Y0331997D03*
X0181978Y0331957D03*
X0181938Y0330197D03*
X0181918Y0330157D03*
X0181898Y0330097D03*
X0181878Y0330057D03*
X0183758Y0330697D03*
X0183158Y0327497D03*
X0183138Y0327457D03*
X0183078Y0326257D03*
X0183098Y0326197D03*
X0183118Y0326157D03*
X0187258Y0325697D03*
X0188038Y0326597D03*
X0189618Y0328397D03*
X0190358Y0329797D03*
X0187878Y0330057D03*
X0187858Y0330097D03*
X0194458Y0325757D03*
X0199538Y0326857D03*
X0199558Y0326797D03*
X0199578Y0326757D03*
X0199598Y0326697D03*
X0199618Y0326657D03*
X0199658Y0326597D03*
X0199678Y0326557D03*
X0199738Y0329657D03*
X0199758Y0329697D03*
X0199798Y0329757D03*
X0207718Y0329797D03*
X0207758Y0329857D03*
X0207778Y0329897D03*
X0207638Y0326457D03*
X0207698Y0326357D03*
X0212258Y0329797D03*
X0212238Y0329857D03*
D256*
X0212238Y0329837D03*
X0212258Y0329817D03*
X0212278Y0329777D03*
X0212298Y0329737D03*
X0212218Y0329877D03*
X0212198Y0329917D03*
X0207758Y0329877D03*
X0207738Y0329837D03*
X0207698Y0329777D03*
X0207678Y0329737D03*
X0207658Y0326417D03*
X0207678Y0326377D03*
X0207698Y0326337D03*
X0207718Y0326317D03*
X0207738Y0326277D03*
X0199638Y0326637D03*
X0199618Y0326677D03*
X0199598Y0326717D03*
X0199558Y0326817D03*
X0199698Y0329577D03*
X0199718Y0329617D03*
X0199758Y0329677D03*
X0199778Y0329717D03*
X0194458Y0325777D03*
X0194478Y0325737D03*
X0189618Y0328377D03*
X0189618Y0328417D03*
X0189618Y0328437D03*
X0190378Y0329817D03*
X0190398Y0329837D03*
X0190418Y0329877D03*
X0187838Y0330137D03*
X0187818Y0330177D03*
X0188038Y0326637D03*
X0188038Y0326617D03*
X0187278Y0325717D03*
X0183118Y0326137D03*
X0183098Y0326177D03*
X0183078Y0326237D03*
X0183178Y0327537D03*
X0181858Y0330017D03*
X0181898Y0330117D03*
X0181918Y0330137D03*
X0181938Y0330177D03*
X0181958Y0332017D03*
X0181938Y0332037D03*
X0181938Y0332077D03*
X0181918Y0332117D03*
X0171198Y0332817D03*
X0170918Y0328817D03*
X0164738Y0328817D03*
X0164478Y0325937D03*
D257*
X0164448Y0325917D03*
X0171208Y0325917D03*
X0171208Y0332837D03*
X0164448Y0332837D03*
X0181968Y0331977D03*
X0181988Y0331937D03*
X0181988Y0331917D03*
X0182008Y0331877D03*
X0182008Y0331837D03*
X0181988Y0330337D03*
X0181988Y0330317D03*
X0181968Y0330277D03*
X0181948Y0330237D03*
X0181948Y0330217D03*
X0183148Y0327477D03*
X0183108Y0327377D03*
X0183088Y0327337D03*
X0183088Y0327317D03*
X0183048Y0326337D03*
X0183068Y0326277D03*
X0183088Y0326217D03*
X0187308Y0325737D03*
X0187348Y0325777D03*
X0188048Y0326677D03*
X0189608Y0328277D03*
X0189608Y0328317D03*
X0189608Y0328337D03*
X0190348Y0329777D03*
X0187888Y0330037D03*
X0187868Y0330077D03*
X0187848Y0330117D03*
X0194408Y0325877D03*
X0199448Y0327117D03*
X0199468Y0327037D03*
X0199488Y0326977D03*
X0199508Y0326937D03*
X0199508Y0326917D03*
X0199548Y0326837D03*
X0199568Y0326777D03*
X0199588Y0326737D03*
X0199568Y0329317D03*
X0199608Y0329417D03*
X0199648Y0329477D03*
X0199668Y0329517D03*
X0199668Y0329537D03*
X0207568Y0329517D03*
X0207648Y0329677D03*
X0207668Y0329717D03*
X0207548Y0326637D03*
X0207568Y0326577D03*
X0207588Y0326537D03*
X0207608Y0326517D03*
X0207648Y0326437D03*
X0212388Y0325917D03*
X0212388Y0329537D03*
X0212368Y0329577D03*
X0212348Y0329617D03*
X0212348Y0329637D03*
X0212308Y0329717D03*
D258*
X0171398Y0332997D03*
X0164278Y0332997D03*
X0164278Y0325757D03*
X0171378Y0325757D03*
D259*
X0170998Y0332637D03*
X0183458Y0327917D03*
X0187958Y0326317D03*
X0189698Y0328877D03*
X0189698Y0328917D03*
X0187558Y0330517D03*
X0200158Y0325877D03*
X0204358Y0325777D03*
X0212298Y0325777D03*
D260*
X0212368Y0329597D03*
X0212308Y0329697D03*
X0212288Y0329757D03*
X0207688Y0329757D03*
X0207608Y0329597D03*
X0207588Y0329557D03*
X0207568Y0326597D03*
X0207588Y0326557D03*
X0207608Y0326497D03*
X0207668Y0326397D03*
X0199508Y0326957D03*
X0199488Y0326997D03*
X0199468Y0327057D03*
X0199588Y0329357D03*
X0199608Y0329397D03*
X0199648Y0329497D03*
X0199688Y0329557D03*
X0199708Y0329597D03*
X0194448Y0325797D03*
X0189608Y0328297D03*
X0189608Y0328357D03*
X0188048Y0326657D03*
X0187908Y0329997D03*
X0183108Y0327397D03*
X0183048Y0326357D03*
X0183068Y0326297D03*
X0181968Y0330257D03*
X0182008Y0330397D03*
X0182048Y0331697D03*
X0182008Y0331857D03*
X0181988Y0331897D03*
D261*
X0182098Y0330877D03*
X0187998Y0329737D03*
X0188018Y0329677D03*
X0188018Y0329637D03*
X0188038Y0329617D03*
X0188038Y0329577D03*
X0188058Y0329477D03*
X0189578Y0328037D03*
X0189578Y0328017D03*
X0189578Y0327977D03*
X0189578Y0327937D03*
X0189578Y0327917D03*
X0189578Y0327877D03*
X0188078Y0326877D03*
X0188078Y0326837D03*
X0194298Y0326837D03*
X0194298Y0326817D03*
X0194298Y0326777D03*
X0194298Y0326737D03*
X0194298Y0326717D03*
X0194298Y0326677D03*
X0194298Y0326637D03*
X0194298Y0326617D03*
X0194298Y0326577D03*
X0194298Y0326537D03*
X0194298Y0326517D03*
X0194298Y0326477D03*
X0194298Y0326437D03*
X0194318Y0326277D03*
X0194318Y0326237D03*
X0194318Y0326217D03*
X0194338Y0326137D03*
X0194338Y0326117D03*
X0194358Y0326037D03*
X0194298Y0326877D03*
X0194298Y0326917D03*
X0194298Y0326937D03*
X0194298Y0326977D03*
X0194298Y0327017D03*
X0194298Y0327037D03*
X0194298Y0327077D03*
X0194298Y0327117D03*
X0194298Y0327137D03*
X0194298Y0327177D03*
X0194298Y0327217D03*
X0194298Y0327237D03*
X0194298Y0327277D03*
X0194298Y0327317D03*
X0194298Y0327337D03*
X0194298Y0327377D03*
X0194298Y0327417D03*
X0194298Y0327437D03*
X0194298Y0327477D03*
X0194298Y0327517D03*
X0194298Y0327537D03*
X0194298Y0327577D03*
X0194298Y0327617D03*
X0194298Y0327637D03*
X0194298Y0327677D03*
X0194298Y0327717D03*
X0194298Y0327737D03*
X0194298Y0327777D03*
X0194298Y0327817D03*
X0194298Y0327837D03*
X0194298Y0327877D03*
X0194298Y0327917D03*
X0194298Y0327937D03*
X0194298Y0327977D03*
X0194298Y0328017D03*
X0194298Y0328037D03*
X0194298Y0328077D03*
X0194298Y0328117D03*
X0194298Y0328137D03*
X0194298Y0328177D03*
X0194298Y0328217D03*
X0194298Y0328237D03*
X0194298Y0328277D03*
X0194298Y0328317D03*
X0194298Y0328337D03*
X0194298Y0328377D03*
X0194298Y0328417D03*
X0194298Y0328437D03*
X0194298Y0328477D03*
X0194298Y0328517D03*
X0194298Y0328537D03*
X0194298Y0328577D03*
X0194298Y0328617D03*
X0194298Y0328637D03*
X0194298Y0328677D03*
X0194298Y0328717D03*
X0194298Y0328737D03*
X0194298Y0328777D03*
X0194298Y0328817D03*
X0194298Y0328837D03*
X0194298Y0328877D03*
X0194298Y0328917D03*
X0194298Y0328937D03*
X0194298Y0328977D03*
X0194298Y0329017D03*
X0194298Y0329037D03*
X0194298Y0329077D03*
X0194298Y0329117D03*
X0194298Y0329137D03*
X0194298Y0329177D03*
X0194298Y0329217D03*
X0194298Y0329237D03*
X0194298Y0329277D03*
X0194298Y0329317D03*
X0194298Y0329337D03*
X0194298Y0329377D03*
X0194298Y0329417D03*
X0194298Y0329437D03*
X0194298Y0329477D03*
X0194298Y0329517D03*
X0194298Y0329537D03*
X0194298Y0329577D03*
X0194298Y0329617D03*
X0194298Y0329637D03*
X0194298Y0329677D03*
X0194298Y0329717D03*
X0194298Y0329737D03*
X0194298Y0329777D03*
X0194298Y0329817D03*
X0194298Y0329837D03*
X0194298Y0329877D03*
X0194298Y0329917D03*
X0194298Y0329937D03*
X0194298Y0329977D03*
X0194298Y0330017D03*
X0194298Y0330037D03*
X0194298Y0330077D03*
X0194298Y0330117D03*
X0194298Y0330137D03*
X0194298Y0330177D03*
X0194298Y0330217D03*
X0194298Y0330237D03*
X0194298Y0330277D03*
X0194298Y0330317D03*
X0194298Y0330337D03*
X0194298Y0330377D03*
X0194298Y0330417D03*
X0194298Y0330437D03*
X0194298Y0330477D03*
X0194298Y0330517D03*
X0194298Y0330537D03*
X0194298Y0330577D03*
X0194298Y0330617D03*
X0194298Y0330637D03*
X0194298Y0330677D03*
X0194298Y0330717D03*
X0194298Y0330737D03*
X0194298Y0330777D03*
X0194298Y0330817D03*
X0194298Y0330837D03*
X0194298Y0331477D03*
X0194298Y0331517D03*
X0194298Y0331537D03*
X0194298Y0331577D03*
X0194298Y0331617D03*
X0194298Y0331637D03*
X0194298Y0331677D03*
X0194298Y0331717D03*
X0194298Y0331737D03*
X0194298Y0331777D03*
X0194298Y0331817D03*
X0194298Y0331837D03*
X0194298Y0331877D03*
X0194298Y0331917D03*
X0194298Y0331937D03*
X0194298Y0331977D03*
X0194298Y0332017D03*
X0194298Y0332037D03*
X0194298Y0332077D03*
X0194298Y0332117D03*
X0194298Y0332137D03*
X0194298Y0332177D03*
X0194298Y0332217D03*
X0194298Y0332237D03*
X0194298Y0332277D03*
X0194298Y0332317D03*
X0194298Y0332337D03*
X0194298Y0332377D03*
X0194298Y0332417D03*
X0194298Y0332437D03*
X0194298Y0332477D03*
X0194298Y0332517D03*
X0194298Y0332537D03*
X0194298Y0332577D03*
X0194298Y0332617D03*
X0194298Y0332637D03*
X0194298Y0332677D03*
X0194298Y0332717D03*
X0194298Y0332737D03*
X0194298Y0332777D03*
X0194298Y0332817D03*
X0194298Y0332837D03*
X0194298Y0332877D03*
X0194298Y0332917D03*
X0194298Y0332937D03*
X0194298Y0332977D03*
X0194298Y0333017D03*
X0194298Y0333037D03*
X0194298Y0333077D03*
X0194298Y0333117D03*
X0194298Y0333137D03*
X0194298Y0333177D03*
X0194298Y0333217D03*
X0194298Y0333237D03*
X0194298Y0333277D03*
X0194298Y0333317D03*
X0194298Y0333337D03*
X0194298Y0333377D03*
X0194298Y0333417D03*
X0194298Y0333437D03*
X0194298Y0333477D03*
X0194298Y0333517D03*
X0194298Y0333537D03*
X0194298Y0333577D03*
X0199338Y0328437D03*
X0199318Y0328237D03*
X0199318Y0328217D03*
X0199318Y0328177D03*
X0199318Y0328137D03*
X0199318Y0328117D03*
X0199318Y0327937D03*
X0199318Y0327917D03*
X0199318Y0327877D03*
X0207278Y0327777D03*
X0207278Y0327737D03*
X0207278Y0327717D03*
X0207278Y0327677D03*
X0207278Y0327637D03*
X0207278Y0327617D03*
X0207298Y0327577D03*
X0207298Y0327537D03*
X0207298Y0327517D03*
X0207298Y0327477D03*
X0207318Y0327437D03*
X0207318Y0327417D03*
X0207318Y0327377D03*
X0207338Y0327317D03*
X0207338Y0327277D03*
X0207378Y0327117D03*
X0207278Y0328377D03*
X0207278Y0328417D03*
X0207278Y0328437D03*
X0207278Y0328477D03*
X0207298Y0328537D03*
X0207298Y0328577D03*
X0207298Y0328617D03*
X0207298Y0328637D03*
X0207318Y0328677D03*
X0207318Y0328717D03*
X0207318Y0328737D03*
X0207338Y0328777D03*
X0207338Y0328817D03*
X0207338Y0328837D03*
X0207358Y0328877D03*
X0207358Y0328917D03*
X0207378Y0328977D03*
X0207418Y0329117D03*
X0212578Y0328917D03*
X0212598Y0328817D03*
X0212618Y0328717D03*
X0212618Y0328677D03*
X0212638Y0328577D03*
X0212638Y0328537D03*
X0212638Y0328517D03*
X0212658Y0328417D03*
X0212658Y0328377D03*
X0171298Y0325837D03*
X0164358Y0325837D03*
X0164358Y0332917D03*
X0171298Y0332917D03*
D262*
X0183278Y0325857D03*
X0190578Y0330057D03*
X0207978Y0325957D03*
D263*
X0187748Y0325857D03*
X0187748Y0328197D03*
X0187068Y0330857D03*
X0170468Y0332157D03*
D264*
X0170528Y0332217D03*
X0167828Y0332137D03*
X0167828Y0332377D03*
X0167828Y0332417D03*
X0167828Y0332437D03*
X0165128Y0332217D03*
X0164548Y0328917D03*
X0165128Y0326537D03*
X0165108Y0326517D03*
X0167828Y0326377D03*
X0167828Y0326337D03*
X0167828Y0326317D03*
X0170528Y0326537D03*
X0170548Y0326517D03*
X0183928Y0328217D03*
X0185608Y0331537D03*
X0187768Y0325877D03*
X0203768Y0330717D03*
D265*
X0207498Y0329357D03*
X0207558Y0329497D03*
X0207658Y0329697D03*
X0207458Y0326857D03*
X0207498Y0326757D03*
X0212458Y0329357D03*
X0212398Y0329497D03*
X0199558Y0329297D03*
X0199458Y0328997D03*
X0199358Y0327497D03*
X0199398Y0327297D03*
X0199458Y0327097D03*
X0194398Y0325897D03*
X0189598Y0328197D03*
X0189598Y0328257D03*
X0188058Y0326697D03*
X0187958Y0329857D03*
X0183098Y0327357D03*
X0183058Y0327257D03*
X0181998Y0330357D03*
X0182058Y0330597D03*
X0182098Y0331357D03*
X0182058Y0331657D03*
D266*
X0182058Y0331637D03*
X0182058Y0331617D03*
X0182058Y0331677D03*
X0182098Y0331377D03*
X0182098Y0331337D03*
X0182058Y0330617D03*
X0182058Y0330577D03*
X0181998Y0330377D03*
X0183058Y0327237D03*
X0183058Y0327217D03*
X0183058Y0326317D03*
X0188058Y0326717D03*
X0188058Y0326737D03*
X0189598Y0328177D03*
X0189598Y0328217D03*
X0189598Y0328237D03*
X0190298Y0329717D03*
X0187898Y0330017D03*
X0194398Y0325917D03*
X0199398Y0327277D03*
X0199398Y0327317D03*
X0199398Y0327337D03*
X0199358Y0327517D03*
X0199458Y0327077D03*
X0199458Y0329017D03*
X0199498Y0329117D03*
X0199498Y0329137D03*
X0199558Y0329277D03*
X0199598Y0329377D03*
X0207558Y0329477D03*
X0207598Y0329577D03*
X0207498Y0326737D03*
X0207558Y0326617D03*
X0212498Y0329217D03*
X0212498Y0329237D03*
X0212458Y0329337D03*
X0212458Y0329377D03*
X0212398Y0329517D03*
X0171258Y0332877D03*
X0170898Y0329937D03*
X0164758Y0329937D03*
D267*
X0167828Y0332777D03*
X0167828Y0325977D03*
X0167828Y0325937D03*
X0208628Y0330717D03*
X0210028Y0331417D03*
D268*
X0207618Y0329617D03*
X0207578Y0329537D03*
X0207538Y0329437D03*
X0207518Y0329417D03*
X0207418Y0326977D03*
X0207438Y0326917D03*
X0207478Y0326817D03*
X0207518Y0326717D03*
X0212478Y0329277D03*
X0212438Y0329417D03*
X0212418Y0329437D03*
X0212418Y0329477D03*
X0199578Y0329337D03*
X0199538Y0329237D03*
X0199538Y0329217D03*
X0199518Y0329177D03*
X0199478Y0329077D03*
X0199438Y0328937D03*
X0199418Y0328877D03*
X0199338Y0327637D03*
X0199378Y0327417D03*
X0199378Y0327377D03*
X0199418Y0327237D03*
X0199418Y0327217D03*
X0199438Y0327177D03*
X0199438Y0327137D03*
X0199478Y0327017D03*
X0194378Y0325977D03*
X0190318Y0329737D03*
X0187938Y0329917D03*
X0187938Y0329937D03*
X0187918Y0329977D03*
X0183078Y0327277D03*
X0183038Y0327177D03*
X0183038Y0327137D03*
X0183018Y0327037D03*
X0183018Y0326537D03*
X0183018Y0326517D03*
X0183018Y0326477D03*
X0183038Y0326417D03*
X0183038Y0326377D03*
X0182018Y0330417D03*
X0182018Y0330437D03*
X0182038Y0330477D03*
X0182038Y0330517D03*
X0182078Y0330717D03*
X0182078Y0331517D03*
X0182078Y0331537D03*
X0182078Y0331577D03*
X0182038Y0331717D03*
X0182038Y0331737D03*
X0182018Y0331817D03*
D269*
X0181698Y0329757D03*
X0181658Y0329697D03*
X0183318Y0327757D03*
X0187998Y0326457D03*
X0189658Y0328657D03*
X0189658Y0328697D03*
X0187698Y0330357D03*
X0200018Y0330057D03*
X0200058Y0330097D03*
X0199898Y0326197D03*
X0199938Y0326157D03*
X0207938Y0325997D03*
X0207998Y0330197D03*
X0211958Y0330257D03*
X0167838Y0326757D03*
D270*
X0170748Y0326337D03*
X0170708Y0332377D03*
X0164908Y0332417D03*
X0181208Y0332977D03*
X0189808Y0329337D03*
X0189808Y0329317D03*
X0191168Y0330537D03*
X0187848Y0326037D03*
X0204008Y0330577D03*
X0211408Y0330717D03*
D271*
X0204438Y0330037D03*
X0204518Y0326077D03*
X0171478Y0333077D03*
X0170818Y0329977D03*
X0167838Y0334217D03*
X0164178Y0333077D03*
X0164838Y0329977D03*
D272*
X0193108Y0331457D03*
X0204508Y0326257D03*
X0212388Y0326197D03*
D273*
X0212378Y0326237D03*
D274*
X0189868Y0329497D03*
X0180968Y0329097D03*
X0170568Y0326497D03*
X0167828Y0326257D03*
X0165088Y0326497D03*
X0165088Y0332257D03*
X0167928Y0332297D03*
D275*
X0204508Y0326317D03*
D276*
X0203978Y0330597D03*
X0200718Y0330657D03*
X0189818Y0329357D03*
X0171058Y0329857D03*
X0164598Y0329857D03*
X0164938Y0326357D03*
D277*
X0167828Y0326417D03*
X0167828Y0326437D03*
X0167828Y0332277D03*
X0167828Y0332317D03*
X0167828Y0332337D03*
D278*
X0167828Y0332297D03*
X0167828Y0332157D03*
X0167828Y0326597D03*
X0167828Y0326457D03*
X0210028Y0331397D03*
D279*
X0203668Y0330757D03*
X0183988Y0330857D03*
X0167828Y0332197D03*
X0167828Y0332257D03*
X0167828Y0326557D03*
X0167828Y0326497D03*
D280*
X0170498Y0326557D03*
X0165158Y0326557D03*
X0165158Y0332197D03*
X0189898Y0329597D03*
D281*
X0191478Y0330697D03*
X0170458Y0326597D03*
X0165198Y0326597D03*
X0165198Y0332157D03*
D282*
X0165268Y0326657D03*
X0170388Y0326657D03*
X0180768Y0328997D03*
X0180888Y0333157D03*
D283*
X0170378Y0332077D03*
X0165278Y0332077D03*
X0170378Y0326677D03*
X0191578Y0330737D03*
D284*
X0180728Y0328977D03*
X0170328Y0326717D03*
X0165328Y0326717D03*
X0165328Y0332037D03*
X0170328Y0332037D03*
D285*
X0170288Y0331997D03*
X0171188Y0328957D03*
X0170288Y0326757D03*
X0165368Y0326757D03*
X0164468Y0328957D03*
X0165368Y0331997D03*
X0180668Y0328957D03*
X0191628Y0330757D03*
D286*
X0170258Y0326777D03*
X0165398Y0326777D03*
X0165398Y0331977D03*
D287*
X0165408Y0331957D03*
X0170248Y0331957D03*
X0170248Y0326797D03*
X0185688Y0328897D03*
X0192408Y0331157D03*
D288*
X0201168Y0330837D03*
X0202308Y0331377D03*
X0180728Y0333217D03*
X0171228Y0329777D03*
X0170208Y0331917D03*
X0165468Y0326837D03*
D289*
X0165478Y0326857D03*
X0170178Y0326857D03*
X0170178Y0331897D03*
X0165478Y0331897D03*
X0184078Y0330897D03*
D290*
X0180668Y0333237D03*
X0170088Y0331817D03*
X0165568Y0331817D03*
X0165568Y0326937D03*
X0165548Y0326917D03*
X0170088Y0326937D03*
X0170108Y0326917D03*
D291*
X0171258Y0329757D03*
X0170078Y0331797D03*
X0165578Y0331797D03*
X0164398Y0329757D03*
X0165598Y0326957D03*
X0192338Y0331097D03*
D292*
X0184248Y0328317D03*
X0170048Y0326977D03*
X0165608Y0326977D03*
X0165608Y0331777D03*
X0170048Y0331777D03*
D293*
X0171918Y0333477D03*
X0167838Y0326977D03*
X0183538Y0330477D03*
D294*
X0180478Y0328897D03*
X0171278Y0328997D03*
X0170018Y0326997D03*
X0165638Y0326997D03*
X0165638Y0331757D03*
D295*
X0165708Y0327057D03*
X0192288Y0331057D03*
X0201288Y0330857D03*
D296*
X0185598Y0331497D03*
X0180598Y0333257D03*
X0169958Y0331697D03*
X0165698Y0331697D03*
X0169958Y0327057D03*
D297*
X0169908Y0327097D03*
X0165748Y0327097D03*
D298*
X0165808Y0327157D03*
X0169848Y0327157D03*
X0169848Y0331597D03*
X0165808Y0331597D03*
X0203288Y0330857D03*
D299*
X0202318Y0331337D03*
X0169838Y0331577D03*
X0165838Y0331577D03*
X0164318Y0329717D03*
X0165838Y0327177D03*
X0169818Y0327177D03*
D300*
X0188108Y0327197D03*
X0188108Y0327257D03*
X0188108Y0327297D03*
X0188108Y0327357D03*
X0188108Y0327397D03*
X0188108Y0327457D03*
X0188108Y0327497D03*
X0188108Y0327557D03*
X0188108Y0327597D03*
X0188108Y0327657D03*
X0188108Y0327697D03*
X0188108Y0327757D03*
X0188108Y0327797D03*
X0188108Y0327857D03*
X0188108Y0327897D03*
X0188108Y0327957D03*
X0188108Y0327997D03*
D301*
X0169778Y0327217D03*
X0165878Y0327217D03*
X0165878Y0331537D03*
D302*
X0165888Y0331517D03*
X0169768Y0331517D03*
X0165908Y0327237D03*
X0185588Y0331477D03*
X0192208Y0330977D03*
D303*
X0191958Y0330837D03*
X0171358Y0329037D03*
X0169758Y0327237D03*
X0164298Y0329037D03*
D304*
X0165948Y0327277D03*
D305*
X0169718Y0327277D03*
X0169718Y0331477D03*
X0165938Y0331477D03*
X0184398Y0328337D03*
D306*
X0180308Y0328857D03*
X0165968Y0327297D03*
D307*
X0164278Y0329697D03*
X0165958Y0331457D03*
X0169698Y0331457D03*
X0171378Y0329697D03*
X0169698Y0327297D03*
X0186618Y0330957D03*
D308*
X0169668Y0327317D03*
X0165988Y0327317D03*
D309*
X0166038Y0327357D03*
X0166018Y0331397D03*
X0169638Y0331397D03*
X0171398Y0329057D03*
X0187398Y0328297D03*
D310*
X0169628Y0327357D03*
D311*
X0169608Y0327377D03*
X0166048Y0327377D03*
X0166048Y0331377D03*
X0169608Y0331377D03*
D312*
X0169598Y0331357D03*
X0166078Y0331357D03*
X0166078Y0327397D03*
X0169578Y0327397D03*
X0192138Y0330897D03*
D313*
X0192128Y0330877D03*
X0171428Y0329677D03*
X0169568Y0331337D03*
X0169548Y0331317D03*
X0166088Y0331337D03*
X0164228Y0329677D03*
X0166088Y0327417D03*
X0169568Y0327417D03*
D314*
X0169538Y0327437D03*
X0166118Y0327437D03*
X0166118Y0331317D03*
D315*
X0166148Y0327457D03*
X0192108Y0330857D03*
D316*
X0166188Y0327497D03*
D317*
X0166208Y0327517D03*
X0169448Y0327517D03*
X0166208Y0331237D03*
D318*
X0166228Y0327537D03*
X0169428Y0327537D03*
D319*
X0169408Y0327557D03*
X0166248Y0327557D03*
X0166248Y0331197D03*
X0169408Y0331197D03*
D320*
X0166278Y0327577D03*
D321*
X0166288Y0327597D03*
X0169368Y0327597D03*
X0169368Y0331157D03*
X0166288Y0331157D03*
D322*
X0166318Y0331137D03*
X0166338Y0327637D03*
X0166318Y0327617D03*
X0169338Y0327617D03*
X0185578Y0331437D03*
D323*
X0169328Y0331117D03*
X0166328Y0331117D03*
X0169328Y0327637D03*
D324*
X0169298Y0327657D03*
X0166358Y0327657D03*
X0166358Y0331097D03*
D325*
X0166408Y0327697D03*
D326*
X0166518Y0327797D03*
X0169138Y0327797D03*
X0169158Y0330957D03*
D327*
X0209968Y0328357D03*
X0209968Y0328297D03*
X0209968Y0328257D03*
X0209968Y0327857D03*
X0209968Y0327797D03*
D328*
X0209968Y0327817D03*
X0209968Y0327837D03*
X0209968Y0327877D03*
X0209968Y0328217D03*
X0209968Y0328237D03*
X0209968Y0328277D03*
X0209968Y0328317D03*
X0209968Y0328337D03*
D329*
X0169098Y0327837D03*
X0166558Y0327837D03*
X0166558Y0330917D03*
D330*
X0167828Y0327857D03*
X0185928Y0328357D03*
D331*
X0167828Y0327877D03*
X0167828Y0330877D03*
D332*
X0167828Y0330857D03*
X0167828Y0327897D03*
D333*
X0209958Y0327897D03*
X0209958Y0328197D03*
D334*
X0167838Y0327917D03*
D335*
X0209968Y0327937D03*
X0209968Y0327917D03*
X0209968Y0327977D03*
X0209968Y0328017D03*
X0209968Y0328037D03*
X0209968Y0328077D03*
X0209968Y0328117D03*
X0209968Y0328137D03*
D336*
X0185968Y0328417D03*
X0178688Y0333477D03*
X0167828Y0330817D03*
X0167828Y0327937D03*
D337*
X0167828Y0327957D03*
X0167828Y0330797D03*
X0178668Y0333497D03*
D338*
X0209968Y0328157D03*
X0209968Y0328097D03*
X0209968Y0328057D03*
X0209968Y0327997D03*
X0209968Y0327957D03*
D339*
X0167838Y0327977D03*
D340*
X0167828Y0327997D03*
X0167828Y0330757D03*
D341*
X0167828Y0330737D03*
X0167828Y0330717D03*
X0167828Y0328017D03*
D342*
X0167838Y0328037D03*
X0178618Y0328677D03*
D343*
X0167828Y0328057D03*
X0167828Y0330697D03*
D344*
X0167828Y0328077D03*
X0186068Y0328537D03*
D345*
X0167828Y0328097D03*
X0167828Y0330657D03*
D346*
X0167828Y0330637D03*
X0167828Y0328117D03*
D347*
X0167828Y0328137D03*
D348*
X0167828Y0328157D03*
X0167828Y0330597D03*
D349*
X0167828Y0330577D03*
X0167828Y0328177D03*
X0178528Y0333637D03*
D350*
X0209958Y0328177D03*
D351*
X0167828Y0328197D03*
D352*
X0177688Y0328197D03*
X0210028Y0331097D03*
D353*
X0183878Y0328197D03*
X0181078Y0333057D03*
D354*
X0167828Y0330537D03*
X0167828Y0328217D03*
D355*
X0187698Y0328217D03*
X0211118Y0330837D03*
D356*
X0167828Y0330517D03*
X0167828Y0328237D03*
D357*
X0167838Y0328257D03*
D358*
X0177978Y0328257D03*
D359*
X0178468Y0328537D03*
X0167828Y0328277D03*
X0167828Y0330477D03*
D360*
X0167838Y0328937D03*
X0178038Y0328277D03*
X0202318Y0330937D03*
D361*
X0167828Y0330457D03*
X0167828Y0328297D03*
D362*
X0167828Y0328857D03*
X0167828Y0329897D03*
X0178088Y0328297D03*
D363*
X0167838Y0328317D03*
D364*
X0178128Y0328317D03*
X0178128Y0333877D03*
X0202308Y0330877D03*
D365*
X0178428Y0333717D03*
X0167828Y0330417D03*
X0167828Y0328337D03*
D366*
X0167828Y0328737D03*
X0167828Y0330017D03*
X0178168Y0328337D03*
D367*
X0171618Y0329577D03*
X0164038Y0329577D03*
X0187098Y0328337D03*
D368*
X0167828Y0328357D03*
X0167828Y0330397D03*
D369*
X0178208Y0328357D03*
D370*
X0167838Y0328377D03*
D371*
X0178248Y0328377D03*
D372*
X0185948Y0328377D03*
D373*
X0167828Y0328397D03*
X0167828Y0330357D03*
D374*
X0178278Y0328397D03*
D375*
X0185958Y0328397D03*
D376*
X0167828Y0328417D03*
X0167828Y0328437D03*
X0167828Y0330317D03*
D377*
X0178308Y0328417D03*
D378*
X0178338Y0328437D03*
X0185418Y0331037D03*
X0167838Y0330277D03*
D379*
X0167828Y0330777D03*
X0178668Y0328737D03*
X0185988Y0328437D03*
D380*
X0167828Y0328457D03*
X0167828Y0330297D03*
D381*
X0178368Y0328457D03*
X0178368Y0333757D03*
D382*
X0186008Y0328457D03*
D383*
X0178328Y0333777D03*
X0167828Y0328477D03*
D384*
X0178398Y0328477D03*
X0178398Y0333737D03*
D385*
X0178638Y0333537D03*
X0186018Y0328477D03*
D386*
X0167828Y0328497D03*
X0167828Y0330257D03*
D387*
X0178418Y0328497D03*
D388*
X0178618Y0333557D03*
X0186038Y0328497D03*
D389*
X0167828Y0328517D03*
X0167828Y0330237D03*
D390*
X0178448Y0328517D03*
D391*
X0178598Y0333577D03*
X0186058Y0328517D03*
D392*
X0167828Y0328537D03*
D393*
X0167828Y0328557D03*
X0167828Y0330197D03*
D394*
X0178498Y0328557D03*
D395*
X0178568Y0333597D03*
X0186088Y0328557D03*
D396*
X0185448Y0331077D03*
X0167828Y0330177D03*
X0167828Y0328577D03*
D397*
X0178518Y0328577D03*
D398*
X0178548Y0333617D03*
X0186108Y0328577D03*
D399*
X0167838Y0328597D03*
D400*
X0178538Y0328597D03*
D401*
X0186128Y0328597D03*
D402*
X0167828Y0328617D03*
X0167828Y0330137D03*
D403*
X0167838Y0330617D03*
X0178558Y0328617D03*
D404*
X0186158Y0328617D03*
D405*
X0167828Y0328637D03*
X0167828Y0330117D03*
D406*
X0178578Y0328637D03*
D407*
X0178478Y0333677D03*
X0186178Y0328637D03*
D408*
X0167838Y0328657D03*
D409*
X0178598Y0328657D03*
D410*
X0167828Y0328677D03*
X0167828Y0330077D03*
D411*
X0167828Y0330057D03*
X0167828Y0328697D03*
D412*
X0178638Y0328697D03*
D413*
X0185838Y0328697D03*
X0167838Y0328997D03*
D414*
X0167838Y0328717D03*
D415*
X0178648Y0328717D03*
X0178648Y0333517D03*
D416*
X0171908Y0329437D03*
X0167828Y0329637D03*
X0167828Y0329117D03*
X0163748Y0329437D03*
X0185828Y0328717D03*
D417*
X0185818Y0328737D03*
X0167838Y0329537D03*
D418*
X0167828Y0328757D03*
D419*
X0178688Y0328757D03*
D420*
X0185808Y0328757D03*
D421*
X0178698Y0328777D03*
D422*
X0185798Y0328777D03*
D423*
X0170878Y0328797D03*
D424*
X0178718Y0328797D03*
D425*
X0171678Y0329197D03*
X0185778Y0328797D03*
D426*
X0167828Y0328817D03*
X0167828Y0328837D03*
X0167828Y0329917D03*
D427*
X0178738Y0328817D03*
X0178738Y0333417D03*
D428*
X0178748Y0328837D03*
D429*
X0172008Y0329377D03*
X0167828Y0328877D03*
X0163648Y0329377D03*
X0185488Y0331177D03*
X0202308Y0330917D03*
D430*
X0180408Y0328877D03*
X0171308Y0329017D03*
X0164348Y0329017D03*
D431*
X0167828Y0328917D03*
X0167828Y0329817D03*
X0167828Y0329837D03*
D432*
X0170118Y0331837D03*
X0165538Y0331837D03*
X0180558Y0328917D03*
X0192358Y0331117D03*
X0203438Y0330837D03*
D433*
X0185488Y0331197D03*
X0171988Y0329397D03*
X0167828Y0329797D03*
X0167828Y0328957D03*
D434*
X0171238Y0328977D03*
X0170158Y0331877D03*
X0165498Y0331877D03*
X0164418Y0328977D03*
X0192378Y0331137D03*
D435*
X0167828Y0329777D03*
X0167828Y0328977D03*
D436*
X0167828Y0329017D03*
X0167828Y0329737D03*
X0185508Y0331217D03*
D437*
X0167828Y0329717D03*
X0167828Y0329037D03*
D438*
X0164268Y0329057D03*
X0210028Y0331297D03*
D439*
X0210028Y0331277D03*
X0171428Y0329077D03*
X0164228Y0329077D03*
D440*
X0167828Y0329077D03*
X0167828Y0329677D03*
D441*
X0171478Y0329097D03*
X0164178Y0329097D03*
D442*
X0167828Y0329097D03*
D443*
X0169238Y0331037D03*
X0166418Y0331037D03*
X0171518Y0329117D03*
D444*
X0167828Y0329137D03*
X0167828Y0329617D03*
D445*
X0171598Y0329157D03*
X0164058Y0329157D03*
X0185558Y0331397D03*
D446*
X0171868Y0329297D03*
X0167828Y0329157D03*
X0163788Y0329297D03*
D447*
X0164028Y0329177D03*
D448*
X0167828Y0329177D03*
X0167828Y0329577D03*
D449*
X0171638Y0329177D03*
X0185558Y0331377D03*
D450*
X0163988Y0329197D03*
D451*
X0167828Y0329197D03*
X0167828Y0329557D03*
X0171868Y0329457D03*
D452*
X0167828Y0329517D03*
X0167828Y0329237D03*
X0167828Y0329217D03*
X0185528Y0331277D03*
D453*
X0202308Y0331117D03*
X0163908Y0329237D03*
D454*
X0167828Y0329257D03*
X0167828Y0329497D03*
D455*
X0171838Y0329277D03*
X0163818Y0329277D03*
D456*
X0167828Y0329297D03*
X0167828Y0329457D03*
X0185528Y0331297D03*
D457*
X0167828Y0329437D03*
X0167828Y0329417D03*
X0167828Y0329317D03*
X0210028Y0331037D03*
D458*
X0167838Y0329337D03*
D459*
X0171988Y0329357D03*
X0163668Y0329357D03*
D460*
X0167828Y0329377D03*
X0185528Y0331317D03*
X0195468Y0331317D03*
X0195468Y0331337D03*
X0195468Y0331377D03*
X0195468Y0331417D03*
X0195468Y0331437D03*
X0195468Y0331277D03*
X0195468Y0331237D03*
X0195468Y0331217D03*
X0195468Y0331177D03*
X0195468Y0331137D03*
X0195468Y0331117D03*
X0195468Y0331077D03*
X0195468Y0331037D03*
X0195468Y0331017D03*
X0195468Y0330977D03*
X0195468Y0330937D03*
X0195468Y0330917D03*
X0195468Y0330877D03*
D461*
X0210018Y0331077D03*
X0171738Y0329517D03*
X0163918Y0329517D03*
D462*
X0163988Y0329557D03*
X0171668Y0329557D03*
D463*
X0167838Y0329597D03*
X0185518Y0331257D03*
D464*
X0171588Y0329597D03*
D465*
X0171548Y0329617D03*
X0164108Y0329617D03*
D466*
X0164158Y0329637D03*
X0171498Y0329637D03*
D467*
X0171348Y0329717D03*
X0169788Y0331537D03*
X0184228Y0330937D03*
X0210028Y0331317D03*
D468*
X0167828Y0329757D03*
D469*
X0164478Y0329797D03*
X0203578Y0330797D03*
D470*
X0204438Y0329797D03*
D471*
X0170778Y0329997D03*
X0167838Y0334497D03*
X0164878Y0329997D03*
D472*
X0167838Y0329997D03*
D473*
X0167828Y0330037D03*
D474*
X0202298Y0331457D03*
X0204438Y0330057D03*
D475*
X0185448Y0331097D03*
X0167828Y0330097D03*
D476*
X0167828Y0330157D03*
D477*
X0167838Y0330217D03*
D478*
X0167838Y0330337D03*
X0185418Y0331017D03*
D479*
X0185428Y0330977D03*
X0167828Y0330377D03*
D480*
X0167828Y0330437D03*
D481*
X0167828Y0330497D03*
D482*
X0167838Y0330557D03*
D483*
X0167838Y0330677D03*
D484*
X0181238Y0332957D03*
X0208578Y0330697D03*
X0211438Y0330697D03*
D485*
X0191838Y0330817D03*
D486*
X0167828Y0330837D03*
D487*
X0208908Y0330837D03*
D488*
X0208978Y0330857D03*
X0180778Y0333197D03*
D489*
X0169088Y0330897D03*
X0210028Y0331197D03*
D490*
X0210028Y0331057D03*
X0195468Y0331057D03*
X0195468Y0331097D03*
X0195468Y0331157D03*
X0195468Y0331197D03*
X0195468Y0331257D03*
X0195468Y0331297D03*
X0195468Y0331357D03*
X0195468Y0331397D03*
X0195468Y0331457D03*
X0195468Y0330997D03*
X0195468Y0330957D03*
X0195468Y0330897D03*
D491*
X0202318Y0330897D03*
D492*
X0210028Y0330897D03*
D493*
X0210018Y0330917D03*
D494*
X0186818Y0330937D03*
D495*
X0192178Y0330937D03*
X0202318Y0331317D03*
X0169678Y0331437D03*
X0165978Y0331437D03*
D496*
X0166508Y0330957D03*
D497*
X0169308Y0331097D03*
X0184408Y0330957D03*
D498*
X0202308Y0330957D03*
D499*
X0210028Y0330957D03*
D500*
X0210018Y0330977D03*
X0202318Y0331037D03*
D501*
X0169198Y0330997D03*
X0166458Y0330997D03*
D502*
X0185418Y0330997D03*
D503*
X0202308Y0330997D03*
D504*
X0210028Y0330997D03*
D505*
X0185438Y0331057D03*
D506*
X0202318Y0331057D03*
D507*
X0185458Y0331117D03*
D508*
X0210028Y0331117D03*
D509*
X0202308Y0331137D03*
D510*
X0210028Y0331137D03*
D511*
X0185478Y0331157D03*
D512*
X0202308Y0331157D03*
D513*
X0202318Y0331277D03*
X0169398Y0331177D03*
X0166258Y0331177D03*
D514*
X0202318Y0331197D03*
D515*
X0185508Y0331237D03*
D516*
X0210028Y0331237D03*
D517*
X0169528Y0331297D03*
D518*
X0185538Y0331337D03*
D519*
X0185558Y0331357D03*
D520*
X0202308Y0331357D03*
D521*
X0210018Y0331457D03*
D522*
X0169878Y0331617D03*
X0165778Y0331617D03*
D523*
X0169898Y0331637D03*
X0180518Y0333277D03*
D524*
X0169918Y0331657D03*
X0165738Y0331657D03*
D525*
X0167838Y0331837D03*
X0171698Y0333277D03*
D526*
X0170278Y0331977D03*
D527*
X0180408Y0333297D03*
D528*
X0178818Y0333317D03*
D529*
X0178798Y0333337D03*
D530*
X0178788Y0333357D03*
D531*
X0178768Y0333377D03*
D532*
X0178758Y0333397D03*
D533*
X0178718Y0333437D03*
D534*
X0178708Y0333457D03*
D535*
X0171958Y0333517D03*
X0163698Y0333517D03*
D536*
X0178508Y0333657D03*
D537*
X0178448Y0333697D03*
D538*
X0178298Y0333797D03*
D539*
X0178258Y0333817D03*
D540*
X0178218Y0333837D03*
D541*
X0178178Y0333857D03*
D542*
X0167828Y0335357D03*
D543*
X0025213Y0210489D03*
X0025213Y0204563D03*
X0011433Y0204563D03*
X0011433Y0210489D03*
X0011433Y0178599D03*
X0011433Y0172674D03*
X0025213Y0172674D03*
X0025213Y0178599D03*
D544*
X0268611Y0102314D03*
X0268611Y0098514D03*
X0272411Y0098514D03*
X0272411Y0102314D03*
X0276311Y0102314D03*
X0276311Y0098514D03*
X0281011Y0100914D03*
X0281011Y0104714D03*
X0285611Y0104714D03*
X0285611Y0100914D03*
X0310311Y0100314D03*
X0310311Y0104114D03*
X0317397Y0121155D03*
X0321111Y0121214D03*
X0321111Y0125014D03*
X0321177Y0127873D03*
X0321177Y0131673D03*
X0317397Y0124955D03*
X0347211Y0128314D03*
X0350811Y0128314D03*
X0354511Y0128314D03*
X0358311Y0128314D03*
X0361911Y0128314D03*
X0361911Y0132114D03*
X0358311Y0132114D03*
X0354511Y0132114D03*
X0350811Y0132114D03*
X0347211Y0132114D03*
X0384311Y0107714D03*
X0384311Y0103914D03*
X0374111Y0180014D03*
X0374111Y0183814D03*
X0376011Y0196114D03*
X0376011Y0199914D03*
X0381411Y0199914D03*
X0381411Y0196114D03*
X0392498Y0196314D03*
X0396270Y0196239D03*
X0399894Y0196216D03*
X0399894Y0200016D03*
X0396270Y0200039D03*
X0392498Y0200114D03*
X0403993Y0199914D03*
X0403993Y0196114D03*
X0396011Y0184114D03*
X0396011Y0180314D03*
X0359211Y0229914D03*
X0359211Y0233714D03*
X0359211Y0238314D03*
X0359211Y0242114D03*
X0374211Y0253314D03*
X0374211Y0257114D03*
X0378411Y0257114D03*
X0378411Y0253314D03*
X0383211Y0253314D03*
X0383211Y0257114D03*
X0383811Y0264714D03*
X0383811Y0268514D03*
X0379611Y0268514D03*
X0379611Y0264714D03*
X0388911Y0264814D03*
X0388911Y0268614D03*
X0392811Y0268614D03*
X0392811Y0264814D03*
X0399211Y0257014D03*
X0399211Y0253214D03*
X0403211Y0253214D03*
X0403211Y0257014D03*
X0388011Y0277914D03*
X0388011Y0281714D03*
X0383811Y0281714D03*
X0383811Y0277914D03*
X0379611Y0277914D03*
X0379611Y0281714D03*
D545*
X0352011Y0098614D03*
X0352011Y0096214D03*
D546*
X0352811Y0083514D03*
X0356611Y0083514D03*
X0365194Y0129019D03*
X0368994Y0129019D03*
X0359511Y0189456D03*
X0355711Y0189456D03*
X0355711Y0193580D03*
X0359511Y0193580D03*
X0359511Y0197668D03*
X0355711Y0197668D03*
X0355799Y0201620D03*
X0359599Y0201620D03*
X0359511Y0205614D03*
X0355711Y0205614D03*
X0355711Y0209814D03*
X0359511Y0209814D03*
X0359511Y0215814D03*
X0355711Y0215814D03*
X0355711Y0220014D03*
X0359511Y0220014D03*
X0384911Y0199914D03*
X0388711Y0199914D03*
X0415811Y0206314D03*
X0419611Y0206314D03*
X0419511Y0210414D03*
X0415711Y0210414D03*
X0415711Y0214614D03*
X0419511Y0214614D03*
X0395111Y0253614D03*
X0391311Y0253614D03*
X0399611Y0264914D03*
X0403411Y0264914D03*
X0406911Y0264914D03*
X0410711Y0264914D03*
X0388111Y0273414D03*
X0384311Y0273414D03*
X0379711Y0273414D03*
X0375911Y0273414D03*
X0455911Y0289014D03*
X0459711Y0289014D03*
X0023666Y0198857D03*
X0019866Y0198857D03*
D547*
X0438523Y0294194D03*
X0438523Y0312186D03*
D548*
X0354511Y0235964D03*
X0354511Y0230064D03*
X0284211Y0115864D03*
X0284211Y0109964D03*
X0263811Y0102464D03*
X0263811Y0096564D03*
X0314711Y0098764D03*
X0320111Y0098864D03*
X0320111Y0104764D03*
X0314711Y0104664D03*
X0357411Y0097764D03*
X0362694Y0097764D03*
X0368211Y0097764D03*
X0368211Y0091864D03*
X0362694Y0091864D03*
X0357411Y0091864D03*
X0374076Y0101919D03*
X0379876Y0101919D03*
X0379876Y0107819D03*
X0374076Y0107819D03*
D549*
X0336961Y0121414D03*
X0331061Y0121414D03*
X0353361Y0225414D03*
X0359261Y0225414D03*
X0416161Y0253214D03*
X0422061Y0253214D03*
D550*
X0455861Y0293514D03*
X0459561Y0293514D03*
X0468161Y0169714D03*
X0471861Y0169714D03*
X0465261Y0160414D03*
X0465261Y0157014D03*
X0465261Y0153614D03*
X0461561Y0153614D03*
X0461561Y0157014D03*
X0461561Y0160414D03*
X0461461Y0146814D03*
X0461461Y0143314D03*
X0465161Y0143314D03*
X0465161Y0146814D03*
X0464861Y0130814D03*
X0461161Y0130814D03*
X0257621Y0243930D03*
X0253920Y0243930D03*
X0254020Y0248109D03*
X0257721Y0248109D03*
X0059214Y0230866D03*
X0055513Y0230866D03*
X0055513Y0227005D03*
X0059214Y0227005D03*
X0059114Y0220979D03*
X0059158Y0217700D03*
X0055457Y0217700D03*
X0055413Y0220979D03*
X0032658Y0223516D03*
X0028957Y0223516D03*
X0023717Y0193857D03*
X0020016Y0193857D03*
X0044716Y0182471D03*
X0048417Y0182471D03*
D551*
X0408160Y0108455D03*
X0408419Y0119820D03*
X0408395Y0131044D03*
D552*
X0399145Y0131044D03*
X0399169Y0119820D03*
X0398910Y0108455D03*
D553*
X0368091Y0084387D02*
X0368091Y0081641D01*
X0368091Y0084387D02*
X0370837Y0084387D01*
X0370837Y0081641D01*
X0368091Y0081641D01*
X0368091Y0083531D02*
X0370837Y0083531D01*
X0361185Y0084387D02*
X0361185Y0081641D01*
X0361185Y0084387D02*
X0363931Y0084387D01*
X0363931Y0081641D01*
X0361185Y0081641D01*
X0361185Y0083531D02*
X0363931Y0083531D01*
D554*
X0460063Y0185728D03*
X0460063Y0190728D03*
X0460063Y0195728D03*
X0460063Y0200728D03*
X0460063Y0205728D03*
X0475811Y0205728D03*
X0475811Y0200728D03*
X0475811Y0195728D03*
X0475811Y0190728D03*
X0475811Y0185728D03*
D555*
X0465361Y0135214D03*
X0459061Y0135214D03*
X0459561Y0298414D03*
X0453261Y0298414D03*
D556*
X0222929Y0115853D03*
X0220961Y0115853D03*
X0218992Y0115853D03*
X0217024Y0115853D03*
X0215055Y0115853D03*
X0213087Y0115853D03*
X0211118Y0115853D03*
X0209150Y0115853D03*
X0207181Y0115853D03*
X0205213Y0115853D03*
X0203244Y0115853D03*
X0193402Y0115853D03*
X0191433Y0115853D03*
X0189465Y0115853D03*
X0187496Y0115853D03*
X0185528Y0115853D03*
X0183559Y0115853D03*
X0181591Y0115853D03*
X0179622Y0115853D03*
X0177654Y0115853D03*
X0175685Y0115853D03*
X0173717Y0115853D03*
X0171748Y0115853D03*
X0169780Y0115853D03*
X0167811Y0115853D03*
X0165843Y0115853D03*
X0163874Y0115853D03*
X0161906Y0115853D03*
X0159937Y0115853D03*
X0157969Y0115853D03*
X0156000Y0115853D03*
X0154031Y0115853D03*
X0152063Y0115853D03*
X0151079Y0086128D03*
X0153047Y0086128D03*
X0155016Y0086128D03*
X0156984Y0086128D03*
X0158953Y0086128D03*
X0160921Y0086128D03*
X0162890Y0086128D03*
X0164858Y0086128D03*
X0166827Y0086128D03*
X0168795Y0086128D03*
X0170764Y0086128D03*
X0172732Y0086128D03*
X0174701Y0086128D03*
X0176669Y0086128D03*
X0178638Y0086128D03*
X0180606Y0086128D03*
X0182575Y0086128D03*
X0184543Y0086128D03*
X0186512Y0086128D03*
X0188480Y0086128D03*
X0190449Y0086128D03*
X0192417Y0086128D03*
X0202260Y0086128D03*
X0204228Y0086128D03*
X0206197Y0086128D03*
X0208165Y0086128D03*
X0210134Y0086128D03*
X0212102Y0086128D03*
X0214071Y0086128D03*
X0216039Y0086128D03*
X0218008Y0086128D03*
X0219976Y0086128D03*
X0221945Y0086128D03*
X0223913Y0086128D03*
D557*
X0226866Y0106896D03*
D558*
X0148126Y0106896D03*
D559*
X0146748Y0089179D03*
X0228244Y0089179D03*
D560*
X0461872Y0096666D03*
X0461872Y0104540D03*
D561*
X0482344Y0113989D03*
X0482344Y0087217D03*
D562*
X0177043Y0073354D03*
X0177043Y0068236D03*
D563*
X0261008Y0108165D03*
X0261008Y0116039D03*
D564*
X0415468Y0247214D03*
X0422554Y0247214D03*
D565*
X0331480Y0114633D03*
X0331480Y0101641D03*
D566*
X0477658Y0169814D03*
X0483564Y0169814D03*
X0020880Y0223704D03*
X0014975Y0223704D03*
D567*
X0393056Y0021346D03*
X0403686Y0021346D03*
D568*
X0398371Y0026386D03*
D569*
X0427180Y0098894D03*
X0427271Y0105377D03*
X0434751Y0105377D03*
X0434661Y0098894D03*
D570*
X0430920Y0090430D03*
X0431011Y0113842D03*
D571*
X0421411Y0112465D03*
X0421411Y0108764D03*
X0388611Y0192364D03*
X0388611Y0196065D03*
X0388311Y0021852D03*
X0388311Y0018151D03*
X0408557Y0018151D03*
X0408557Y0021852D03*
X0049619Y0198585D03*
X0049619Y0202286D03*
X0044107Y0202286D03*
X0044107Y0198585D03*
D572*
X0372294Y0129009D03*
X0374694Y0129009D03*
X0378494Y0129048D03*
X0380894Y0129048D03*
D573*
X0418973Y0135209D03*
X0441020Y0135209D03*
D574*
X0421311Y0104079D03*
X0421311Y0099749D03*
X0306011Y0099349D03*
X0306011Y0103679D03*
D575*
X0049616Y0188676D03*
X0049616Y0193006D03*
X0043710Y0193006D03*
X0043710Y0188676D03*
D576*
X0364898Y0345676D03*
X0374898Y0345676D03*
X0404702Y0345676D03*
X0414702Y0345676D03*
D577*
X0420312Y0317605D03*
X0359288Y0317605D03*
D578*
X0367300Y0304652D03*
X0377300Y0304652D03*
X0387300Y0304652D03*
X0397300Y0304652D03*
X0407300Y0304652D03*
X0402300Y0294652D03*
X0392300Y0294652D03*
X0382300Y0294652D03*
X0372300Y0294652D03*
X0412300Y0294652D03*
D579*
X0412300Y0329613D03*
X0367300Y0329613D03*
D580*
X0415443Y0235164D03*
X0419380Y0235164D03*
X0419380Y0228865D03*
X0419380Y0225164D03*
X0415443Y0225164D03*
X0415443Y0228865D03*
X0415443Y0218865D03*
X0419380Y0218865D03*
D581*
X0419380Y0221030D03*
X0419380Y0222998D03*
X0415443Y0222998D03*
X0415443Y0221030D03*
X0415443Y0231030D03*
X0415443Y0232998D03*
X0419380Y0232998D03*
X0419380Y0231030D03*
D582*
X0463926Y0231869D03*
X0473769Y0231869D03*
X0483611Y0231869D03*
X0483611Y0244468D03*
X0473769Y0244468D03*
X0463926Y0244468D03*
X0463411Y0263520D03*
X0473254Y0263520D03*
X0483096Y0263520D03*
X0483096Y0276118D03*
X0473254Y0276118D03*
X0463411Y0276118D03*
X0282824Y0247408D03*
X0282824Y0147408D03*
X0091945Y0207408D03*
X0091945Y0247408D03*
D583*
X0465711Y0164414D03*
D584*
X0448011Y0184414D03*
X0448211Y0205414D03*
X0485911Y0201214D03*
X0485911Y0211014D03*
X0485911Y0192214D03*
X0485911Y0182614D03*
D585*
X0397022Y0210814D03*
X0395054Y0210814D03*
X0393085Y0210814D03*
X0391117Y0210814D03*
X0389148Y0210814D03*
X0387180Y0210814D03*
X0385211Y0210814D03*
X0383243Y0210814D03*
X0381274Y0210814D03*
X0379306Y0210814D03*
X0377337Y0210814D03*
X0375369Y0210814D03*
X0375369Y0245853D03*
X0377337Y0245853D03*
X0379306Y0245853D03*
X0381274Y0245853D03*
X0383243Y0245853D03*
X0385211Y0245853D03*
X0387180Y0245853D03*
X0389148Y0245853D03*
X0391117Y0245853D03*
X0393085Y0245853D03*
X0395054Y0245853D03*
X0397022Y0245853D03*
D586*
X0403715Y0239161D03*
X0403715Y0237192D03*
X0403715Y0235224D03*
X0403715Y0233255D03*
X0403715Y0231287D03*
X0403715Y0229318D03*
X0403715Y0227350D03*
X0403715Y0225381D03*
X0403715Y0223413D03*
X0403715Y0221444D03*
X0403715Y0219476D03*
X0403715Y0217507D03*
X0368676Y0217507D03*
X0368676Y0219476D03*
X0368676Y0221444D03*
X0368676Y0223413D03*
X0368676Y0225381D03*
X0368676Y0227350D03*
X0368676Y0229318D03*
X0368676Y0231287D03*
X0368676Y0233255D03*
X0368676Y0235224D03*
X0368676Y0237192D03*
X0368676Y0239161D03*
D587*
X0360331Y0121803D02*
X0360331Y0119638D01*
X0358362Y0119638D02*
X0358362Y0121803D01*
X0356394Y0121803D02*
X0356394Y0119638D01*
X0354425Y0119638D02*
X0354425Y0121803D01*
X0352457Y0121803D02*
X0352457Y0119638D01*
X0350488Y0119638D02*
X0350488Y0121803D01*
X0348717Y0117866D02*
X0346551Y0117866D01*
X0346551Y0115898D02*
X0348717Y0115898D01*
X0348717Y0113929D02*
X0346551Y0113929D01*
X0346551Y0111961D02*
X0348717Y0111961D01*
X0348717Y0109992D02*
X0346551Y0109992D01*
X0346551Y0108024D02*
X0348717Y0108024D01*
X0350488Y0106252D02*
X0350488Y0104087D01*
X0352457Y0104087D02*
X0352457Y0106252D01*
X0354425Y0106252D02*
X0354425Y0104087D01*
X0356394Y0104087D02*
X0356394Y0106252D01*
X0358362Y0106252D02*
X0358362Y0104087D01*
X0360331Y0104087D02*
X0360331Y0106252D01*
X0362102Y0108024D02*
X0364268Y0108024D01*
X0364268Y0109992D02*
X0362102Y0109992D01*
X0362102Y0111961D02*
X0364268Y0111961D01*
X0364268Y0113929D02*
X0362102Y0113929D01*
X0362102Y0115898D02*
X0364268Y0115898D01*
X0364268Y0117866D02*
X0362102Y0117866D01*
D588*
X0355409Y0112945D03*
D589*
X0300729Y0105354D03*
X0300729Y0097874D03*
X0290493Y0097874D03*
X0290493Y0101614D03*
X0290493Y0105354D03*
D590*
X0271372Y0114179D03*
D591*
X0271372Y0112014D03*
X0271372Y0110046D03*
X0279050Y0110046D03*
X0279050Y0112014D03*
X0279050Y0113983D03*
D592*
X0277180Y0113969D02*
X0273243Y0113969D01*
X0273243Y0114006D02*
X0277180Y0114006D01*
X0277180Y0114044D02*
X0273243Y0114044D01*
X0273243Y0114082D02*
X0277180Y0114082D01*
X0277180Y0114120D02*
X0273243Y0114120D01*
X0273243Y0114158D02*
X0277180Y0114158D01*
X0277180Y0114196D02*
X0273243Y0114196D01*
X0273243Y0114234D02*
X0277180Y0114234D01*
X0277180Y0114272D02*
X0273243Y0114272D01*
X0273243Y0114309D02*
X0277180Y0114309D01*
X0277180Y0114347D02*
X0273243Y0114347D01*
X0273243Y0114385D02*
X0277180Y0114385D01*
X0277180Y0114423D02*
X0273243Y0114423D01*
X0273243Y0114461D02*
X0277180Y0114461D01*
X0277180Y0114499D02*
X0273243Y0114499D01*
X0273243Y0114537D02*
X0277180Y0114537D01*
X0277180Y0114575D02*
X0273243Y0114575D01*
X0273243Y0114613D02*
X0277180Y0114613D01*
X0277180Y0114650D02*
X0273243Y0114650D01*
X0273243Y0114688D02*
X0277180Y0114688D01*
X0277180Y0114726D02*
X0273243Y0114726D01*
X0273243Y0114764D02*
X0277180Y0114764D01*
X0277180Y0114802D02*
X0273243Y0114802D01*
X0273243Y0114840D02*
X0277180Y0114840D01*
X0277180Y0114878D02*
X0273243Y0114878D01*
X0273243Y0114916D02*
X0277180Y0114916D01*
X0277180Y0114953D02*
X0273243Y0114953D01*
X0273243Y0114991D02*
X0277180Y0114991D01*
X0277180Y0115029D02*
X0273243Y0115029D01*
X0273243Y0115067D02*
X0277180Y0115067D01*
X0277180Y0115105D02*
X0273243Y0115105D01*
X0273243Y0115143D02*
X0277180Y0115143D01*
X0277180Y0115164D02*
X0276983Y0115164D01*
X0276983Y0115557D01*
X0273439Y0115557D01*
X0273439Y0115164D01*
X0273243Y0115164D01*
X0273243Y0108865D01*
X0273439Y0108865D01*
X0273439Y0108471D01*
X0276983Y0108471D01*
X0276983Y0108865D01*
X0277180Y0108865D01*
X0277180Y0115164D01*
X0276983Y0115181D02*
X0273439Y0115181D01*
X0273439Y0115219D02*
X0276983Y0115219D01*
X0276983Y0115257D02*
X0273439Y0115257D01*
X0273439Y0115294D02*
X0276983Y0115294D01*
X0276983Y0115332D02*
X0273439Y0115332D01*
X0273439Y0115370D02*
X0276983Y0115370D01*
X0276983Y0115408D02*
X0273439Y0115408D01*
X0273439Y0115446D02*
X0276983Y0115446D01*
X0276983Y0115484D02*
X0273439Y0115484D01*
X0273439Y0115522D02*
X0276983Y0115522D01*
X0277180Y0113931D02*
X0273243Y0113931D01*
X0273243Y0113893D02*
X0277180Y0113893D01*
X0277180Y0113855D02*
X0273243Y0113855D01*
X0273243Y0113817D02*
X0277180Y0113817D01*
X0277180Y0113779D02*
X0273243Y0113779D01*
X0273243Y0113741D02*
X0277180Y0113741D01*
X0277180Y0113703D02*
X0273243Y0113703D01*
X0273243Y0113665D02*
X0277180Y0113665D01*
X0277180Y0113628D02*
X0273243Y0113628D01*
X0273243Y0113590D02*
X0277180Y0113590D01*
X0277180Y0113552D02*
X0273243Y0113552D01*
X0273243Y0113514D02*
X0277180Y0113514D01*
X0277180Y0113476D02*
X0273243Y0113476D01*
X0273243Y0113438D02*
X0277180Y0113438D01*
X0277180Y0113400D02*
X0273243Y0113400D01*
X0273243Y0113362D02*
X0277180Y0113362D01*
X0277180Y0113325D02*
X0273243Y0113325D01*
X0273243Y0113287D02*
X0277180Y0113287D01*
X0277180Y0113249D02*
X0273243Y0113249D01*
X0273243Y0113211D02*
X0277180Y0113211D01*
X0277180Y0113173D02*
X0273243Y0113173D01*
X0273243Y0113135D02*
X0277180Y0113135D01*
X0277180Y0113097D02*
X0273243Y0113097D01*
X0273243Y0113059D02*
X0277180Y0113059D01*
X0277180Y0113022D02*
X0273243Y0113022D01*
X0273243Y0112984D02*
X0277180Y0112984D01*
X0277180Y0112946D02*
X0273243Y0112946D01*
X0273243Y0112908D02*
X0277180Y0112908D01*
X0277180Y0112870D02*
X0273243Y0112870D01*
X0273243Y0112832D02*
X0277180Y0112832D01*
X0277180Y0112794D02*
X0273243Y0112794D01*
X0273243Y0112756D02*
X0277180Y0112756D01*
X0277180Y0112718D02*
X0273243Y0112718D01*
X0273243Y0112681D02*
X0277180Y0112681D01*
X0277180Y0112643D02*
X0273243Y0112643D01*
X0273243Y0112605D02*
X0277180Y0112605D01*
X0277180Y0112567D02*
X0273243Y0112567D01*
X0273243Y0112529D02*
X0277180Y0112529D01*
X0277180Y0112491D02*
X0273243Y0112491D01*
X0273243Y0112453D02*
X0277180Y0112453D01*
X0277180Y0112415D02*
X0273243Y0112415D01*
X0273243Y0112378D02*
X0277180Y0112378D01*
X0277180Y0112340D02*
X0273243Y0112340D01*
X0273243Y0112302D02*
X0277180Y0112302D01*
X0277180Y0112264D02*
X0273243Y0112264D01*
X0273243Y0112226D02*
X0277180Y0112226D01*
X0277180Y0112188D02*
X0273243Y0112188D01*
X0273243Y0112150D02*
X0277180Y0112150D01*
X0277180Y0112112D02*
X0273243Y0112112D01*
X0273243Y0112074D02*
X0277180Y0112074D01*
X0277180Y0112037D02*
X0273243Y0112037D01*
X0273243Y0111999D02*
X0277180Y0111999D01*
X0277180Y0111961D02*
X0273243Y0111961D01*
X0273243Y0111923D02*
X0277180Y0111923D01*
X0277180Y0111885D02*
X0273243Y0111885D01*
X0273243Y0111847D02*
X0277180Y0111847D01*
X0277180Y0111809D02*
X0273243Y0111809D01*
X0273243Y0111771D02*
X0277180Y0111771D01*
X0277180Y0111734D02*
X0273243Y0111734D01*
X0273243Y0111696D02*
X0277180Y0111696D01*
X0277180Y0111658D02*
X0273243Y0111658D01*
X0273243Y0111620D02*
X0277180Y0111620D01*
X0277180Y0111582D02*
X0273243Y0111582D01*
X0273243Y0111544D02*
X0277180Y0111544D01*
X0277180Y0111506D02*
X0273243Y0111506D01*
X0273243Y0111468D02*
X0277180Y0111468D01*
X0277180Y0111430D02*
X0273243Y0111430D01*
X0273243Y0111393D02*
X0277180Y0111393D01*
X0277180Y0111355D02*
X0273243Y0111355D01*
X0273243Y0111317D02*
X0277180Y0111317D01*
X0277180Y0111279D02*
X0273243Y0111279D01*
X0273243Y0111241D02*
X0277180Y0111241D01*
X0277180Y0111203D02*
X0273243Y0111203D01*
X0273243Y0111165D02*
X0277180Y0111165D01*
X0277180Y0111127D02*
X0273243Y0111127D01*
X0273243Y0111090D02*
X0277180Y0111090D01*
X0277180Y0111052D02*
X0273243Y0111052D01*
X0273243Y0111014D02*
X0277180Y0111014D01*
X0277180Y0110976D02*
X0273243Y0110976D01*
X0273243Y0110938D02*
X0277180Y0110938D01*
X0277180Y0110900D02*
X0273243Y0110900D01*
X0273243Y0110862D02*
X0277180Y0110862D01*
X0277180Y0110824D02*
X0273243Y0110824D01*
X0273243Y0110787D02*
X0277180Y0110787D01*
X0277180Y0110749D02*
X0273243Y0110749D01*
X0273243Y0110711D02*
X0277180Y0110711D01*
X0277180Y0110673D02*
X0273243Y0110673D01*
X0273243Y0110635D02*
X0277180Y0110635D01*
X0277180Y0110597D02*
X0273243Y0110597D01*
X0273243Y0110559D02*
X0277180Y0110559D01*
X0277180Y0110521D02*
X0273243Y0110521D01*
X0273243Y0110483D02*
X0277180Y0110483D01*
X0277180Y0110446D02*
X0273243Y0110446D01*
X0273243Y0110408D02*
X0277180Y0110408D01*
X0277180Y0110370D02*
X0273243Y0110370D01*
X0273243Y0110332D02*
X0277180Y0110332D01*
X0277180Y0110294D02*
X0273243Y0110294D01*
X0273243Y0110256D02*
X0277180Y0110256D01*
X0277180Y0110218D02*
X0273243Y0110218D01*
X0273243Y0110180D02*
X0277180Y0110180D01*
X0277180Y0110143D02*
X0273243Y0110143D01*
X0273243Y0110105D02*
X0277180Y0110105D01*
X0277180Y0110067D02*
X0273243Y0110067D01*
X0273243Y0110029D02*
X0277180Y0110029D01*
X0277180Y0109991D02*
X0273243Y0109991D01*
X0273243Y0109953D02*
X0277180Y0109953D01*
X0277180Y0109915D02*
X0273243Y0109915D01*
X0273243Y0109877D02*
X0277180Y0109877D01*
X0277180Y0109839D02*
X0273243Y0109839D01*
X0273243Y0109802D02*
X0277180Y0109802D01*
X0277180Y0109764D02*
X0273243Y0109764D01*
X0273243Y0109726D02*
X0277180Y0109726D01*
X0277180Y0109688D02*
X0273243Y0109688D01*
X0273243Y0109650D02*
X0277180Y0109650D01*
X0277180Y0109612D02*
X0273243Y0109612D01*
X0273243Y0109574D02*
X0277180Y0109574D01*
X0277180Y0109536D02*
X0273243Y0109536D01*
X0273243Y0109499D02*
X0277180Y0109499D01*
X0277180Y0109461D02*
X0273243Y0109461D01*
X0273243Y0109423D02*
X0277180Y0109423D01*
X0277180Y0109385D02*
X0273243Y0109385D01*
X0273243Y0109347D02*
X0277180Y0109347D01*
X0277180Y0109309D02*
X0273243Y0109309D01*
X0273243Y0109271D02*
X0277180Y0109271D01*
X0277180Y0109233D02*
X0273243Y0109233D01*
X0273243Y0109195D02*
X0277180Y0109195D01*
X0277180Y0109158D02*
X0273243Y0109158D01*
X0273243Y0109120D02*
X0277180Y0109120D01*
X0277180Y0109082D02*
X0273243Y0109082D01*
X0273243Y0109044D02*
X0277180Y0109044D01*
X0277180Y0109006D02*
X0273243Y0109006D01*
X0273243Y0108968D02*
X0277180Y0108968D01*
X0277180Y0108930D02*
X0273243Y0108930D01*
X0273243Y0108892D02*
X0277180Y0108892D01*
X0276983Y0108855D02*
X0273439Y0108855D01*
X0273439Y0108817D02*
X0276983Y0108817D01*
X0276983Y0108779D02*
X0273439Y0108779D01*
X0273439Y0108741D02*
X0276983Y0108741D01*
X0276983Y0108703D02*
X0273439Y0108703D01*
X0273439Y0108665D02*
X0276983Y0108665D01*
X0276983Y0108627D02*
X0273439Y0108627D01*
X0273439Y0108589D02*
X0276983Y0108589D01*
X0276983Y0108552D02*
X0273439Y0108552D01*
X0273439Y0108514D02*
X0276983Y0108514D01*
X0276983Y0108476D02*
X0273439Y0108476D01*
D593*
X0474131Y0138828D03*
X0474131Y0141387D03*
X0474131Y0143946D03*
X0474131Y0146505D03*
X0474131Y0149065D03*
X0474131Y0300246D03*
X0474131Y0302805D03*
X0474131Y0305364D03*
X0474131Y0307923D03*
X0474131Y0310482D03*
D594*
X0471950Y0314911D02*
X0476312Y0314911D01*
X0476312Y0295816D02*
X0471950Y0295816D01*
X0471950Y0153494D02*
X0476312Y0153494D01*
X0476312Y0134399D02*
X0471950Y0134399D01*
D595*
X0482580Y0129675D02*
X0486548Y0129675D01*
X0486548Y0158218D02*
X0482580Y0158218D01*
X0482580Y0291092D02*
X0486548Y0291092D01*
X0486548Y0319635D02*
X0482580Y0319635D01*
D596*
X0248200Y0337053D03*
X0127400Y0337053D03*
D597*
X0117361Y0347092D03*
X0137439Y0347092D03*
X0137439Y0327015D03*
X0117361Y0327015D03*
X0238161Y0327015D03*
X0258239Y0327015D03*
X0258239Y0347092D03*
X0238161Y0347092D03*
D598*
X0021579Y0285055D03*
X0021579Y0280724D03*
X0020791Y0276394D03*
X0021579Y0272063D03*
X0020791Y0267732D03*
X0021579Y0263402D03*
X0023154Y0259071D03*
X0021579Y0254740D03*
D599*
X0006421Y0236394D03*
X0010358Y0288165D03*
D600*
X0062130Y0281866D03*
X0062130Y0259425D03*
D601*
X0380285Y0187359D03*
X0380285Y0180469D03*
X0389537Y0180469D03*
X0389537Y0187359D03*
D602*
X0386867Y0158917D03*
X0396867Y0158917D03*
X0376867Y0158917D03*
X0340911Y0089314D03*
X0330911Y0089314D03*
X0267611Y0125814D03*
X0257611Y0125814D03*
X0254111Y0098514D03*
X0244111Y0098514D03*
X0355367Y0278417D03*
X0365367Y0278417D03*
X0415489Y0278417D03*
X0425489Y0278417D03*
D603*
X0447763Y0071793D02*
X0455637Y0071793D01*
X0463511Y0056832D02*
X0463511Y0048958D01*
X0439495Y0048958D02*
X0439495Y0056832D01*
D604*
X0359268Y0046553D03*
X0349268Y0046553D03*
X0339268Y0046553D03*
X0329268Y0046553D03*
X0319268Y0046553D03*
X0309268Y0046553D03*
X0299268Y0046553D03*
X0289268Y0046553D03*
X0279268Y0046553D03*
X0269268Y0046553D03*
X0259268Y0046553D03*
X0249268Y0046553D03*
X0239268Y0046553D03*
X0229268Y0046553D03*
X0219268Y0046553D03*
X0209268Y0046553D03*
X0199268Y0046553D03*
X0189268Y0046553D03*
X0179268Y0046553D03*
X0169268Y0046553D03*
X0159268Y0046553D03*
X0149268Y0046553D03*
X0139268Y0046553D03*
X0129268Y0046553D03*
X0119268Y0046553D03*
X0109268Y0046553D03*
X0099268Y0046553D03*
X0089268Y0046553D03*
X0079268Y0046553D03*
X0069268Y0046553D03*
X0069268Y0022042D03*
X0079268Y0022042D03*
X0089268Y0022042D03*
X0099268Y0022042D03*
X0109268Y0022042D03*
X0119268Y0022042D03*
X0129268Y0022042D03*
X0139268Y0022042D03*
X0149268Y0022042D03*
X0159268Y0022042D03*
X0169268Y0022042D03*
X0179268Y0022042D03*
X0189268Y0022042D03*
X0199268Y0022042D03*
X0209268Y0022042D03*
X0219268Y0022042D03*
X0229268Y0022042D03*
X0239268Y0022042D03*
X0249268Y0022042D03*
X0259268Y0022042D03*
X0269268Y0022042D03*
X0279268Y0022042D03*
X0289268Y0022042D03*
X0299268Y0022042D03*
X0309268Y0022042D03*
X0319268Y0022042D03*
X0329268Y0022042D03*
X0339268Y0022042D03*
X0349268Y0022042D03*
X0359268Y0022042D03*
D605*
X0354268Y0033904D03*
X0074268Y0033904D03*
D606*
X0148051Y0130361D03*
X0148051Y0140203D03*
X0148051Y0150046D03*
X0148051Y0159888D03*
D607*
X0300188Y0129133D03*
X0300188Y0127165D03*
X0300188Y0125196D03*
X0300188Y0123228D03*
X0311212Y0123228D03*
X0311212Y0123228D03*
X0311212Y0125196D03*
X0311212Y0127165D03*
X0311212Y0129133D03*
D608*
X0305700Y0126180D03*
D609*
X0317425Y0128061D03*
X0317425Y0131210D03*
D610*
X0036433Y0120518D03*
X0036433Y0057526D03*
D611*
X0036433Y0065400D03*
X0036433Y0073274D03*
X0036433Y0081148D03*
X0036433Y0128392D03*
X0036433Y0136266D03*
X0036433Y0144140D03*
D612*
X0079150Y0202408D03*
X0079150Y0212408D03*
X0079150Y0222408D03*
X0079150Y0232408D03*
X0079150Y0242408D03*
X0079150Y0252408D03*
X0104740Y0252408D03*
X0104740Y0242408D03*
X0104740Y0232408D03*
X0104740Y0222408D03*
X0104740Y0212408D03*
X0104740Y0202408D03*
X0270028Y0202408D03*
X0270028Y0212408D03*
X0270028Y0222408D03*
X0270028Y0232408D03*
X0270028Y0242408D03*
X0270028Y0252408D03*
X0295619Y0252408D03*
X0295619Y0242408D03*
X0295619Y0232408D03*
X0295619Y0222408D03*
X0295619Y0212408D03*
X0295619Y0202408D03*
X0295619Y0192408D03*
X0295619Y0182408D03*
X0295619Y0172408D03*
X0295619Y0162408D03*
X0295619Y0152408D03*
X0295619Y0142408D03*
X0270028Y0142408D03*
X0270028Y0152408D03*
X0270028Y0162408D03*
X0270028Y0172408D03*
X0270028Y0182408D03*
X0270028Y0192408D03*
D613*
X0187421Y0266187D03*
D614*
X0436506Y0196114D03*
X0448317Y0196114D03*
D615*
X0461311Y0150214D03*
X0465311Y0150214D03*
X0465411Y0139614D03*
X0461411Y0139614D03*
X0466511Y0297214D03*
X0466511Y0301214D03*
X0466511Y0307714D03*
X0466511Y0311714D03*
X0031280Y0178432D03*
X0031280Y0174432D03*
X0027199Y0194557D03*
X0027199Y0198557D03*
D616*
X0018717Y0018156D03*
X0018717Y0339022D03*
X0473441Y0339022D03*
X0473441Y0018156D03*
M02*
