%
M48
M72
T01C0.01181
T02C0.01200
T03C0.01378
T04C0.01969
T05C0.02362
T06C0.03150
T07C0.03346
T08C0.03740
T09C0.03937
T10C0.04000
T11C0.04331
T12C0.04724
T13C0.05000
T14C0.06102
T15C0.06299
T16C0.07000
T17C0.07087
T18C0.10236
T19C0.12598
T20C0.12795
%
T01
X351866Y109169
X355409Y109169
X355409Y112713
X351866Y112713
X351866Y116256
X355409Y116256
X358953Y116256
X358953Y112713
X358953Y109169
T02
X356411Y101182
X343411Y108582
X326811Y120382
X317511Y117982
X311500Y114976
X309500Y109376
X304111Y111482
X303811Y117782
X305711Y122682
X305811Y128982
X295911Y127482
X296300Y119476
X289411Y112682
X292111Y111182
X289411Y109282
X283611Y107682
X275211Y109682
X275111Y114282
X280811Y96882
X284211Y97582
X282011Y92482
X276411Y94882
X272411Y94882
X268811Y94882
X263111Y92282
X260911Y86682
X256200Y85176
X264600Y81676
X268311Y79482
X269711Y83682
X274511Y82682
X281511Y83682
X281811Y80082
X287700Y80576
X287811Y85382
X282511Y87982
X271511Y88782
X293100Y81076
X299400Y79676
X308200Y79476
X315200Y78776
X321900Y73976
X328911Y66082
X329300Y57476
X344100Y56676
X348400Y56476
X352000Y56376
X347011Y66182
X347111Y74182
X339911Y74482
X346511Y82382
X357411Y87782
X362811Y87782
X368211Y87782
X373911Y83182
X380811Y87482
X382311Y82382
X387111Y80682
X387611Y85282
X387911Y93082
X379611Y97982
X384311Y100482
X374211Y97982
X369411Y111782
X369611Y115582
X374111Y112682
X376111Y116482
X380611Y112782
X382011Y117382
X388011Y112482
X388911Y117182
X381300Y132076
X375100Y132276
X371511Y133082
X372359Y139134
X380911Y137382
X385811Y138382
X388211Y133682
X391811Y138682
X397702Y141873
X409411Y158582
X417511Y159382
X418111Y153182
X418811Y144882
X424211Y147482
X429711Y146682
X438011Y145082
X444211Y144482
X455311Y141982
X458111Y139882
X455711Y145482
X458211Y149282
X458011Y153582
X457311Y159382
X445911Y163882
X441211Y164182
X436911Y154582
X427511Y156882
X427511Y164782
X426811Y179082
X417911Y179182
X409511Y179582
X407211Y184282
X409411Y188282
X416611Y188582
X416511Y197382
X414311Y202582
X419611Y202882
X423611Y205882
X424011Y210182
X422811Y218582
X422811Y222782
X422811Y226982
X434611Y223882
X434711Y217882
X434811Y212482
X438811Y210282
X435211Y206682
X435311Y200582
X440911Y201282
X453111Y198982
X453011Y193182
X452411Y189482
X445711Y190382
X438111Y190782
X433911Y190782
X426711Y188482
X426311Y192782
X409011Y197082
X407911Y202982
X406811Y210782
X411511Y210282
X399711Y210782
X397600Y216776
X395000Y219276
X391000Y216976
X387200Y216376
X383211Y216182
X374211Y219282
X374211Y226982
X384711Y223482
X390311Y228782
X395011Y233082
X384611Y233582
X394711Y224182
X409611Y238982
X417911Y241282
X427711Y244682
X427911Y252182
X434411Y250482
X434111Y257982
X444311Y260882
X444411Y276182
X439211Y275482
X439611Y281882
X446011Y283382
X441411Y288282
X446011Y292682
X448511Y297882
X452511Y293282
X451311Y304282
X456311Y304182
X451311Y308982
X446411Y308982
X445911Y313882
X440811Y318382
X436711Y321782
X443911Y329382
X448598Y328931
X448311Y324682
X455100Y331476
X460100Y325976
X458823Y318019
X453511Y320482
X462461Y312732
X466100Y319376
X480411Y308382
X463411Y295982
X462911Y288782
X470011Y283982
X440411Y299982
X428311Y298582
X428511Y306882
X428111Y289682
X405911Y280782
X406211Y274282
X410511Y268282
X417111Y270682
X418700Y264476
X417111Y258582
X422411Y259382
X424811Y267082
X425011Y270982
X410111Y260082
X412411Y252982
X407711Y250882
X395211Y257582
X394211Y261582
X396111Y267582
X396211Y271682
X391111Y275582
X391311Y281482
X375900Y269976
X365000Y266976
X364000Y260076
X370611Y256982
X367011Y251582
X359411Y251082
X354100Y259176
X355600Y266976
X347511Y278482
X350511Y287182
X343511Y287582
X344411Y294682
X340611Y300282
X334711Y294282
X330511Y287282
X327111Y282082
X319111Y283182
X319011Y290082
X322011Y295482
X328311Y299682
X332211Y303982
X336211Y308514
X343411Y308714
X343774Y315128
X351011Y312782
X350711Y319682
X344011Y321182
X336011Y321682
X335837Y315277
X320200Y318876
X320300Y330876
X332000Y337076
X338411Y328982
X344111Y334682
X352611Y329082
X356411Y333182
X352911Y342082
X357811Y345482
X344385Y341067
X340200Y345676
X320200Y345076
X304800Y344476
X304700Y330876
X303200Y319576
X286300Y319576
X286500Y331076
X285900Y344376
X271500Y344476
X271400Y332076
X270200Y320476
X279400Y300476
X284100Y284176
X301311Y271782
X305011Y275882
X308311Y270582
X313111Y277682
X318211Y276182
X318911Y269182
X327111Y269382
X327411Y276082
X334900Y277276
X334700Y264976
X326811Y262582
X319011Y263482
X314611Y257982
X318012Y251791
X310393Y251791
X300311Y258682
X305311Y262282
X293611Y264082
X290900Y258576
X306111Y282682
X310711Y287882
X312911Y295382
X301800Y303176
X260800Y284976
X261000Y267776
X253111Y253682
X247511Y252182
X242900Y250176
X239100Y241876
X247400Y240276
X247500Y235776
X239400Y236076
X234400Y230776
X239500Y227476
X239800Y222376
X239400Y216476
X247500Y215176
X247800Y220776
X247600Y225976
X255000Y225676
X255800Y231976
X258200Y212176
X245300Y203876
X235700Y204676
X237300Y210576
X230124Y219302
X222100Y213376
X217500Y222476
X211600Y232376
X228300Y235676
X213600Y244676
X190600Y235876
X189000Y225376
X197800Y219676
X197600Y209376
X187800Y213276
X188800Y202476
X180200Y195876
X180300Y187576
X184800Y184476
X190700Y182976
X190200Y176276
X196800Y165276
X202700Y171476
X209455Y167906
X212500Y163876
X211000Y158176
X206100Y153376
X200400Y157276
X196200Y152476
X200600Y149076
X195900Y144276
X192100Y148576
X189100Y145376
X187000Y142076
X184600Y137776
X190200Y135376
X189400Y126276
X189300Y121776
X193200Y121876
X185300Y121876
X187500Y110176
X182000Y109476
X175700Y106876
X168400Y106176
X163600Y109876
X158500Y108576
X155200Y123176
X157600Y127576
X161200Y124376
X167100Y124476
X169300Y121676
X175700Y139176
X177300Y145276
X181800Y150676
X185900Y154676
X190900Y159676
X205124Y162788
X214573Y173417
X209300Y178376
X204200Y181176
X216800Y185876
X221800Y190976
X226384Y185228
X232290Y191134
X242300Y186476
X250200Y186576
X257200Y187076
X257200Y182176
X252500Y177376
X256000Y171776
X252200Y164276
X242800Y166776
X235000Y163976
X227700Y168376
X232400Y172976
X237700Y177276
X220479Y178929
X224100Y162376
X235000Y151976
X230600Y148676
X226300Y144576
X237700Y144976
X236600Y138976
X249400Y145776
X255300Y147476
X257900Y143276
X255800Y153776
X250100Y152576
X278511Y135282
X284911Y134382
X288811Y136082
X301900Y146776
X307300Y152176
X315711Y159782
X307200Y162176
X308200Y172176
X312900Y177476
X311400Y186576
X320300Y186476
X330500Y186576
X327000Y177676
X320300Y168776
X332611Y166182
X338911Y171482
X342911Y175582
X350211Y170082
X342111Y164982
X342711Y157582
X334711Y157782
X326911Y158182
X312211Y141182
X317411Y134082
X324411Y131382
X329811Y133082
X335511Y134182
X343711Y132082
X350811Y134882
X356011Y134782
X362411Y135682
X365711Y153082
X362311Y158082
X361511Y162482
X368511Y162782
X353911Y160382
X363000Y182176
X362800Y190576
X366600Y194176
X363400Y195976
X363800Y199776
X371111Y196582
X377611Y191782
X381411Y191382
X373911Y187382
X396211Y187982
X395811Y192182
X399011Y191982
X401711Y187782
X399611Y179982
X404011Y179582
X406011Y164682
X436711Y178582
X465211Y169582
X471800Y174876
X478500Y175276
X486100Y175076
X487311Y169482
X474011Y157882
X484300Y148676
X484700Y140976
X485000Y135776
X488511Y121982
X477811Y121982
X467611Y122082
X460311Y122682
X456500Y119676
X460111Y116282
X460111Y108382
X463311Y108382
X466411Y108482
X469511Y108382
X472811Y108282
X478911Y104682
X485211Y104582
X481011Y95082
X463811Y90382
X457011Y90482
X446111Y100082
X440611Y99682
X441700Y105276
X447900Y108576
X440811Y112682
X441211Y116882
X435611Y114882
X433111Y118382
X432511Y121782
X429611Y124182
X427511Y121082
X429511Y118182
X423511Y116082
X416811Y116382
X413911Y112682
X413311Y102882
X413111Y95582
X418911Y91482
X424811Y89082
X430711Y83482
X437011Y77882
X431611Y72982
X425211Y70182
X421411Y67182
X417911Y71682
X414111Y78382
X419011Y83082
X413311Y87882
X400711Y91082
X397011Y94282
X400811Y97882
X396511Y85482
X396411Y80782
X401111Y82982
X401611Y78882
X396111Y73882
X398611Y67282
X404111Y66882
X405611Y57982
X411611Y58982
X414111Y54782
X419411Y50682
X426011Y47082
X427411Y37582
X433911Y32782
X440911Y30982
X440411Y38782
X450511Y43282
X456611Y34082
X465311Y29482
X474511Y33382
X455443Y19482
X447211Y23582
X457400Y10476
X427700Y11676
X414000Y10076
X408600Y14876
X414011Y17782
X414411Y25982
X408811Y30482
X405211Y36382
X400111Y40882
X396611Y46082
X391011Y49282
X389211Y54082
X389911Y58782
X395911Y60682
X394011Y63682
X398111Y57082
X385411Y63282
X380511Y65982
X380011Y60982
X383111Y55582
X375311Y48782
X379711Y43482
X385411Y38682
X390411Y33482
X394111Y30482
X382811Y26882
X383111Y21882
X382811Y17382
X388300Y14876
X384100Y10976
X369111Y13382
X365111Y15782
X354300Y21376
X344200Y21576
X334200Y21276
X324300Y21276
X314300Y21076
X304200Y21276
X299300Y12876
X294200Y21376
X289300Y12876
X279300Y12276
X269300Y12376
X259500Y12476
X249600Y12476
X239200Y12376
X229500Y12576
X219500Y12676
X209400Y12576
X199300Y12476
X194400Y19676
X189500Y12576
X184300Y13276
X178400Y12376
X169300Y12476
X159300Y12676
X149300Y12876
X134600Y35176
X124700Y38476
X114200Y37176
X129500Y56076
X139300Y55476
X149500Y56576
X168000Y56376
X175843Y64341
X179200Y57376
X189300Y56676
X199300Y56576
X185500Y70176
X181800Y73576
X195094Y86428
X189189Y91546
X171700Y100176
X151400Y93276
X141900Y92876
X141800Y89676
X141700Y86076
X137900Y85976
X137900Y89276
X138200Y92776
X138111Y100182
X131700Y96676
X130800Y90076
X131700Y85076
X126900Y85876
X121911Y85582
X116011Y93482
X122511Y99982
X113911Y103282
X110411Y111482
X124011Y118482
X129600Y118776
X133400Y115576
X138800Y110076
X130211Y105682
X124611Y111382
X108600Y121676
X109200Y126376
X101500Y126376
X93000Y126476
X89200Y120176
X84600Y119176
X80000Y117776
X75000Y119376
X67600Y110276
X61100Y115076
X51011Y112782
X51011Y104682
X50911Y96882
X51011Y88482
X46000Y83876
X55811Y73482
X63411Y69782
X72311Y72482
X75811Y82282
X75311Y94482
X75611Y104082
X62411Y103082
X62011Y92382
X61311Y81982
X57900Y56276
X59200Y44876
X47200Y46676
X49800Y35676
X59100Y29576
X45400Y22076
X48500Y12676
X37200Y13776
X36800Y32276
X28200Y40076
X59900Y15676
X69300Y12676
X65100Y7876
X79300Y12276
X89300Y12376
X99300Y12376
X109300Y12576
X75300Y42176
X89600Y56676
X100000Y57076
X110200Y56876
X119900Y56576
X93600Y76576
X95111Y85382
X109511Y86582
X94011Y96782
X94211Y103782
X94200Y113276
X75700Y133576
X76400Y141676
X66000Y152376
X61300Y147776
X47500Y139576
X69100Y128476
X96000Y142676
X102000Y139576
X107900Y138776
X108400Y145376
X111800Y150876
X105100Y154176
X97500Y154376
X97400Y163976
X104100Y163676
X111600Y163976
X111100Y175276
X111400Y185276
X111000Y194576
X97400Y193076
X97400Y184576
X97500Y173876
X70500Y163476
X65600Y167576
X60400Y172376
X56011Y176282
X51500Y179276
X54833Y185310
X36200Y186776
X35700Y194076
X24900Y185876
X20000Y190376
X15700Y185576
X14900Y192576
X16700Y198476
X29899Y212125
X11999Y213925
X56600Y214176
X62811Y210382
X63600Y217576
X55600Y233776
X67000Y259176
X80900Y261476
X98500Y261276
X113600Y261676
X125600Y251976
X135700Y243676
X151600Y236776
X141500Y226276
X151600Y216676
X141200Y204276
X151500Y194276
X140200Y189176
X147400Y180376
X158100Y176576
X164500Y171176
X158400Y165276
X152111Y170182
X142000Y172176
X138800Y163676
X137100Y145976
X136300Y141776
X125800Y134176
X121200Y134376
X118000Y131976
X116500Y142476
X158600Y155476
X171300Y178076
X175500Y182276
X172200Y190276
X166300Y185176
X168700Y202376
X169600Y218976
X166800Y245176
X151600Y262576
X128000Y272676
X113700Y285176
X111900Y301776
X108500Y319476
X97100Y319476
X85900Y319476
X75200Y319476
X74000Y332676
X61100Y332676
X47800Y332676
X37100Y333476
X37400Y345276
X47800Y344976
X60800Y345176
X74800Y344976
X86700Y344676
X96600Y344976
X106900Y345476
X107800Y332076
X97200Y332076
X85500Y332076
X60300Y318776
X63300Y301776
X44300Y295376
X38400Y305576
X26800Y313176
X22400Y319076
X30000Y323876
X42900Y318776
X24100Y302376
X12700Y303676
X12900Y295176
X12500Y312776
X13300Y319876
X36800Y283076
X51000Y281676
X52900Y271676
X27600Y267476
X15000Y275776
X83000Y280276
X88300Y301776
X134000Y317876
X145700Y317876
X154200Y322476
X152600Y333076
X152500Y344576
X167600Y344576
X183200Y344676
X184500Y334376
X197300Y335276
X196600Y344576
X209000Y344576
X209500Y335076
X221400Y334876
X222100Y344576
X221900Y324176
X217200Y319976
X208700Y320476
X198200Y320476
X184600Y320976
X171200Y320976
X175000Y302476
X190200Y285176
X203900Y300876
X228300Y284676
X229100Y267076
X214400Y266376
X167000Y284176
X151100Y284676
X140300Y301476
X209400Y212076
X307800Y232176
X309800Y226276
X316900Y225876
X317500Y216776
X309500Y216676
X310000Y205276
X316900Y205076
X323800Y204976
X336600Y211976
X343100Y206476
X350811Y215582
X351411Y219782
X349911Y225182
X336900Y228176
X336011Y221882
X330500Y217876
X327911Y235082
X319911Y237682
X314200Y235476
X325700Y244476
X333311Y243782
X337400Y240976
X336211Y235082
X347711Y241182
X354511Y239382
X363011Y237882
X367711Y243682
X349611Y251282
X334300Y254976
X326311Y254782
X350811Y306082
X375400Y313176
X386200Y325276
X381211Y329382
X384711Y334982
X389211Y343882
X395511Y343882
X394811Y335482
X397200Y325276
X423211Y335582
X427911Y331882
X433711Y339782
X440536Y334550
X446400Y338776
X450000Y347076
X455411Y341282
X428211Y346082
X450311Y245382
X434011Y241482
X428711Y238082
X435000Y232176
X444111Y226382
X453311Y228982
X461311Y216582
X455911Y211782
X468011Y200482
X469211Y205082
X478700Y210376
X473811Y216582
X467411Y190682
X467111Y185582
X457811Y129882
X447911Y128382
X441011Y123182
X456811Y108482
X442511Y83182
X458611Y79182
X468511Y73282
X473411Y79482
X481411Y73182
X487811Y79182
X403311Y13482
X366611Y26382
X365911Y41582
X365111Y50282
X367011Y54982
X365111Y65982
X373011Y65882
X374011Y73482
X380811Y73682
X386711Y73482
X365911Y73682
X357211Y74182
X357511Y66082
X320411Y94382
X317600Y90376
X314711Y94382
X308700Y92776
X299311Y93382
X295311Y101282
X298011Y66082
X291011Y65982
X284111Y65982
X274211Y65982
X260311Y65982
X252011Y66082
X250911Y72882
X244411Y72782
X245211Y77182
X244611Y82382
X241100Y83076
X236100Y82776
X232600Y82776
X232700Y86476
X232700Y89776
X232600Y92976
X236100Y92876
X236200Y89576
X236300Y86276
X239611Y76382
X223700Y92076
X211100Y103976
X216100Y107376
X216800Y109976
X219700Y110276
X219200Y107576
X213900Y109676
X208400Y108276
X201700Y110176
X204200Y103976
X193400Y110176
X215300Y124676
X217500Y126976
X221000Y127076
X220100Y123976
X223800Y123676
X225600Y121276
X228300Y120576
X227200Y123676
X227400Y126576
X224400Y126976
X234200Y108976
X308311Y66282
X304200Y56676
X313800Y56676
X299300Y37076
X289300Y37276
X279200Y35976
X269300Y36576
X261200Y37176
X249300Y37176
X234300Y46276
X224300Y44376
X184100Y20876
X159500Y36076
X43400Y159076
X34200Y166276
X25000Y169076
X22600Y164576
X13300Y165576
T03
X30700Y198276
X173200Y103876
X178400Y109376
X313400Y65776
X309100Y31776
X340111Y117682
X342511Y119982
X343011Y123082
X345911Y120182
X343611Y116982
T04
X484564Y129443
X484564Y157986
X484564Y290860
X484564Y319403
T05
X474131Y314679
X474131Y295584
X474131Y153262
X474131Y134167
T06
X36433Y136034
X36433Y128160
X36433Y120286
X36433Y143908
X36433Y80916
X36433Y73042
X36433Y65168
X36433Y57294
T07
X367300Y304420
X377300Y304420
X387300Y304420
X397300Y304420
X407300Y304420
X402300Y294420
X392300Y294420
X382300Y294420
X372300Y294420
X412300Y294420
T08
X414702Y345443
X404702Y345443
X374898Y345443
X364898Y345443
T09
X463411Y275886
X473254Y275886
X483096Y275886
X483096Y263288
X473254Y263288
X463411Y263288
X463926Y244236
X473769Y244236
X483611Y244236
X483611Y231637
X473769Y231637
X463926Y231637
X451700Y71561
X463511Y52663
X439495Y52663
T10
X340911Y89082
X330911Y89082
X267611Y125582
X257611Y125582
X254111Y98282
X244111Y98282
X376867Y158685
X386867Y158685
X396867Y158685
X415489Y278185
X425489Y278185
X365367Y278185
X355367Y278185
T11
X226866Y106664
T12
X354268Y33672
X74268Y33672
T13
X127400Y336821
X248200Y336821
T14
X148126Y106664
T15
X359288Y317373
X420312Y317373
T16
X258239Y326782
X238161Y326782
X238161Y346860
X258239Y346860
X137439Y346860
X117361Y346860
X117361Y326782
X137439Y326782
T17
X91945Y247176
X91945Y207176
X282824Y247176
X282824Y147176
T18
X187421Y265955
T19
X18717Y17924
X18717Y338790
X473441Y338790
X473441Y17924
T20
X412300Y329380
X367300Y329380
M30
