%
M48
M72
T01C0.01181
T02C0.01200
T03C0.01378
T04C0.01969
T05C0.02362
T06C0.03150
T07C0.03346
T08C0.03740
T09C0.03937
T10C0.04000
T11C0.04331
T12C0.04724
T13C0.05000
T14C0.06102
T15C0.06299
T16C0.07000
T17C0.07087
T18C0.10236
T19C0.12598
T20C0.12795
%
T01
X351866Y109402
X351866Y112945
X351866Y116488
X355409Y116488
X355409Y112945
X355409Y109402
X358953Y109402
X358953Y112945
X358953Y116488
T02
X369611Y115814
X369411Y112014
X374111Y112914
X376111Y116714
X380611Y113014
X382011Y117614
X388011Y112714
X388911Y117414
X381300Y132308
X375100Y132508
X371511Y133314
X372359Y139366
X380911Y137614
X385811Y138614
X388211Y133914
X391811Y138914
X397702Y142105
X409411Y158814
X417511Y159614
X418111Y153414
X418811Y145114
X424211Y147714
X429711Y146914
X438011Y145314
X444211Y144714
X455311Y142214
X458111Y140114
X455711Y145714
X458211Y149514
X458011Y153814
X457311Y159614
X445911Y164114
X434411Y164914
X427511Y165014
X427511Y157114
X436911Y154814
X436711Y178814
X426811Y179314
X417911Y179414
X409511Y179814
X404011Y179814
X399611Y180214
X401711Y188014
X399011Y192214
X395811Y192414
X396211Y188214
X407211Y184514
X409411Y188514
X416611Y188814
X416511Y197614
X414311Y202814
X419611Y203114
X423611Y206114
X424011Y210414
X422811Y218814
X422811Y223014
X422811Y227214
X434611Y224114
X434711Y218114
X434811Y212714
X438811Y210514
X435211Y206914
X435311Y200814
X440911Y201514
X453111Y199214
X453011Y193414
X452411Y189714
X445711Y190614
X438111Y191014
X433911Y191014
X426711Y188714
X426311Y193014
X409011Y197314
X407911Y203214
X406811Y211014
X411511Y210514
X399711Y211014
X397600Y217008
X395000Y219508
X391000Y217208
X387200Y216608
X383211Y216414
X374211Y219514
X374211Y227214
X384711Y223714
X390311Y229014
X395011Y233314
X384611Y233814
X394711Y224414
X409611Y239214
X417911Y241514
X427711Y244914
X427911Y252414
X434411Y250714
X434111Y258214
X444311Y261114
X444411Y276414
X439211Y275714
X439611Y282114
X446011Y283614
X441411Y288514
X446011Y292914
X448511Y298114
X452511Y293514
X451311Y304514
X456311Y304414
X451311Y309214
X446411Y309214
X445911Y314114
X440811Y318614
X436711Y322914
X428411Y326014
X440536Y334782
X443911Y329614
X448598Y329163
X448311Y324914
X455100Y331708
X460100Y326208
X458823Y318251
X453511Y320714
X462461Y312964
X466100Y319608
X480411Y308614
X463411Y296214
X462911Y289014
X470011Y284214
X440411Y300214
X428311Y298814
X428511Y307114
X428111Y289914
X405911Y281014
X406211Y274514
X410511Y268514
X417111Y270914
X418700Y264708
X424811Y267314
X425011Y271214
X422411Y259614
X417111Y258814
X410111Y260314
X412411Y253214
X407711Y251114
X395211Y257814
X394211Y261814
X396111Y267814
X396211Y271914
X391111Y275814
X391311Y281714
X375900Y270208
X365000Y267208
X364000Y260308
X370611Y257214
X367011Y251814
X359411Y251314
X354100Y259408
X355600Y267208
X347511Y278714
X350511Y287414
X343511Y287814
X344411Y294914
X340611Y300514
X334711Y294514
X330511Y287514
X327111Y282314
X319111Y283414
X319011Y290314
X322011Y295714
X328311Y299914
X332211Y304214
X336211Y308746
X343411Y308946
X343774Y315361
X351011Y313014
X350711Y319914
X344011Y321414
X336011Y321914
X335837Y315509
X320200Y319108
X320300Y331108
X332000Y337308
X338411Y329214
X344111Y334914
X352611Y329314
X356411Y333414
X352911Y342314
X357811Y345714
X344385Y341299
X340200Y345908
X320200Y345308
X304800Y344708
X304700Y331108
X303200Y319808
X286300Y319808
X286500Y331308
X285900Y344608
X271500Y344708
X271400Y332308
X270200Y320708
X279400Y300708
X284100Y284408
X301311Y272014
X305011Y276114
X308311Y270814
X313111Y277914
X318211Y276414
X318911Y269414
X327111Y269614
X327411Y276314
X334900Y277508
X334700Y265208
X326811Y262814
X319011Y263714
X314611Y258214
X318012Y252023
X310393Y252023
X300311Y258914
X305311Y262514
X293611Y264314
X290900Y258808
X306111Y282914
X310711Y288114
X312911Y295614
X301800Y303408
X260800Y285208
X261000Y268008
X253111Y253914
X247511Y252414
X242900Y250408
X239100Y242108
X247400Y240508
X247500Y236008
X239400Y236308
X234400Y231008
X239500Y227708
X239800Y222608
X239400Y216708
X247500Y215408
X247800Y221008
X247600Y226208
X255000Y225908
X255800Y232208
X258200Y212408
X245300Y204108
X235700Y204908
X237300Y210808
X230124Y219534
X222100Y213608
X217500Y222708
X211600Y232608
X228300Y235908
X213600Y244908
X190600Y236108
X189000Y225608
X197800Y219908
X197600Y209608
X187800Y213508
X188800Y202708
X180200Y196108
X180300Y187808
X184800Y184708
X190700Y183208
X190200Y176508
X202700Y171708
X196800Y165508
X190900Y159908
X185900Y154908
X181800Y150908
X177300Y145508
X175700Y139408
X184600Y138008
X187000Y142308
X189100Y145608
X192100Y148808
X196200Y152708
X200600Y149308
X195900Y144508
X206100Y153608
X211000Y158408
X212500Y164108
X209455Y168138
X205124Y163020
X200400Y157508
X214573Y173650
X209300Y178608
X204200Y181408
X216800Y186108
X221800Y191208
X226384Y185461
X232290Y191366
X242300Y186708
X250200Y186808
X257200Y187308
X257200Y182408
X252500Y177608
X256000Y172008
X252200Y164508
X242800Y167008
X235000Y164208
X227700Y168608
X232400Y173208
X237700Y177508
X220479Y179161
X224100Y162608
X235000Y152208
X230600Y148908
X226300Y144808
X237700Y145208
X236600Y139208
X249400Y146008
X255300Y147708
X257900Y143508
X255800Y154008
X250100Y152808
X278511Y135514
X284911Y134614
X288811Y136314
X295911Y127714
X296300Y119708
X289411Y112914
X292111Y111414
X289411Y109514
X283611Y107914
X275211Y109914
X275111Y114514
X280811Y97114
X284211Y97814
X282011Y92714
X276411Y95114
X272411Y95114
X268811Y95114
X263111Y92514
X260911Y86914
X256200Y85408
X264600Y81908
X268311Y79714
X269711Y83914
X274511Y82914
X281511Y83914
X281811Y80314
X287700Y80808
X287811Y85614
X282511Y88214
X271511Y89014
X293100Y81308
X299400Y79908
X308200Y79708
X315200Y79008
X321900Y74208
X328911Y66314
X329300Y57708
X344100Y56908
X348400Y56708
X352000Y56608
X347011Y66414
X347111Y74414
X339911Y74714
X346511Y82614
X357411Y88014
X362811Y88014
X368211Y88014
X373911Y83414
X380811Y87714
X382311Y82614
X387111Y80914
X387611Y85514
X387911Y93314
X379611Y98214
X384311Y100714
X374211Y98214
X356411Y101414
X343411Y108814
X326811Y120614
X317511Y118214
X311500Y115208
X309500Y109608
X304111Y111714
X303811Y118014
X305711Y122914
X305811Y129214
X317411Y134314
X324411Y131614
X329811Y133314
X335511Y134414
X343711Y132314
X350811Y135114
X356011Y135014
X362411Y135914
X365711Y153314
X362311Y158314
X361511Y162714
X368511Y163014
X353911Y160614
X350211Y170314
X342911Y175814
X338911Y171714
X342111Y165214
X342711Y157814
X334711Y158014
X326911Y158414
X332611Y166414
X320300Y169008
X327000Y177908
X330500Y186808
X320300Y186708
X311400Y186808
X312900Y177708
X308200Y172408
X307200Y162408
X315711Y160014
X307300Y152408
X301900Y147008
X312211Y141414
X295311Y101514
X299311Y93614
X308700Y93008
X314711Y94614
X317600Y90608
X320411Y94614
X308311Y66514
X298011Y66314
X291011Y66214
X284111Y66214
X274211Y66214
X260311Y66214
X252011Y66314
X250911Y73114
X244411Y73014
X245211Y77414
X244611Y82614
X241100Y83308
X236100Y83008
X232600Y83008
X232700Y86708
X232700Y90008
X232600Y93208
X236100Y93108
X236200Y89808
X236300Y86508
X239611Y76614
X223700Y92308
X211100Y104208
X216100Y107608
X216800Y110208
X219700Y110508
X219200Y107808
X213900Y109908
X208400Y108508
X201700Y110408
X204200Y104208
X193400Y110408
X187500Y110408
X182000Y109708
X175700Y107108
X171700Y100408
X168400Y106408
X163600Y110108
X158500Y108808
X155200Y123408
X157600Y127808
X161200Y124608
X167100Y124708
X169300Y121908
X185300Y122108
X189300Y122008
X193200Y122108
X189400Y126508
X190200Y135608
X215300Y124908
X217500Y127208
X221000Y127308
X220100Y124208
X223800Y123908
X225600Y121508
X228300Y120808
X227200Y123908
X227400Y126808
X224400Y127208
X234200Y109208
X195094Y86660
X189189Y91778
X181800Y73808
X185500Y70408
X175843Y64573
X179200Y57608
X168000Y56608
X149500Y56808
X139300Y55708
X129500Y56308
X119900Y56808
X110200Y57108
X100000Y57308
X89600Y56908
X72311Y72714
X63411Y70014
X55811Y73714
X61311Y82214
X51011Y88714
X46000Y84108
X62011Y92614
X62411Y103314
X67600Y110508
X61100Y115308
X51011Y113014
X51011Y104914
X50911Y97114
X75311Y94714
X75611Y104314
X80000Y118008
X84600Y119408
X89200Y120408
X93000Y126708
X101500Y126608
X109200Y126608
X108600Y121908
X118000Y132208
X121200Y134608
X125800Y134408
X116500Y142708
X108400Y145608
X111800Y151108
X105100Y154408
X97500Y154608
X97400Y164208
X104100Y163908
X111600Y164208
X111100Y175508
X111400Y185508
X111000Y194808
X97400Y193308
X97400Y184808
X97500Y174108
X70500Y163708
X65600Y167808
X60400Y172608
X56011Y176514
X51500Y179508
X54833Y185542
X36200Y187008
X35700Y194308
X24900Y186108
X20000Y190608
X15700Y185808
X14900Y192808
X16700Y198708
X29899Y212357
X11999Y214157
X56600Y214408
X62811Y210614
X63600Y217808
X55600Y234008
X67000Y259408
X80900Y261708
X98500Y261508
X113600Y261908
X125600Y252208
X135700Y243908
X151600Y237008
X141500Y226508
X151600Y216908
X141200Y204508
X151500Y194508
X140200Y189408
X147400Y180608
X158100Y176808
X164500Y171408
X158400Y165508
X152111Y170414
X142000Y172408
X138800Y163908
X137100Y146208
X136300Y142008
X158600Y155708
X171300Y178308
X175500Y182508
X172200Y190508
X166300Y185408
X168700Y202608
X169600Y219208
X166800Y245408
X151600Y262808
X128000Y272908
X113700Y285408
X111900Y302008
X108500Y319708
X97100Y319708
X85900Y319708
X75200Y319708
X60300Y319008
X61100Y332908
X74000Y332908
X85500Y332308
X97200Y332308
X107800Y332308
X106900Y345708
X96600Y345208
X86700Y344908
X74800Y345208
X60800Y345408
X47800Y345208
X37400Y345508
X37100Y333708
X47800Y332908
X30000Y324108
X22400Y319308
X26800Y313408
X38400Y305808
X44300Y295608
X36800Y283308
X51000Y281908
X52900Y271908
X27600Y267708
X15000Y276008
X12900Y295408
X12700Y303908
X24100Y302608
X12500Y313008
X13300Y320108
X42900Y319008
X63300Y302008
X88300Y302008
X83000Y280508
X134000Y318108
X145700Y318108
X154200Y322708
X152600Y333308
X152500Y344808
X167600Y344808
X183200Y344908
X184500Y334608
X197300Y335508
X196600Y344808
X209000Y344808
X209500Y335308
X221400Y335108
X222100Y344808
X221900Y324408
X217200Y320208
X208700Y320708
X198200Y320708
X184600Y321208
X171200Y321208
X175000Y302708
X190200Y285408
X203900Y301108
X228300Y284908
X229100Y267308
X214400Y266608
X167000Y284408
X151100Y284908
X140300Y301708
X209400Y212308
X307800Y232408
X309800Y226508
X316900Y226108
X317500Y217008
X309500Y216908
X310000Y205508
X316900Y205308
X323800Y205208
X336600Y212208
X343100Y206708
X350811Y215814
X351411Y220014
X349911Y225414
X336900Y228408
X336011Y222114
X330500Y218108
X327911Y235314
X319911Y237914
X314200Y235708
X325700Y244708
X333311Y244014
X337400Y241208
X336211Y235314
X347711Y241414
X354511Y239614
X363011Y238114
X367711Y243914
X349611Y251514
X334300Y255208
X326311Y255014
X350811Y306314
X375400Y313408
X386200Y325508
X381211Y329614
X384711Y335214
X389211Y344114
X395511Y344114
X394811Y335714
X397200Y325508
X428211Y346314
X433711Y340014
X446400Y339008
X450000Y347308
X455411Y341514
X450311Y245614
X434011Y241714
X428711Y238314
X435000Y232408
X444111Y226614
X453311Y229214
X461311Y216814
X455911Y212014
X468011Y200714
X469211Y205314
X478700Y210608
X473811Y216814
X467411Y190914
X467111Y185814
X471800Y175108
X465211Y169814
X478500Y175508
X486100Y175308
X487311Y169714
X474011Y158114
X484300Y148908
X484700Y141208
X485000Y136008
X488511Y122214
X477811Y122214
X467611Y122314
X460311Y122914
X456500Y119908
X460111Y116514
X460111Y108614
X463311Y108614
X466411Y108714
X469511Y108614
X472811Y108514
X478911Y104914
X485211Y104814
X481011Y95314
X463811Y90614
X457011Y90714
X458611Y79414
X468511Y73514
X473411Y79714
X481411Y73414
X487811Y79414
X456811Y108714
X447900Y108808
X441700Y105508
X446111Y100314
X440611Y99914
X424811Y89314
X418911Y91714
X413311Y88114
X419011Y83314
X414111Y78614
X417911Y71914
X421411Y67414
X425211Y70414
X431611Y73214
X437011Y78114
X442511Y83414
X430711Y83714
X413111Y95814
X413311Y103114
X400811Y98114
X397011Y94514
X400711Y91314
X396511Y85714
X396411Y81014
X401111Y83214
X401611Y79114
X396111Y74114
X398611Y67514
X404111Y67114
X405611Y58214
X411611Y59214
X414111Y55014
X419411Y50914
X426011Y47314
X427411Y37814
X433911Y33014
X440911Y31214
X440411Y39014
X450511Y43514
X456611Y34314
X465311Y29714
X474511Y33614
X455443Y19714
X447211Y23814
X457400Y10708
X427700Y11908
X414000Y10308
X408600Y15108
X414011Y18014
X414411Y26214
X408811Y30714
X405211Y36614
X400111Y41114
X396611Y46314
X391011Y49514
X389211Y54314
X389911Y59014
X395911Y60914
X394011Y63914
X398111Y57314
X385411Y63514
X380511Y66214
X380011Y61214
X383111Y55814
X375311Y49014
X379711Y43714
X385411Y38914
X390411Y33714
X394111Y30714
X382811Y27114
X383111Y22114
X382811Y17614
X388300Y15108
X384100Y11208
X369111Y13614
X365111Y16014
X354300Y21608
X344200Y21808
X334200Y21508
X324300Y21508
X314300Y21308
X304200Y21508
X294200Y21608
X299300Y37308
X289300Y37508
X279200Y36208
X269300Y36808
X261200Y37408
X249300Y37408
X234300Y46508
X224300Y44608
X199300Y56808
X189300Y56908
X184100Y21108
X184300Y13508
X194400Y19908
X134600Y35408
X124700Y38708
X114200Y37408
X65100Y8108
X59900Y15908
X48500Y12908
X45400Y22308
X37200Y14008
X59100Y29808
X49800Y35908
X36800Y32508
X28200Y40308
X48500Y56908
X57900Y56508
X59200Y45108
X93600Y76808
X95111Y85614
X109511Y86814
X116011Y93714
X122511Y100214
X113911Y103514
X110411Y111714
X124011Y118714
X129600Y119008
X133400Y115808
X138800Y110308
X130211Y105914
X124611Y111614
X138111Y100414
X131700Y96908
X138200Y93008
X137900Y89508
X137900Y86208
X141700Y86308
X141800Y89908
X141900Y93108
X151400Y93508
X130800Y90308
X131700Y85308
X126900Y86108
X121911Y85814
X94011Y97014
X94211Y104014
X94200Y113508
X75000Y119608
X69100Y128708
X75700Y133808
X76400Y141908
X66000Y152608
X61300Y148008
X47500Y139808
X43400Y159308
X34200Y166508
X25000Y169308
X22600Y164808
X13300Y165808
X96000Y142908
X102000Y139808
X107900Y139008
X75811Y82514
X304200Y56908
X313800Y56908
X357511Y66314
X365111Y66214
X373011Y66114
X374011Y73714
X380811Y73914
X386711Y73714
X365911Y73914
X357211Y74414
X367011Y55214
X365111Y50514
X365911Y41814
X366611Y26614
X403311Y13714
X413911Y112914
X416811Y116614
X423511Y116314
X429511Y118414
X427511Y121314
X429611Y124414
X432511Y122014
X433111Y118614
X435611Y115114
X440811Y112914
X441211Y117114
X441011Y123414
X447911Y128614
X457811Y130114
X406011Y164914
X381411Y191614
X377611Y192014
X373911Y187614
X366600Y194408
X363400Y196208
X363800Y200008
X371111Y196814
X362800Y190808
X363000Y182408
T03
X343011Y123314
X342511Y120214
X343611Y117214
X340111Y117914
X345911Y120414
X313400Y66008
X309100Y32008
X178400Y109608
X173200Y104108
X30700Y198508
T04
X484564Y158218
X484564Y129675
X484564Y291092
X484564Y319635
T05
X474131Y314911
X474131Y295816
X474131Y153494
X474131Y134399
T06
X36433Y136266
X36433Y128392
X36433Y120518
X36433Y144140
X36433Y81148
X36433Y73274
X36433Y65400
X36433Y57526
T07
X367300Y304652
X377300Y304652
X387300Y304652
X397300Y304652
X407300Y304652
X402300Y294652
X392300Y294652
X382300Y294652
X372300Y294652
X412300Y294652
T08
X414702Y345676
X404702Y345676
X374898Y345676
X364898Y345676
T09
X463411Y276118
X473254Y276118
X483096Y276118
X483096Y263520
X473254Y263520
X463411Y263520
X463926Y244468
X473769Y244468
X483611Y244468
X483611Y231869
X473769Y231869
X463926Y231869
X451700Y71793
X463511Y52895
X439495Y52895
T10
X340911Y89314
X330911Y89314
X267611Y125814
X257611Y125814
X254111Y98514
X244111Y98514
X376867Y158917
X386867Y158917
X396867Y158917
X415489Y278417
X425489Y278417
X365367Y278417
X355367Y278417
T11
X226866Y106896
T12
X354268Y33904
X74268Y33904
T13
X127400Y337053
X248200Y337053
T14
X148126Y106896
T15
X359288Y317605
X420312Y317605
T16
X258239Y327015
X238161Y327015
X238161Y347092
X258239Y347092
X137439Y347092
X117361Y347092
X117361Y327015
X137439Y327015
T17
X91945Y247408
X91945Y207408
X282824Y247408
X282824Y147408
T18
X187421Y266187
T19
X18717Y18156
X18717Y339022
X473441Y339022
X473441Y18156
T20
X412300Y329613
X367300Y329613
M30
